<?xml version="1.0" encoding="utf-8"?>
<!-- Generator: Adobe Illustrator 16.0.0, SVG Export Plug-In . SVG Version: 6.00 Build 0)  -->
<!DOCTYPE svg PUBLIC "-//W3C//DTD SVG 1.1//EN" "http://www.w3.org/Graphics/SVG/1.1/DTD/svg11.dtd">
<svg version="1.1" id="Layer_1" xmlns="http://www.w3.org/2000/svg" xmlns:xlink="http://www.w3.org/1999/xlink" x="0px" y="0px"
	 width="171.154px" height="62.864px" viewBox="0 0 171.154 62.864" enable-background="new 0 0 171.154 62.864"
	 xml:space="preserve">
<g id="LB_Pressed">
	<path fill="#F2F2F2" d="M134.221,0.76C91.974-4.862,38.282,22.221,20.001,32.135c-0.273,0.164-0.557,0.313-0.828,0.464
		c-0.083,0.054-0.156,0.11-0.25,0.164c-0.183,0.083-0.351,0.192-0.532,0.303c-0.084,0.065-0.185,0.117-0.29,0.168
		c-0.143,0.101-0.297,0.202-0.452,0.298c-0.084,0.045-0.184,0.112-0.288,0.182c-0.131,0.099-0.273,0.188-0.419,0.268
		c-0.082,0.068-0.17,0.137-0.27,0.206c-0.134,0.087-0.259,0.171-0.396,0.271c-0.091,0.067-0.163,0.137-0.251,0.189
		c-0.137,0.087-0.257,0.188-0.377,0.29c-0.088,0.062-0.173,0.106-0.244,0.172c-0.119,0.103-0.25,0.207-0.362,0.287
		c-0.066,0.06-0.146,0.125-0.226,0.19c-0.116,0.105-0.225,0.185-0.349,0.289c-0.071,0.063-0.134,0.127-0.192,0.189
		c-0.118,0.081-0.24,0.189-0.341,0.299c-0.057,0.061-0.121,0.109-0.187,0.154c-0.12,0.111-0.214,0.227-0.326,0.324
		c-0.057,0.043-0.113,0.099-0.167,0.156c-0.095,0.119-0.209,0.221-0.322,0.328c-0.045,0.051-0.087,0.104-0.125,0.155
		c-0.113,0.106-0.228,0.222-0.325,0.349c-0.031,0.045-0.068,0.088-0.107,0.121c-0.118,0.121-0.225,0.254-0.314,0.369
		c-0.032,0.029-0.064,0.066-0.096,0.104c-0.117,0.145-0.219,0.267-0.314,0.404c-0.022,0.028-0.045,0.057-0.068,0.086
		c-0.119,0.139-0.216,0.285-0.321,0.442c-0.012,0.017-0.022,0.03-0.035,0.042c-0.124,0.152-0.228,0.328-0.333,0.473
		c0.024-0.01,97.688-41.96,121.983-34.378c15.54,4.869,27.224,15.331,32.802,18.224l3.424-6.342
		C156.689,13.781,142.069,1.797,134.221,0.76z"/>
	<g>
		<path fill="#E5E5E5" d="M166.167,23.969c0.156,0.063,0.307,0.123,0.464,0.188C166.472,24.092,166.323,24.03,166.167,23.969z"/>
		<path fill="#E5E5E5" d="M165.693,23.72c-5.579-2.882-17.262-13.358-32.815-18.23C108.67-2.066,11.571,39.581,10.901,39.864
			C5.931,47.299,8.69,55.195,0.06,62.831C0.044,62.842,0.018,62.854,0,62.864c33.159-17.875,99.165-38.11,118.749-34.331
			c9.123,1.756,19.905,12.083,31.08,24.76l15.852-29.583C165.685,23.715,165.688,23.718,165.693,23.72z"/>
		<path fill="#FFFFFF" d="M165.693,23.72c0.172,0.088,0.313,0.173,0.473,0.249C166.005,23.892,165.865,23.808,165.693,23.72z"/>
	</g>
	<path fill="#FFFFFF" d="M150.555,54.101c0.233,0.296,0.466,0.565,0.725,0.835l16.384-30.538l3.49-6.531
		c-0.344-0.066-0.688-0.131-1.038-0.226c-0.335-0.092-0.673-0.19-1.013-0.271l-3.423,6.342l-15.852,29.583
		C150.064,53.563,150.296,53.831,150.555,54.101L150.555,54.101"/>
</g>
</svg>
