<?xml version="1.0" encoding="utf-8"?>
<!-- Generator: Adobe Illustrator 16.0.0, SVG Export Plug-In . SVG Version: 6.00 Build 0)  -->
<!DOCTYPE svg PUBLIC "-//W3C//DTD SVG 1.1//EN" "http://www.w3.org/Graphics/SVG/1.1/DTD/svg11.dtd">
<svg version="1.1" id="Layer_1" xmlns="http://www.w3.org/2000/svg" xmlns:xlink="http://www.w3.org/1999/xlink" x="0px" y="0px"
	 width="750px" height="630.455px" viewBox="0 0 750 630.455" enable-background="new 0 0 750 630.455" xml:space="preserve">
<g>
	<path fill="#9B4B0A" d="M664.368,213.96c-6.72-16.682-20.542-20.877-21.818-22.003c-11.701-10.336-2.474-21.214-19.946-30.695
		c-18.28-9.914-71.979-36.997-114.22-31.375c-9.225,1.235-27.837,17.608-41.214,17.608c-21.865,0-92.165,0-92.165,0
		s-70.3,0-92.165,0c-13.377,0-31.99-16.374-41.215-17.608c-42.248-5.622-95.939,21.461-114.22,31.375
		c-17.472,9.481-8.243,20.359-19.941,30.695c-1.281,1.125-15.104,5.321-21.823,22.003C22.889,369.983-1.741,469.114,0.095,529.129
		c2.891,94.416,76.578,101.326,76.578,101.326c37.033-8.617,111.55-129.135,168.535-129.135c31.16,0,129.797,0,129.797,0
		s98.637,0,129.797,0c56.985,0,131.502,120.518,168.538,129.135c0,0,73.678-6.91,76.563-101.326
		C751.767,469.114,727.093,369.983,664.368,213.96z"/>
	<path fill="#9B4B0A" d="M548.358,114.946l50.436,6.849C586.729,4.974,555.822,10.762,549.08,5.466
		c-0.402-0.319-0.805-0.618-1.211-0.899c-6.416-4.476-13.566-4.873-25.826-4.425c-10.823,0.403-12.063,11.439-12.182,15.19v1.227
		c0,0,2.899,40.716,0,93.094C519.648,111.909,547.579,114.864,548.358,114.946z"/>
	<path fill="#9B4B0A" d="M201.676,114.95c0,0,28.613-3.009,38.539-5.298c-2.901-52.378,0-93.094,0-93.094v-1.227
		c-0.124-3.751-1.36-14.787-12.193-15.19c-12.249-0.448-19.398-0.051-25.815,4.425c-0.407,0.281-0.811,0.58-1.211,0.899
		c-6.756,5.296-37.648-0.492-49.715,116.329l50.395-6.846V114.95L201.676,114.95z"/>
</g>
<g>
	<path fill="#FFFFFF" d="M201.504,317.808h30.83v-12.236H206.29v-5.4h26.045v-12.339c-8.636,0.342-17.409,0.627-26.318,0.854
		c-0.273-1.914-0.615-3.782-1.025-5.605c23.288-0.364,42.178-1.185,56.67-2.461l0.889,5.605c-8.021,0.501-16.179,0.946-24.473,1.333
		v12.612h24.814v5.4h-24.814v12.236h30.693v5.4h-30.693v12.578c0,5.537-2.826,8.34-8.477,8.408c-2.871,0-6.859-0.023-11.963-0.068
		c-0.228-2.097-0.593-4.17-1.094-6.221c5.104,0.364,8.955,0.547,11.553,0.547c2.825,0,4.238-1.527,4.238-4.58v-10.664h-30.83
		V317.808z"/>
	<path fill="#FFFFFF" d="M285.723,307.28l1.914-1.914c3.235,2.917,6.084,5.583,8.545,7.998l-3.623,3.76
		c-1.687-1.959-3.965-4.443-6.836-7.451v35.752h-4.717v-35.479c-2.233,7.064-4.876,12.897-7.93,17.5
		c-0.593-1.959-1.322-3.965-2.188-6.016c4.739-7.474,8.089-15.563,10.049-24.268h-9.57v-4.58h9.639v-13.535h4.717v13.535h8.887v4.58
		h-8.887V307.28z M327.149,328.95c-2.962-4.146-6.517-8.636-10.664-13.467c-2.37,6.198-6.175,11.621-11.416,16.27
		c-0.775-1.048-1.641-2.142-2.598-3.281v16.748h-5.195v-46.826h16.953c0.045-2.962,0.091-6.448,0.137-10.459h-19.482v-4.785h43.887
		v4.785h-19.141c-0.046,3.691-0.114,7.178-0.205,10.459h17.158v38.76c0,4.876-2.393,7.337-7.178,7.383
		c-2.598,0.045-6.016,0.022-10.254-0.068c-0.228-1.459-0.57-3.145-1.025-5.059c3.965,0.318,6.995,0.455,9.092,0.41
		c2.78,0,4.17-1.162,4.17-3.486v-11.006L327.149,328.95z M302.471,326.558c6.836-5.97,10.687-13.899,11.553-23.789h-11.553V326.558z
		 M318.125,309.878c4.329,4.648,8.75,9.707,13.262,15.176v-22.285h-12.168C319.037,305.275,318.672,307.645,318.125,309.878z"/>
	<path fill="#FFFFFF" d="M409.18,334.897c-1.275,1.549-2.553,3.235-3.828,5.059c-12.008-5.992-21.236-13.74-27.686-23.242v28.574
		h-5.332v-28.506c-6.927,9.184-16.179,17.182-27.754,23.994c-0.866-1.23-2.097-2.758-3.691-4.58
		c12.373-6.494,22.148-14.31,29.326-23.447h-28.232v-5.059h30.352v-12.852h-26.318v-5.059h26.318v-11.689h5.332v11.689h26.592v5.059
		h-26.592v12.852h30.352v5.059H379.58C386.918,322.548,396.783,329.931,409.18,334.897z"/>
	<path fill="#FFFFFF" d="M438.984,338.657l14.014,0.342l26.113-0.615c-0.775,1.822-1.527,3.577-2.256,5.264l-23.721,0.273
		l-14.766-0.342c-7.338-0.092-12.828-2.689-16.475-7.793c-1.322,1.048-3.988,3.965-7.998,8.75l-2.939-5.811
		c2.848-2.574,5.674-5.059,8.477-7.451v-23.857h-7.793v-4.99h13.125v29.839C428.092,336.321,432.832,338.452,438.984,338.657z
		 M419.365,279.39c3.145,3.965,6.176,8.044,9.092,12.236l-4.854,3.418c-2.689-4.284-5.561-8.522-8.613-12.715L419.365,279.39z
		 M430.234,321.089h22.969v-9.502h-19.893v-4.854c2.779-4.854,5.309-10.003,7.588-15.449h-9.844v-4.785h11.758
		c1.094-2.871,2.119-5.811,3.076-8.818l5.742,1.23c-0.98,2.575-1.982,5.104-3.008,7.588h27.959v4.785h-29.941
		c-2.324,5.423-4.717,10.596-7.178,15.518h13.74v-11.826h5.469v11.826h17.5v4.785h-17.5v9.502h19.414v4.785h-19.414v11.279h-5.469
		v-11.279h-22.969V321.089z"/>
	<path fill="#FFFFFF" d="M481.094,314.8c3.236-0.889,6.381-1.789,9.434-2.7v-15.62h-8.613v-4.922h8.613v-12.783h5.059v12.783h7.861
		v4.922h-7.861v14.048c2.164-0.684,4.283-1.378,6.357-2.085c0.045,2.051,0.182,3.828,0.41,5.332
		c-2.348,0.752-4.604,1.493-6.768,2.222v21.089c0,4.922-2.211,7.405-6.631,7.451c-1.686,0.045-3.828,0.022-6.426-0.068
		c-0.182-1.869-0.455-3.76-0.82-5.674c2.734,0.273,4.672,0.41,5.811,0.41c2.006,0,3.008-1.208,3.008-3.623v-17.91
		c-3.121,1.049-6.039,2.051-8.75,3.008L481.094,314.8z M499.688,340.298c8.887-1.299,16.121-3.441,21.705-6.426
		c-4.262-1.914-8.83-3.919-13.707-6.016c1.959-2.529,3.771-5.059,5.436-7.588h-11.246v-4.58h14.117
		c1.457-2.461,2.791-4.922,3.998-7.383l5.059,2.119c-1.094,1.823-2.176,3.578-3.246,5.264h26.283v4.58h-8.988
		c-1.801,5.014-4.467,9.24-7.998,12.681c5.811,2.415,11.449,4.819,16.918,7.212l-3.008,5.059
		c-5.127-2.712-11.166-5.674-18.115-8.887c-6.107,4.146-14.311,7.2-24.609,9.16C501.646,343.989,500.781,342.257,499.688,340.298z
		 M502.08,302.7h26.627c2.893-4.01,5.457-7.77,7.689-11.279l5.127,2.803c-2.369,2.849-4.773,5.674-7.211,8.477h14.252v4.58H502.08
		V302.7z M504.746,286.089h19.313c-1.072-2.073-2.199-4.124-3.385-6.152l4.58-2.119c1.459,2.461,2.848,4.945,4.17,7.451l-1.742,0.82
		h19.242v4.58h-42.178V286.089z M510.898,294.155l3.965-2.666c2.143,2.507,4.215,5.15,6.221,7.93l-4.375,2.939
		C514.977,299.533,513.041,296.799,510.898,294.155z M514.795,326.353c3.805,1.504,7.531,3.008,11.178,4.512
		c3.576-2.894,6.117-6.426,7.621-10.596h-14.73C517.473,322.388,516.117,324.416,514.795,326.353z"/>
</g>
<g>
	<path fill="#FFFFFF" d="M54.747,453.058c-4.045-4.725-6.067-10.545-6.067-17.459c0-7.211,2.053-13.148,6.16-17.813h1.948
		c-4.181,4.813-6.271,10.736-6.271,17.775c0,6.643,2.065,12.475,6.197,17.496H54.747z"/>
	<path fill="#FFFFFF" d="M58.773,423.501h4.973v-8.127h1.911v8.127h4.323v1.781h-4.323v6.086l0.946-0.91
		c1.088,0.953,2.505,2.283,4.249,3.99l-1.41,1.354c-1.596-1.744-2.857-3.043-3.785-3.896v19.223h-1.911v-21.783
		c-1.175,4.764-2.783,8.641-4.824,11.635c-0.136-0.445-0.464-1.156-0.983-2.135c2.659-4.156,4.583-8.676,5.771-13.563h-4.936
		V423.501z M92.933,429.493c-4.614-2.857-8.399-6.512-11.355-10.965c-2.647,4.219-6.371,8.027-11.17,11.43
		c-0.371-0.508-0.854-1.088-1.447-1.744c5.356-3.24,9.481-7.639,12.376-13.193l2.134,0.428c-0.297,0.482-0.575,0.953-0.835,1.41
		c3.327,4.873,7.218,8.467,11.671,10.779C93.947,428.071,93.489,428.69,92.933,429.493z M69.071,447.288h15.271
		c1.967-4.836,3.55-9.32,4.75-13.453l2.097,0.576c-1.781,5.059-3.377,9.352-4.787,12.877h7.218v1.855H69.071V447.288z
		 M71.613,435.319l1.818-0.574c0.891,2.523,1.88,5.641,2.969,9.352l-1.93,0.648C73.679,441.776,72.727,438.636,71.613,435.319z
		 M73.283,428.862h16.198v1.818H73.283V428.862z M79.072,433.872l1.855-0.5c0.854,2.783,1.676,5.764,2.468,8.943l-1.93,0.52
		C80.81,439.892,80.012,436.903,79.072,433.872z"/>
	<path fill="#FFFFFF" d="M130.933,430.644c-7.088-2.275-12.333-5.188-15.734-8.738v6.791h-1.93v-6.791
		c-3.55,3.563-8.795,6.643-15.734,9.24c-0.384-0.693-0.767-1.305-1.15-1.838c6.11-1.979,11.293-4.688,15.549-8.127h-14.51v-1.781
		h15.846v-4.063h1.93v4.063h15.92v1.781h-14.584c4.28,3.525,9.432,6.049,15.456,7.57
		C131.668,429.259,131.316,429.89,130.933,430.644z M96.551,447.862h35.365v1.818H96.551V447.862z M101.895,429.958h24.826v13.953
		h-24.826V429.958z M103.88,431.702v4.379h20.855v-4.379H103.88z M103.88,437.788v4.359h20.855v-4.359H103.88z"/>
	<path fill="#FFFFFF" d="M138.521,426.784h-1.726v-8.998h1.726V426.784z M143.494,426.784h-1.726v-8.998h1.726V426.784z"/>
	<path fill="#FFFFFF" d="M159.767,440.72c-1.373,1.398-3.08,3.246-5.121,5.547c-0.606,0.631-1.089,1.225-1.447,1.781l-1.447-1.262
		c0.445-0.705,0.662-1.49,0.649-2.355v-14.77h-4.342v-1.838h6.309v15.92c1.546-1.67,2.993-3.289,4.342-4.861
		C159.129,439.749,159.482,440.36,159.767,440.72z M156.353,423.612c-2.041-2.289-3.891-4.25-5.548-5.883l1.559-1.299
		c1.41,1.373,3.284,3.285,5.622,5.734L156.353,423.612z M160.026,433.798v-1.893h20.113v2.115
		c-2.363,4.367-4.985,7.727-7.867,10.076c2.721,1.807,6.543,3.34,11.467,4.602c-0.668,0.977-1.07,1.645-1.206,2.004
		c-5.208-1.609-9.197-3.377-11.968-5.307c-3.216,2.213-7.602,4.148-13.155,5.807c-0.396-0.73-0.811-1.373-1.243-1.93
		c5.566-1.621,9.797-3.369,12.691-5.25c-2.808-2.4-5.103-5.809-6.884-10.225H160.026z M176.225,419.159h-10.65v1.484
		c0.024,0.297,0.037,0.648,0.037,1.057c0,3.896-1.936,6.711-5.808,8.443c-0.507-0.643-1.015-1.199-1.521-1.67
		c2.152-0.953,3.563-1.949,4.23-2.988c0.729-1.014,1.082-2.615,1.058-4.805v-3.414h14.658v7.031
		c-0.099,1.484,0.649,2.184,2.245,2.098h3.544l-0.315,1.967h-3.711c-2.561,0.049-3.816-1.076-3.767-3.377V419.159z M164.146,433.798
		c1.645,3.848,3.785,6.848,6.42,9c2.845-2.09,5.313-5.09,7.403-9H164.146z"/>
	<path fill="#FFFFFF" d="M220.793,432.964c-7.001-0.928-12.432-2.246-16.291-3.953c-4.095,1.744-9.977,3.316-17.646,4.713
		c-0.285-0.68-0.6-1.342-0.946-1.984c6.915-1.039,12.339-2.332,16.272-3.879c-2.771-1.484-5.282-3.586-7.533-6.309
		c-1.72,1.955-3.81,3.91-6.271,5.863c-0.396-0.469-0.866-0.939-1.41-1.41c4.465-3.377,7.836-7.014,10.112-10.91l1.837,0.836
		c-0.829,1.236-1.466,2.141-1.911,2.709h19.835v1.893c-2.994,3.117-6.296,5.572-9.908,7.365c4.069,1.559,9.036,2.537,14.899,2.932
		C221.448,431.522,221.102,432.233,220.793,432.964z M190.92,434.169h26.069v16.959h-1.967v-1.67h-22.117v1.67h-1.985V434.169z
		 M192.905,435.896v5.121h10.112v-5.121H192.905z M192.905,442.649v5.102h10.112v-5.102H192.905z M214.373,420.384h-18.351
		c2.35,2.771,5.201,4.947,8.554,6.531C208.102,425.345,211.367,423.167,214.373,420.384z M215.022,435.896H204.91v5.121h10.112
		V435.896z M204.91,442.649v5.102h10.112v-5.102H204.91z"/>
	<path fill="#FFFFFF" d="M224.522,426.618h6.921v-6.531c-2.746,0.197-4.824,0.334-6.234,0.408c-0.099-0.582-0.266-1.225-0.501-1.93
		c5.121-0.248,9.908-0.643,14.361-1.188l0.538,1.984c-0.347,0.025-0.86,0.068-1.54,0.131c-2.017,0.186-3.569,0.328-4.657,0.426
		v6.699h6.772v1.855h-6.772v5.287l0.983-0.945c1.188,0.99,2.962,2.609,5.325,4.861c0.173,0.16,0.303,0.285,0.39,0.371l-1.521,1.521
		c-2.029-2.141-3.754-3.871-5.177-5.195v16.643h-1.967v-18.889c-1.497,4.281-3.655,8.184-6.476,11.709
		c-0.347-0.791-0.724-1.527-1.132-2.209c3.204-3.734,5.684-8.119,7.44-13.154h-6.754V426.618z M242.836,419.771h15.438v30.244
		h-2.022v-3.563h-11.393v3.619h-2.022V419.771z M244.858,421.683v22.877h11.393v-22.877H244.858z"/>
	<path fill="#FFFFFF" d="M262.337,438.122l-0.538-2.152c1.435-0.396,3.705-1.045,6.81-1.949v-9.072h-6.123v-1.949h6.123v-7.254
		h2.041v7.254h5.585v1.949h-5.585v8.461c2.486-0.73,4.527-1.361,6.123-1.893c0.037,0.742,0.099,1.428,0.186,2.059
		c-1.41,0.408-3.513,1.039-6.309,1.893v11.244c0.037,2.512-1.243,3.805-3.841,3.879c-1.076,0.049-2.289,0.074-3.637,0.074
		c-0.087-0.631-0.241-1.35-0.464-2.152c1.212,0.074,2.431,0.111,3.655,0.111c1.534,0.037,2.282-0.662,2.245-2.098v-10.408
		C265.8,437.021,263.71,437.688,262.337,438.122z M277.459,418.565h20.447v2.004h-6.513v24.398c0.124,3.637-1.596,5.449-5.158,5.438
		c-0.693,0.012-1.435,0.023-2.227,0.037c-0.384,0-0.811,0-1.28,0c-0.408,0-1.027,0-1.855,0c-0.111-0.742-0.278-1.479-0.501-2.209
		c1.793,0.1,3.457,0.148,4.991,0.148c1.521,0.012,2.548-0.266,3.08-0.834c0.569-0.533,0.847-1.547,0.835-3.043v-23.936h-11.819
		V418.565z"/>
	<path fill="#FFFFFF" d="M302.267,418.454c4.898-0.928,9.37-1.967,13.415-3.117l0.761,1.855c-4.193,1.088-8.232,2.01-12.116,2.764
		v9.277h11.393v1.986h-11.393v12.729c4.292-1.521,8.151-2.852,11.578-3.99c0.024,0.693,0.093,1.41,0.204,2.152
		c-3.711,1.164-7.44,2.457-11.188,3.879c-0.804,0.322-1.521,0.705-2.152,1.15l-1.521-1.838c0.717-0.791,1.058-1.842,1.021-3.154
		V418.454z M318.984,418.138h14.937v21.82c0,2.945-1.484,4.479-4.453,4.602c-1.324,0.037-2.994,0.063-5.01,0.074
		c-0.099-0.654-0.26-1.391-0.482-2.207c1.596,0.074,3.179,0.111,4.75,0.111c2.164,0.063,3.216-0.902,3.154-2.895v-19.52h-10.799
		v30.967h-2.097V418.138z"/>
	<path fill="#FFFFFF" d="M338.745,440.72c-0.248-0.705-0.575-1.379-0.983-2.023c2.746-3.797,4.799-8.521,6.16-14.176h-5.288v-1.744
		h5.399v-7.328h1.893v7.328h5.177v1.744h-5.177v6.086l1.076-1.113c2.288,2.078,3.896,3.588,4.824,4.527l-1.373,1.41
		c-1.225-1.273-2.734-2.758-4.527-4.453v20.002h-1.893v-22.58C342.685,433.706,340.922,437.813,338.745,440.72z M356.613,419.771
		v10.539c0.037,5.703-0.402,9.848-1.317,12.432c-0.805,2.648-2.635,5.406-5.492,8.275c-0.718-0.668-1.299-1.176-1.744-1.521
		c2.857-2.734,4.639-5.262,5.344-7.588c0.828-2.215,1.225-6.111,1.188-11.689v-12.34h12.506v27.889
		c-0.063,1.471,0.457,2.158,1.559,2.059h0.761c1.299,0.074,2.047-0.723,2.245-2.393c0.173-1.225,0.346-3.18,0.52-5.863
		c0.631,0.285,1.268,0.525,1.911,0.723c-0.174,2.5-0.365,4.436-0.575,5.809c-0.322,2.51-1.603,3.729-3.841,3.654h-1.354
		c-2.215,0.049-3.297-1.193-3.247-3.729v-26.256H356.613z"/>
	<path fill="#FFFFFF" d="M380.271,426.784h-1.726v-8.998h1.726V426.784z M385.243,426.784h-1.726v-8.998h1.726V426.784z"/>
	<path fill="#FFFFFF" d="M396.19,451.499h-1.559l3.006-9.518h2.041L396.19,451.499z"/>
	<path fill="#FFFFFF" d="M428.921,418.64h11.931v1.744h-5.177c-0.681,3.254-1.627,6.383-2.839,9.389h6.68v15.623h-6.346v3.061
		h-1.818v-15.418c-0.953,1.881-1.813,3.414-2.579,4.602c-0.396-0.582-0.805-1.125-1.225-1.633c3.018-4.75,5.108-9.957,6.271-15.623
		h-4.898V418.64z M433.17,431.479v12.189h4.527v-12.189H433.17z M441.983,427.378c-0.606-0.617-1.113-1.076-1.521-1.373
		c3.525-3.414,6.172-7.025,7.941-10.836l1.985,0.428c-0.644,1.262-1.306,2.438-1.985,3.525h10.224v1.947l-3.414,4.213h7.144v21.43
		c0.086,2.586-1.015,3.879-3.303,3.879c-0.705,0.023-1.732,0.037-3.08,0.037c-0.05-0.582-0.167-1.213-0.353-1.893
		c0.939,0.049,1.867,0.074,2.783,0.074c0.804,0.012,1.354-0.148,1.651-0.482c0.297-0.322,0.445-0.922,0.445-1.801v-4.602h-6.698
		v7.385h-1.855v-7.385h-6.847c-0.285,3.217-1.54,6.26-3.767,9.129c-0.396-0.309-0.928-0.693-1.596-1.15
		c-0.05-0.037-0.087-0.063-0.111-0.074c1.719-2.189,2.789-4.236,3.21-6.141c0.52-1.881,0.767-5.127,0.742-9.742v-8.313
		C443.06,426.228,442.527,426.81,441.983,427.378z M456.475,420.847h-9.166c-0.792,1.213-1.942,2.691-3.451,4.436h8.962
		L456.475,420.847z M445.453,434.448c0,2.275-0.068,4.211-0.204,5.807h6.698v-5.807H445.453z M445.453,426.989v5.789h6.494v-5.789
		H445.453z M460.501,426.989h-6.698v5.789h6.698V426.989z M453.803,434.448v5.807h6.698v-5.807H453.803z"/>
	<path fill="#FFFFFF" d="M466.717,435.134c-0.235-0.457-0.601-1.094-1.095-1.91c3.537-5.109,6.197-10.973,7.979-17.59l1.985,0.537
		c-1.076,3.391-2.115,6.266-3.117,8.629v26.291h-1.985v-22.154C469.382,430.991,468.127,433.056,466.717,435.134z M475.846,448.772
		c-0.371-0.57-0.842-1.127-1.41-1.67c5.183-2.646,9.011-6.16,11.485-10.539h-10.725v-1.855h12.283v-4.176h1.967v4.176h12.209v1.855
		h-10.688c2.387,4.342,5.986,7.625,10.799,9.852c-0.347,0.346-0.792,0.939-1.336,1.781c-5.27-2.746-8.932-6.457-10.984-11.133
		v14.064h-1.967v-14.027C484.906,442.247,481.028,446.138,475.846,448.772z M478.629,417.378h19.798v11.744h-19.798V417.378z
		 M480.633,419.251v8.016h15.771v-8.016H480.633z"/>
	<path fill="#FFFFFF" d="M507.5,425.06h2.097v5.918h23.472v-11.17h-26.44v-1.93h28.537v15.049h-25.568v10.111
		c-0.013,1.658,0.309,2.783,0.965,3.377c0.631,0.619,1.824,0.922,3.581,0.91h17.145c0.197,0.012,0.401,0.018,0.612,0.018
		c2.808,0,4.403-1.311,4.787-3.934c0.247-1.1,0.513-2.584,0.798-4.453c0.791,0.359,1.447,0.588,1.967,0.688
		c-0.26,1.893-0.514,3.34-0.761,4.342c-0.458,2.016-1.182,3.395-2.171,4.137c-0.965,0.779-2.505,1.162-4.62,1.15h-18.128
		c-4.317,0.123-6.408-1.844-6.271-5.9V425.06z"/>
	<path fill="#FFFFFF" d="M548.395,444.06c1.57-1.162,3.47-2.646,5.696-4.453l0.334,2.207c-2.264,1.633-4.299,3.217-6.104,4.75
		c-0.656,0.557-1.126,1.014-1.41,1.373l-1.596-1.67c0.767-0.816,1.132-1.893,1.095-3.229v-13.266h-4.713v-1.912h6.698V444.06z
		 M550.102,423.872c-1.781-2.115-3.594-4.15-5.437-6.105l1.559-1.262c2.635,2.809,4.483,4.824,5.548,6.049L550.102,423.872z
		 M560.362,439.087l1.818,1.057c-2.87,4.193-5.709,7.781-8.517,10.762l-1.67-1.373C555.024,446.466,557.813,442.983,560.362,439.087
		z M555.724,418.063h19.371v17.738h-19.371V418.063z M557.783,419.882v14.102h15.271v-14.102H557.783z M568.081,440.181l1.596-1.094
		c2.461,2.994,5.146,6.4,8.053,10.223l-1.837,1.318C573.74,447.548,571.136,444.065,568.081,440.181z"/>
	<path fill="#FFFFFF" d="M580.921,434.448h6.16c0.049-1.15,0.074-2.432,0.074-3.842h2.004c0,1.016-0.025,2.295-0.074,3.842h9.611
		c-0.063,3.488-0.198,6.945-0.408,10.371c-0.087,3.674-1.899,5.475-5.437,5.4c-0.656,0.012-1.324,0.023-2.004,0.037
		c-0.334,0-0.687,0-1.058,0c-0.334,0-0.798,0-1.392,0c-0.087-0.842-0.211-1.578-0.371-2.209c1.162,0.1,2.616,0.148,4.36,0.148
		c2.535,0.174,3.828-1.039,3.878-3.637c0.197-3.08,0.315-5.844,0.353-8.293h-7.645c-0.05,6.271-2.623,11.213-7.719,14.824
		c-0.495-0.545-1.052-1.039-1.67-1.484c4.936-3.34,7.391-7.785,7.366-13.34h-6.03V434.448z M582.368,417.489h15.994v11.707h-15.994
		V417.489z M584.372,419.362v8.016h11.968v-8.016H584.372z M611.536,415.597h2.06v30.318c0.173,3.055-1.436,4.576-4.824,4.564
		c-0.656,0.023-1.354,0.043-2.097,0.055c-0.359,0.012-0.749,0.02-1.169,0.02c-0.359,0-0.879,0-1.559,0
		c-0.1-0.83-0.229-1.541-0.39-2.135c1.051,0.086,2.598,0.131,4.639,0.131c1.249,0.012,2.115-0.199,2.598-0.631
		c0.507-0.408,0.754-1.127,0.742-2.152V415.597z M603.799,419.362h2.004v22.879h-2.004V419.362z"/>
	<path fill="#FFFFFF" d="M650.186,419.048c-4.404,0.248-8.839,0.463-13.304,0.648v7.645h13.545v1.855h-13.545v7.756h16.773v1.893
		h-16.773v7.07c0.16,3.055-1.46,4.564-4.861,4.527c-1.052,0.023-2.901,0.037-5.548,0.037c-0.037-0.482-0.167-1.096-0.39-1.838
		c-0.037-0.148-0.068-0.26-0.093-0.334c0.68,0.037,1.466,0.068,2.356,0.094c0.42,0,0.884,0.006,1.392,0.018c0.457,0,1.082,0,1.874,0
		c1.249,0.012,2.09-0.191,2.523-0.611c0.457-0.408,0.68-1.188,0.668-2.338v-6.625h-16.885v-1.893h16.885v-7.756h-14.25v-1.855h14.25
		v-7.57c-5.492,0.236-10.305,0.391-14.436,0.465c-0.025-0.531-0.13-1.193-0.315-1.986c10.935-0.148,20.843-0.525,29.725-1.131
		L650.186,419.048z"/>
	<path fill="#FFFFFF" d="M656.531,440.72c-0.248-0.828-0.526-1.59-0.835-2.283c2.424-4.045,4.212-8.541,5.362-13.488h-4.676v-1.838
		h4.787v-7.477h1.985v7.477h4.509v1.838h-4.509v6.68l1.095-1.059c1.88,1.447,3.321,2.598,4.323,3.451l-1.503,1.41
		c-1.139-1.088-2.443-2.25-3.915-3.488v19.186h-1.985v-22.006C660.118,433.427,658.572,437.294,656.531,440.72z M672.006,451.017
		h-2.022v-24.863h9.352c0.062-1.002,0.104-1.967,0.13-2.895c0-0.445,0.006-0.92,0.019-1.428c0-0.445,0-1.107,0-1.986h-10.817v-1.855
		h22.989v1.855h-10.149c0,1.67-0.063,3.773-0.186,6.309h9.222v20.447c0.099,2.523-1.293,3.816-4.175,3.879
		c-0.532,0.023-1.145,0.043-1.837,0.055c-0.334,0.012-0.705,0.02-1.113,0.02c-0.359,0-0.885,0-1.577,0
		c-0.025-0.482-0.161-1.164-0.408-2.041c1.422,0.049,2.876,0.074,4.36,0.074c1.917,0.061,2.832-0.699,2.746-2.283v-18.313h-7.311
		c-0.186,2.721-0.575,4.998-1.169,6.828l1.132-0.91c2.609,2.723,4.756,5.066,6.438,7.033l-1.688,1.299
		c-2.189-2.697-4.2-5.029-6.03-6.996c-0.916,2.76-2.883,5.492-5.9,8.201c-0.211-0.246-0.662-0.742-1.354-1.484
		c-0.037-0.037-0.063-0.061-0.074-0.074c4.366-3.4,6.58-8.033,6.643-13.896h-7.218V451.017z"/>
	<path fill="#FFFFFF" d="M695.255,453.058h-1.967c4.131-5.021,6.197-10.854,6.197-17.496c0-7.039-2.091-12.963-6.271-17.775h1.967
		c4.094,4.688,6.142,10.625,6.142,17.813C701.322,442.538,699.3,448.356,695.255,453.058z"/>
</g>
<g>
	<path fill="#EEEEEE" d="M192.421,591.219c2.313,1.672,4.805,2.508,7.477,2.508c3.578,0,5.367-1.172,5.367-3.516
		c0-1-0.391-1.824-1.172-2.473s-2.367-1.418-4.758-2.309c-2.875-1.156-4.742-2.301-5.602-3.434s-1.289-2.504-1.289-4.113
		c0-2.297,0.973-4.137,2.918-5.52s4.34-2.074,7.184-2.074c2.203,0,4.25,0.383,6.141,1.148v4.43c-1.938-1.25-4.133-1.875-6.586-1.875
		c-1.469,0-2.664,0.32-3.586,0.961s-1.383,1.484-1.383,2.531c0,1.031,0.332,1.836,0.996,2.414s2.137,1.32,4.418,2.227
		c2.891,1.078,4.844,2.195,5.859,3.352s1.523,2.586,1.523,4.289c0,2.375-0.973,4.246-2.918,5.613s-4.465,2.051-7.559,2.051
		c-2.688,0-5.031-0.508-7.031-1.523V591.219z"/>
	<path fill="#EEEEEE" d="M220.687,593.164v3.656h-4.594v-38.367h4.594v16.922h0.094c2.031-3.391,5-5.086,8.906-5.086
		c3.25,0,5.832,1.145,7.746,3.434s2.871,5.418,2.871,9.387c0,4.375-1.074,7.855-3.223,10.441s-5.012,3.879-8.59,3.879
		c-3.375,0-5.945-1.422-7.711-4.266H220.687z M220.664,586.156c0,2.094,0.68,3.863,2.039,5.309s3.063,2.168,5.109,2.168
		c2.438,0,4.344-0.938,5.719-2.813s2.063-4.469,2.063-7.781c0-2.734-0.641-4.91-1.922-6.527s-3.031-2.426-5.25-2.426
		c-2.25,0-4.105,0.805-5.566,2.414s-2.191,3.656-2.191,6.141V586.156z"/>
	<path fill="#EEEEEE" d="M245.437,594.406c0-0.844,0.289-1.555,0.867-2.133s1.297-0.867,2.156-0.867c0.875,0,1.602,0.293,2.18,0.879
		s0.867,1.293,0.867,2.121c0,0.813-0.289,1.512-0.867,2.098s-1.313,0.879-2.203,0.879c-0.859,0-1.574-0.293-2.145-0.879
		S245.437,595.219,245.437,594.406z"/>
	<path fill="#EEEEEE" d="M256.851,591.219c2.313,1.672,4.805,2.508,7.477,2.508c3.578,0,5.367-1.172,5.367-3.516
		c0-1-0.391-1.824-1.172-2.473s-2.367-1.418-4.758-2.309c-2.875-1.156-4.742-2.301-5.602-3.434s-1.289-2.504-1.289-4.113
		c0-2.297,0.973-4.137,2.918-5.52s4.34-2.074,7.184-2.074c2.203,0,4.25,0.383,6.141,1.148v4.43c-1.938-1.25-4.133-1.875-6.586-1.875
		c-1.469,0-2.664,0.32-3.586,0.961s-1.383,1.484-1.383,2.531c0,1.031,0.332,1.836,0.996,2.414s2.137,1.32,4.418,2.227
		c2.891,1.078,4.844,2.195,5.859,3.352s1.523,2.586,1.523,4.289c0,2.375-0.973,4.246-2.918,5.613s-4.465,2.051-7.559,2.051
		c-2.688,0-5.031-0.508-7.031-1.523V591.219z"/>
	<path fill="#EEEEEE" d="M302.414,596.82h-4.57v-14.906c0-5.219-1.938-7.828-5.813-7.828c-1.984,0-3.633,0.762-4.945,2.285
		s-1.969,3.441-1.969,5.754v14.695h-4.594v-38.367h4.594v16.711h0.094c1.984-3.25,4.805-4.875,8.461-4.875
		c5.828,0,8.742,3.523,8.742,10.57V596.82z"/>
	<path fill="#EEEEEE" d="M310.687,572.703c2.578-1.609,5.555-2.414,8.93-2.414c6.25,0,9.375,3.281,9.375,9.844v16.688h-4.547v-4.008
		h-0.117c-1.797,3.078-4.445,4.617-7.945,4.617c-2.516,0-4.516-0.68-6-2.039s-2.227-3.195-2.227-5.508
		c0-4.844,2.867-7.664,8.602-8.461l7.688-1.078c0-4.234-1.75-6.352-5.25-6.352c-3.109,0-5.945,1.047-8.508,3.141V572.703z
		 M318.375,584.633c-2.125,0.281-3.59,0.813-4.395,1.594s-1.207,1.875-1.207,3.281c0,1.234,0.438,2.242,1.313,3.023
		s2.031,1.172,3.469,1.172c2,0,3.648-0.703,4.945-2.109s1.945-3.172,1.945-5.297v-2.484L318.375,584.633z"/>
	<path fill="#EEEEEE" d="M359.109,596.82h-4.594v-4.313h-0.094c-1.891,3.281-4.828,4.922-8.813,4.922
		c-3.281,0-5.891-1.168-7.828-3.504s-2.906-5.488-2.906-9.457c0-4.281,1.094-7.715,3.281-10.301s5.047-3.879,8.578-3.879
		s6.094,1.375,7.688,4.125h0.094v-15.961h4.594V596.82z M354.539,581.398c0-2.078-0.684-3.816-2.051-5.215s-3.051-2.098-5.051-2.098
		c-2.438,0-4.359,0.91-5.766,2.73s-2.109,4.301-2.109,7.441c0,2.891,0.676,5.176,2.027,6.855s3.152,2.52,5.402,2.52
		c2.219,0,4.031-0.824,5.438-2.473s2.109-3.699,2.109-6.152V581.398z"/>
	<path fill="#EEEEEE" d="M365.578,584.141c0-4.281,1.195-7.66,3.586-10.137s5.633-3.715,9.727-3.715
		c3.891,0,6.941,1.191,9.152,3.574s3.316,5.676,3.316,9.879c0,4.094-1.18,7.398-3.539,9.914s-5.523,3.773-9.492,3.773
		c-3.875,0-6.969-1.219-9.282-3.656S365.578,588.125,365.578,584.141z M370.265,584c0,2.984,0.754,5.336,2.262,7.055
		s3.536,2.578,6.083,2.578c2.625,0,4.625-0.84,6-2.52s2.063-4.09,2.063-7.23c0-3.156-0.688-5.578-2.063-7.266s-3.375-2.531-6-2.531
		c-2.578,0-4.614,0.883-6.106,2.648S370.265,580.922,370.265,584z"/>
	<path fill="#EEEEEE" d="M431.039,570.898l-7.734,25.922h-4.781l-5.156-18.188c-0.219-0.781-0.359-1.609-0.422-2.484h-0.094
		c-0.047,0.656-0.227,1.469-0.539,2.438l-5.578,18.234h-4.641l-7.781-25.922h4.781l5.18,19.219c0.156,0.578,0.273,1.367,0.352,2.367
		h0.188c0.063-0.859,0.211-1.672,0.445-2.438l5.578-19.148h4.242l5.438,19.242c0.156,0.563,0.281,1.359,0.375,2.391h0.211
		c0.031-0.688,0.172-1.484,0.422-2.391l5.063-19.242H431.039z"/>
	<path fill="#EEEEEE" d="M435.164,561.758c0-0.813,0.277-1.496,0.832-2.051s1.238-0.832,2.051-0.832c0.828,0,1.527,0.273,2.098,0.82
		S441,560.93,441,561.758c0,0.813-0.285,1.488-0.855,2.027s-1.27,0.809-2.098,0.809s-1.516-0.27-2.063-0.809
		S435.164,562.57,435.164,561.758z M435.703,596.82v-25.922h4.594v25.922H435.703z"/>
	<path fill="#EEEEEE" d="M470.414,596.82h-4.57v-14.742c0-5.328-1.945-7.992-5.836-7.992c-2.016,0-3.672,0.75-4.969,2.25
		s-1.945,3.398-1.945,5.695v14.789H448.5v-25.922h4.594v4.289h0.094c1.953-3.266,4.789-4.898,8.508-4.898
		c2.844,0,5.008,0.91,6.492,2.73s2.227,4.473,2.227,7.957V596.82z"/>
	<path fill="#EEEEEE" d="M476.766,594.406c0-0.844,0.289-1.555,0.867-2.133s1.297-0.867,2.156-0.867c0.875,0,1.602,0.293,2.18,0.879
		s0.867,1.293,0.867,2.121c0,0.813-0.289,1.512-0.867,2.098s-1.313,0.879-2.203,0.879c-0.859,0-1.574-0.293-2.145-0.879
		S476.766,595.219,476.766,594.406z"/>
	<path fill="#EEEEEE" d="M511.547,596.82h-4.57v-14.742c0-5.328-1.945-7.992-5.836-7.992c-2.016,0-3.672,0.75-4.969,2.25
		s-1.945,3.398-1.945,5.695v14.789h-4.594v-25.922h4.594v4.289h0.094c1.953-3.266,4.789-4.898,8.508-4.898
		c2.844,0,5.008,0.91,6.492,2.73s2.227,4.473,2.227,7.957V596.82z"/>
	<path fill="#EEEEEE" d="M540.328,585.031h-18.141c0.078,2.766,0.836,4.902,2.273,6.41s3.445,2.262,6.023,2.262
		c2.906,0,5.57-0.93,7.992-2.789v4.102c-2.281,1.609-5.305,2.414-9.07,2.414c-3.75,0-6.676-1.188-8.777-3.563
		s-3.152-5.672-3.152-9.891c0-3.969,1.152-7.242,3.457-9.82s5.168-3.867,8.59-3.867c3.391,0,6.039,1.09,7.945,3.27
		s2.859,5.23,2.859,9.152V585.031z M535.734,581.352c-0.016-2.344-0.57-4.156-1.664-5.438s-2.633-1.922-4.617-1.922
		c-1.828,0-3.41,0.68-4.746,2.039s-2.176,3.133-2.52,5.32H535.734z"/>
	<path fill="#EEEEEE" d="M558.891,596.563c-1,0.547-2.352,0.82-4.055,0.82c-4.641,0-6.961-2.57-6.961-7.711v-14.977h-4.453v-3.797
		h4.453v-6.234l4.57-1.453v7.688h6.445v3.797h-6.445v14.156c0,1.703,0.289,2.922,0.867,3.656s1.539,1.102,2.883,1.102
		c1.031,0,1.93-0.289,2.695-0.867V596.563z"/>
</g>
</svg>
