<?xml version="1.0" encoding="utf-8"?>
<!-- Generator: Adobe Illustrator 16.0.0, SVG Export Plug-In . SVG Version: 6.00 Build 0)  -->
<!DOCTYPE svg PUBLIC "-//W3C//DTD SVG 1.1//EN" "http://www.w3.org/Graphics/SVG/1.1/DTD/svg11.dtd">
<svg version="1.1" id="Layer_1" xmlns="http://www.w3.org/2000/svg" xmlns:xlink="http://www.w3.org/1999/xlink" x="0px" y="0px"
	 width="750px" height="630.455px" viewBox="0 0 750 630.455" enable-background="new 0 0 750 630.455" xml:space="preserve">
<g>
	<path fill="#9B4B0A" d="M664.368,213.96c-6.72-16.682-20.542-20.877-21.818-22.003c-11.701-10.336-2.474-21.214-19.946-30.695
		c-18.28-9.914-71.979-36.997-114.22-31.375c-9.225,1.235-27.837,17.608-41.214,17.608c-21.865,0-92.165,0-92.165,0
		s-70.3,0-92.165,0c-13.377,0-31.99-16.374-41.215-17.608c-42.248-5.622-95.939,21.461-114.22,31.375
		c-17.472,9.481-8.243,20.359-19.941,30.695c-1.281,1.125-15.104,5.321-21.823,22.003C22.889,369.983-1.741,469.114,0.095,529.129
		c2.891,94.416,76.578,101.326,76.578,101.326c37.033-8.617,111.55-129.135,168.535-129.135c31.16,0,129.797,0,129.797,0
		s98.637,0,129.797,0c56.985,0,131.502,120.518,168.538,129.135c0,0,73.678-6.91,76.563-101.326
		C751.767,469.114,727.093,369.983,664.368,213.96z"/>
	<path fill="#9B4B0A" d="M548.358,114.946l50.436,6.849C586.729,4.974,555.822,10.762,549.08,5.466
		c-0.402-0.319-0.805-0.618-1.211-0.899c-6.416-4.476-13.566-4.873-25.826-4.425c-10.823,0.403-12.063,11.439-12.182,15.19v1.227
		c0,0,2.899,40.716,0,93.094C519.648,111.909,547.579,114.864,548.358,114.946z"/>
	<path fill="#9B4B0A" d="M201.676,114.95c0,0,28.613-3.009,38.539-5.298c-2.901-52.378,0-93.094,0-93.094v-1.227
		c-0.124-3.751-1.36-14.787-12.193-15.19c-12.249-0.448-19.398-0.051-25.815,4.425c-0.407,0.281-0.811,0.58-1.211,0.899
		c-6.756,5.296-37.648-0.492-49.715,116.329l50.395-6.846V114.95L201.676,114.95z"/>
</g>
<g>
	<path fill="#FFFFFF" d="M201.504,317.808h30.83v-12.236H206.29v-5.4h26.045v-12.339c-8.636,0.342-17.409,0.627-26.318,0.854
		c-0.273-1.914-0.615-3.782-1.025-5.605c23.288-0.364,42.178-1.185,56.67-2.461l0.889,5.605c-8.021,0.501-16.179,0.946-24.473,1.333
		v12.612h24.814v5.4h-24.814v12.236h30.693v5.4h-30.693v12.578c0,5.537-2.826,8.34-8.477,8.408c-2.871,0-6.859-0.023-11.963-0.068
		c-0.228-2.097-0.593-4.17-1.094-6.221c5.104,0.364,8.955,0.547,11.553,0.547c2.825,0,4.238-1.527,4.238-4.58v-10.664h-30.83
		V317.808z"/>
	<path fill="#FFFFFF" d="M285.723,307.28l1.914-1.914c3.235,2.917,6.084,5.583,8.545,7.998l-3.623,3.76
		c-1.687-1.959-3.965-4.443-6.836-7.451v35.752h-4.717v-35.479c-2.233,7.064-4.876,12.897-7.93,17.5
		c-0.593-1.959-1.322-3.965-2.188-6.016c4.739-7.474,8.089-15.563,10.049-24.268h-9.57v-4.58h9.639v-13.535h4.717v13.535h8.887v4.58
		h-8.887V307.28z M327.149,328.95c-2.962-4.146-6.517-8.636-10.664-13.467c-2.37,6.198-6.175,11.621-11.416,16.27
		c-0.775-1.048-1.641-2.142-2.598-3.281v16.748h-5.195v-46.826h16.953c0.045-2.962,0.091-6.448,0.137-10.459h-19.482v-4.785h43.887
		v4.785h-19.141c-0.046,3.691-0.114,7.178-0.205,10.459h17.158v38.76c0,4.876-2.393,7.337-7.178,7.383
		c-2.598,0.045-6.016,0.022-10.254-0.068c-0.228-1.459-0.57-3.145-1.025-5.059c3.965,0.318,6.995,0.455,9.092,0.41
		c2.78,0,4.17-1.162,4.17-3.486v-11.006L327.149,328.95z M302.471,326.558c6.836-5.97,10.687-13.899,11.553-23.789h-11.553V326.558z
		 M318.125,309.878c4.329,4.648,8.75,9.707,13.262,15.176v-22.285h-12.168C319.037,305.275,318.672,307.645,318.125,309.878z"/>
	<path fill="#FFFFFF" d="M409.18,334.897c-1.275,1.549-2.553,3.235-3.828,5.059c-12.008-5.992-21.236-13.74-27.686-23.242v28.574
		h-5.332v-28.506c-6.927,9.184-16.179,17.182-27.754,23.994c-0.866-1.23-2.097-2.758-3.691-4.58
		c12.373-6.494,22.148-14.31,29.326-23.447h-28.232v-5.059h30.352v-12.852h-26.318v-5.059h26.318v-11.689h5.332v11.689h26.592v5.059
		h-26.592v12.852h30.352v5.059H379.58C386.918,322.548,396.783,329.931,409.18,334.897z"/>
	<path fill="#FFFFFF" d="M438.984,338.657l14.014,0.342l26.113-0.615c-0.775,1.822-1.527,3.577-2.256,5.264l-23.721,0.273
		l-14.766-0.342c-7.338-0.092-12.828-2.689-16.475-7.793c-1.322,1.048-3.988,3.965-7.998,8.75l-2.939-5.811
		c2.848-2.574,5.674-5.059,8.477-7.451v-23.857h-7.793v-4.99h13.125v29.839C428.092,336.321,432.832,338.452,438.984,338.657z
		 M419.365,279.39c3.145,3.965,6.176,8.044,9.092,12.236l-4.854,3.418c-2.689-4.284-5.561-8.522-8.613-12.715L419.365,279.39z
		 M430.234,321.089h22.969v-9.502h-19.893v-4.854c2.779-4.854,5.309-10.003,7.588-15.449h-9.844v-4.785h11.758
		c1.094-2.871,2.119-5.811,3.076-8.818l5.742,1.23c-0.98,2.575-1.982,5.104-3.008,7.588h27.959v4.785h-29.941
		c-2.324,5.423-4.717,10.596-7.178,15.518h13.74v-11.826h5.469v11.826h17.5v4.785h-17.5v9.502h19.414v4.785h-19.414v11.279h-5.469
		v-11.279h-22.969V321.089z"/>
	<path fill="#FFFFFF" d="M481.094,314.8c3.236-0.889,6.381-1.789,9.434-2.7v-15.62h-8.613v-4.922h8.613v-12.783h5.059v12.783h7.861
		v4.922h-7.861v14.048c2.164-0.684,4.283-1.378,6.357-2.085c0.045,2.051,0.182,3.828,0.41,5.332
		c-2.348,0.752-4.604,1.493-6.768,2.222v21.089c0,4.922-2.211,7.405-6.631,7.451c-1.686,0.045-3.828,0.022-6.426-0.068
		c-0.182-1.869-0.455-3.76-0.82-5.674c2.734,0.273,4.672,0.41,5.811,0.41c2.006,0,3.008-1.208,3.008-3.623v-17.91
		c-3.121,1.049-6.039,2.051-8.75,3.008L481.094,314.8z M499.688,340.298c8.887-1.299,16.121-3.441,21.705-6.426
		c-4.262-1.914-8.83-3.919-13.707-6.016c1.959-2.529,3.771-5.059,5.436-7.588h-11.246v-4.58h14.117
		c1.457-2.461,2.791-4.922,3.998-7.383l5.059,2.119c-1.094,1.823-2.176,3.578-3.246,5.264h26.283v4.58h-8.988
		c-1.801,5.014-4.467,9.24-7.998,12.681c5.811,2.415,11.449,4.819,16.918,7.212l-3.008,5.059
		c-5.127-2.712-11.166-5.674-18.115-8.887c-6.107,4.146-14.311,7.2-24.609,9.16C501.646,343.989,500.781,342.257,499.688,340.298z
		 M502.08,302.7h26.627c2.893-4.01,5.457-7.77,7.689-11.279l5.127,2.803c-2.369,2.849-4.773,5.674-7.211,8.477h14.252v4.58H502.08
		V302.7z M504.746,286.089h19.313c-1.072-2.073-2.199-4.124-3.385-6.152l4.58-2.119c1.459,2.461,2.848,4.945,4.17,7.451l-1.742,0.82
		h19.242v4.58h-42.178V286.089z M510.898,294.155l3.965-2.666c2.143,2.507,4.215,5.15,6.221,7.93l-4.375,2.939
		C514.977,299.533,513.041,296.799,510.898,294.155z M514.795,326.353c3.805,1.504,7.531,3.008,11.178,4.512
		c3.576-2.894,6.117-6.426,7.621-10.596h-14.73C517.473,322.388,516.117,324.416,514.795,326.353z"/>
</g>
<g>
	<path fill="#EEEEEE" d="M229.488,580.852c2.313,1.672,4.805,2.508,7.477,2.508c3.578,0,5.367-1.172,5.367-3.516
		c0-1-0.391-1.824-1.172-2.473s-2.367-1.418-4.758-2.309c-2.875-1.156-4.742-2.301-5.602-3.434s-1.289-2.504-1.289-4.113
		c0-2.297,0.973-4.137,2.918-5.52s4.34-2.074,7.184-2.074c2.203,0,4.25,0.383,6.141,1.148v4.43c-1.938-1.25-4.133-1.875-6.586-1.875
		c-1.469,0-2.664,0.32-3.586,0.961s-1.383,1.484-1.383,2.531c0,1.031,0.332,1.836,0.996,2.414s2.137,1.32,4.418,2.227
		c2.891,1.078,4.844,2.195,5.859,3.352s1.523,2.586,1.523,4.289c0,2.375-0.973,4.246-2.918,5.613s-4.465,2.051-7.559,2.051
		c-2.688,0-5.031-0.508-7.031-1.523V580.852z"/>
	<path fill="#EEEEEE" d="M257.754,582.797v3.656h-4.594v-38.367h4.594v16.922h0.094c2.031-3.391,5-5.086,8.906-5.086
		c3.25,0,5.832,1.145,7.746,3.434s2.871,5.418,2.871,9.387c0,4.375-1.074,7.855-3.223,10.441s-5.012,3.879-8.59,3.879
		c-3.375,0-5.945-1.422-7.711-4.266H257.754z M257.73,575.789c0,2.094,0.68,3.863,2.039,5.309s3.063,2.168,5.109,2.168
		c2.438,0,4.344-0.938,5.719-2.813s2.063-4.469,2.063-7.781c0-2.734-0.641-4.91-1.922-6.527s-3.031-2.426-5.25-2.426
		c-2.25,0-4.105,0.805-5.566,2.414s-2.191,3.656-2.191,6.141V575.789z"/>
	<path fill="#EEEEEE" d="M282.504,584.039c0-0.844,0.289-1.555,0.867-2.133s1.297-0.867,2.156-0.867c0.875,0,1.602,0.293,2.18,0.879
		s0.867,1.293,0.867,2.121c0,0.813-0.289,1.512-0.867,2.098s-1.313,0.879-2.203,0.879c-0.859,0-1.574-0.293-2.145-0.879
		S282.504,584.852,282.504,584.039z"/>
	<path fill="#EEEEEE" d="M299.965,582.797v15.586h-4.594v-37.852h4.594v4.477h0.094c2.031-3.391,5-5.086,8.906-5.086
		c3.313,0,5.91,1.16,7.793,3.48s2.824,5.434,2.824,9.34c0,4.313-1.066,7.777-3.199,10.395s-5.004,3.926-8.613,3.926
		c-3.328,0-5.898-1.422-7.711-4.266H299.965z M299.941,575.766c0,2.109,0.68,3.887,2.039,5.332s3.063,2.168,5.109,2.168
		c2.438,0,4.344-0.938,5.719-2.813s2.063-4.469,2.063-7.781c0-2.797-0.641-4.988-1.922-6.574s-3.031-2.379-5.25-2.379
		c-2.266,0-4.125,0.805-5.578,2.414s-2.18,3.672-2.18,6.188V575.766z"/>
	<path fill="#EEEEEE" d="M326.004,586.453v-38.367h4.594v38.367H326.004z"/>
	<path fill="#EEEEEE" d="M360.199,586.453h-4.617v-4.078h-0.094c-1.734,3.125-4.398,4.688-7.992,4.688
		c-6.141,0-9.211-3.672-9.211-11.016v-15.516h4.547v14.836c0,5.266,2.016,7.898,6.047,7.898c2,0,3.617-0.738,4.852-2.215
		s1.852-3.34,1.852-5.59v-14.93h4.617V586.453z"/>
	<path fill="#EEEEEE" d="M366.926,580.852c2.313,1.672,4.805,2.508,7.477,2.508c3.578,0,5.367-1.172,5.367-3.516
		c0-1-0.391-1.824-1.172-2.473s-2.367-1.418-4.758-2.309c-2.875-1.156-4.742-2.301-5.602-3.434s-1.289-2.504-1.289-4.113
		c0-2.297,0.973-4.137,2.918-5.52s4.34-2.074,7.184-2.074c2.203,0,4.25,0.383,6.141,1.148v4.43c-1.938-1.25-4.133-1.875-6.586-1.875
		c-1.469,0-2.664,0.32-3.586,0.961s-1.383,1.484-1.383,2.531c0,1.031,0.332,1.836,0.996,2.414s2.137,1.32,4.418,2.227
		c2.891,1.078,4.844,2.195,5.859,3.352s1.523,2.586,1.523,4.289c0,2.375-0.973,4.246-2.918,5.613s-4.465,2.051-7.559,2.051
		c-2.688,0-5.031-0.508-7.031-1.523V580.852z"/>
	<path fill="#EEEEEE" d="M390.035,551.391c0-0.813,0.277-1.496,0.832-2.051s1.238-0.832,2.051-0.832c0.828,0,1.527,0.273,2.098,0.82
		s0.855,1.234,0.855,2.063c0,0.813-0.285,1.488-0.855,2.027s-1.27,0.809-2.098,0.809s-1.516-0.27-2.063-0.809
		S390.035,552.203,390.035,551.391z M390.574,586.453v-25.922h4.594v25.922H390.574z"/>
	<path fill="#EEEEEE" d="M402.809,551.391c0-0.813,0.277-1.496,0.832-2.051s1.238-0.832,2.051-0.832c0.828,0,1.527,0.273,2.098,0.82
		s0.855,1.234,0.855,2.063c0,0.813-0.285,1.488-0.855,2.027s-1.27,0.809-2.098,0.809s-1.516-0.27-2.063-0.809
		S402.809,552.203,402.809,551.391z M403.348,586.453v-25.922h4.594v25.922H403.348z"/>
	<path fill="#EEEEEE" d="M414.832,584.039c0-0.844,0.289-1.555,0.867-2.133s1.297-0.867,2.156-0.867c0.875,0,1.602,0.293,2.18,0.879
		s0.867,1.293,0.867,2.121c0,0.813-0.289,1.512-0.867,2.098s-1.313,0.879-2.203,0.879c-0.859,0-1.574-0.293-2.145-0.879
		S414.832,584.852,414.832,584.039z"/>
	<path fill="#EEEEEE" d="M445.605,585.281c-1.984,1.188-4.375,1.781-7.172,1.781c-3.75,0-6.766-1.203-9.047-3.609
		s-3.422-5.523-3.422-9.352c0-4.25,1.23-7.676,3.691-10.277s5.754-3.902,9.879-3.902c2.375,0,4.406,0.422,6.094,1.266v4.547
		c-1.828-1.344-3.859-2.016-6.094-2.016c-2.625,0-4.762,0.91-6.41,2.73s-2.473,4.246-2.473,7.277c0,2.984,0.777,5.32,2.332,7.008
		s3.652,2.531,6.293,2.531c2.234,0,4.344-0.734,6.328-2.203V585.281z"/>
	<path fill="#EEEEEE" d="M450.035,573.773c0-4.281,1.195-7.66,3.586-10.137s5.633-3.715,9.727-3.715
		c3.891,0,6.941,1.191,9.152,3.574s3.316,5.676,3.316,9.879c0,4.094-1.18,7.398-3.539,9.914s-5.523,3.773-9.492,3.773
		c-3.875,0-6.969-1.219-9.281-3.656S450.035,577.758,450.035,573.773z M454.723,573.633c0,2.984,0.754,5.336,2.262,7.055
		s3.535,2.578,6.082,2.578c2.625,0,4.625-0.84,6-2.52s2.063-4.09,2.063-7.23c0-3.156-0.688-5.578-2.063-7.266s-3.375-2.531-6-2.531
		c-2.578,0-4.613,0.883-6.105,2.648S454.723,570.555,454.723,573.633z"/>
	<path fill="#EEEEEE" d="M519.598,586.453h-4.594V571.57c0-2.813-0.438-4.824-1.313-6.035s-2.313-1.816-4.313-1.816
		c-1.688,0-3.133,0.789-4.336,2.367s-1.805,3.445-1.805,5.602v14.766h-4.594v-15.352c0-4.922-1.898-7.383-5.695-7.383
		c-1.75,0-3.199,0.75-4.348,2.25s-1.723,3.414-1.723,5.742v14.742h-4.594v-25.922h4.594v4.102h0.094
		c1.844-3.141,4.539-4.711,8.086-4.711c1.734,0,3.266,0.477,4.594,1.43s2.25,2.242,2.766,3.867c1.922-3.531,4.797-5.297,8.625-5.297
		c5.703,0,8.555,3.516,8.555,10.547V586.453z"/>
</g>
<g>
	<path fill="#FFFFFF" d="M248.458,431.555c-4.258-4.974-6.387-11.101-6.387-18.379c0-7.591,2.161-13.841,6.484-18.75h2.051
		c-4.401,5.065-6.602,11.302-6.602,18.711c0,6.992,2.174,13.132,6.523,18.418H248.458z"/>
	<path fill="#FFFFFF" d="M256.446,414.875l-0.371-2.188c0.729-0.208,1.842-0.534,3.34-0.977c0.938-0.273,1.641-0.481,2.109-0.625
		v-9.492h-5v-1.914h5v-7.637h2.07v7.637h4.199v1.914h-4.199v8.848c0.364-0.117,0.931-0.3,1.699-0.547
		c1.133-0.352,1.979-0.625,2.539-0.82c0,0.769,0.059,1.465,0.176,2.09c-0.547,0.156-1.374,0.41-2.48,0.762
		c-0.859,0.261-1.504,0.456-1.934,0.586v12.695c0.117,2.461-1.068,3.711-3.555,3.75c-0.938,0.052-1.927,0.078-2.969,0.078
		c-0.104-0.808-0.234-1.55-0.391-2.227c0.794,0.078,1.771,0.117,2.93,0.117c1.328,0.052,1.966-0.534,1.914-1.758v-11.973
		C259.271,413.938,257.579,414.497,256.446,414.875z M269.395,408.918h5.957c1.016-2.214,1.927-4.466,2.734-6.758l2.148,0.645
		c-0.078,0.169-0.189,0.43-0.332,0.781c-1.003,2.383-1.771,4.16-2.305,5.332h16.113v1.953h-4.824
		c-1.237,4.519-3.171,8.066-5.801,10.645c3.45,1.875,6.914,3.782,10.391,5.723l-1.406,1.875c-4.714-2.825-8.229-4.876-10.547-6.152
		c-3.112,2.539-7.728,4.727-13.848,6.563c-0.248-0.508-0.658-1.191-1.23-2.051c5.729-1.445,10.098-3.308,13.105-5.586
		c-2.5-1.419-5.326-2.969-8.477-4.648c1.055-1.667,2.188-3.789,3.398-6.367h-5.078V408.918z M278.77,392.844l1.875-0.84
		c0.911,1.55,1.816,3.203,2.715,4.961l-1.719,0.762h11.191v6.426h-2.031v-4.473h-18.672v4.473h-2.051v-6.426h11.25
		C280.729,396.438,279.876,394.81,278.77,392.844z M273.848,416.594c0.664,0.364,1.699,0.918,3.105,1.66
		c1.862,0.977,3.274,1.731,4.238,2.266c2.565-2.37,4.395-5.586,5.488-9.648h-10C275.755,412.851,274.812,414.758,273.848,416.594z"
		/>
	<path fill="#FFFFFF" d="M296.915,412.922c-0.3-0.847-0.619-1.647-0.957-2.402c3.919-5.352,7.051-11.472,9.395-18.359l2.168,0.684
		c-1.198,3.203-2.409,6.055-3.633,8.555v28.164h-2.09v-24.16C300.118,408.371,298.49,410.878,296.915,412.922z M308.77,425.246
		h11.543v-13.281h-12.227v-2.051h12.227v-12.637c-3.242,0.234-6.706,0.449-10.391,0.645c-0.052-0.729-0.156-1.413-0.313-2.051
		c8.242-0.378,15.677-0.938,22.305-1.68l0.449,2.09c-3.607,0.364-6.901,0.645-9.883,0.84v12.793h11.563v2.051h-11.563v13.281h10.996
		v1.992H308.77V425.246z"/>
	<path fill="#FFFFFF" d="M340.567,420.441l1.914,0.918c-1.654,2.644-3.132,4.831-4.434,6.563c-0.625-0.456-1.244-0.859-1.855-1.211
		C337.676,424.94,339.134,422.851,340.567,420.441z M353.243,392.199l1.992-0.488c0.417,1.211,0.846,2.52,1.289,3.926h14.668v1.719
		h-7.793l1.484,0.762c-0.052,0.065-0.144,0.176-0.273,0.332c-1.146,1.433-2.031,2.493-2.656,3.184h11.68v1.719h-37.305v-1.719
		h11.543c-1.042-1.289-1.986-2.435-2.832-3.438l1.152-0.84h-7.422v-1.719h15.586C354.147,394.895,353.776,393.749,353.243,392.199z
		 M341.368,406.32h26.953V418h-26.953V406.32z M343.438,408.039v3.242h22.793v-3.242H343.438z M343.438,412.961v3.32h22.793v-3.32
		H343.438z M345.762,420.07h2.07v3.496c-0.013,1.224,0.202,2.019,0.645,2.383c0.403,0.391,1.295,0.579,2.676,0.566h7.617
		c2.227,0.117,3.502-0.625,3.828-2.227c0.234-0.911,0.462-1.992,0.684-3.242c0.521,0.247,1.185,0.501,1.992,0.762
		c-0.234,1.354-0.501,2.461-0.801,3.32c-0.573,2.227-2.305,3.301-5.195,3.223h-8.711c-1.836,0.013-3.093-0.313-3.77-0.977
		c-0.703-0.638-1.048-1.816-1.035-3.535V420.07z M349.883,400.793l-1.289,0.84h10.918c0.95-1.133,2.031-2.559,3.242-4.277h-15.84
		C348.165,398.749,349.154,399.895,349.883,400.793z M352.325,419.836l1.523-1.27c1.797,1.653,3.274,3.054,4.434,4.199l-1.641,1.387
		C355.69,423.137,354.251,421.698,352.325,419.836z M367.833,421.164l1.68-1.133c1.419,1.719,2.917,3.626,4.492,5.723l-1.797,1.25
		C370.918,425.168,369.46,423.222,367.833,421.164z"/>
	<path fill="#FFFFFF" d="M376.992,405.715c-0.325-0.456-0.748-0.977-1.27-1.563c2.136-3.308,3.789-7.422,4.961-12.344l1.914,0.391
		c-0.664,2.383-1.25,4.251-1.758,5.605h5.527v1.719h-6.211C379.258,401.724,378.203,403.788,376.992,405.715z M376.191,411.477
		h4.199v-5.234h-2.031v-1.68h7.363v1.68h-3.438v5.234h4.551v1.719h-4.551v10c1.315-1.276,2.604-2.565,3.867-3.867
		c0.365,0.794,0.671,1.394,0.918,1.797c-1.197,1.094-2.818,2.649-4.863,4.668c-0.299,0.3-0.742,0.808-1.328,1.523l-1.367-1.309
		c0.612-0.716,0.905-1.517,0.879-2.402v-10.41h-4.199V411.477z M402.793,427.844c-5.716-0.222-9.596-1.687-11.641-4.395
		c-0.95,1.771-2.376,3.757-4.277,5.957c-0.338-0.391-0.859-0.859-1.563-1.406c2.292-2.526,3.842-4.661,4.648-6.406
		c-1.016-1.823-1.979-4.434-2.891-7.832l1.738-0.605c0.664,2.513,1.367,4.57,2.109,6.172c0.808-2.161,1.381-5.442,1.719-9.844
		h-5.039v-1.973l5.527-10.273h-5.566v-1.758h7.52v1.953l-5.469,10.293h4.863v1.758c-0.403,5.169-1.185,9.141-2.344,11.914
		c1.758,2.917,5.437,4.44,11.035,4.57c1.889,0.091,3.926,0.137,6.113,0.137c1.264,0,2.787-0.02,4.57-0.059
		c-0.299,0.625-0.54,1.289-0.723,1.992C409.05,428.026,405.605,427.961,402.793,427.844z M397.129,397.434v-1.68h5.195v-3.867h1.875
		v3.867h6.875v5.449h2.598v1.719h-2.598v5.566h-6.875v4.023h7.285v1.68h-7.285v3.887h8.164v1.719h-8.164v4.316h-1.875v-4.316h-6.797
		v-1.719h6.797v-3.887h-5.879v-1.68h5.879v-4.023h-5.195v-1.68h5.195v-3.887h-7.09v-1.719h7.09v-3.77H397.129z M409.238,397.434
		h-5.039v3.77h5.039V397.434z M404.199,402.922v3.887h5.039v-3.887H404.199z"/>
	<path fill="#FFFFFF" d="M418.281,394.797h34.16v2.129h-8.008v12.266h9.688v2.168h-9.688v18.008h-2.227v-18.008h-13.242
		c0.026,0.481,0.039,0.977,0.039,1.484c0,7.761-3.411,13.359-10.234,16.797c-0.494-0.69-1.028-1.354-1.602-1.992
		c3.854-2.148,6.381-4.304,7.578-6.465c1.328-2.136,1.999-5.41,2.012-9.824h-10.195v-2.168h10.195v-12.266h-8.477V394.797z
		 M429.004,396.926v12.266h13.203v-12.266H429.004z"/>
	<path fill="#FFFFFF" d="M471.191,423.527l-1.543,1.68c-1.797-1.667-3.346-3.079-4.648-4.238c-1.613,2.474-4.146,5.149-7.598,8.027
		c-0.313-0.403-0.82-0.964-1.523-1.68c3.398-2.734,5.906-5.332,7.52-7.793c-0.949-0.847-2.441-2.136-4.473-3.867
		c-0.586-0.508-1.027-0.886-1.328-1.133c0.951-3.516,1.83-7.585,2.637-12.207h-4.199v-1.953h4.531
		c0.469-3.06,0.867-5.833,1.191-8.32l2.207,0.234c-0.508,3.308-0.949,6.003-1.328,8.086h7.402v2.031
		c-0.625,7.683-1.934,13.255-3.926,16.719C467.377,420.168,469.07,421.64,471.191,423.527z M467.969,402.316h-5.645
		c-0.832,4.492-1.672,8.359-2.52,11.602c0.223,0.183,0.547,0.449,0.977,0.801c1.59,1.289,2.807,2.292,3.652,3.008
		C466.283,414.38,467.461,409.243,467.969,402.316z M474.688,405.441c1.043-0.039,2.715-0.11,5.02-0.215
		c2.969-0.13,6.094-0.247,9.375-0.352c-1.223-2.058-2.492-4.108-3.809-6.152l1.719-1.074c2.227,3.229,4.5,6.895,6.816,10.996
		l-1.973,1.113c-0.586-1.094-1.133-2.077-1.641-2.949c-3.879,0.078-8.678,0.261-14.395,0.547c-0.117,0.013-0.299,0.026-0.547,0.039
		c-1.301,0.065-2.227,0.176-2.773,0.332l-1.152-2.129c0.938-0.612,1.816-1.504,2.637-2.676c2.422-3.398,4.584-7.09,6.484-11.074
		l2.188,0.801C479.902,397.44,477.254,401.704,474.688,405.441z M473.32,412.766h17.715v16.797h-2.07v-2.676h-13.574v2.676h-2.07
		V412.766z M475.391,414.641v10.352h13.574v-10.352H475.391z"/>
	<path fill="#FFFFFF" d="M501.543,431.555h-2.07c4.35-5.286,6.523-11.426,6.523-18.418c0-7.409-2.199-13.646-6.602-18.711h2.07
		c4.311,4.935,6.465,11.185,6.465,18.75C507.93,420.48,505.801,426.606,501.543,431.555z"/>
</g>
</svg>
