<?xml version="1.0" encoding="utf-8"?>
<!-- Generator: Adobe Illustrator 16.0.0, SVG Export Plug-In . SVG Version: 6.00 Build 0)  -->
<!DOCTYPE svg PUBLIC "-//W3C//DTD SVG 1.1//EN" "http://www.w3.org/Graphics/SVG/1.1/DTD/svg11.dtd">
<svg version="1.1" id="Layer_1" xmlns="http://www.w3.org/2000/svg" xmlns:xlink="http://www.w3.org/1999/xlink" x="0px" y="0px"
	 width="70.66px" height="128.036px" viewBox="0 0 70.66 128.036" enable-background="new 0 0 70.66 128.036" xml:space="preserve">
<g>
	<g id="Up">
		<g>
			<path fill="#EBEBEB" d="M40.432,41.552V7.333c0-0.043,0.007-0.093,0.014-0.142l0.06-0.227c0.029-0.041,0.066-0.107,0.082-0.133
				c0.496-0.809,2.105-1.517,4.535-1.992c0.306-0.068,0.594-0.126,0.89-0.182c0.351-0.063,0.657-0.112,0.958-0.135
				c0.035-0.003,0.128-0.016,0.162-0.026c0.256-0.029,0.578-0.072,0.906-0.111c0.336-0.04,0.674-0.076,1.019-0.109
				c0.364-0.034,0.692-0.06,1.022-0.083l2.369-0.077c0.354-0.008,0.701-0.012,1.047-0.012c7.325,0,13.063,1.418,13.063,3.229
				c0.001,0.172,0.001,15.928,0.001,34.219L53.496,54.604L40.432,41.552z"/>
			<path fill="#EDF4F4" d="M53.496,4.604c8.088,0,12.563,1.613,12.563,2.729c0,0.015,0,0.029,0.001,0.044v33.968L53.496,53.897
				L40.932,41.344V7.336c0-0.021,0.004-0.043,0.004-0.043l0,0c0-0.003,0.001-0.007,0.002-0.011l0.001-0.003
				c0.014-0.035,0.029-0.094,0.039-0.134c0.012-0.018,0.023-0.036,0.036-0.055c0.153-0.25,0.905-1.114,4.187-1.759
				c0.02-0.003,0.041-0.007,0.061-0.012c0.271-0.062,0.555-0.119,0.833-0.171l0.081-0.014c0.332-0.061,0.599-0.098,0.795-0.114
				c0.048-0.002,0.113-0.006,0.188-0.02c0.309-0.042,0.612-0.082,0.92-0.119c0.008-0.001,0.016-0.002,0.023-0.003
				c0.328-0.04,0.663-0.075,1.002-0.107l0,0c0.016-0.001,0.031-0.002,0.039-0.003c0.32-0.03,0.645-0.056,0.966-0.078l0.117-0.006
				c0.19-0.008,0.382-0.013,0.573-0.017l0.396-0.01c0.068-0.002,0.136-0.005,0.169-0.008c0.325-0.013,0.651-0.025,0.979-0.033
				l0.125-0.001C52.808,4.608,53.152,4.604,53.496,4.604 M53.496,3.604c-0.351,0-0.703,0.004-1.053,0.012
				c-0.041,0-0.083,0.001-0.125,0.002c-0.333,0.008-0.664,0.02-0.994,0.033c-0.055,0.004-0.109,0.006-0.166,0.008
				c-0.326,0.01-0.654,0.014-0.977,0.028c-0.047,0.002-0.092,0.004-0.139,0.007c-0.334,0.023-0.668,0.05-0.996,0.081
				c-0.014,0.001-0.026,0.003-0.041,0.003c-0.348,0.033-0.69,0.07-1.026,0.11h-0.002c-0.331,0.04-0.656,0.083-0.989,0.128
				c-0.013,0.004-0.033,0.006-0.059,0.007c-0.317,0.024-0.643,0.076-0.938,0.13c-0.025,0.004-0.05,0.008-0.074,0.012
				c-0.301,0.057-0.597,0.116-0.881,0.181c-0.004,0-0.008,0.001-0.013,0.002c-2.427,0.475-4.25,1.215-4.864,2.222
				c-0.041,0.041-0.076,0.1-0.106,0.165c-0.003,0.006-0.007,0.011-0.009,0.017c-0.016,0.06-0.029,0.12-0.045,0.182
				c-0.006,0.019-0.012,0.027-0.017,0.041c-0.012,0.045-0.024,0.093-0.032,0.142c-0.012,0.075-0.021,0.15-0.021,0.216
				c0,7.742,0,20.596,0,34.426l13.563,13.552l13.563-13.552c0-18.983,0-34.425,0-34.425h-0.001V7.333
				C67.058,4.831,60.262,3.604,53.496,3.604L53.496,3.604z"/>
		</g>
		<path fill="#DBDBDB" d="M45.026,4.347c0.004,0,0.009-0.001,0.013-0.002c0.285-0.063,0.58-0.124,0.881-0.181
			c0.024-0.004,0.049-0.008,0.074-0.012c0.295-0.054,0.619-0.105,0.938-0.13c0.025-0.001,0.046-0.003,0.059-0.007
			c0.334-0.045,0.658-0.088,0.989-0.128h0.002c0.336-0.041,0.679-0.077,1.026-0.11c0.015,0,0.027-0.002,0.041-0.003
			c0.328-0.031,0.662-0.057,0.996-0.081c0.047-0.003,0.093-0.005,0.139-0.007c0.322-0.014,0.648-0.018,0.977-0.028
			c0.057-0.002,0.111-0.004,0.166-0.008c0.33-0.013,0.661-0.025,0.994-0.033c0.042-0.001,0.083-0.001,0.125-0.002
			c0.35-0.008,0.702-0.012,1.053-0.012c6.768,0,13.563,1.227,13.563,3.729l2.755-2.772c-0.901-1.367-2.715-2.707-6.146-3.524
			C60.927,0.362,57.313,0,53.496,0c-3.847,0-7.459,0.362-10.181,1.036c-2.94,0.717-4.715,1.796-5.726,2.963l2.57,2.57
			C40.776,5.563,42.599,4.822,45.026,4.347z"/>
		<path fill="#E3E3E3" d="M67.058,7.333L67.058,7.333c0.001,0,0.001,15.442,0.001,34.425l3.601-3.625v-30.8
			c0-0.852-0.223-1.835-0.847-2.773L67.058,7.333L67.058,7.333z"/>
		<path fill="#D6D6D6" d="M39.932,7.333c0-0.066,0.008-0.142,0.021-0.216c0.008-0.049,0.021-0.096,0.032-0.142
			c0.005-0.014,0.011-0.022,0.017-0.041c0.016-0.062,0.028-0.122,0.045-0.183c0.004-0.005,0.007-0.011,0.01-0.017
			c0.029-0.065,0.066-0.124,0.105-0.165l-2.57-2.57C36.621,5.12,36.33,6.292,36.33,7.333v30.802l3.603,3.625
			C39.932,27.929,39.932,15.075,39.932,7.333z"/>
	</g>
	<g id="Down">
		<g>
			<path fill="#EBEBEB" d="M17.166,51.211c-7.132,0-12.742-1.323-13.049-3.078c-0.008-0.049-0.014-0.103-0.014-0.148
				c0-0.138,0-15.419,0-34.217L17.166,0.707L30.23,13.769v34.217c0,0.045-0.006,0.099-0.015,0.152
				C29.909,49.888,24.298,51.211,17.166,51.211z"/>
			<path fill="#EDF4F4" d="M17.166,1.414L29.73,13.976v34.009c0,0.021-0.004,0.046-0.006,0.063
				c-0.195,1.117-4.668,2.664-12.558,2.664c-7.889,0-12.361-1.547-12.556-2.656c-0.004-0.027-0.008-0.054-0.008-0.07v-34.01
				L17.166,1.414 M17.166,0L3.602,13.562c0,18.978,0,34.424,0,34.424l0,0c0,0.07,0.007,0.152,0.021,0.234
				c0.408,2.329,6.975,3.491,13.542,3.491c6.568,0,13.135-1.162,13.542-3.491c0.014-0.082,0.021-0.165,0.021-0.234
				c0-7.745,0-20.598,0-34.424L17.166,0L17.166,0z"/>
		</g>
		<path fill="#F0F0F0" d="M30.729,47.985l2.754,2.77c0.624-0.945,0.846-1.92,0.846-2.77V17.182l-3.6-3.62
			C30.729,27.387,30.729,40.24,30.729,47.985z"/>
		<path fill="#E8E8E8" d="M30.708,48.22c-0.407,2.329-6.975,3.491-13.542,3.491S4.032,50.549,3.624,48.22
			c-0.014-0.082-0.021-0.165-0.021-0.234l-2.785,2.771c0.929,1.367,2.743,2.702,6.168,3.522c2.721,0.672,6.333,1.041,10.18,1.041
			c3.818,0,7.432-0.369,10.175-1.041c3.43-0.82,5.243-2.157,6.143-3.524l-2.754-2.77C30.729,48.055,30.722,48.138,30.708,48.22z"/>
		<path fill="#E3E3E3" d="M3.603,47.985L3.603,47.985c0,0,0-15.446,0-34.424L0,17.182v30.804v0.846l0.093,0.236
			c0.128,0.545,0.345,1.119,0.724,1.689L3.603,47.985L3.603,47.985z"/>
	</g>
</g>
<g>
	<g id="Right">
		<g>
			<path fill="#EBEBEB" d="M13.771,87.558L0.708,74.497l13.063-13.052h34.212c1.81,0,3.226,5.735,3.226,13.058
				s-1.416,13.057-3.226,13.057L13.771,87.558L13.771,87.558z"/>
			<path fill="#EDF4F4" d="M47.983,61.945c1.138,0,2.726,4.777,2.726,12.556c0,7.781-1.588,12.558-2.726,12.558H13.978L1.415,74.497
				l12.563-12.552H47.983 M47.983,60.945c-7.759,0-20.613,0-34.419,0L0,74.497l13.564,13.563c18.958,0,34.419,0,34.419,0l0,0
				C52.951,88.058,52.951,60.945,47.983,60.945L47.983,60.945z"/>
		</g>
		<path fill="#E6E6E6" d="M47.983,60.945l2.755-2.778c-0.933-0.621-1.92-0.846-2.755-0.846H17.165l-3.601,3.625
			C27.37,60.945,40.224,60.945,47.983,60.945z"/>
		<path fill="#E8E8E8" d="M47.983,88.058L47.983,88.058c0,0-15.461,0-34.419,0l3.6,3.62h30.819h1.496l0.34-0.346
			c0.308-0.127,0.617-0.303,0.925-0.498L47.983,88.058L47.983,88.058z"/>
		<path fill="#F0F0F0" d="M50.738,58.167l-2.755,2.778c4.968,0,4.968,27.113,0,27.113l2.761,2.776
			c1.368-0.93,2.705-2.746,3.547-6.146c0.664-2.746,1.033-6.357,1.033-10.191c0-3.832-0.369-7.442-1.033-10.188
			C53.447,60.907,52.111,59.096,50.738,58.167z"/>
	</g>
	<g id="left">
		<g>
			<path fill="#EBEBEB" d="M7.34,123.917c-1.82,0-3.247-5.735-3.247-13.058c0-7.321,1.427-13.056,3.247-13.056h34.213l13.063,13.052
				l-13.063,13.062H7.34L7.34,123.917z"/>
			<path fill="#EDF4F4" d="M41.346,98.303l12.563,12.552l-12.563,12.562H7.34c-1.147,0-2.746-4.776-2.746-12.557
				c0-7.779,1.6-12.559,2.747-12.559h34.005 M41.759,97.303c-18.964,0-34.418,0-34.418,0H7.34c-4.995,0-4.995,27.113,0,27.113
				c7.757,0,20.599,0,34.419,0l13.564-13.563L41.759,97.303L41.759,97.303z"/>
		</g>
		<path fill="#DBDBDB" d="M41.759,97.303l-3.602-3.625H7.341c-0.863,0-1.822,0.226-2.784,0.846l2.784,2.777
			C7.341,97.303,22.795,97.303,41.759,97.303z"/>
		<path fill="#D6D6D6" d="M7.34,97.303L7.34,97.303l-2.783-2.778c-1.367,0.931-2.679,2.74-3.525,6.144
			C0.368,103.413,0,107.025,0,110.854c0,3.835,0.368,7.447,1.032,10.193c0.845,3.402,2.158,5.211,3.525,6.143l2.783-2.773
			C2.345,124.417,2.345,97.303,7.34,97.303z"/>
		<path fill="#E5E5E5" d="M7.34,124.417l-2.783,2.773c0.961,0.62,1.92,0.846,2.783,0.846h30.818l3.602-3.619
			C27.938,124.417,15.097,124.417,7.34,124.417z"/>
	</g>
</g>
</svg>
