<?xml version="1.0" encoding="utf-8"?>
<!-- Generator: Adobe Illustrator 16.0.0, SVG Export Plug-In . SVG Version: 6.00 Build 0)  -->
<!DOCTYPE svg PUBLIC "-//W3C//DTD SVG 1.1//EN" "http://www.w3.org/Graphics/SVG/1.1/DTD/svg11.dtd">
<svg version="1.1" id="Layer_1" xmlns="http://www.w3.org/2000/svg" xmlns:xlink="http://www.w3.org/1999/xlink" x="0px" y="0px"
	 width="45px" height="45px" viewBox="0 0 45 45" enable-background="new 0 0 45 45" xml:space="preserve">
<g>
	<rect x="8.836" y="27.635" fill="#1A1A1A" width="8.538" height="8.529"/>
	<path fill="#DEDEDE" d="M16.875,28.135v7.529H9.336v-7.529H16.875 M17.875,27.135H8.336v9.529h9.538L17.875,27.135L17.875,27.135z"
		/>
</g>
<g>
	<rect x="27.625" y="8.836" fill="#1A1A1A" width="8.538" height="8.538"/>
	<path fill="#DEDEDE" d="M35.664,9.336v7.538h-7.538V9.336H35.664 M36.664,8.336h-9.538v9.538h9.538V8.336L36.664,8.336z"/>
</g>
<g>
	<rect x="27.625" y="27.635" fill="#1A1A1A" width="8.538" height="8.529"/>
	<path fill="#DEDEDE" d="M35.664,28.135v7.529h-7.538v-7.529H35.664 M36.664,27.135h-9.538v9.529h9.538V27.135L36.664,27.135z"/>
</g>
<g>
	<rect x="9.335" y="8.836" fill="#FFFFFF" width="8.538" height="8.538"/>
	<path fill="#DEDEDE" d="M17.375,9.336v7.538H9.836V9.336H17.375 M18.375,8.336H8.836v9.538h9.539V8.336L18.375,8.336z"/>
</g>
</svg>
