<?xml version="1.0" encoding="utf-8"?>
<!-- Generator: Adobe Illustrator 16.0.0, SVG Export Plug-In . SVG Version: 6.00 Build 0)  -->
<!DOCTYPE svg PUBLIC "-//W3C//DTD SVG 1.1//EN" "http://www.w3.org/Graphics/SVG/1.1/DTD/svg11.dtd">
<svg version="1.1" id="Layer_1" xmlns="http://www.w3.org/2000/svg" xmlns:xlink="http://www.w3.org/1999/xlink" x="0px" y="0px"
	 width="168.77px" height="83.383px" viewBox="0 0 168.77 83.383" enable-background="new 0 0 168.77 83.383" xml:space="preserve">
<path fill="#1A1A1A" d="M168.77,41.703c0,23.02-18.664,41.68-41.7,41.68c-23.022,0-41.685-18.66-41.685-41.68
	C85.385,18.663,104.047,0,127.07,0C150.105,0,168.77,18.663,168.77,41.703z"/>
<path fill="#808080" d="M127.07,0c-0.011,0-0.021,0-0.032,0c-0.003,0-0.008,0-0.012,0c-0.007,0-0.015,0-0.021,0
	c-0.005,0-0.009,0-0.014,0c-0.006,0-0.014,0-0.02,0c-0.005,0-0.009,0-0.014,0c-0.007,0-0.013,0-0.021,0c-0.004,0-0.009,0-0.013,0
	c-0.007,0-0.013,0-0.021,0c-0.004,0-0.009,0-0.013,0c-0.007,0-0.013,0-0.02,0c-0.004,0-0.01,0-0.014,0c-0.006,0-0.014,0-0.02,0
	c-0.004,0-0.008,0-0.013,0c-0.008,0-0.013,0-0.02,0c-0.005,0-0.01,0-0.015,0c-0.006,0-0.011,0-0.018,0c-0.006,0-0.011,0-0.016,0
	c-0.006,0-0.012,0-0.018,0s-0.011,0-0.016,0s-0.013,0-0.019,0c-0.004,0-0.009,0-0.015,0c-0.005,0-0.014,0-0.019,0s-0.009,0-0.014,0
	c-0.01,0-0.016,0-0.023,0c-0.003,0-0.006,0-0.009,0c-0.011,0-0.021,0-0.033,0c-0.003,0-0.006,0-0.009,0c-0.008,0-0.016,0-0.023,0
	c-0.005,0-0.011,0-0.016,0s-0.01,0-0.016,0c-0.007,0-0.013,0-0.019,0c-0.005,0-0.009,0-0.015,0s-0.013,0-0.019,0
	c-0.005,0-0.008,0-0.014,0s-0.012,0-0.019,0c-0.005,0-0.012,0-0.016,0c-0.006,0-0.012,0-0.018,0c-0.004,0-0.011,0-0.015,0
	c-0.006,0-0.012,0-0.019,0c-0.005,0-0.009,0-0.014,0c-0.007,0-0.013,0-0.019,0c-0.004,0-0.01,0-0.014,0c-0.006,0-0.013,0-0.02,0
	c-0.004,0-0.01,0-0.014,0c-0.006,0-0.013,0-0.02,0c-0.002,0-0.009,0-0.012,0c-0.007,0-0.015,0-0.021,0c-0.003,0-0.005,0-0.008,0
	c-0.009,0-0.018,0-0.024,0c-0.001,0-0.004,0-0.005,0c-0.05,0.001-0.101,0.002-0.149,0.003c-0.001,0-0.002,0-0.004,0
	c-0.009,0-0.018,0-0.026,0.001c-0.001,0-0.002,0-0.005,0c-0.009,0-0.019,0-0.027,0c0,0-0.002,0-0.004,0c-0.01,0-0.02,0-0.028,0.001
	c-0.001,0-0.002,0-0.003,0c-0.009,0-0.018,0-0.027,0.001c-0.001,0-0.003,0-0.005,0c-0.009,0-0.019,0-0.027,0h-0.003
	c-0.01,0-0.02,0.001-0.028,0.001h-0.001c-0.021,0-0.041,0.001-0.063,0.002l0,0c-0.25,0.007-0.499,0.017-0.747,0.029l0.943,19.978
	c0.349-0.017,0.705-0.025,1.056-0.025V0H127.07L127.07,0z M123.075,0.189c-0.057,0.005-0.113,0.011-0.169,0.017l0,0
	c-0.01,0.001-0.02,0.002-0.029,0.003c-0.003,0-0.006,0-0.009,0c-0.008,0.001-0.015,0.001-0.021,0.002
	c-0.004,0-0.009,0.001-0.014,0.001c-0.004,0-0.012,0.001-0.016,0.002c-0.007,0-0.014,0.001-0.021,0.002c-0.002,0-0.004,0-0.007,0
	c-0.008,0.001-0.018,0.002-0.026,0.003h-0.002c-0.561,0.058-1.118,0.126-1.672,0.206l2.844,19.797
	c0.342-0.049,0.69-0.091,1.035-0.124L123.075,0.189L123.075,0.189z M119.118,0.758c-0.03,0.006-0.062,0.012-0.092,0.018
	c-0.001,0-0.001,0-0.002,0c-0.009,0.001-0.017,0.003-0.025,0.005c-0.002,0-0.003,0-0.006,0.001
	c-0.009,0.002-0.017,0.003-0.023,0.005c-0.002,0-0.005,0.001-0.008,0.001c-0.007,0.001-0.016,0.003-0.022,0.004
	c-0.002,0-0.006,0.001-0.009,0.002c-0.007,0.001-0.014,0.002-0.021,0.004c-0.003,0-0.009,0.002-0.012,0.002
	c-0.006,0.001-0.012,0.002-0.018,0.003c-0.004,0.001-0.011,0.002-0.015,0.003c-0.006,0.001-0.012,0.002-0.017,0.003
	c-0.004,0-0.011,0.002-0.015,0.003c-0.005,0.001-0.01,0.002-0.016,0.003c-0.005,0.001-0.011,0.002-0.017,0.003
	c-0.005,0.001-0.01,0.002-0.015,0.003c-0.005,0.001-0.013,0.002-0.019,0.003c-0.004,0.001-0.008,0.001-0.012,0.002
	c-0.008,0.001-0.013,0.002-0.021,0.004c-0.003,0-0.007,0.001-0.01,0.002c-0.008,0.001-0.014,0.003-0.021,0.004
	c-0.003,0-0.006,0.001-0.01,0.002c-0.008,0.001-0.015,0.003-0.022,0.004c-0.003,0.001-0.006,0.001-0.008,0.002
	c-0.009,0.001-0.02,0.004-0.027,0.005c-0.001,0-0.002,0-0.003,0c-0.011,0.002-0.019,0.004-0.03,0.006h-0.001
	c-0.482,0.1-0.964,0.208-1.44,0.324l4.735,19.431c0.333-0.081,0.673-0.155,1.012-0.221L119.118,0.758L119.118,0.758z M115.233,1.705
	c-0.27,0.08-0.536,0.161-0.803,0.246h-0.001c-0.021,0.006-0.041,0.013-0.061,0.02l0,0c-0.02,0.006-0.038,0.012-0.058,0.018
	c-0.001,0-0.003,0.001-0.005,0.001c-0.016,0.005-0.034,0.011-0.05,0.016c-0.312,0.1-0.62,0.204-0.927,0.312l6.591,18.883
	c0.324-0.113,0.654-0.22,0.982-0.316L115.233,1.705L115.233,1.705z M111.458,3.022c-0.619,0.25-1.232,0.516-1.835,0.794
	l8.381,18.159c0.312-0.144,0.631-0.282,0.95-0.411L111.458,3.022L111.458,3.022z M107.827,4.698
	c-0.593,0.309-1.177,0.631-1.75,0.967l10.088,17.27c0.298-0.174,0.604-0.343,0.909-0.502L107.827,4.698L107.827,4.698z
	 M104.375,6.715c-0.56,0.364-1.109,0.74-1.65,1.13L114.42,24.07c0.281-0.203,0.57-0.4,0.859-0.589L104.375,6.715L104.375,6.715z
	 M101.131,9.053c-0.522,0.416-1.034,0.843-1.535,1.283l13.189,15.035c0.261-0.229,0.529-0.455,0.802-0.67L101.131,9.053
	L101.131,9.053z M98.125,11.689c-0.285,0.275-0.565,0.554-0.842,0.836c-0.001,0.001-0.001,0.002-0.003,0.002
	c-0.006,0.007-0.013,0.013-0.019,0.02c-0.002,0.002-0.002,0.002-0.004,0.004c-0.006,0.006-0.011,0.012-0.017,0.018
	c-0.004,0.003-0.006,0.005-0.008,0.008c-0.005,0.004-0.009,0.009-0.014,0.014c-0.003,0.004-0.007,0.007-0.011,0.011
	c-0.003,0.003-0.007,0.007-0.01,0.011c-0.006,0.004-0.011,0.01-0.016,0.015c-0.002,0.002-0.004,0.005-0.007,0.007
	c-0.006,0.006-0.011,0.012-0.018,0.018c-0.001,0.001-0.002,0.002-0.005,0.003c-0.146,0.151-0.291,0.303-0.435,0.455l14.561,13.71
	c0.238-0.253,0.485-0.503,0.735-0.744L98.125,11.689L98.125,11.689z M95.384,14.601c-0.002,0.003-0.005,0.006-0.008,0.009
	c-0.004,0.004-0.008,0.009-0.011,0.014c-0.004,0.003-0.007,0.007-0.01,0.01c-0.004,0.005-0.008,0.009-0.012,0.014
	c-0.003,0.004-0.006,0.008-0.01,0.012s-0.007,0.008-0.01,0.012c-0.004,0.004-0.007,0.007-0.01,0.011
	c-0.004,0.004-0.008,0.009-0.012,0.014c-0.002,0.003-0.005,0.006-0.008,0.009c-0.004,0.005-0.008,0.01-0.013,0.015
	c-0.002,0.002-0.006,0.005-0.007,0.007c-0.005,0.006-0.009,0.011-0.014,0.017c0,0.001-0.003,0.004-0.004,0.005
	c-0.005,0.006-0.011,0.013-0.016,0.019l-0.001,0.002c-0.376,0.444-0.743,0.897-1.102,1.357c-0.006,0.008-0.013,0.016-0.019,0.024
	l15.801,12.26c0.213-0.274,0.435-0.546,0.66-0.81L95.384,14.601L95.384,14.601z M92.933,17.76c-0.053,0.075-0.104,0.151-0.158,0.227
	c-0.001,0.002-0.002,0.003-0.004,0.005c-0.003,0.005-0.006,0.01-0.01,0.015c-0.002,0.003-0.006,0.009-0.009,0.012
	c-0.002,0.003-0.004,0.006-0.006,0.009c-0.317,0.459-0.625,0.924-0.923,1.396l16.899,10.694c0.186-0.292,0.379-0.584,0.579-0.867
	L92.933,17.76L92.933,17.76z M90.795,21.139c-0.153,0.27-0.304,0.542-0.451,0.816c-0.001,0.002-0.001,0.002-0.002,0.004
	c-0.001,0.003-0.003,0.006-0.005,0.009c-0.166,0.309-0.328,0.62-0.487,0.933l17.85,9.024c0.154-0.308,0.319-0.615,0.49-0.915
	L90.795,21.139L90.795,21.139z M88.991,24.707c-0.068,0.151-0.136,0.304-0.2,0.456l-0.001,0.001
	c-0.008,0.019-0.017,0.038-0.024,0.057l0,0c-0.008,0.019-0.017,0.038-0.023,0.057l0,0c-0.181,0.421-0.354,0.846-0.521,1.273
	l18.634,7.264c0.125-0.32,0.259-0.641,0.399-0.955L88.991,24.707L88.991,24.707z M87.539,28.433
	c-0.09,0.268-0.177,0.534-0.261,0.804c-0.001,0.003-0.002,0.006-0.003,0.009c-0.002,0.008-0.004,0.014-0.007,0.021
	c-0.001,0.003-0.002,0.007-0.003,0.01c-0.002,0.007-0.004,0.013-0.006,0.02c-0.001,0.004-0.003,0.008-0.004,0.012
	c-0.002,0.005-0.004,0.014-0.006,0.019c-0.001,0.003-0.002,0.006-0.003,0.009c-0.002,0.006-0.004,0.014-0.006,0.021
	c-0.001,0.003-0.002,0.006-0.004,0.01c-0.002,0.006-0.004,0.015-0.006,0.021c-0.001,0.003-0.002,0.006-0.002,0.008
	c-0.002,0.007-0.005,0.015-0.007,0.021c-0.001,0.003-0.002,0.007-0.003,0.01c-0.002,0.006-0.004,0.014-0.006,0.021
	c-0.001,0.003-0.002,0.006-0.003,0.01c-0.002,0.006-0.004,0.014-0.006,0.021c-0.001,0.003-0.002,0.006-0.003,0.009
	c-0.002,0.006-0.005,0.016-0.008,0.021c0,0.002-0.001,0.005-0.002,0.008c-0.002,0.008-0.004,0.014-0.006,0.022
	c-0.001,0.003-0.002,0.006-0.003,0.009c-0.002,0.006-0.004,0.015-0.006,0.021c-0.001,0.003-0.002,0.005-0.002,0.008
	c-0.002,0.007-0.005,0.015-0.007,0.023c0,0.002-0.001,0.004-0.002,0.006c-0.002,0.008-0.005,0.018-0.007,0.025
	c0,0.001-0.001,0.003-0.001,0.004c-0.002,0.008-0.006,0.018-0.009,0.025c0,0.002-0.001,0.004-0.001,0.006
	c-0.002,0.008-0.005,0.018-0.008,0.025c0,0.001-0.001,0.003-0.001,0.004c-0.002,0.008-0.005,0.019-0.008,0.026
	c0,0.001-0.001,0.003-0.001,0.004c-0.003,0.01-0.005,0.017-0.008,0.027c0,0.001,0,0.001-0.001,0.002
	c-0.003,0.01-0.005,0.018-0.008,0.028c0,0.001,0,0.001,0,0.001c-0.056,0.186-0.108,0.368-0.16,0.554l19.248,5.432
	c0.093-0.33,0.195-0.662,0.305-0.987L87.539,28.433L87.539,28.433z M86.453,32.281c-0.122,0.527-0.233,1.058-0.335,1.593
	c-0.023,0.122-0.045,0.244-0.068,0.366l19.682,3.552c0.062-0.338,0.131-0.68,0.208-1.015L86.453,32.281L86.453,32.281z
	 M85.742,36.215c-0.057,0.426-0.105,0.855-0.148,1.285c0,0.002,0,0.004,0,0.006c-0.001,0.008-0.002,0.016-0.002,0.024
	c0,0.003-0.001,0.007-0.001,0.01c0,0.005-0.001,0.012-0.001,0.018c0,0.005-0.001,0.011-0.001,0.017c0,0.003-0.001,0.008-0.001,0.011
	c0,0.008-0.001,0.016-0.002,0.023v0.002c-0.02,0.197-0.037,0.394-0.053,0.592l19.932,1.654c0.029-0.346,0.065-0.695,0.111-1.039
	L85.742,36.215L85.742,36.215z M85.411,40.2c-0.012,0.319-0.02,0.639-0.023,0.959c0,0.003,0,0.005,0,0.008c0,0.01,0,0.02,0,0.029
	c0,0.001,0,0.003,0,0.004c0,0.019,0,0.038,0,0.056c0,0.003,0,0.007,0,0.011c0,0.008,0,0.017,0,0.025c0,0.005,0,0.011,0,0.016
	c0,0.011,0,0.023,0,0.034c0,0.008,0,0.016,0,0.024c0,0.007,0,0.013,0,0.02c0,0.007,0,0.015,0,0.022c0,0.007,0,0.012,0,0.019
	c0,0.01,0,0.021,0,0.03c0,0.005,0,0.014,0,0.02c0,0.01,0,0.02,0,0.03c0,0.004,0,0.012,0,0.017c0,0.01,0,0.019,0,0.029
	c0,0.004,0,0.008,0,0.012c0,0.014,0,0.027,0,0.041c0,0.004,0,0.007,0,0.011c0,0.011,0,0.021,0,0.032c0,0.004,0,0.008,0,0.012
	c0,0.014,0,0.028,0,0.042l0,0l0,0c0,0.011,0,0.021,0,0.032c0,0.006,0,0.013,0,0.019c0,0.004,0,0.008,0,0.012c0,0.01,0,0.02,0,0.03
	l0,0c0,0.135,0.001,0.27,0.003,0.404l19.999-0.234l-0.001-0.264c0-0.266,0.005-0.532,0.014-0.796L85.411,40.2L85.411,40.2z
	 M105.423,43.021L85.458,44.2c0.033,0.568,0.079,1.137,0.135,1.697c0,0.002,0,0.004,0,0.005c0,0.009,0.001,0.017,0.002,0.024
	c0,0.004,0,0.007,0.001,0.01c0,0.007,0.001,0.014,0.002,0.02c0,0.006,0.001,0.012,0.001,0.017c0,0.004,0.001,0.008,0.001,0.012
	c0,0.007,0.001,0.015,0.002,0.022v0.004c0.006,0.063,0.014,0.123,0.02,0.183l19.886-2.13
	C105.473,43.717,105.444,43.368,105.423,43.021L105.423,43.021z M105.646,45.094l-19.761,3.082c0.002,0.012,0.004,0.023,0.005,0.035
	c0,0.004,0.001,0.006,0.001,0.008c0.001,0.008,0.002,0.017,0.003,0.023c0.001,0.006,0.002,0.012,0.003,0.018
	c0,0.003,0.001,0.009,0.002,0.012c0.001,0.008,0.002,0.018,0.004,0.025c0,0,0,0.002,0,0.004c0.083,0.525,0.178,1.047,0.28,1.566
	c0,0.002,0,0.002,0.001,0.004c0.001,0.008,0.003,0.014,0.004,0.021c0,0.004,0.002,0.01,0.003,0.014c0,0.006,0.001,0.01,0.002,0.014
	c0.001,0.008,0.003,0.016,0.004,0.021c0,0.002,0.001,0.006,0.001,0.008c0.002,0.008,0.004,0.018,0.006,0.027c0,0,0,0,0,0.001
	c0.011,0.056,0.022,0.11,0.033,0.167l19.591-4.029C105.761,45.778,105.699,45.435,105.646,45.094L105.646,45.094z M106.063,47.122
	L86.69,52.092c0.166,0.648,0.349,1.289,0.543,1.925l19.11-5.901C106.242,47.788,106.147,47.454,106.063,47.122L106.063,47.122z
	 M106.671,49.094L87.87,55.913c0.228,0.629,0.47,1.25,0.727,1.863l18.451-7.718C106.915,49.741,106.789,49.417,106.671,49.094
	L106.671,49.094z M107.47,51.002l-18.057,8.599c0.035,0.073,0.068,0.146,0.104,0.218c0.001,0.002,0.003,0.008,0.004,0.01
	c0.002,0.004,0.004,0.006,0.005,0.01c0.003,0.006,0.007,0.014,0.01,0.02c0,0,0.001,0.001,0.001,0.002
	c0.179,0.37,0.362,0.734,0.553,1.098l0,0c0.004,0.008,0.009,0.018,0.013,0.024c0.001,0.002,0.002,0.004,0.003,0.007
	c0.003,0.006,0.007,0.012,0.011,0.018c0.002,0.004,0.004,0.01,0.007,0.014c0.001,0.003,0.004,0.009,0.006,0.012
	c0.003,0.006,0.006,0.012,0.009,0.018c0.001,0.005,0.002,0.005,0.004,0.009c0.058,0.108,0.115,0.218,0.173,0.327l17.623-9.459
	C107.775,51.624,107.618,51.313,107.47,51.002L107.47,51.002z M108.451,52.831L91.303,63.125c0.097,0.16,0.194,0.319,0.293,0.479
	v0.001c0.004,0.007,0.009,0.014,0.013,0.021c0.001,0.002,0.003,0.004,0.004,0.006c0.003,0.005,0.006,0.009,0.009,0.013
	c0.003,0.006,0.007,0.013,0.011,0.019c0,0,0.001,0,0.001,0.002c0.24,0.387,0.487,0.77,0.739,1.147l16.634-11.104
	C108.816,53.422,108.628,53.125,108.451,52.831L108.451,52.831z M109.607,54.563L93.523,66.45c0.074,0.1,0.149,0.2,0.225,0.301l0,0
	c0.006,0.008,0.012,0.017,0.018,0.023l0.002,0.002c0.006,0.008,0.011,0.016,0.018,0.021c0.001,0.002,0.002,0.002,0.003,0.004
	c0.005,0.008,0.01,0.015,0.015,0.021c0.001,0.002,0.002,0.002,0.004,0.004c0.005,0.006,0.01,0.014,0.015,0.02
	c0.001,0.002,0.005,0.005,0.007,0.008c0.004,0.005,0.008,0.012,0.012,0.016c0.002,0.004,0.005,0.006,0.007,0.01
	c0.004,0.004,0.007,0.01,0.011,0.015c0.002,0.003,0.006,0.008,0.009,0.011c0.003,0.004,0.007,0.01,0.011,0.014
	c0.002,0.004,0.006,0.008,0.008,0.012c0.003,0.005,0.007,0.009,0.01,0.014c0.004,0.006,0.006,0.008,0.01,0.014
	c0.004,0.002,0.007,0.006,0.01,0.01c0.004,0.006,0.006,0.01,0.011,0.015c0.002,0.004,0.005,0.007,0.008,0.011
	c0.004,0.006,0.008,0.012,0.012,0.016c0.002,0.004,0.005,0.007,0.007,0.01c0.004,0.005,0.009,0.012,0.013,0.018
	c0.002,0.002,0.004,0.004,0.006,0.008c0.004,0.006,0.01,0.013,0.015,0.019c0.001,0.001,0.002,0.003,0.004,0.005
	c0.005,0.006,0.011,0.014,0.016,0.02c0.001,0.002,0.002,0.004,0.003,0.006c0.006,0.007,0.011,0.014,0.017,0.021
	c0,0.001,0.001,0.001,0.001,0.003c0.006,0.008,0.013,0.014,0.019,0.022c0,0,0,0.001,0.001,0.001c0.23,0.299,0.466,0.596,0.705,0.889
	l15.498-12.643C110.029,55.12,109.813,54.842,109.607,54.563L109.607,54.563z M110.928,56.182L96.051,69.547
	c0.446,0.496,0.903,0.981,1.372,1.457l14.223-14.062C111.401,56.696,111.16,56.44,110.928,56.182L110.928,56.182z M112.398,57.668
	L98.862,72.392c0.25,0.229,0.506,0.459,0.762,0.683c0.001,0.002,0.002,0.002,0.002,0.002c0.006,0.006,0.011,0.01,0.017,0.014
	c0.003,0.002,0.006,0.006,0.009,0.009c0.003,0.002,0.008,0.006,0.011,0.009c0.005,0.004,0.01,0.008,0.015,0.012
	c0.002,0.002,0.003,0.002,0.005,0.004c0.006,0.006,0.013,0.012,0.021,0.018l0.001,0.001c0.22,0.19,0.44,0.38,0.665,0.567
	l12.818-15.352C112.919,58.135,112.654,57.905,112.398,57.668L112.398,57.668z M114.002,59.008l-12.071,15.947
	c0.307,0.231,0.617,0.461,0.931,0.685c0.229,0.164,0.46,0.325,0.692,0.483l11.295-16.504
	C114.564,59.422,114.279,59.217,114.002,59.008L114.002,59.008z M115.723,60.186l-10.492,17.027
	c0.034,0.021,0.069,0.041,0.104,0.063c0.002,0.001,0.002,0.001,0.004,0.003c0.006,0.005,0.013,0.009,0.019,0.011
	c0.003,0.002,0.008,0.004,0.011,0.008c0.004,0.002,0.008,0.004,0.012,0.007c0.005,0.003,0.012,0.007,0.018,0.011
	c0.002,0.001,0.004,0.002,0.006,0.003c0.499,0.304,1.007,0.599,1.519,0.882c0.001,0,0.002,0.002,0.003,0.002
	c0.007,0.004,0.013,0.006,0.02,0.01c0.003,0.002,0.008,0.004,0.012,0.006c0.001,0,0.002,0.002,0.003,0.003l9.663-17.511
	C116.319,60.543,116.017,60.368,115.723,60.186L115.723,60.186z M117.541,61.189l-8.81,17.956c0.112,0.055,0.225,0.109,0.336,0.163
	l0.002,0.001c0.009,0.004,0.017,0.008,0.024,0.012c0.002,0.002,0.003,0.002,0.005,0.002c0.007,0.004,0.014,0.008,0.021,0.01
	c0.002,0.002,0.007,0.004,0.01,0.004c0.005,0.002,0.011,0.006,0.017,0.008c0.005,0.003,0.01,0.005,0.015,0.008
	c0.004,0.002,0.008,0.004,0.013,0.006c0.004,0.002,0.013,0.006,0.018,0.008c0.003,0.002,0.007,0.004,0.011,0.006
	c0.006,0.002,0.013,0.006,0.019,0.008c0.003,0.002,0.006,0.004,0.009,0.004c0.007,0.004,0.016,0.008,0.022,0.012
	c0.001,0,0.003,0.001,0.004,0.002c0.009,0.004,0.017,0.008,0.026,0.012c0,0,0.001,0,0.001,0.002
	c0.418,0.196,0.839,0.387,1.265,0.571l7.933-18.358C118.166,61.487,117.849,61.34,117.541,61.189L117.541,61.189z M119.439,62.01
	l-7.038,18.721c0.624,0.234,1.251,0.453,1.89,0.658l6.125-19.039C120.089,62.245,119.761,62.131,119.439,62.01L119.439,62.01z
	 M121.406,62.643l-5.197,19.313c0.08,0.021,0.16,0.043,0.24,0.063h0.001c0.009,0.002,0.019,0.005,0.027,0.007
	c0.001,0,0.002,0,0.004,0.001c0.009,0.002,0.017,0.005,0.024,0.007c0.003,0,0.006,0.002,0.009,0.002
	c0.007,0,0.014,0.002,0.021,0.004c0.005,0.002,0.008,0.002,0.013,0.004c0.005,0,0.01,0.002,0.015,0.004
	c0.006,0,0.013,0.002,0.02,0.004c0.003,0.002,0.007,0.003,0.011,0.004c0.008,0.002,0.016,0.004,0.023,0.006
	c0.002,0,0.004,0.001,0.006,0.001c0.009,0.002,0.017,0.004,0.025,0.007c0.001,0,0.002,0,0.004,0.001
	c0.497,0.128,0.995,0.246,1.499,0.356l4.26-19.543C122.075,62.814,121.737,62.731,121.406,62.643L121.406,62.643z M123.427,63.083
	l-3.312,19.725c0.501,0.084,1.006,0.16,1.514,0.227c0.155,0.021,0.311,0.039,0.466,0.057l2.362-19.859
	C124.113,63.189,123.767,63.14,123.427,63.083L123.427,63.083z M125.497,63.329l-1.411,19.95c0.135,0.009,0.27,0.019,0.405,0.026
	c0.005,0,0.01,0.001,0.015,0.001s0.01,0,0.016,0.001c0.008,0,0.017,0.001,0.023,0.001c0.003,0,0.005,0,0.008,0
	c0.009,0,0.017,0.001,0.026,0.001c0.001,0,0.003,0,0.005,0c0.318,0.02,0.639,0.033,0.96,0.045c0.004,0,0.005,0,0.009,0
	c0.006,0,0.012,0,0.018,0.001c0.007,0,0.012,0,0.018,0c0.004,0,0.008,0,0.013,0c0.007,0,0.016,0,0.022,0c0.002,0,0.005,0,0.007,0
	c0.01,0,0.018,0,0.028,0.001c0.001,0,0.002,0,0.003,0c0.141,0.005,0.281,0.01,0.423,0.012l0.464-19.994
	C126.198,63.37,125.844,63.354,125.497,63.329L125.497,63.329z M128.659,63.329c-0.349,0.023-0.702,0.041-1.053,0.049l0.478,19.994
	c0.188-0.004,0.376-0.01,0.563-0.017c0.02,0,0.038-0.001,0.057-0.002c0.003,0,0.004,0,0.007,0c0.009,0,0.018,0,0.025-0.001
	c0.004,0,0.002,0,0.006,0c0.01,0,0.02-0.001,0.029-0.001h0.001c0.396-0.017,0.791-0.037,1.185-0.063h0.001
	c0.021-0.002,0.041-0.002,0.061-0.004c0.001,0,0,0,0.001,0c0.011-0.002,0.021-0.002,0.03-0.002h0.002
	c0.009,0,0.019-0.002,0.029-0.003l0,0L128.659,63.329L128.659,63.329z M130.73,63.081c-0.34,0.058-0.687,0.107-1.029,0.148
	l2.371,19.859c0.616-0.073,1.228-0.16,1.833-0.26c0,0,0,0,0.001,0c0.01-0.002,0.021-0.004,0.029-0.006c0.002,0,0.005,0,0.007,0
	c0.009-0.002,0.017-0.003,0.024-0.005c0.003,0,0.006-0.001,0.009-0.001c0.008-0.001,0.016-0.002,0.022-0.004
	c0.003,0,0.007-0.001,0.011-0.001c0.007-0.001,0.014-0.002,0.02-0.003c0.005-0.001,0.009-0.001,0.013-0.002
	c0.003,0,0.008-0.001,0.01-0.002L130.73,63.081L130.73,63.081z M132.753,62.639c-0.332,0.089-0.669,0.172-1.005,0.244l4.268,19.541
	c0.074-0.016,0.146-0.032,0.22-0.049c0.001,0,0.002,0,0.004,0c0.009-0.002,0.018-0.004,0.026-0.006c0.003,0,0.006-0.002,0.008-0.002
	c0.008-0.002,0.015-0.004,0.021-0.005c0.005-0.001,0.01-0.002,0.015-0.004c0.005-0.001,0.01-0.002,0.016-0.003
	c0.007-0.002,0.013-0.003,0.02-0.005c0.003,0,0.006-0.001,0.009-0.002c0.008-0.002,0.017-0.003,0.023-0.005
	c0.003,0,0.004-0.002,0.007-0.002c0.009-0.002,0.018-0.004,0.026-0.006c0.001,0,0.002,0,0.003,0
	c0.009-0.002,0.019-0.004,0.027-0.006c0.001,0,0,0,0.002,0c0.253-0.059,0.507-0.119,0.759-0.183h0.001
	c0.009-0.002,0.018-0.004,0.025-0.006c0.001,0,0.003-0.001,0.005-0.001c0.009-0.002,0.018-0.004,0.025-0.006
	c0.002-0.002,0.003-0.002,0.006-0.002c0.008-0.002,0.016-0.004,0.024-0.006c0.002,0,0.004,0,0.007,0
	c0.008-0.002,0.016-0.004,0.022-0.006c0.003-0.002,0.004-0.002,0.008-0.002c0.007-0.002,0.015-0.004,0.022-0.006
	c0.001,0,0.006-0.002,0.007-0.003c0.008-0.002,0.017-0.004,0.024-0.006c0.001,0,0.005-0.001,0.006-0.002
	c0.008-0.002,0.016-0.004,0.024-0.006c0.002,0,0.004-0.001,0.006-0.001c0.008-0.002,0.017-0.004,0.023-0.006
	c0.003-0.002,0.003-0.002,0.006-0.002c0.009-0.002,0.018-0.004,0.025-0.006c0.001,0,0.004,0,0.005,0
	c0.009-0.002,0.019-0.004,0.026-0.008c0.001,0,0.002,0,0.003,0c0.009-0.002,0.018-0.004,0.025-0.008c0.002,0,0.003,0,0.005,0
	c0.009-0.002,0.019-0.005,0.027-0.007h0.001c0.13-0.034,0.262-0.067,0.392-0.103L132.753,62.639L132.753,62.639z M134.72,62.004
	c-0.321,0.121-0.649,0.236-0.976,0.34l6.132,19.037c0.308-0.098,0.615-0.201,0.919-0.307c0.001,0,0,0,0.001,0
	c0.008-0.004,0.017-0.007,0.026-0.01c0.001,0,0.005-0.001,0.006-0.002c0.007-0.002,0.015-0.005,0.021-0.008
	c0.002-0.001,0.006-0.002,0.008-0.004c0.008-0.002,0.014-0.004,0.021-0.006c0.004-0.002,0.009-0.004,0.013-0.004
	c0.005-0.002,0.01-0.004,0.016-0.006c0.005-0.002,0.011-0.004,0.016-0.006c0.004-0.001,0.008-0.002,0.012-0.004
	c0.008-0.003,0.015-0.005,0.021-0.008c0.002,0,0.004-0.001,0.007-0.002c0.007-0.003,0.018-0.006,0.024-0.01c0.001,0,0.003,0,0.004,0
	c0.26-0.092,0.517-0.187,0.772-0.282L134.72,62.004L134.72,62.004z M136.62,61.184c-0.31,0.15-0.625,0.297-0.941,0.434l7.939,18.356
	c0.351-0.151,0.698-0.308,1.044-0.47c0.001,0,0.002,0,0.003,0c0.008-0.004,0.014-0.008,0.021-0.012c0.002,0,0.005-0.002,0.007-0.002
	c0.007-0.004,0.015-0.007,0.021-0.01c0.003-0.001,0.006-0.003,0.009-0.004c0.006-0.003,0.012-0.005,0.019-0.008
	c0.004-0.002,0.008-0.004,0.011-0.006c0.005-0.002,0.011-0.004,0.016-0.006s0.01-0.004,0.015-0.006
	c0.004-0.002,0.007-0.004,0.01-0.006c0.007-0.003,0.013-0.006,0.02-0.009c0.001,0,0.003-0.002,0.005-0.002
	c0.206-0.097,0.411-0.196,0.615-0.296L136.62,61.184L136.62,61.184z M138.438,60.18c-0.294,0.181-0.596,0.357-0.897,0.523
	l9.668,17.508c0.06-0.032,0.121-0.066,0.18-0.1c0.001-0.001,0.003-0.001,0.004-0.002c0.008-0.004,0.016-0.008,0.022-0.012
	c0.002-0.001,0.003-0.002,0.005-0.004c0.007-0.004,0.013-0.006,0.02-0.01c0.003-0.002,0.006-0.004,0.01-0.006
	c0.005-0.002,0.011-0.006,0.016-0.009s0.009-0.005,0.013-0.007c0.003-0.002,0.008-0.004,0.011-0.006
	c0.007-0.003,0.013-0.008,0.019-0.01c0.002-0.002,0.004-0.002,0.007-0.004c0.006-0.004,0.013-0.008,0.021-0.012
	c0.001,0,0.005-0.003,0.006-0.004c0.008-0.004,0.015-0.008,0.022-0.013l0,0c0.463-0.261,0.92-0.531,1.372-0.81L138.438,60.18
	L138.438,60.18z M140.158,59c-0.276,0.209-0.562,0.416-0.848,0.61l11.3,16.501c0.254-0.173,0.505-0.349,0.754-0.527
	c0,0,0,0,0.001-0.002c0.008-0.006,0.016-0.01,0.023-0.017c0.001,0,0.001-0.001,0.002-0.001c0.007-0.005,0.015-0.01,0.022-0.016
	c0.001-0.002,0.003-0.002,0.005-0.004c0.006-0.004,0.014-0.01,0.02-0.016c0.002-0.001,0.004-0.002,0.006-0.004
	c0.007-0.005,0.013-0.008,0.019-0.013c0.003-0.003,0.006-0.005,0.009-0.007c0.004-0.004,0.011-0.008,0.015-0.012
	c0.005-0.002,0.009-0.004,0.012-0.008c0.004-0.003,0.009-0.006,0.013-0.009s0.009-0.006,0.013-0.011
	c0.004-0.002,0.008-0.004,0.013-0.008s0.01-0.006,0.015-0.01c0.002-0.002,0.006-0.005,0.009-0.007
	c0.006-0.004,0.012-0.009,0.019-0.013c0.002-0.001,0.005-0.004,0.007-0.006c0.007-0.004,0.014-0.01,0.021-0.014
	c0.001,0,0.002-0.002,0.003-0.002c0.009-0.006,0.016-0.012,0.022-0.018c0.001,0,0.002-0.001,0.003-0.002
	c0.202-0.146,0.401-0.297,0.6-0.446L140.158,59L140.158,59z M141.761,57.663c-0.255,0.234-0.52,0.467-0.786,0.688L153.798,73.7
	c0.004-0.004,0.009-0.008,0.013-0.012c0.001-0.001,0.003-0.002,0.004-0.003c0.006-0.005,0.014-0.011,0.02-0.017
	c0.002,0,0.004-0.002,0.006-0.004c0.006-0.006,0.012-0.011,0.018-0.016c0.002-0.002,0.004-0.004,0.008-0.006
	c0.005-0.004,0.011-0.01,0.016-0.014c0.003-0.002,0.005-0.004,0.008-0.008c0.005-0.004,0.011-0.009,0.016-0.013
	c0.004-0.002,0.006-0.005,0.009-0.007c0.005-0.004,0.01-0.008,0.015-0.014c0.003-0.002,0.006-0.004,0.01-0.008
	c0.005-0.004,0.009-0.006,0.015-0.012c0.003-0.003,0.007-0.006,0.011-0.009s0.008-0.006,0.012-0.011
	c0.004-0.002,0.009-0.006,0.013-0.01c0.004-0.002,0.009-0.008,0.012-0.01c0.004-0.004,0.008-0.007,0.013-0.011
	c0.003-0.002,0.007-0.006,0.01-0.009c0.005-0.004,0.01-0.008,0.015-0.012c0.003-0.002,0.006-0.006,0.01-0.008
	c0.004-0.004,0.01-0.008,0.015-0.013c0.002-0.001,0.005-0.005,0.007-0.006c0.007-0.005,0.012-0.011,0.018-0.015
	c0.002-0.002,0.004-0.004,0.006-0.006c0.006-0.005,0.012-0.01,0.018-0.015c0.002-0.001,0.002-0.002,0.004-0.004
	c0.007-0.005,0.014-0.011,0.021-0.017c0.002-0.002,0.002-0.002,0.004-0.004c0.007-0.006,0.013-0.012,0.021-0.018l0.002-0.001
	c0.007-0.006,0.015-0.013,0.021-0.019l0.002-0.002c0.332-0.285,0.659-0.574,0.981-0.867c0.002-0.002,0.002-0.002,0.004-0.004
	c0.006-0.006,0.012-0.012,0.019-0.018c0.002-0.001,0.004-0.004,0.006-0.006c0.006-0.004,0.011-0.01,0.017-0.014
	c0.003-0.002,0.008-0.008,0.011-0.01c0.003-0.004,0.007-0.008,0.011-0.011c0.004-0.004,0.01-0.009,0.015-0.013
	c0.002-0.002,0.005-0.004,0.007-0.008c0.006-0.004,0.013-0.012,0.019-0.016c0.001-0.002,0.002-0.002,0.003-0.002
	c0.009-0.008,0.015-0.014,0.022-0.021l0,0c0.002-0.002,0.004-0.004,0.007-0.008L141.761,57.663L141.761,57.663z M143.231,56.174
	c-0.231,0.258-0.473,0.514-0.717,0.761l14.228,14.058c0.002-0.002,0.003-0.004,0.005-0.006c0.005-0.005,0.011-0.011,0.016-0.016
	c0,0,0.002-0.002,0.003-0.004c0.313-0.317,0.622-0.641,0.926-0.969c0,0,0.001-0.002,0.002-0.002c0.007-0.006,0.013-0.014,0.019-0.02
	c0.002-0.002,0.004-0.004,0.006-0.006c0.005-0.006,0.01-0.01,0.015-0.016c0.003-0.004,0.006-0.008,0.011-0.012
	c0.003-0.003,0.007-0.007,0.01-0.011c0.004-0.004,0.009-0.011,0.014-0.015c0.002-0.002,0.004-0.006,0.006-0.008
	c0.006-0.007,0.013-0.014,0.02-0.021l0.001-0.001c0.106-0.117,0.215-0.235,0.32-0.354L143.231,56.174L143.231,56.174z
	 M144.552,54.555c-0.206,0.277-0.421,0.556-0.641,0.824l15.501,12.638c0.002-0.002,0.003-0.004,0.005-0.007
	c0.004-0.004,0.009-0.01,0.013-0.016c0.002-0.002,0.005-0.007,0.008-0.01c0.004-0.005,0.008-0.01,0.013-0.016
	c0.003-0.004,0.006-0.006,0.009-0.01s0.007-0.01,0.011-0.014c0.003-0.004,0.007-0.009,0.01-0.013s0.006-0.007,0.009-0.011
	c0.005-0.006,0.01-0.012,0.014-0.016c0.002-0.003,0.004-0.006,0.006-0.009c0.005-0.006,0.01-0.013,0.015-0.019
	c0.001-0.002,0.003-0.004,0.004-0.004c0.007-0.008,0.013-0.015,0.018-0.021c0.001-0.001,0.001-0.002,0.002-0.003
	c0.006-0.009,0.011-0.015,0.018-0.022h0.001c0.209-0.261,0.415-0.521,0.618-0.787l0,0c0.005-0.008,0.012-0.017,0.019-0.023
	c0-0.001,0.001-0.001,0.001-0.002c0.005-0.006,0.01-0.014,0.015-0.02c0.001-0.002,0.003-0.004,0.005-0.006
	c0.004-0.005,0.007-0.01,0.011-0.016c0.003-0.003,0.007-0.008,0.009-0.01c0.002-0.004,0.006-0.008,0.008-0.012
	c0.003-0.004,0.007-0.01,0.011-0.015c0.001-0.002,0.004-0.005,0.005-0.007c0.005-0.006,0.01-0.012,0.014-0.02
	c0.002,0,0.002,0,0.003-0.002c0.118-0.156,0.237-0.314,0.354-0.474L144.552,54.555L144.552,54.555z M145.708,52.823
	c-0.179,0.295-0.365,0.592-0.558,0.879l16.639,11.1c0.046-0.07,0.093-0.141,0.139-0.211c0.004-0.006,0.009-0.012,0.013-0.02
	c0-0.001,0.002-0.004,0.003-0.005c0.309-0.469,0.607-0.944,0.897-1.427l0.001-0.002c0.004-0.008,0.009-0.016,0.013-0.021
	c0.001-0.002,0.002-0.004,0.002-0.005L145.708,52.823L145.708,52.823z M146.688,50.995c-0.146,0.311-0.305,0.621-0.468,0.924
	l17.625,9.453c0.091-0.17,0.182-0.34,0.271-0.513c0.143-0.274,0.281-0.551,0.418-0.829c0,0,0,0,0-0.001
	c0.004-0.008,0.008-0.017,0.013-0.024c0.001-0.004,0.003-0.006,0.004-0.01c0.003-0.006,0.006-0.012,0.009-0.018
	c0.002-0.005,0.004-0.01,0.007-0.014c0.001-0.004,0.004-0.008,0.007-0.012c0.003-0.008,0.007-0.015,0.01-0.021
	c0.001-0.002,0.001-0.004,0.003-0.006c0.054-0.112,0.107-0.225,0.162-0.338L146.688,50.995L146.688,50.995z M147.485,49.086
	c-0.116,0.322-0.242,0.646-0.375,0.963l18.454,7.711c0.097-0.229,0.19-0.459,0.282-0.691c0-0.001,0.002-0.005,0.002-0.006
	c0.003-0.007,0.006-0.016,0.009-0.021c0.001-0.004,0.002-0.006,0.004-0.01c0.002-0.007,0.006-0.013,0.008-0.02
	c0.002-0.006,0.004-0.01,0.006-0.016c0.002-0.004,0.003-0.009,0.005-0.014c0.003-0.009,0.006-0.018,0.01-0.025c0,0,0,0,0.001-0.002
	c0.138-0.351,0.271-0.703,0.4-1.059L147.485,49.086L147.485,49.086z M148.094,47.113c-0.085,0.332-0.179,0.667-0.28,0.994
	l19.112,5.896c0.042-0.139,0.084-0.276,0.125-0.416l0.001-0.004c0.002-0.008,0.005-0.017,0.008-0.024
	c0-0.001,0.001-0.004,0.001-0.005c0.002-0.008,0.004-0.016,0.006-0.023c0.001-0.002,0.002-0.006,0.002-0.008
	c0.002-0.007,0.005-0.016,0.008-0.021c0-0.002,0.001-0.004,0.002-0.008c0.002-0.008,0.005-0.016,0.007-0.023
	c0.001-0.002,0.001-0.004,0.002-0.006c0.002-0.008,0.005-0.018,0.007-0.024c0-0.001,0.001-0.004,0.001-0.005
	c0.002-0.01,0.005-0.018,0.007-0.025c0,0,0.001-0.004,0.001-0.005c0.002-0.009,0.005-0.019,0.008-0.026c0,0,0-0.002,0.001-0.002
	c0.003-0.01,0.006-0.02,0.009-0.028c0-0.001,0,0,0-0.003c0.003-0.008,0.005-0.018,0.008-0.027v-0.001
	c0.002-0.01,0.005-0.019,0.008-0.028v-0.002c0.115-0.4,0.225-0.803,0.329-1.207L148.094,47.113L148.094,47.113z M148.51,45.086
	c-0.053,0.34-0.115,0.683-0.184,1.02l19.591,4.021c0.117-0.569,0.222-1.144,0.315-1.721c0.014-0.082,0.026-0.164,0.039-0.246
	L148.51,45.086L148.51,45.086z M148.731,43.012c-0.021,0.347-0.049,0.697-0.086,1.042l19.888,2.122
	c0.024-0.234,0.048-0.467,0.068-0.703c0,0,0-0.001,0-0.002c0.001-0.01,0.001-0.018,0.002-0.026c0-0.002,0-0.005,0-0.008
	c0.001-0.008,0.001-0.013,0.002-0.021c0-0.004,0-0.008,0.001-0.012c0-0.006,0.001-0.008,0.001-0.013
	c0.033-0.38,0.062-0.761,0.084-1.144c0.001-0.021,0.002-0.043,0.003-0.063L148.731,43.012L148.731,43.012z M168.743,40.185
	l-19.987,0.714c0.009,0.267,0.014,0.535,0.014,0.804l-0.001,0.256l19.999,0.227c0.001-0.13,0.002-0.261,0.003-0.391
	c0-0.001,0-0.003,0-0.004c0-0.008,0-0.017,0-0.025c0-0.005,0-0.008,0-0.014s0-0.011,0-0.017c0-0.011,0-0.021,0-0.032l0,0l0,0
	c0-0.014,0-0.028,0-0.042c0-0.004,0-0.008,0-0.012c0-0.011,0-0.022,0-0.033c0-0.003,0-0.008,0-0.011c0-0.014,0-0.027,0-0.041
	c0-0.004,0-0.009,0-0.014c0-0.009,0-0.019,0-0.028c0-0.005,0-0.011,0-0.017c0-0.011,0-0.022,0-0.034c0-0.005,0-0.013,0-0.019
	c0-0.009,0-0.018,0-0.027c0-0.005,0-0.014,0-0.02c0-0.007,0-0.014,0-0.021c0-0.014,0-0.026,0-0.04c0-0.005,0-0.01,0-0.015
	c0-0.009,0-0.017,0-0.026c0-0.004,0-0.009,0-0.014c0-0.029,0-0.061-0.001-0.09c0-0.002,0-0.004,0-0.006c0-0.011,0-0.02,0-0.031
	c0-0.001,0-0.002,0-0.004c-0.002-0.145-0.004-0.289-0.008-0.433v-0.001c0-0.031-0.001-0.061-0.002-0.092c0-0.004,0-0.008,0-0.012
	c0-0.008,0-0.016,0-0.024c0-0.006,0-0.012,0-0.018c0-0.008,0-0.018-0.001-0.026c0-0.011,0-0.021-0.001-0.034
	c0-0.004,0-0.009,0-0.013c0-0.012-0.001-0.023-0.001-0.035c0-0.001,0-0.005,0-0.006C168.749,40.373,168.746,40.279,168.743,40.185
	L168.743,40.185z M168.41,36.2l-19.829,2.611c0.045,0.343,0.083,0.692,0.111,1.039l19.932-1.662
	c-0.014-0.156-0.027-0.312-0.042-0.468c0-0.001,0,0,0,0c-0.001-0.01-0.002-0.019-0.003-0.028c0-0.003,0-0.005,0-0.008
	c-0.001-0.007-0.001-0.015-0.002-0.022c0-0.004,0-0.008-0.001-0.013c0-0.006-0.001-0.012-0.002-0.018
	c0-0.007-0.002-0.014-0.003-0.021c0-0.003,0-0.007-0.001-0.01c-0.001-0.011-0.002-0.02-0.003-0.03l0,0
	C168.522,37.11,168.47,36.655,168.41,36.2L168.41,36.2z M167.698,32.266l-19.486,4.504c0.078,0.335,0.147,0.676,0.209,1.015
	l19.681-3.56c-0.058-0.318-0.119-0.635-0.184-0.95v-0.004c-0.001-0.007-0.003-0.015-0.005-0.022c0-0.004-0.001-0.006-0.002-0.01
	c-0.001-0.006-0.002-0.013-0.004-0.02c-0.002-0.005-0.002-0.008-0.004-0.013c-0.001-0.005-0.002-0.01-0.003-0.016
	c-0.001-0.006-0.002-0.011-0.003-0.016c-0.001-0.005-0.002-0.01-0.003-0.015c-0.001-0.007-0.002-0.011-0.004-0.018
	c0-0.004-0.001-0.008-0.002-0.012c-0.001-0.006-0.003-0.014-0.004-0.021c-0.001-0.003-0.001-0.007-0.002-0.01
	c-0.001-0.008-0.003-0.015-0.004-0.023c-0.001-0.002-0.001-0.005-0.002-0.007c-0.001-0.008-0.003-0.016-0.005-0.024
	c0-0.003-0.001-0.005-0.001-0.008c-0.002-0.008-0.004-0.018-0.005-0.025c0-0.001-0.002-0.003-0.002-0.004
	c-0.002-0.009-0.004-0.018-0.006-0.027c0-0.001-0.001-0.003-0.001-0.004c-0.002-0.009-0.004-0.019-0.006-0.028
	c0,0,0-0.001-0.001-0.002c-0.002-0.011-0.004-0.02-0.006-0.029c0,0,0-0.001,0-0.002c-0.023-0.105-0.046-0.21-0.069-0.315
	c0-0.001,0-0.003-0.001-0.004c-0.002-0.009-0.003-0.017-0.005-0.026c-0.002-0.009-0.004-0.018-0.006-0.026
	c0-0.001,0-0.002-0.001-0.003c-0.002-0.009-0.004-0.018-0.006-0.026c0-0.001,0-0.004-0.001-0.005
	C167.735,32.427,167.717,32.346,167.698,32.266L167.698,32.266z M166.61,28.418l-18.96,6.363c0.109,0.325,0.212,0.657,0.306,0.987
	l19.246-5.44c0-0.002-0.001-0.004-0.002-0.007c-0.002-0.005-0.003-0.01-0.005-0.014c-0.001-0.005-0.003-0.013-0.005-0.018
	c-0.001-0.004-0.002-0.007-0.003-0.011c-0.002-0.008-0.004-0.015-0.006-0.022c0-0.002-0.001-0.004-0.001-0.006
	c-0.002-0.009-0.005-0.019-0.008-0.028l0,0c-0.142-0.492-0.29-0.981-0.448-1.465c-0.001-0.003-0.002-0.006-0.003-0.009
	c-0.001-0.004-0.003-0.01-0.004-0.014c-0.002-0.006-0.004-0.012-0.006-0.018c0-0.001-0.001-0.002-0.001-0.004
	C166.676,28.613,166.643,28.516,166.61,28.418L166.61,28.418z M165.157,24.693l-18.26,8.162c0.141,0.314,0.275,0.635,0.399,0.955
	l18.631-7.271C165.686,25.916,165.428,25.301,165.157,24.693L165.157,24.693z M163.351,21.125l-17.39,9.879
	c0.17,0.3,0.335,0.607,0.491,0.915l17.844-9.032c-0.264-0.521-0.538-1.036-0.823-1.544v-0.001c-0.005-0.009-0.01-0.017-0.015-0.026
	c-0.001-0.001,0,0-0.001-0.001c-0.004-0.008-0.01-0.017-0.015-0.025c0-0.001-0.001-0.003-0.002-0.004
	c-0.004-0.007-0.009-0.015-0.013-0.023c-0.001-0.002-0.001-0.003-0.003-0.005c-0.004-0.007-0.008-0.013-0.011-0.02
	c-0.001-0.002-0.004-0.008-0.006-0.01c-0.004-0.005-0.007-0.011-0.011-0.017c-0.002-0.004-0.004-0.007-0.006-0.012
	c-0.003-0.004-0.005-0.009-0.008-0.014c-0.002-0.004-0.006-0.011-0.008-0.015s-0.005-0.008-0.007-0.012
	c-0.004-0.007-0.008-0.013-0.012-0.02c-0.001-0.002-0.002-0.004-0.003-0.006C163.354,21.129,163.353,21.128,163.351,21.125
	L163.351,21.125z M161.211,17.748l-16.364,11.499c0.199,0.283,0.395,0.575,0.579,0.867l16.896-10.702
	c-0.043-0.068-0.086-0.135-0.129-0.203c-0.003-0.004-0.004-0.007-0.007-0.011c-0.001-0.002-0.003-0.005-0.005-0.008
	c-0.004-0.006-0.009-0.013-0.013-0.02l-0.001-0.001c-0.214-0.333-0.435-0.663-0.657-0.99c-0.002-0.003-0.004-0.006-0.006-0.009
	c-0.004-0.005-0.007-0.01-0.011-0.015c-0.004-0.005-0.008-0.011-0.012-0.017c-0.001-0.002-0.003-0.004-0.005-0.006
	C161.39,18.002,161.301,17.875,161.211,17.748L161.211,17.748z M158.759,14.59l-15.192,13.007c0.227,0.264,0.448,0.536,0.661,0.81
	l15.795-12.268c-0.038-0.049-0.077-0.099-0.114-0.148l0,0c-0.007-0.008-0.013-0.015-0.02-0.023c0-0.001-0.001-0.002-0.002-0.003
	c-0.005-0.007-0.011-0.014-0.016-0.021c-0.001-0.002-0.004-0.005-0.005-0.007c-0.005-0.005-0.01-0.011-0.014-0.017
	c-0.002-0.003-0.004-0.006-0.007-0.009c-0.004-0.005-0.008-0.01-0.012-0.015c-0.003-0.004-0.006-0.008-0.009-0.012
	c-0.004-0.004-0.007-0.008-0.01-0.012s-0.007-0.009-0.011-0.013c-0.002-0.003-0.005-0.007-0.008-0.011
	c-0.004-0.005-0.008-0.01-0.012-0.016c-0.002-0.002-0.005-0.005-0.007-0.008c-0.005-0.006-0.009-0.011-0.014-0.017
	c-0.002-0.002-0.003-0.005-0.005-0.007c-0.005-0.006-0.01-0.012-0.015-0.019c-0.001-0.001-0.002-0.003-0.004-0.005
	c-0.006-0.006-0.012-0.014-0.017-0.02c-0.001-0.001-0.002-0.003-0.003-0.004c-0.006-0.007-0.012-0.014-0.017-0.021
	c0,0-0.001-0.001-0.002-0.002c-0.007-0.008-0.012-0.014-0.019-0.022c0-0.001-0.001-0.002-0.002-0.002
	c-0.006-0.007-0.011-0.015-0.017-0.021c-0.001-0.001-0.002-0.002-0.003-0.003c-0.005-0.007-0.012-0.014-0.018-0.021
	c-0.001-0.001-0.002-0.002-0.002-0.003c-0.007-0.008-0.011-0.014-0.018-0.022c-0.001,0-0.001-0.001-0.002-0.002
	c-0.006-0.007-0.013-0.015-0.018-0.022c-0.001-0.001-0.002-0.002-0.003-0.003c-0.005-0.007-0.011-0.014-0.017-0.021
	c-0.001-0.001-0.002-0.002-0.003-0.004c-0.005-0.006-0.012-0.014-0.017-0.02c-0.001-0.002-0.002-0.003-0.004-0.005
	c-0.005-0.006-0.011-0.014-0.016-0.02c-0.001-0.001-0.002-0.003-0.003-0.004c-0.005-0.006-0.011-0.013-0.017-0.019
	c-0.001-0.002-0.003-0.004-0.004-0.006c-0.005-0.006-0.01-0.012-0.015-0.018c-0.002-0.002-0.003-0.004-0.005-0.007
	c-0.004-0.005-0.009-0.011-0.015-0.017c-0.002-0.002-0.004-0.005-0.006-0.008c-0.004-0.005-0.009-0.011-0.013-0.017
	c-0.002-0.002-0.004-0.005-0.007-0.008c-0.004-0.005-0.008-0.011-0.013-0.016c-0.003-0.003-0.006-0.006-0.008-0.009
	c-0.004-0.005-0.008-0.01-0.012-0.015c-0.003-0.003-0.005-0.007-0.008-0.01c-0.004-0.005-0.007-0.009-0.011-0.014
	c-0.003-0.004-0.007-0.007-0.01-0.011c-0.004-0.005-0.006-0.008-0.011-0.013c-0.003-0.004-0.006-0.008-0.009-0.012
	c-0.002-0.003-0.007-0.009-0.01-0.012c-0.003-0.004-0.007-0.009-0.011-0.013c-0.002-0.003-0.006-0.007-0.009-0.011
	c-0.004-0.004-0.008-0.009-0.011-0.014c-0.003-0.003-0.006-0.006-0.008-0.01c-0.004-0.005-0.008-0.01-0.013-0.015
	c-0.002-0.003-0.004-0.005-0.007-0.008c-0.004-0.006-0.009-0.011-0.014-0.017c-0.001-0.002-0.003-0.004-0.005-0.006
	c-0.005-0.006-0.01-0.013-0.017-0.019c-0.001-0.002-0.002-0.003-0.004-0.005c-0.005-0.006-0.011-0.013-0.016-0.02
	c-0.001-0.001-0.002-0.002-0.003-0.003c-0.005-0.007-0.011-0.014-0.018-0.021c-0.001-0.002-0.002-0.002-0.003-0.004
	c-0.005-0.006-0.011-0.013-0.016-0.021c-0.002-0.002-0.002-0.002-0.003-0.004c-0.006-0.006-0.011-0.013-0.017-0.02
	c-0.001-0.001-0.003-0.002-0.004-0.003c-0.005-0.007-0.011-0.014-0.017-0.021c-0.001-0.001-0.002-0.002-0.003-0.003
	c-0.006-0.007-0.012-0.014-0.017-0.021c-0.001-0.002-0.001-0.002-0.004-0.004c-0.005-0.007-0.011-0.014-0.017-0.021
	c-0.001-0.001-0.002-0.002-0.003-0.003c-0.006-0.007-0.011-0.014-0.017-0.02c-0.001-0.002-0.001-0.002-0.003-0.004
	c-0.006-0.007-0.012-0.013-0.018-0.02c-0.001-0.002-0.001-0.001-0.003-0.004c-0.006-0.006-0.011-0.013-0.017-0.02
	c-0.002-0.002-0.003-0.003-0.004-0.005c-0.006-0.006-0.011-0.012-0.016-0.018c-0.002-0.002-0.004-0.004-0.005-0.006
	c-0.005-0.006-0.01-0.012-0.015-0.018c-0.002-0.003-0.003-0.004-0.006-0.007c-0.005-0.005-0.01-0.011-0.015-0.016
	c-0.001-0.002-0.004-0.005-0.006-0.007c-0.004-0.006-0.009-0.011-0.014-0.017c-0.002-0.003-0.004-0.005-0.007-0.008
	c-0.005-0.005-0.01-0.01-0.014-0.015c-0.002-0.003-0.006-0.007-0.008-0.01c-0.004-0.004-0.007-0.009-0.011-0.013
	c-0.003-0.004-0.007-0.008-0.01-0.012c-0.004-0.004-0.007-0.007-0.01-0.011c-0.004-0.005-0.008-0.009-0.012-0.014
	c-0.003-0.003-0.005-0.006-0.008-0.009c-0.005-0.006-0.01-0.012-0.015-0.018c-0.002-0.001-0.004-0.003-0.005-0.005
	c-0.005-0.006-0.012-0.014-0.017-0.02c-0.001-0.001-0.002-0.002-0.003-0.003C158.844,14.689,158.802,14.64,158.759,14.59
	L158.759,14.59z M156.017,11.68l-13.884,14.396c0.25,0.241,0.498,0.491,0.735,0.744l14.555-13.717c0-0.001-0.001-0.001-0.002-0.002
	C156.963,12.615,156.496,12.142,156.017,11.68L156.017,11.68z M153.009,9.044L140.56,24.697c0.271,0.216,0.542,0.441,0.802,0.67
	l13.183-15.041c-0.078-0.068-0.156-0.136-0.234-0.204c-0.003-0.002-0.004-0.003-0.007-0.005c-0.005-0.005-0.01-0.009-0.016-0.014
	c-0.005-0.004-0.01-0.008-0.015-0.012c-0.003-0.002-0.005-0.005-0.008-0.007C153.854,9.729,153.435,9.383,153.009,9.044
	L153.009,9.044z M149.765,6.708l-10.896,16.771c0.29,0.188,0.578,0.386,0.859,0.588l11.688-16.229
	c-0.151-0.109-0.305-0.217-0.457-0.324c-0.001,0-0.001,0-0.002-0.001c-0.005-0.003-0.012-0.007-0.017-0.011
	c-0.003-0.002-0.007-0.005-0.011-0.007c-0.002-0.002-0.005-0.004-0.007-0.005c-0.006-0.004-0.012-0.009-0.02-0.013c0,0,0,0-0.001,0
	c-0.171-0.12-0.342-0.237-0.516-0.354c-0.002-0.001-0.004-0.003-0.006-0.004c-0.007-0.004-0.013-0.008-0.02-0.013
	c-0.004-0.003-0.008-0.005-0.012-0.008c-0.004-0.003-0.009-0.006-0.013-0.009c-0.006-0.004-0.012-0.008-0.02-0.013
	c-0.002-0.001-0.004-0.003-0.007-0.004C150.13,6.948,149.948,6.827,149.765,6.708L149.765,6.708z M146.311,4.692l-9.239,17.738
	c0.307,0.159,0.611,0.328,0.909,0.502l10.081-17.274c-0.144-0.084-0.288-0.167-0.433-0.249l0,0c-0.019-0.01-0.036-0.02-0.054-0.03
	l0,0c-0.019-0.01-0.036-0.02-0.055-0.03l0,0C147.121,5.123,146.718,4.905,146.311,4.692L146.311,4.692z M142.68,3.019l-7.488,18.545
	c0.318,0.129,0.639,0.267,0.95,0.411l8.374-18.163c-0.003-0.001-0.009-0.004-0.013-0.006s-0.009-0.004-0.014-0.006
	c-0.004-0.001-0.01-0.004-0.014-0.006c-0.005-0.002-0.01-0.004-0.016-0.007c-0.003-0.002-0.009-0.004-0.014-0.006
	c-0.005-0.002-0.01-0.005-0.016-0.007c-0.005-0.002-0.009-0.004-0.014-0.006s-0.01-0.004-0.015-0.006
	c-0.005-0.002-0.011-0.005-0.016-0.007c-0.004-0.002-0.009-0.004-0.013-0.006s-0.009-0.004-0.014-0.006s-0.011-0.005-0.016-0.007
	c-0.004-0.002-0.008-0.004-0.011-0.005c-0.006-0.002-0.013-0.005-0.018-0.008c-0.005-0.002-0.01-0.004-0.015-0.006
	s-0.009-0.004-0.014-0.006c-0.006-0.002-0.01-0.004-0.015-0.006s-0.01-0.005-0.015-0.007c-0.002-0.001-0.004-0.002-0.006-0.003
	c-0.007-0.003-0.016-0.007-0.022-0.01c-0.004-0.002-0.008-0.003-0.013-0.006c-0.005-0.002-0.01-0.004-0.015-0.007
	C143.701,3.443,143.193,3.226,142.68,3.019L142.68,3.019z M138.904,1.702l-5.663,19.181c0.328,0.097,0.659,0.204,0.982,0.316
	l6.584-18.885c-0.441-0.154-0.887-0.301-1.336-0.44c-0.001,0-0.002-0.001-0.003-0.001c-0.009-0.002-0.018-0.005-0.027-0.008
	c-0.002,0-0.005-0.001-0.007-0.002c-0.007-0.002-0.015-0.005-0.021-0.007c-0.004-0.001-0.009-0.002-0.014-0.004
	c-0.005-0.001-0.012-0.003-0.017-0.005c-0.007-0.002-0.015-0.004-0.021-0.006c-0.003-0.001-0.005-0.001-0.007-0.002
	c-0.009-0.002-0.018-0.005-0.026-0.008c-0.001,0-0.001,0-0.003,0C139.185,1.786,139.044,1.744,138.904,1.702L138.904,1.702z
	 M135.02,0.756l-3.788,19.638c0.337,0.065,0.679,0.139,1.012,0.22l4.729-19.433c-0.001,0-0.003,0-0.004-0.001
	c-0.006-0.001-0.012-0.003-0.019-0.004c-0.005-0.001-0.01-0.002-0.014-0.003c-0.006-0.001-0.011-0.003-0.017-0.004
	c-0.005-0.001-0.011-0.002-0.017-0.004c-0.004-0.001-0.009-0.002-0.013-0.003c-0.005-0.001-0.014-0.003-0.019-0.004
	c-0.003-0.001-0.007-0.002-0.012-0.003c-0.008-0.002-0.013-0.003-0.021-0.005c-0.003-0.001-0.006-0.001-0.009-0.002
	c-0.008-0.002-0.016-0.003-0.023-0.005c-0.002,0-0.005-0.001-0.007-0.002c-0.009-0.002-0.018-0.004-0.027-0.006
	c-0.001,0-0.002,0-0.002,0c-0.011-0.002-0.02-0.005-0.029-0.007h-0.001c-0.273-0.065-0.547-0.126-0.82-0.186c0,0,0,0-0.001,0
	c-0.021-0.004-0.04-0.009-0.062-0.013c-0.001,0-0.002,0-0.003,0c-0.01-0.002-0.018-0.004-0.028-0.006c-0.001,0-0.002,0-0.002,0
	c-0.01-0.002-0.019-0.004-0.027-0.006c-0.002,0-0.004,0-0.006-0.001c-0.009-0.002-0.017-0.003-0.025-0.005
	c-0.002,0-0.004-0.001-0.006-0.001c-0.008-0.001-0.013-0.003-0.021-0.004c-0.005-0.001-0.009-0.001-0.013-0.002
	c-0.004-0.001-0.011-0.002-0.016-0.003s-0.011-0.002-0.017-0.003c-0.004,0-0.005-0.001-0.009-0.002
	C135.465,0.844,135.243,0.799,135.02,0.756L135.02,0.756z M131.062,0.188l-1.89,19.911c0.345,0.033,0.694,0.074,1.036,0.123
	l2.84-19.797c-0.168-0.024-0.334-0.047-0.502-0.069l0,0c-0.01-0.001-0.021-0.002-0.029-0.004c-0.003,0-0.007-0.001-0.01-0.001
	c-0.007-0.001-0.015-0.002-0.021-0.003c-0.004,0-0.009-0.001-0.014-0.002c-0.005,0-0.01-0.001-0.016-0.002s-0.014-0.001-0.02-0.002
	c-0.004,0-0.007-0.001-0.011-0.001c-0.008-0.001-0.015-0.002-0.022-0.003c-0.003,0-0.004,0-0.006,0
	c-0.009-0.001-0.018-0.002-0.025-0.003c-0.001,0-0.002,0-0.004,0c-0.011-0.001-0.02-0.002-0.029-0.004l0,0
	c-0.298-0.038-0.597-0.072-0.897-0.103h-0.003c-0.007,0-0.013-0.001-0.02-0.002c-0.004,0-0.009-0.001-0.014-0.001
	s-0.009-0.001-0.014-0.001s-0.014-0.001-0.019-0.002c-0.003,0-0.006,0-0.011-0.001c-0.008-0.001-0.016-0.001-0.023-0.002
	c-0.001,0-0.003,0-0.005,0C131.242,0.206,131.15,0.197,131.062,0.188L131.062,0.188z M127.07,0v20c0.353,0,0.707,0.008,1.057,0.025
	l0.94-19.978c-0.402-0.019-0.808-0.032-1.214-0.04l0,0c-0.009,0-0.019,0-0.026,0c-0.001,0-0.005,0-0.007,0c-0.008,0-0.017,0-0.024,0
	c-0.003,0-0.004,0-0.007,0c-0.009,0-0.017,0-0.024,0c-0.003,0-0.005,0-0.008,0c-0.008,0-0.016,0-0.023,0c-0.003,0-0.007,0-0.01,0
	c-0.007,0-0.015,0-0.021,0c-0.005,0-0.007,0-0.011,0c-0.008,0-0.015,0-0.022,0c-0.003,0-0.005,0-0.008,0c-0.009,0-0.017,0-0.023,0
	c-0.002,0-0.006,0-0.009,0c-0.008,0-0.017,0-0.023,0c-0.002,0-0.006,0-0.009,0c-0.007,0-0.015,0-0.021,0c-0.005,0-0.009,0-0.013,0
	c-0.007,0-0.014,0-0.02,0c-0.001,0-0.003,0-0.004,0c-0.017,0-0.032,0-0.049,0c-0.003,0-0.008,0-0.011,0c-0.006,0-0.011,0-0.017,0
	c-0.004,0-0.012,0-0.017,0s-0.01,0-0.015,0s-0.012,0-0.017,0s-0.011,0-0.016,0c-0.006,0-0.012,0-0.018,0c-0.005,0-0.01,0-0.015,0
	c-0.006,0-0.012,0-0.018,0s-0.011,0-0.016,0c-0.006,0-0.014,0-0.02,0c-0.004,0-0.009,0-0.013,0c-0.005,0-0.013,0-0.019,0
	s-0.01,0-0.015,0s-0.013,0-0.019,0c-0.005,0-0.009,0-0.015,0c-0.007,0-0.011,0-0.019,0c-0.004,0-0.009,0-0.014,0
	c-0.008,0-0.013,0-0.02,0c-0.004,0-0.009,0-0.014,0c-0.007,0-0.013,0-0.021,0c-0.004,0-0.008,0-0.012,0c-0.008,0-0.015,0-0.023,0
	c-0.003,0-0.006,0-0.01,0C127.091,0,127.081,0,127.07,0L127.07,0z"/>
<g>
	<path fill="#262626" d="M127.07,2c21.892,0,39.7,17.811,39.7,39.703c0,21.879-17.809,39.68-39.7,39.68
		c-21.882,0-39.685-17.801-39.685-39.68C87.385,19.811,105.188,2,127.07,2 M127.07,0c-23.022,0-41.685,18.663-41.685,41.703
		c0,23.02,18.662,41.68,41.685,41.68c23.036,0,41.7-18.66,41.7-41.68C168.77,18.663,150.105,0,127.07,0L127.07,0z"/>
</g>
<g opacity="0.1">
	<path fill="#FFFFFF" d="M163.091,41.703c0,19.875-16.126,36.002-36.021,36.002c-19.879,0-36.006-16.127-36.006-36.002
		c0-19.898,16.127-36.025,36.006-36.025C146.965,5.678,163.091,21.805,163.091,41.703z"/>
</g>
<g>
	<path fill="#212121" d="M127.07,69.833c-15.508,0-28.124-12.619-28.124-28.128c0-15.506,12.616-28.121,28.124-28.121
		c15.511,0,28.127,12.615,28.127,28.121C155.197,57.213,142.58,69.833,127.07,69.833z"/>
	<path fill="#1A1A1A" d="M127.07,16.582c13.855,0,25.127,11.269,25.127,25.121c0,13.856-11.271,25.127-25.127,25.127
		c-13.854,0-25.124-11.271-25.124-25.127C101.946,27.851,113.216,16.582,127.07,16.582 M127.07,10.582
		c-17.194,0-31.124,13.927-31.124,31.121c0,17.191,13.93,31.127,31.124,31.127c17.198,0,31.127-13.937,31.127-31.127
		C158.197,24.509,144.268,10.582,127.07,10.582L127.07,10.582z"/>
</g>
<path fill="#E5E5E5" d="M83.385,41.703c0,23.02-18.664,41.68-41.7,41.68C18.662,83.383,0,64.723,0,41.703
	C0,18.663,18.662,0,41.685,0C64.721,0,83.385,18.663,83.385,41.703z"/>
<path fill="#BFBFBF" d="M41.685,0c-0.011,0-0.021,0-0.033,0c-0.003,0-0.007,0-0.011,0c-0.007,0-0.015,0-0.021,0
	c-0.005,0-0.01,0-0.015,0s-0.013,0-0.019,0c-0.005,0-0.009,0-0.014,0c-0.008,0-0.013,0-0.021,0c-0.004,0-0.009,0-0.013,0
	c-0.007,0-0.014,0-0.021,0c-0.004,0-0.009,0-0.013,0c-0.007,0-0.013,0-0.021,0c-0.004,0-0.009,0-0.013,0c-0.006,0-0.014,0-0.02,0
	c-0.004,0-0.009,0-0.014,0c-0.007,0-0.012,0-0.019,0c-0.005,0-0.01,0-0.015,0c-0.007,0-0.012,0-0.018,0s-0.011,0-0.016,0
	s-0.013,0-0.019,0c-0.005,0-0.01,0-0.015,0s-0.013,0-0.02,0c-0.004,0-0.009,0-0.014,0s-0.014,0-0.02,0c-0.004,0-0.01,0-0.014,0
	c-0.008,0-0.015,0-0.022,0c-0.003,0-0.006,0-0.009,0c-0.012,0-0.021,0-0.033,0c-0.003,0-0.006,0-0.009,0c-0.009,0-0.016,0-0.023,0
	c-0.005,0-0.011,0-0.016,0s-0.011,0-0.017,0s-0.012,0-0.018,0c-0.005,0-0.009,0-0.016,0c-0.006,0-0.012,0-0.018,0s-0.009,0-0.014,0
	c-0.006,0-0.013,0-0.02,0c-0.004,0-0.011,0-0.015,0c-0.006,0-0.012,0-0.019,0c-0.004,0-0.01,0-0.014,0c-0.006,0-0.012,0-0.019,0
	c-0.005,0-0.01,0-0.015,0c-0.006,0-0.012,0-0.018,0c-0.004,0-0.01,0-0.014,0c-0.007,0-0.014,0-0.02,0c-0.004,0-0.01,0-0.014,0
	c-0.006,0-0.014,0-0.021,0c-0.002,0-0.008,0-0.011,0c-0.007,0-0.015,0-0.022,0c-0.003,0-0.005,0-0.008,0c-0.008,0-0.016,0-0.023,0
	c-0.001,0-0.004,0-0.005,0c-0.05,0.001-0.1,0.002-0.148,0.003c-0.001,0-0.002,0-0.004,0c-0.009,0-0.018,0-0.027,0.001
	c-0.001,0-0.003,0-0.004,0c-0.009,0-0.019,0-0.027,0c-0.001,0-0.003,0-0.005,0c-0.009,0-0.019,0-0.027,0.001
	c-0.001,0-0.002,0-0.003,0c-0.01,0-0.019,0-0.027,0.001c-0.001,0-0.003,0-0.005,0c-0.009,0-0.02,0-0.028,0h-0.002
	c-0.01,0-0.02,0.001-0.028,0.001h-0.002c-0.021,0-0.041,0.001-0.062,0.002l0,0c-0.25,0.007-0.499,0.017-0.747,0.029l0.943,19.978
	C40.978,20.008,41.333,20,41.685,20V0L41.685,0L41.685,0z M37.69,0.189c-0.056,0.005-0.112,0.011-0.169,0.017l0,0
	c-0.009,0.001-0.019,0.002-0.028,0.003c-0.004,0-0.007,0-0.01,0c-0.007,0.001-0.014,0.001-0.021,0.002
	c-0.004,0-0.009,0.001-0.014,0.001s-0.012,0.001-0.016,0.002c-0.007,0-0.014,0.001-0.021,0.002c-0.002,0-0.004,0-0.008,0
	c-0.008,0.001-0.017,0.002-0.025,0.003h-0.002c-0.562,0.058-1.118,0.126-1.672,0.206l2.844,19.797
	c0.342-0.049,0.689-0.091,1.035-0.124L37.69,0.189L37.69,0.189z M33.733,0.758c-0.029,0.006-0.061,0.012-0.091,0.018
	c-0.001,0-0.001,0-0.002,0c-0.009,0.001-0.017,0.003-0.026,0.005c-0.002,0-0.003,0-0.006,0.001
	c-0.008,0.002-0.016,0.003-0.023,0.005c-0.002,0-0.005,0.001-0.008,0.001c-0.008,0.001-0.016,0.003-0.022,0.004
	c-0.002,0-0.006,0.001-0.009,0.002c-0.007,0.001-0.014,0.002-0.021,0.004c-0.003,0-0.008,0.002-0.011,0.002
	c-0.006,0.001-0.012,0.002-0.018,0.003c-0.004,0.001-0.012,0.002-0.016,0.003c-0.005,0.001-0.011,0.002-0.016,0.003
	c-0.004,0-0.011,0.002-0.015,0.003c-0.006,0.001-0.011,0.002-0.016,0.003s-0.011,0.002-0.017,0.003
	c-0.005,0.001-0.01,0.002-0.016,0.003c-0.005,0.001-0.012,0.002-0.018,0.003c-0.004,0.001-0.008,0.001-0.012,0.002
	c-0.009,0.001-0.014,0.002-0.021,0.004c-0.003,0-0.007,0.001-0.01,0.002c-0.008,0.001-0.014,0.003-0.022,0.004
	c-0.003,0-0.006,0.001-0.009,0.002c-0.008,0.001-0.015,0.003-0.022,0.004c-0.003,0.001-0.006,0.001-0.009,0.002
	c-0.008,0.001-0.019,0.004-0.026,0.005c-0.001,0-0.002,0-0.002,0c-0.013,0.002-0.021,0.004-0.031,0.006h-0.001
	c-0.483,0.1-0.964,0.208-1.441,0.324l4.736,19.431c0.333-0.081,0.673-0.155,1.011-0.221L33.733,0.758L33.733,0.758z M29.848,1.705
	c-0.27,0.08-0.536,0.161-0.803,0.246h-0.001c-0.021,0.006-0.04,0.013-0.062,0.02l0,0c-0.019,0.006-0.038,0.012-0.057,0.018
	c-0.001,0-0.003,0.001-0.005,0.001c-0.017,0.005-0.034,0.011-0.05,0.016c-0.312,0.1-0.62,0.204-0.928,0.312l6.592,18.883
	c0.323-0.113,0.653-0.22,0.982-0.316L29.848,1.705L29.848,1.705z M26.073,3.022c-0.619,0.25-1.232,0.516-1.836,0.794l8.382,18.159
	c0.312-0.144,0.631-0.282,0.949-0.411L26.073,3.022L26.073,3.022z M22.442,4.698c-0.592,0.309-1.176,0.631-1.75,0.967l10.088,17.27
	c0.299-0.174,0.604-0.343,0.909-0.502L22.442,4.698L22.442,4.698z M18.99,6.715c-0.56,0.364-1.109,0.74-1.65,1.13L29.035,24.07
	c0.28-0.203,0.569-0.4,0.859-0.589L18.99,6.715L18.99,6.715z M15.746,9.053c-0.522,0.416-1.034,0.843-1.535,1.283L27.401,25.37
	c0.262-0.229,0.53-0.455,0.803-0.67L15.746,9.053L15.746,9.053z M12.74,11.689c-0.285,0.275-0.565,0.554-0.843,0.836
	c-0.001,0.001-0.001,0.002-0.002,0.002c-0.006,0.007-0.013,0.013-0.019,0.02c-0.002,0.002-0.002,0.002-0.004,0.004
	c-0.006,0.006-0.012,0.012-0.018,0.018c-0.003,0.003-0.005,0.005-0.007,0.008c-0.005,0.004-0.009,0.009-0.014,0.014
	c-0.003,0.004-0.007,0.007-0.011,0.011c-0.004,0.003-0.008,0.007-0.011,0.011c-0.005,0.004-0.01,0.01-0.015,0.015
	c-0.002,0.002-0.004,0.005-0.007,0.007c-0.006,0.006-0.012,0.012-0.019,0.018c-0.001,0.001-0.002,0.002-0.004,0.003
	c-0.146,0.151-0.291,0.303-0.435,0.455l14.561,13.71c0.238-0.253,0.485-0.503,0.735-0.744L12.74,11.689L12.74,11.689z M9.999,14.601
	c-0.002,0.003-0.005,0.006-0.008,0.009c-0.005,0.004-0.009,0.009-0.012,0.014c-0.003,0.003-0.006,0.007-0.009,0.01
	c-0.004,0.005-0.008,0.009-0.012,0.014c-0.003,0.004-0.006,0.008-0.01,0.012c-0.005,0.004-0.008,0.008-0.011,0.012
	s-0.006,0.007-0.009,0.011c-0.004,0.004-0.008,0.009-0.012,0.014C9.916,14.7,9.913,14.703,9.91,14.706
	c-0.005,0.005-0.009,0.01-0.014,0.015c-0.001,0.002-0.005,0.005-0.006,0.007c-0.005,0.006-0.009,0.011-0.014,0.017
	c0,0.001-0.003,0.004-0.004,0.005c-0.005,0.006-0.012,0.013-0.017,0.019l-0.001,0.002c-0.376,0.444-0.743,0.897-1.101,1.357
	c-0.006,0.008-0.013,0.016-0.02,0.024l15.802,12.26c0.213-0.274,0.435-0.546,0.659-0.81L9.999,14.601L9.999,14.601z M7.548,17.76
	c-0.053,0.075-0.105,0.151-0.158,0.227c-0.001,0.002-0.002,0.003-0.004,0.005c-0.003,0.005-0.006,0.01-0.01,0.015
	c-0.002,0.003-0.006,0.009-0.009,0.012c-0.002,0.003-0.005,0.006-0.007,0.009c-0.316,0.459-0.625,0.924-0.923,1.396l16.9,10.694
	c0.185-0.292,0.379-0.584,0.579-0.867L7.548,17.76L7.548,17.76z M5.41,21.139c-0.153,0.27-0.305,0.542-0.451,0.816
	c-0.001,0.002-0.001,0.002-0.002,0.004c-0.001,0.003-0.003,0.006-0.005,0.009c-0.166,0.309-0.328,0.62-0.487,0.933l17.849,9.024
	c0.155-0.308,0.32-0.615,0.491-0.915L5.41,21.139L5.41,21.139z M3.606,24.707c-0.067,0.151-0.135,0.304-0.2,0.456l-0.001,0.001
	c-0.008,0.019-0.016,0.038-0.023,0.057l0,0c-0.008,0.019-0.018,0.038-0.024,0.057l0,0c-0.18,0.421-0.354,0.846-0.521,1.273
	l18.634,7.264c0.125-0.32,0.259-0.641,0.399-0.955L3.606,24.707L3.606,24.707z M2.154,28.433c-0.09,0.268-0.176,0.534-0.26,0.804
	c-0.001,0.003-0.002,0.006-0.003,0.009c-0.002,0.008-0.004,0.014-0.007,0.021c-0.001,0.003-0.002,0.007-0.003,0.01
	c-0.002,0.007-0.004,0.013-0.006,0.02c-0.001,0.004-0.003,0.008-0.004,0.012c-0.002,0.005-0.004,0.014-0.006,0.019
	c-0.002,0.003-0.003,0.006-0.004,0.009c-0.002,0.006-0.004,0.014-0.006,0.021c-0.001,0.003-0.002,0.006-0.003,0.01
	c-0.002,0.006-0.004,0.015-0.006,0.021c-0.001,0.003-0.002,0.006-0.002,0.008c-0.002,0.007-0.005,0.015-0.007,0.021
	c-0.001,0.003-0.002,0.007-0.003,0.01c-0.002,0.006-0.004,0.014-0.006,0.021c-0.001,0.003-0.002,0.006-0.003,0.01
	c-0.002,0.006-0.005,0.014-0.007,0.021c-0.001,0.003-0.002,0.006-0.003,0.009c-0.002,0.006-0.005,0.016-0.007,0.021
	c0,0.002-0.001,0.005-0.002,0.008c-0.002,0.008-0.004,0.014-0.006,0.022C1.801,29.544,1.8,29.547,1.799,29.55
	c-0.002,0.006-0.004,0.015-0.006,0.021c-0.001,0.003-0.002,0.005-0.002,0.008c-0.002,0.007-0.005,0.015-0.007,0.023
	c0,0.002-0.001,0.004-0.002,0.006c-0.003,0.008-0.006,0.018-0.008,0.025c0,0.001-0.001,0.003-0.001,0.004
	c-0.002,0.008-0.005,0.018-0.008,0.025c0,0.002-0.001,0.004-0.001,0.006c-0.002,0.008-0.005,0.018-0.008,0.025
	c0,0.001-0.001,0.003-0.001,0.004c-0.002,0.008-0.005,0.019-0.008,0.026c0,0.001-0.001,0.003-0.001,0.004
	c-0.003,0.01-0.005,0.017-0.009,0.027c0,0.001,0,0.001-0.001,0.002c-0.003,0.01-0.005,0.018-0.008,0.028c0,0.001,0,0.001,0,0.001
	c-0.055,0.186-0.107,0.368-0.16,0.554l19.248,5.432c0.094-0.33,0.196-0.662,0.306-0.987L2.154,28.433L2.154,28.433z M1.068,32.281
	c-0.122,0.527-0.232,1.058-0.335,1.593c-0.022,0.122-0.045,0.244-0.067,0.366l19.682,3.552c0.062-0.338,0.131-0.68,0.208-1.015
	L1.068,32.281L1.068,32.281z M0.357,36.215C0.301,36.642,0.252,37.07,0.209,37.5c0,0.002,0,0.004,0,0.006
	c-0.001,0.008-0.002,0.016-0.002,0.024c0,0.003-0.001,0.007-0.001,0.01c0,0.005-0.001,0.012-0.001,0.018
	c0,0.005-0.001,0.011-0.001,0.017c0,0.003-0.001,0.008-0.001,0.011c0,0.008-0.001,0.016-0.002,0.023v0.002
	c-0.02,0.197-0.037,0.394-0.054,0.592l19.933,1.654c0.028-0.346,0.065-0.695,0.11-1.039L0.357,36.215L0.357,36.215z M0.026,40.2
	c-0.011,0.319-0.019,0.639-0.022,0.959c0,0.003,0,0.005,0,0.008c0,0.01,0,0.02,0,0.029c0,0.001,0,0.003,0,0.004
	c0,0.019,0,0.038,0,0.056c0,0.003,0,0.007,0,0.011c0,0.008,0,0.017,0,0.025c0,0.005,0,0.011,0,0.016c0,0.011,0,0.023,0,0.034
	c0,0.008,0,0.016,0,0.024c0,0.007,0,0.013,0,0.02c0,0.007,0,0.015,0,0.022c0,0.007,0,0.012,0,0.019c0,0.01,0,0.021,0,0.03
	c0,0.005,0,0.014,0,0.02c0,0.01,0,0.02,0,0.03c0,0.004,0,0.012,0,0.017c0,0.01,0,0.019,0,0.029c0,0.004,0,0.008,0,0.012
	c0,0.014,0,0.027,0,0.041c0,0.004,0,0.007,0,0.011c0,0.011,0,0.021,0,0.032c0,0.004,0,0.008,0,0.012c0,0.014,0,0.028,0,0.042l0,0
	l0,0c0,0.011,0,0.021,0,0.032c0,0.006,0,0.013,0,0.019c0,0.004,0,0.008,0,0.012c0,0.01,0,0.02,0,0.03l0,0
	c0,0.135,0.001,0.27,0.003,0.404l19.999-0.234L20,41.703c0-0.266,0.005-0.532,0.014-0.796L0.026,40.2L0.026,40.2z M20.039,43.021
	L0.074,44.2c0.032,0.568,0.078,1.137,0.135,1.697c0,0.002,0,0.004,0,0.005c0,0.009,0.001,0.017,0.002,0.024
	c0,0.004,0,0.007,0.001,0.01c0,0.007,0.001,0.014,0.002,0.02c0,0.006,0.001,0.012,0.001,0.017c0,0.004,0.001,0.008,0.001,0.012
	c0,0.007,0.001,0.015,0.002,0.022v0.004c0.006,0.063,0.013,0.123,0.019,0.183l19.887-2.13
	C20.088,43.717,20.059,43.368,20.039,43.021L20.039,43.021z M20.261,45.094L0.5,48.174c0.002,0.013,0.004,0.025,0.005,0.037
	c0,0.002,0.001,0.004,0.001,0.008c0.001,0.007,0.002,0.016,0.003,0.021s0.002,0.012,0.003,0.018c0,0.004,0.001,0.01,0.002,0.013
	c0.001,0.008,0.002,0.017,0.004,0.024c0,0.002,0,0.004,0,0.006c0.083,0.525,0.177,1.046,0.28,1.564c0,0.002,0,0.002,0.001,0.006
	c0.001,0.006,0.003,0.014,0.004,0.021c0,0.004,0.002,0.01,0.003,0.015c0,0.004,0.001,0.008,0.002,0.014s0.003,0.015,0.004,0.021
	c0,0.002,0.001,0.005,0.001,0.007c0.001,0.01,0.003,0.02,0.005,0.028c0,0,0,0,0,0.001c0.012,0.057,0.023,0.111,0.034,0.167
	l19.59-4.028C20.376,45.778,20.314,45.435,20.261,45.094L20.261,45.094z M20.678,47.122L1.305,52.092
	c0.166,0.648,0.348,1.289,0.543,1.925l19.11-5.901C20.857,47.788,20.763,47.454,20.678,47.122L20.678,47.122z M21.287,49.094
	L2.485,55.913c0.229,0.629,0.471,1.25,0.728,1.863l18.451-7.718C21.53,49.741,21.404,49.417,21.287,49.094L21.287,49.094z
	 M22.085,51.002L4.028,59.601c0.035,0.073,0.069,0.146,0.104,0.218c0.001,0.002,0.003,0.008,0.004,0.01
	c0.002,0.004,0.004,0.006,0.005,0.01c0.003,0.006,0.006,0.014,0.009,0.02c0,0,0.001,0.001,0.001,0.002
	c0.18,0.37,0.363,0.734,0.554,1.098l0,0c0.004,0.008,0.009,0.018,0.013,0.024c0.001,0.002,0.002,0.004,0.003,0.007
	C4.723,60.995,4.727,61,4.73,61.006c0.002,0.004,0.004,0.01,0.007,0.014c0.001,0.003,0.005,0.009,0.007,0.012
	c0.003,0.006,0.006,0.012,0.009,0.018c0.001,0.005,0.002,0.005,0.004,0.009c0.057,0.108,0.115,0.218,0.173,0.327l17.623-9.459
	C22.39,51.624,22.233,51.313,22.085,51.002L22.085,51.002z M23.066,52.831L5.918,63.125c0.097,0.16,0.193,0.319,0.293,0.479v0.001
	c0.004,0.007,0.009,0.014,0.013,0.021c0.001,0.002,0.003,0.004,0.004,0.006c0.002,0.005,0.005,0.009,0.008,0.013
	c0.003,0.006,0.008,0.013,0.012,0.019c0,0,0.001,0,0.001,0.002c0.239,0.387,0.486,0.77,0.738,1.147l16.637-11.104
	C23.431,53.422,23.244,53.125,23.066,52.831L23.066,52.831z M24.223,54.563L8.139,66.45c0.074,0.1,0.149,0.2,0.224,0.301l0,0
	c0.007,0.008,0.013,0.017,0.019,0.023l0.002,0.002c0.006,0.008,0.011,0.016,0.017,0.021c0.001,0.002,0.002,0.002,0.003,0.004
	c0.006,0.008,0.011,0.015,0.016,0.021c0.001,0.002,0.002,0.002,0.004,0.004c0.005,0.006,0.01,0.014,0.015,0.02
	c0.001,0.002,0.004,0.005,0.006,0.008c0.004,0.005,0.009,0.012,0.013,0.016c0.002,0.004,0.005,0.006,0.007,0.01
	c0.004,0.004,0.007,0.01,0.011,0.015c0.002,0.003,0.006,0.008,0.008,0.011c0.003,0.004,0.007,0.01,0.012,0.014
	c0.002,0.004,0.006,0.008,0.008,0.012c0.003,0.005,0.007,0.009,0.01,0.014c0.004,0.006,0.006,0.008,0.01,0.014
	c0.003,0.002,0.006,0.006,0.009,0.01c0.005,0.006,0.007,0.01,0.012,0.015c0.002,0.004,0.005,0.007,0.008,0.011
	C8.552,67,8.556,67.004,8.56,67.01c0.002,0.003,0.004,0.006,0.006,0.009c0.004,0.005,0.01,0.013,0.014,0.017
	c0.002,0.004,0.004,0.006,0.006,0.008c0.004,0.006,0.01,0.014,0.015,0.02c0.001,0.001,0.002,0.003,0.004,0.005
	c0.004,0.007,0.01,0.015,0.016,0.021c0.001,0,0.002,0.002,0.003,0.004c0.006,0.008,0.011,0.015,0.017,0.021
	c0,0.002,0.001,0.002,0.001,0.002c0.006,0.008,0.012,0.016,0.019,0.023c0,0,0,0.001,0.001,0.001c0.23,0.299,0.466,0.596,0.704,0.889
	l15.498-12.642C24.644,55.12,24.429,54.842,24.223,54.563L24.223,54.563z M25.543,56.182L10.666,69.547
	c0.445,0.496,0.902,0.981,1.372,1.457l14.223-14.062C26.017,56.696,25.775,56.44,25.543,56.182L25.543,56.182z M27.014,57.668
	L13.477,72.392c0.25,0.229,0.505,0.459,0.761,0.683c0.001,0.002,0.003,0.002,0.003,0.002c0.006,0.006,0.011,0.01,0.017,0.014
	c0.003,0.002,0.006,0.006,0.009,0.009c0.003,0.002,0.007,0.006,0.01,0.009c0.005,0.004,0.011,0.008,0.016,0.012
	c0.002,0.002,0.003,0.002,0.005,0.004c0.006,0.006,0.013,0.012,0.02,0.018l0.001,0.001c0.221,0.19,0.441,0.38,0.665,0.567
	L27.8,58.359C27.534,58.135,27.27,57.905,27.014,57.668L27.014,57.668z M28.618,59.008L16.546,74.956
	c0.307,0.231,0.617,0.461,0.931,0.685c0.229,0.164,0.46,0.325,0.692,0.483L29.464,59.62C29.179,59.422,28.894,59.217,28.618,59.008
	L28.618,59.008z M30.338,60.186L19.846,77.213c0.034,0.021,0.069,0.041,0.104,0.063c0.002,0.001,0.002,0.001,0.004,0.003
	c0.006,0.005,0.013,0.009,0.019,0.011c0.003,0.002,0.007,0.004,0.01,0.008c0.004,0.002,0.009,0.004,0.013,0.007
	c0.005,0.003,0.012,0.007,0.018,0.011c0.002,0.001,0.004,0.002,0.006,0.003c0.499,0.304,1.006,0.599,1.519,0.882
	c0.001,0,0.002,0.002,0.003,0.002c0.007,0.004,0.013,0.006,0.02,0.01c0.003,0.002,0.007,0.004,0.011,0.006
	c0.001,0,0.003,0.002,0.004,0.003l9.662-17.511C30.934,60.543,30.632,60.368,30.338,60.186L30.338,60.186z M32.156,61.189
	l-8.809,17.956c0.112,0.055,0.224,0.109,0.336,0.163l0.002,0.001c0.008,0.004,0.017,0.008,0.024,0.012
	c0.002,0.002,0.003,0.002,0.005,0.002c0.007,0.004,0.014,0.008,0.021,0.01c0.002,0.002,0.008,0.004,0.011,0.004
	c0.005,0.002,0.011,0.006,0.017,0.008c0.005,0.003,0.009,0.005,0.014,0.008c0.004,0.002,0.009,0.004,0.014,0.006
	c0.004,0.002,0.013,0.006,0.018,0.008c0.003,0.002,0.006,0.004,0.01,0.006c0.007,0.002,0.014,0.006,0.02,0.008
	c0.003,0.002,0.006,0.004,0.009,0.004c0.007,0.004,0.015,0.008,0.022,0.012c0.001,0,0.003,0.001,0.004,0.002
	c0.009,0.004,0.017,0.008,0.025,0.012c0,0,0.001,0,0.001,0.002c0.418,0.196,0.839,0.387,1.266,0.571l7.933-18.358
	C32.781,61.487,32.464,61.34,32.156,61.189L32.156,61.189z M34.055,62.01l-7.038,18.721c0.624,0.234,1.251,0.453,1.889,0.658
	L35.03,62.35C34.704,62.245,34.376,62.131,34.055,62.01L34.055,62.01z M36.021,62.643l-5.196,19.313
	c0.079,0.021,0.159,0.043,0.239,0.063h0.001c0.01,0.002,0.02,0.005,0.028,0.007c0.001,0,0.002,0,0.004,0.001
	c0.008,0.002,0.016,0.005,0.024,0.007c0.003,0,0.006,0.002,0.009,0.002c0.007,0,0.014,0.002,0.021,0.004
	c0.005,0.002,0.009,0.002,0.014,0.004c0.005,0,0.01,0.002,0.015,0.004c0.006,0,0.012,0.002,0.02,0.004
	c0.003,0.002,0.007,0.003,0.011,0.004c0.008,0.002,0.016,0.004,0.022,0.006c0.002,0,0.004,0.001,0.005,0.001
	c0.01,0.002,0.019,0.004,0.027,0.007c0.001,0,0.002,0,0.004,0.001c0.497,0.128,0.995,0.246,1.499,0.356l4.259-19.543
	C36.69,62.814,36.352,62.731,36.021,62.643L36.021,62.643z M38.042,63.083L34.73,82.807c0.501,0.084,1.006,0.16,1.515,0.227
	c0.154,0.021,0.311,0.039,0.466,0.057l2.361-19.859C38.729,63.189,38.382,63.14,38.042,63.083L38.042,63.083z M40.112,63.329
	l-1.41,19.95c0.135,0.009,0.27,0.019,0.404,0.026c0.005,0,0.011,0.001,0.016,0.001s0.01,0,0.016,0.001
	c0.008,0,0.016,0.001,0.023,0.001c0.003,0,0.005,0,0.008,0c0.009,0,0.017,0.001,0.025,0.001c0.001,0,0.003,0,0.006,0
	c0.318,0.02,0.639,0.033,0.96,0.045c0.004,0,0.005,0,0.009,0c0.006,0,0.012,0,0.018,0.001c0.006,0,0.011,0,0.018,0
	c0.004,0,0.008,0,0.013,0c0.007,0,0.015,0,0.021,0c0.003,0,0.006,0,0.008,0c0.01,0,0.018,0,0.027,0.001c0.001,0,0.002,0,0.003,0
	c0.142,0.005,0.282,0.01,0.424,0.012l0.464-19.994C40.813,63.37,40.459,63.354,40.112,63.329L40.112,63.329z M43.274,63.329
	c-0.348,0.023-0.702,0.041-1.052,0.049l0.478,19.994c0.188-0.004,0.376-0.01,0.563-0.017c0.02,0,0.038-0.001,0.056-0.002
	c0.003,0,0.005,0,0.008,0c0.009,0,0.018,0,0.025-0.001c0.003,0,0.002,0,0.005,0c0.011,0,0.021-0.001,0.03-0.001h0.001
	c0.396-0.017,0.791-0.037,1.184-0.063c0.002,0,0,0,0.002,0c0.021-0.002,0.04-0.002,0.061-0.004c0.001,0,0,0,0.001,0
	c0.01-0.002,0.02-0.002,0.03-0.002h0.002c0.009,0,0.019-0.002,0.028-0.003l0,0L43.274,63.329L43.274,63.329z M45.345,63.081
	c-0.34,0.058-0.687,0.107-1.03,0.148l2.372,19.859c0.616-0.073,1.228-0.16,1.833-0.26c0,0,0,0,0.001,0
	c0.009-0.002,0.021-0.004,0.029-0.006c0.002,0,0.005,0,0.007,0c0.008-0.002,0.017-0.003,0.024-0.005
	c0.003,0,0.006-0.001,0.009-0.001c0.008-0.001,0.015-0.002,0.021-0.004c0.004,0,0.008-0.001,0.012-0.001
	c0.007-0.001,0.014-0.002,0.02-0.003c0.004-0.001,0.008-0.001,0.012-0.002c0.004,0,0.009-0.001,0.011-0.002L45.345,63.081
	L45.345,63.081z M47.368,62.639c-0.332,0.089-0.669,0.172-1.006,0.244l4.269,19.541c0.074-0.016,0.146-0.032,0.22-0.049
	c0.001,0,0.002,0,0.003,0c0.009-0.002,0.019-0.004,0.027-0.006c0.003,0,0.006-0.002,0.008-0.002
	c0.007-0.002,0.014-0.004,0.021-0.005c0.005-0.001,0.01-0.002,0.015-0.004c0.005-0.001,0.01-0.002,0.015-0.003
	c0.007-0.002,0.014-0.003,0.021-0.005c0.003,0,0.006-0.001,0.009-0.002c0.008-0.002,0.016-0.003,0.023-0.005
	c0.003,0,0.004-0.002,0.007-0.002c0.009-0.002,0.018-0.004,0.025-0.006c0.001,0,0.002,0,0.003,0c0.01-0.002,0.02-0.004,0.028-0.006
	c0.001,0,0,0,0.002,0c0.253-0.059,0.506-0.119,0.758-0.183h0.001c0.01-0.002,0.019-0.004,0.026-0.006
	c0.001,0,0.003-0.001,0.005-0.001c0.008-0.002,0.018-0.004,0.025-0.006c0.002-0.002,0.003-0.002,0.006-0.002
	c0.008-0.002,0.016-0.004,0.023-0.006c0.002,0,0.005,0,0.008,0c0.008-0.002,0.016-0.004,0.022-0.006
	c0.003-0.002,0.004-0.002,0.007-0.002c0.007-0.002,0.016-0.004,0.023-0.006c0.001,0,0.006-0.002,0.007-0.003
	c0.008-0.002,0.016-0.004,0.024-0.006c0.001,0,0.005-0.001,0.006-0.002c0.008-0.002,0.016-0.004,0.023-0.006
	c0.002,0,0.004-0.001,0.006-0.001c0.009-0.002,0.018-0.004,0.024-0.006c0.003-0.002,0.003-0.002,0.006-0.002
	c0.008-0.002,0.018-0.004,0.025-0.006c0.001,0,0.004,0,0.005,0c0.009-0.002,0.018-0.004,0.026-0.008c0.001,0,0.002,0,0.003,0
	c0.009-0.002,0.018-0.004,0.025-0.008c0.001,0,0.002,0,0.004,0c0.01-0.002,0.02-0.005,0.028-0.007h0.001
	c0.13-0.034,0.261-0.067,0.391-0.103L47.368,62.639L47.368,62.639z M49.335,62.004c-0.321,0.121-0.649,0.236-0.977,0.34
	l6.133,19.037c0.308-0.098,0.614-0.201,0.919-0.307c0.001,0,0,0,0.001,0c0.008-0.004,0.017-0.007,0.025-0.01
	c0.001,0,0.005-0.001,0.006-0.002c0.008-0.002,0.016-0.005,0.022-0.008c0.002-0.001,0.006-0.002,0.008-0.004
	c0.007-0.002,0.013-0.004,0.021-0.006c0.004-0.002,0.009-0.004,0.013-0.004c0.005-0.002,0.01-0.004,0.015-0.006
	s0.012-0.004,0.017-0.006c0.004-0.001,0.008-0.002,0.012-0.004c0.008-0.003,0.014-0.005,0.021-0.008
	c0.002,0,0.005-0.001,0.008-0.002c0.007-0.003,0.018-0.006,0.024-0.01c0.001,0,0.002,0,0.003,0c0.261-0.092,0.517-0.187,0.773-0.282
	L49.335,62.004L49.335,62.004z M51.235,61.184c-0.309,0.15-0.625,0.297-0.94,0.434l7.938,18.356c0.352-0.151,0.699-0.308,1.044-0.47
	c0.001,0,0.002,0,0.003,0c0.009-0.004,0.015-0.008,0.022-0.012c0.002,0,0.005-0.002,0.007-0.002c0.006-0.004,0.015-0.007,0.021-0.01
	c0.003-0.001,0.006-0.003,0.009-0.004c0.006-0.003,0.012-0.005,0.018-0.008c0.004-0.002,0.008-0.004,0.012-0.006
	c0.005-0.002,0.011-0.004,0.016-0.006s0.01-0.004,0.014-0.006s0.007-0.004,0.011-0.006c0.007-0.003,0.013-0.006,0.02-0.009
	c0.001,0,0.003-0.002,0.005-0.002c0.206-0.097,0.411-0.196,0.615-0.296L51.235,61.184L51.235,61.184z M53.053,60.18
	c-0.294,0.181-0.596,0.357-0.898,0.523l9.669,17.508c0.06-0.032,0.12-0.066,0.18-0.1c0.001-0.001,0.003-0.001,0.004-0.002
	c0.008-0.004,0.015-0.008,0.021-0.012c0.003-0.001,0.004-0.002,0.006-0.004c0.007-0.004,0.013-0.006,0.02-0.01
	c0.003-0.002,0.006-0.004,0.009-0.006c0.005-0.002,0.012-0.006,0.017-0.009s0.009-0.005,0.013-0.007
	c0.003-0.002,0.008-0.004,0.011-0.006c0.006-0.003,0.013-0.008,0.019-0.01c0.002-0.002,0.004-0.002,0.006-0.004
	c0.007-0.004,0.014-0.008,0.021-0.012c0.001,0,0.005-0.003,0.006-0.004c0.009-0.004,0.016-0.008,0.023-0.013l0,0
	c0.463-0.261,0.92-0.531,1.372-0.81L53.053,60.18L53.053,60.18z M54.773,59c-0.275,0.209-0.561,0.416-0.847,0.61l11.3,16.501
	c0.253-0.173,0.504-0.349,0.753-0.527c0,0,0,0,0.001-0.002c0.008-0.006,0.017-0.01,0.024-0.017c0.001,0,0.001-0.001,0.002-0.001
	c0.007-0.005,0.014-0.01,0.021-0.016c0.001-0.002,0.003-0.002,0.006-0.004c0.006-0.004,0.014-0.01,0.02-0.016
	c0.002-0.001,0.004-0.002,0.006-0.004c0.006-0.005,0.012-0.008,0.019-0.013c0.003-0.003,0.006-0.005,0.009-0.007
	c0.004-0.004,0.011-0.008,0.015-0.012c0.004-0.002,0.008-0.004,0.011-0.008c0.005-0.003,0.01-0.006,0.014-0.009
	s0.009-0.006,0.013-0.011c0.004-0.002,0.007-0.004,0.012-0.008s0.011-0.006,0.016-0.01c0.002-0.002,0.006-0.005,0.009-0.007
	c0.006-0.004,0.012-0.009,0.018-0.013c0.002-0.001,0.005-0.004,0.008-0.006c0.007-0.004,0.014-0.01,0.021-0.014
	c0.001,0,0.002-0.002,0.003-0.002c0.008-0.006,0.015-0.012,0.022-0.018c0.001,0,0.002-0.001,0.003-0.002
	c0.202-0.146,0.401-0.297,0.6-0.446L54.773,59L54.773,59z M56.376,57.663c-0.255,0.234-0.521,0.467-0.786,0.688L68.413,73.7
	c0.004-0.004,0.009-0.008,0.013-0.012c0.001-0.001,0.003-0.002,0.004-0.003c0.006-0.005,0.013-0.011,0.02-0.017
	c0.002,0,0.004-0.002,0.006-0.004c0.006-0.006,0.012-0.011,0.018-0.016c0.002-0.002,0.004-0.004,0.007-0.006
	c0.005-0.004,0.012-0.01,0.017-0.014c0.003-0.002,0.005-0.004,0.008-0.008c0.005-0.004,0.011-0.009,0.016-0.013
	c0.003-0.002,0.005-0.005,0.008-0.007c0.006-0.004,0.011-0.008,0.016-0.014c0.003-0.002,0.006-0.004,0.01-0.008
	c0.005-0.004,0.008-0.006,0.014-0.012c0.003-0.003,0.008-0.006,0.012-0.009s0.008-0.006,0.012-0.011
	c0.004-0.002,0.009-0.006,0.013-0.01c0.003-0.002,0.008-0.008,0.011-0.01c0.005-0.004,0.009-0.007,0.014-0.011
	c0.003-0.002,0.007-0.006,0.01-0.009c0.005-0.004,0.009-0.008,0.014-0.012c0.003-0.002,0.007-0.006,0.011-0.008
	c0.005-0.004,0.01-0.008,0.015-0.013c0.002-0.001,0.005-0.005,0.007-0.006c0.006-0.005,0.011-0.011,0.018-0.015
	c0.002-0.002,0.004-0.004,0.006-0.006c0.006-0.005,0.012-0.01,0.018-0.015c0.002-0.001,0.002-0.002,0.004-0.004
	c0.006-0.005,0.014-0.011,0.021-0.017c0.002-0.002,0.002-0.002,0.004-0.004c0.007-0.006,0.013-0.012,0.02-0.018l0.002-0.001
	c0.007-0.006,0.016-0.013,0.022-0.019l0.002-0.002c0.332-0.285,0.659-0.574,0.98-0.867c0.002-0.002,0.002-0.002,0.005-0.004
	c0.006-0.006,0.012-0.012,0.019-0.018c0.002-0.001,0.004-0.004,0.006-0.006c0.005-0.004,0.01-0.01,0.017-0.014
	c0.003-0.002,0.008-0.008,0.011-0.01c0.003-0.004,0.007-0.008,0.011-0.011c0.004-0.004,0.009-0.009,0.014-0.013
	c0.002-0.002,0.006-0.004,0.008-0.008c0.006-0.004,0.013-0.012,0.019-0.016c0.001-0.002,0.002-0.002,0.003-0.002
	c0.008-0.008,0.014-0.014,0.022-0.021l0,0c0.002-0.002,0.004-0.004,0.007-0.008L56.376,57.663L56.376,57.663z M57.847,56.174
	c-0.231,0.258-0.473,0.514-0.717,0.761l14.227,14.058c0.002-0.002,0.003-0.004,0.005-0.006c0.006-0.005,0.012-0.011,0.017-0.016
	c0,0,0.002-0.002,0.003-0.004c0.313-0.317,0.622-0.641,0.926-0.969c0,0,0.001-0.002,0.002-0.002c0.006-0.006,0.012-0.014,0.019-0.02
	c0.002-0.002,0.004-0.004,0.006-0.006c0.005-0.006,0.01-0.01,0.015-0.016c0.003-0.004,0.006-0.008,0.01-0.012
	c0.003-0.003,0.008-0.007,0.011-0.011c0.004-0.004,0.009-0.011,0.014-0.015c0.002-0.002,0.004-0.006,0.006-0.008
	c0.006-0.007,0.012-0.014,0.02-0.021l0.001-0.001c0.106-0.117,0.215-0.235,0.32-0.354L57.847,56.174L57.847,56.174z M59.167,54.555
	c-0.206,0.277-0.421,0.556-0.642,0.824l15.501,12.638c0.002-0.002,0.003-0.004,0.006-0.007c0.004-0.004,0.009-0.01,0.013-0.016
	c0.002-0.002,0.005-0.007,0.008-0.01c0.004-0.005,0.008-0.01,0.012-0.016c0.003-0.004,0.006-0.006,0.01-0.01
	c0.003-0.004,0.007-0.01,0.011-0.014c0.003-0.004,0.007-0.009,0.01-0.013s0.006-0.007,0.009-0.011
	c0.004-0.006,0.009-0.012,0.014-0.016c0.002-0.003,0.004-0.006,0.006-0.009c0.005-0.006,0.01-0.013,0.015-0.019
	c0.001-0.002,0.003-0.004,0.004-0.004c0.006-0.008,0.012-0.015,0.018-0.021c0.001-0.001,0.001-0.002,0.002-0.003
	c0.006-0.009,0.011-0.015,0.018-0.022h0.001c0.209-0.261,0.415-0.521,0.618-0.787l0,0c0.005-0.008,0.012-0.017,0.018-0.023
	c0-0.001,0.001-0.001,0.001-0.002c0.005-0.006,0.011-0.014,0.016-0.02c0.001-0.002,0.003-0.004,0.005-0.006
	c0.004-0.005,0.007-0.01,0.011-0.016c0.003-0.003,0.006-0.008,0.008-0.01c0.002-0.004,0.006-0.008,0.008-0.012
	c0.004-0.004,0.008-0.01,0.012-0.015c0.001-0.002,0.004-0.005,0.005-0.007c0.005-0.006,0.01-0.012,0.014-0.02
	c0.001,0,0.001,0,0.002-0.002c0.119-0.156,0.238-0.314,0.355-0.474L59.167,54.555L59.167,54.555z M60.323,52.823
	c-0.179,0.295-0.365,0.592-0.558,0.879l16.638,11.1c0.047-0.07,0.094-0.141,0.14-0.211c0.004-0.006,0.009-0.012,0.013-0.02
	c0-0.001,0.002-0.004,0.003-0.005c0.309-0.469,0.607-0.944,0.897-1.427l0.001-0.002c0.004-0.008,0.009-0.016,0.013-0.021
	c0.001-0.002,0.002-0.004,0.002-0.005L60.323,52.823L60.323,52.823z M61.303,50.995c-0.146,0.311-0.305,0.621-0.468,0.924
	l17.625,9.453c0.091-0.17,0.182-0.34,0.271-0.513c0.144-0.274,0.282-0.551,0.418-0.829c0,0,0,0,0-0.001
	c0.004-0.008,0.009-0.017,0.014-0.024c0.001-0.004,0.003-0.006,0.004-0.01c0.003-0.006,0.006-0.012,0.009-0.018
	c0.002-0.005,0.004-0.01,0.007-0.014c0.001-0.004,0.004-0.008,0.006-0.012c0.003-0.008,0.007-0.015,0.011-0.021
	c0.001-0.002,0.001-0.004,0.003-0.006c0.054-0.112,0.107-0.225,0.161-0.338L61.303,50.995L61.303,50.995z M62.101,49.086
	c-0.117,0.322-0.243,0.646-0.375,0.963L80.18,57.76c0.096-0.229,0.19-0.459,0.282-0.691c0-0.001,0.002-0.005,0.002-0.006
	c0.003-0.007,0.006-0.016,0.009-0.021c0.001-0.004,0.002-0.006,0.004-0.01c0.002-0.007,0.005-0.013,0.007-0.02
	c0.002-0.006,0.004-0.01,0.007-0.016c0.002-0.004,0.003-0.009,0.005-0.014c0.003-0.009,0.006-0.018,0.01-0.025c0,0,0,0,0.001-0.002
	c0.138-0.351,0.271-0.703,0.399-1.059L62.101,49.086L62.101,49.086z M62.709,47.113c-0.085,0.332-0.18,0.667-0.28,0.994
	l19.112,5.896c0.042-0.139,0.084-0.276,0.125-0.416l0.001-0.004c0.002-0.008,0.005-0.017,0.008-0.024
	c0-0.001,0.001-0.004,0.001-0.005c0.002-0.008,0.004-0.016,0.006-0.023c0.001-0.002,0.002-0.006,0.002-0.008
	c0.002-0.007,0.004-0.016,0.007-0.021c0-0.002,0.001-0.004,0.002-0.008c0.002-0.008,0.006-0.016,0.008-0.023
	c0.001-0.002,0.001-0.004,0.002-0.006c0.002-0.008,0.005-0.018,0.007-0.024c0-0.001,0.001-0.004,0.001-0.005
	c0.002-0.01,0.005-0.018,0.007-0.025c0,0,0.001-0.004,0.001-0.005c0.002-0.009,0.005-0.019,0.008-0.026c0,0,0-0.002,0.001-0.002
	c0.002-0.01,0.005-0.02,0.008-0.028c0-0.001,0,0,0-0.003c0.003-0.008,0.006-0.018,0.009-0.027v-0.001
	c0.002-0.01,0.005-0.019,0.008-0.028v-0.002c0.115-0.4,0.225-0.803,0.329-1.207L62.709,47.113L62.709,47.113z M63.125,45.086
	c-0.054,0.34-0.115,0.683-0.185,1.02l19.592,4.021c0.116-0.569,0.222-1.144,0.315-1.721c0.013-0.082,0.026-0.164,0.039-0.246
	L63.125,45.086L63.125,45.086z M63.347,43.012c-0.021,0.347-0.049,0.697-0.086,1.042l19.887,2.122
	c0.025-0.234,0.048-0.467,0.069-0.703c0,0,0-0.001,0-0.002c0.001-0.01,0.001-0.018,0.002-0.026c0-0.002,0-0.005,0-0.008
	c0.001-0.008,0.001-0.013,0.002-0.021c0-0.004,0-0.008,0.001-0.012c0-0.006,0.001-0.008,0.001-0.013
	c0.033-0.38,0.062-0.761,0.084-1.144c0.001-0.021,0.002-0.043,0.003-0.063L63.347,43.012L63.347,43.012z M83.358,40.185
	l-19.986,0.714c0.009,0.267,0.014,0.535,0.014,0.804l-0.001,0.256l19.999,0.227c0.001-0.13,0.002-0.261,0.003-0.391
	c0-0.001,0-0.003,0-0.004c0-0.008,0-0.017,0-0.025c0-0.005,0-0.008,0-0.014s0-0.011,0-0.017c0-0.011,0-0.021,0-0.032l0,0l0,0
	c0-0.014,0-0.028,0-0.042c0-0.004,0-0.008,0-0.012c0-0.011,0-0.022,0-0.033c0-0.003,0-0.008,0-0.011c0-0.014,0-0.027,0-0.041
	c0-0.004,0-0.009,0-0.014c0-0.009,0-0.019,0-0.028c0-0.005,0-0.011,0-0.017c0-0.011,0-0.022,0-0.034c0-0.005,0-0.013,0-0.019
	c0-0.009,0-0.018,0-0.027c0-0.005,0-0.014,0-0.02c0-0.007,0-0.014,0-0.021c0-0.014,0-0.026,0-0.04c0-0.005,0-0.01,0-0.015
	c0-0.009,0-0.017,0-0.026c0-0.004,0-0.009,0-0.014c0-0.029,0-0.061-0.001-0.09c0-0.002,0-0.004,0-0.006c0-0.011,0-0.02,0-0.031
	c0-0.001,0-0.002,0-0.004c-0.002-0.145-0.004-0.289-0.008-0.433v-0.001c0-0.031-0.001-0.061-0.002-0.092c0-0.004,0-0.008,0-0.012
	c0-0.008,0-0.016,0-0.024c0-0.006,0-0.012,0-0.018c0-0.008,0-0.018-0.001-0.026c0-0.011,0-0.021-0.001-0.034
	c0-0.004,0-0.009,0-0.013c0-0.012-0.001-0.023-0.001-0.035c0-0.001,0-0.005,0-0.006C83.364,40.373,83.361,40.279,83.358,40.185
	L83.358,40.185z M83.025,36.2l-19.829,2.611c0.046,0.343,0.083,0.692,0.112,1.039l19.931-1.662
	c-0.013-0.156-0.026-0.312-0.042-0.468c0-0.001,0,0,0,0c-0.001-0.01-0.002-0.019-0.003-0.028c0-0.003,0-0.005,0-0.008
	c-0.001-0.007-0.001-0.015-0.002-0.022c0-0.004,0-0.008-0.001-0.013c0-0.006-0.001-0.012-0.002-0.018
	c0-0.007-0.001-0.014-0.002-0.021c0-0.003,0-0.007-0.001-0.01c-0.001-0.011-0.002-0.02-0.003-0.03l0,0
	C83.138,37.11,83.085,36.655,83.025,36.2L83.025,36.2z M82.313,32.266L62.827,36.77c0.077,0.335,0.147,0.676,0.209,1.015
	l19.681-3.56c-0.058-0.318-0.119-0.635-0.184-0.95v-0.004c-0.001-0.007-0.004-0.015-0.006-0.022c0-0.004-0.001-0.006-0.002-0.01
	c-0.001-0.006-0.002-0.013-0.004-0.02c-0.001-0.005-0.001-0.008-0.002-0.013s-0.002-0.01-0.003-0.016
	c-0.001-0.006-0.002-0.011-0.003-0.016c-0.001-0.005-0.002-0.01-0.003-0.015c-0.001-0.007-0.002-0.011-0.004-0.018
	c0-0.004-0.001-0.008-0.002-0.012c-0.001-0.006-0.003-0.014-0.004-0.021c-0.001-0.003-0.001-0.007-0.002-0.01
	c-0.001-0.008-0.003-0.015-0.004-0.023c-0.001-0.002-0.001-0.005-0.002-0.007c-0.001-0.008-0.003-0.016-0.006-0.024
	c0-0.003-0.001-0.005-0.001-0.008c-0.002-0.008-0.004-0.018-0.005-0.025c0-0.001-0.001-0.003-0.001-0.004
	c-0.002-0.009-0.004-0.018-0.006-0.027c0-0.001,0-0.003-0.001-0.004c-0.002-0.009-0.004-0.019-0.006-0.028c0,0,0-0.001-0.001-0.002
	c-0.002-0.011-0.004-0.02-0.006-0.029c0,0,0-0.001,0-0.002c-0.023-0.105-0.046-0.21-0.069-0.315c0-0.001,0-0.003-0.001-0.004
	c-0.002-0.009-0.003-0.017-0.005-0.026c-0.002-0.009-0.004-0.018-0.006-0.026c0-0.001,0-0.002-0.001-0.003
	c-0.002-0.009-0.004-0.018-0.006-0.026c0-0.001,0-0.004-0.001-0.005C82.351,32.427,82.332,32.346,82.313,32.266L82.313,32.266z
	 M81.226,28.418l-18.96,6.363c0.109,0.325,0.212,0.657,0.305,0.987l19.246-5.44c0-0.002-0.001-0.004-0.002-0.007
	c-0.001-0.005-0.002-0.01-0.004-0.014c-0.001-0.005-0.003-0.013-0.005-0.018c-0.001-0.004-0.002-0.007-0.003-0.011
	c-0.002-0.008-0.004-0.015-0.006-0.022c0-0.002-0.001-0.004-0.001-0.006c-0.003-0.009-0.005-0.019-0.008-0.028l0,0
	c-0.142-0.492-0.29-0.981-0.448-1.465c-0.001-0.003-0.002-0.006-0.003-0.009c-0.001-0.004-0.003-0.01-0.004-0.014
	c-0.002-0.006-0.004-0.012-0.006-0.018c0-0.001-0.001-0.002-0.001-0.004C81.291,28.613,81.258,28.516,81.226,28.418L81.226,28.418z
	 M79.772,24.693l-18.259,8.162c0.14,0.314,0.275,0.635,0.399,0.955l18.631-7.271C80.301,25.916,80.043,25.301,79.772,24.693
	L79.772,24.693z M77.966,21.125l-17.39,9.879c0.17,0.3,0.335,0.607,0.49,0.915l17.845-9.032c-0.265-0.521-0.538-1.036-0.823-1.544
	v-0.001c-0.005-0.009-0.01-0.017-0.015-0.026c-0.002-0.001,0,0-0.002-0.001c-0.004-0.008-0.009-0.017-0.014-0.025
	c0-0.001-0.001-0.003-0.002-0.004c-0.004-0.007-0.009-0.015-0.013-0.023c-0.001-0.002-0.001-0.003-0.003-0.005
	c-0.004-0.007-0.008-0.013-0.012-0.02c-0.001-0.002-0.004-0.008-0.006-0.01c-0.003-0.005-0.006-0.011-0.01-0.017
	c-0.002-0.004-0.004-0.007-0.006-0.012c-0.003-0.004-0.005-0.009-0.008-0.014c-0.002-0.004-0.006-0.011-0.008-0.015
	c-0.003-0.004-0.006-0.008-0.008-0.012c-0.004-0.007-0.007-0.013-0.011-0.02c-0.001-0.002-0.002-0.004-0.003-0.006
	C77.969,21.129,77.968,21.128,77.966,21.125L77.966,21.125z M75.827,17.748L59.463,29.247c0.199,0.283,0.394,0.575,0.579,0.867
	l16.896-10.702c-0.043-0.068-0.086-0.135-0.129-0.203c-0.003-0.004-0.004-0.007-0.007-0.011c-0.001-0.002-0.003-0.005-0.005-0.008
	c-0.004-0.006-0.009-0.013-0.013-0.02l-0.001-0.001c-0.215-0.333-0.435-0.663-0.657-0.99c-0.002-0.003-0.004-0.006-0.006-0.009
	c-0.004-0.005-0.008-0.01-0.012-0.015c-0.003-0.005-0.007-0.011-0.011-0.017c-0.001-0.002-0.003-0.004-0.005-0.006
	C76.005,18.002,75.916,17.875,75.827,17.748L75.827,17.748z M73.375,14.59L58.182,27.597c0.227,0.264,0.448,0.536,0.661,0.81
	L74.638,16.14c-0.038-0.049-0.077-0.099-0.115-0.148l0,0c-0.006-0.008-0.012-0.015-0.019-0.023c0-0.001-0.001-0.002-0.002-0.003
	c-0.005-0.007-0.011-0.014-0.017-0.021c-0.001-0.002-0.004-0.005-0.005-0.007c-0.004-0.005-0.009-0.011-0.013-0.017
	c-0.002-0.003-0.004-0.006-0.007-0.009c-0.004-0.005-0.008-0.01-0.012-0.015c-0.004-0.004-0.007-0.008-0.01-0.012
	c-0.003-0.004-0.006-0.008-0.009-0.012s-0.007-0.009-0.011-0.013c-0.002-0.003-0.005-0.007-0.008-0.011
	c-0.004-0.005-0.009-0.01-0.013-0.016c-0.002-0.002-0.004-0.005-0.006-0.008c-0.005-0.006-0.009-0.011-0.014-0.017
	c-0.002-0.002-0.003-0.005-0.005-0.007c-0.005-0.006-0.01-0.012-0.016-0.019c-0.001-0.001-0.002-0.003-0.004-0.005
	c-0.005-0.006-0.011-0.014-0.016-0.02c-0.001-0.001-0.002-0.003-0.003-0.004c-0.006-0.007-0.012-0.014-0.018-0.021
	c0,0-0.001-0.001-0.002-0.002c-0.006-0.008-0.011-0.014-0.018-0.022c0-0.001-0.001-0.002-0.002-0.002
	c-0.006-0.007-0.011-0.015-0.017-0.021c-0.002-0.001-0.003-0.002-0.004-0.003c-0.005-0.007-0.011-0.014-0.017-0.021
	c-0.001-0.001-0.002-0.002-0.002-0.003c-0.007-0.008-0.011-0.014-0.018-0.022c-0.001,0-0.001-0.001-0.002-0.002
	c-0.007-0.007-0.013-0.015-0.018-0.022c-0.001-0.001-0.002-0.002-0.003-0.003c-0.005-0.007-0.011-0.014-0.017-0.021
	c-0.001-0.001-0.002-0.002-0.003-0.004c-0.006-0.006-0.012-0.014-0.017-0.02c-0.001-0.002-0.002-0.003-0.004-0.005
	c-0.005-0.006-0.011-0.014-0.016-0.02c-0.001-0.001-0.002-0.003-0.003-0.004c-0.005-0.006-0.011-0.013-0.017-0.019
	c-0.001-0.002-0.003-0.004-0.004-0.006c-0.005-0.006-0.01-0.012-0.015-0.018c-0.002-0.002-0.003-0.004-0.005-0.007
	c-0.004-0.005-0.01-0.011-0.015-0.017c-0.002-0.002-0.004-0.005-0.006-0.008c-0.004-0.005-0.009-0.011-0.013-0.017
	c-0.002-0.002-0.004-0.005-0.007-0.008c-0.004-0.005-0.008-0.011-0.014-0.016c-0.002-0.003-0.005-0.006-0.007-0.009
	c-0.004-0.005-0.008-0.01-0.012-0.015c-0.003-0.003-0.005-0.007-0.008-0.01c-0.004-0.005-0.007-0.009-0.012-0.014
	c-0.003-0.004-0.006-0.007-0.009-0.011c-0.004-0.005-0.006-0.008-0.011-0.013c-0.003-0.004-0.006-0.008-0.009-0.012
	c-0.002-0.003-0.007-0.009-0.01-0.012c-0.004-0.004-0.008-0.009-0.011-0.013c-0.002-0.003-0.006-0.007-0.009-0.011
	c-0.004-0.004-0.008-0.009-0.011-0.014c-0.003-0.003-0.006-0.006-0.008-0.01c-0.004-0.005-0.009-0.01-0.013-0.015
	c-0.002-0.003-0.004-0.005-0.007-0.008c-0.004-0.006-0.009-0.011-0.014-0.017c-0.001-0.002-0.003-0.004-0.005-0.006
	c-0.005-0.006-0.011-0.013-0.016-0.019c-0.002-0.002-0.003-0.003-0.004-0.005c-0.005-0.006-0.011-0.013-0.016-0.02
	c-0.001-0.001-0.002-0.002-0.003-0.003c-0.005-0.007-0.011-0.014-0.018-0.021c-0.002-0.002-0.002-0.002-0.004-0.004
	c-0.005-0.006-0.011-0.013-0.016-0.02c-0.002-0.002-0.002-0.002-0.003-0.004c-0.006-0.006-0.011-0.013-0.018-0.02
	c-0.001-0.001-0.002-0.002-0.003-0.003c-0.005-0.007-0.011-0.014-0.017-0.021c-0.001-0.001-0.002-0.002-0.003-0.003
	c-0.006-0.007-0.012-0.014-0.018-0.021c-0.001-0.002-0.001-0.002-0.003-0.004c-0.005-0.007-0.011-0.014-0.017-0.021
	c-0.001-0.001-0.002-0.002-0.003-0.003c-0.006-0.007-0.011-0.014-0.017-0.02c-0.001-0.002-0.001-0.002-0.004-0.004
	c-0.005-0.007-0.011-0.013-0.017-0.02c-0.001-0.002-0.001-0.001-0.003-0.004c-0.006-0.006-0.011-0.013-0.017-0.021
	c-0.002-0.002-0.003-0.003-0.005-0.005c-0.005-0.006-0.01-0.012-0.015-0.018c-0.002-0.002-0.004-0.004-0.005-0.006
	c-0.005-0.006-0.01-0.012-0.015-0.018c-0.002-0.003-0.003-0.004-0.006-0.007c-0.005-0.005-0.01-0.011-0.015-0.016
	c-0.001-0.002-0.004-0.005-0.006-0.007c-0.004-0.006-0.009-0.011-0.014-0.017c-0.002-0.003-0.004-0.005-0.007-0.008
	c-0.005-0.005-0.01-0.01-0.014-0.015c-0.002-0.003-0.006-0.007-0.008-0.01c-0.004-0.004-0.007-0.009-0.011-0.013
	c-0.003-0.004-0.007-0.008-0.01-0.012c-0.004-0.004-0.007-0.007-0.01-0.011c-0.004-0.005-0.008-0.009-0.012-0.014
	c-0.003-0.003-0.005-0.006-0.008-0.009c-0.005-0.006-0.01-0.012-0.016-0.018c-0.001-0.001-0.003-0.003-0.004-0.005
	c-0.005-0.006-0.012-0.014-0.017-0.02c-0.001-0.001-0.002-0.002-0.003-0.003C73.459,14.689,73.417,14.64,73.375,14.59L73.375,14.59z
	 M70.632,11.68L56.748,26.075c0.25,0.241,0.498,0.491,0.734,0.744l14.556-13.717c0-0.001-0.001-0.001-0.002-0.002
	C71.579,12.615,71.111,12.142,70.632,11.68L70.632,11.68z M67.625,9.044l-12.45,15.653c0.271,0.216,0.542,0.441,0.802,0.67
	L69.16,10.326c-0.078-0.068-0.156-0.136-0.234-0.204c-0.003-0.002-0.004-0.003-0.007-0.005c-0.005-0.005-0.01-0.009-0.017-0.014
	c-0.005-0.004-0.009-0.008-0.014-0.012c-0.003-0.002-0.005-0.005-0.008-0.007C68.469,9.729,68.05,9.383,67.625,9.044L67.625,9.044z
	 M64.38,6.708L53.483,23.479c0.29,0.188,0.579,0.386,0.86,0.588L66.03,7.837c-0.15-0.109-0.304-0.217-0.456-0.324
	c-0.002,0-0.002,0-0.003-0.001c-0.005-0.003-0.011-0.007-0.016-0.011c-0.003-0.002-0.007-0.005-0.011-0.007
	c-0.002-0.002-0.005-0.004-0.007-0.005c-0.007-0.004-0.013-0.009-0.02-0.013c0,0,0,0-0.001,0c-0.171-0.12-0.342-0.237-0.516-0.354
	C65,7.119,64.999,7.118,64.996,7.116c-0.006-0.004-0.013-0.008-0.02-0.013c-0.004-0.003-0.008-0.005-0.012-0.008
	c-0.004-0.003-0.009-0.006-0.013-0.009c-0.007-0.004-0.013-0.008-0.02-0.013c-0.002-0.001-0.004-0.003-0.007-0.004
	C64.746,6.948,64.563,6.827,64.38,6.708L64.38,6.708z M60.926,4.692L51.687,22.43c0.307,0.159,0.611,0.328,0.909,0.502L62.677,5.659
	c-0.144-0.084-0.288-0.167-0.433-0.249l0,0c-0.019-0.01-0.036-0.02-0.055-0.03l0,0c-0.018-0.01-0.036-0.02-0.054-0.03l0,0
	C61.736,5.123,61.333,4.905,60.926,4.692L60.926,4.692z M57.295,3.019l-7.488,18.545c0.318,0.129,0.638,0.267,0.95,0.411
	l8.374-18.163c-0.003-0.001-0.009-0.004-0.013-0.006c-0.005-0.002-0.01-0.004-0.014-0.006c-0.004-0.001-0.01-0.004-0.014-0.006
	c-0.005-0.002-0.01-0.004-0.016-0.007c-0.004-0.002-0.01-0.004-0.014-0.006c-0.005-0.002-0.01-0.005-0.016-0.007
	c-0.005-0.002-0.009-0.004-0.014-0.006c-0.006-0.002-0.01-0.004-0.015-0.006c-0.005-0.002-0.011-0.005-0.016-0.007
	C59,3.751,58.995,3.75,58.991,3.748c-0.005-0.002-0.009-0.004-0.014-0.006s-0.011-0.005-0.016-0.007
	c-0.004-0.002-0.008-0.004-0.011-0.005c-0.007-0.002-0.013-0.005-0.018-0.008c-0.005-0.002-0.01-0.004-0.015-0.006
	S58.91,3.712,58.905,3.71c-0.005-0.002-0.009-0.004-0.014-0.006s-0.01-0.005-0.015-0.007c-0.002-0.001-0.004-0.002-0.006-0.003
	c-0.008-0.003-0.016-0.007-0.022-0.01c-0.004-0.002-0.008-0.003-0.013-0.006c-0.005-0.002-0.01-0.004-0.016-0.007
	C58.316,3.443,57.809,3.226,57.295,3.019L57.295,3.019z M53.52,1.702l-5.664,19.181c0.329,0.097,0.66,0.204,0.983,0.316
	l6.584-18.885c-0.442-0.154-0.887-0.301-1.336-0.44c-0.001,0-0.002-0.001-0.003-0.001c-0.009-0.002-0.019-0.005-0.027-0.008
	c-0.002,0-0.005-0.001-0.007-0.002c-0.007-0.002-0.015-0.005-0.022-0.007c-0.004-0.001-0.008-0.002-0.013-0.004
	c-0.005-0.001-0.012-0.003-0.017-0.005c-0.007-0.002-0.016-0.004-0.021-0.006C53.974,1.84,53.972,1.84,53.97,1.839
	c-0.009-0.002-0.018-0.005-0.027-0.008c-0.001,0-0.001,0-0.003,0C53.8,1.786,53.66,1.744,53.52,1.702L53.52,1.702z M49.635,0.756
	l-3.788,19.638c0.337,0.065,0.678,0.139,1.011,0.22l4.73-19.433c-0.001,0-0.003,0-0.004-0.001c-0.006-0.001-0.013-0.003-0.02-0.004
	c-0.004-0.001-0.009-0.002-0.013-0.003c-0.006-0.001-0.011-0.003-0.017-0.004s-0.012-0.002-0.017-0.004
	c-0.004-0.001-0.009-0.002-0.013-0.003c-0.005-0.001-0.014-0.003-0.02-0.004c-0.003-0.001-0.007-0.002-0.011-0.003
	c-0.008-0.002-0.013-0.003-0.021-0.005c-0.003-0.001-0.006-0.001-0.01-0.002c-0.008-0.002-0.015-0.003-0.022-0.005
	c-0.002,0-0.005-0.001-0.007-0.002c-0.009-0.002-0.019-0.004-0.027-0.006c-0.001,0-0.001,0-0.002,0
	c-0.011-0.002-0.02-0.005-0.03-0.007h-0.001C51.083,1.062,50.81,1,50.536,0.94c0,0,0,0-0.001,0c-0.021-0.004-0.04-0.009-0.062-0.013
	c-0.001,0-0.002,0-0.003,0c-0.01-0.002-0.018-0.004-0.029-0.006c-0.001,0-0.002,0-0.002,0c-0.009-0.002-0.018-0.004-0.026-0.006
	c-0.002,0-0.004,0-0.006-0.001c-0.01-0.002-0.017-0.003-0.025-0.005c-0.002,0-0.004-0.001-0.006-0.001
	c-0.008-0.001-0.014-0.003-0.021-0.004c-0.004-0.001-0.008-0.001-0.012-0.002S50.332,0.9,50.327,0.899
	c-0.006-0.001-0.012-0.002-0.017-0.003c-0.004,0-0.005-0.001-0.009-0.002C50.081,0.844,49.858,0.799,49.635,0.756L49.635,0.756z
	 M45.677,0.188l-1.89,19.911c0.345,0.033,0.693,0.074,1.036,0.123l2.84-19.797c-0.168-0.024-0.334-0.047-0.502-0.069l0,0
	c-0.01-0.001-0.021-0.002-0.029-0.004c-0.003,0-0.007-0.001-0.01-0.001C47.114,0.35,47.106,0.349,47.1,0.348
	c-0.004,0-0.009-0.001-0.014-0.002c-0.005,0-0.01-0.001-0.017-0.002c-0.006-0.001-0.013-0.001-0.019-0.002
	c-0.004,0-0.007-0.001-0.011-0.001c-0.008-0.001-0.016-0.002-0.022-0.003c-0.003,0-0.004,0-0.007,0
	c-0.008-0.001-0.017-0.002-0.026-0.003c-0.001,0-0.002,0-0.004,0c-0.01-0.001-0.019-0.002-0.028-0.004l0,0
	c-0.299-0.038-0.598-0.072-0.897-0.103h-0.003c-0.007,0-0.013-0.001-0.02-0.002c-0.005,0-0.01-0.001-0.014-0.001
	c-0.005,0-0.009-0.001-0.014-0.001s-0.014-0.001-0.02-0.002c-0.003,0-0.006,0-0.01-0.001C45.968,0.22,45.96,0.22,45.952,0.219
	c-0.001,0-0.003,0-0.006,0C45.857,0.206,45.766,0.197,45.677,0.188L45.677,0.188z M41.685,0v20c0.353,0,0.707,0.008,1.057,0.025
	l0.94-19.978c-0.403-0.019-0.808-0.032-1.214-0.04l0,0c-0.009,0-0.019,0-0.027,0c-0.001,0-0.004,0-0.006,0c-0.008,0-0.017,0-0.024,0
	c-0.003,0-0.005,0-0.008,0c-0.008,0-0.016,0-0.023,0c-0.003,0-0.005,0-0.008,0c-0.009,0-0.017,0-0.023,0c-0.003,0-0.007,0-0.01,0
	c-0.007,0-0.015,0-0.022,0c-0.004,0-0.006,0-0.01,0c-0.008,0-0.015,0-0.022,0c-0.004,0-0.006,0-0.009,0c-0.008,0-0.016,0-0.022,0
	c-0.002,0-0.006,0-0.009,0c-0.009,0-0.017,0-0.023,0c-0.002,0-0.006,0-0.009,0c-0.007,0-0.016,0-0.022,0c-0.004,0-0.008,0-0.012,0
	c-0.007,0-0.014,0-0.02,0c-0.001,0-0.004,0-0.005,0c-0.016,0-0.031,0-0.048,0c-0.003,0-0.008,0-0.011,0c-0.006,0-0.011,0-0.017,0
	c-0.004,0-0.013,0-0.017,0c-0.005,0-0.01,0-0.015,0s-0.012,0-0.018,0c-0.005,0-0.01,0-0.015,0c-0.006,0-0.012,0-0.018,0
	c-0.005,0-0.011,0-0.016,0c-0.006,0-0.012,0-0.017,0s-0.01,0-0.016,0c-0.007,0-0.014,0-0.02,0c-0.004,0-0.009,0-0.013,0
	c-0.005,0-0.015,0-0.02,0s-0.009,0-0.014,0s-0.013,0-0.02,0c-0.005,0-0.009,0-0.014,0c-0.007,0-0.011,0-0.019,0
	c-0.004,0-0.01,0-0.015,0c-0.007,0-0.012,0-0.019,0c-0.004,0-0.009,0-0.014,0c-0.008,0-0.014,0-0.021,0c-0.004,0-0.008,0-0.012,0
	c-0.008,0-0.016,0-0.023,0c-0.003,0-0.006,0-0.01,0C41.707,0,41.696,0,41.685,0L41.685,0z"/>
<g>
	<path fill="#D9D9D9" d="M41.685,2c21.892,0,39.7,17.811,39.7,39.703c0,21.879-17.809,39.68-39.7,39.68
		C19.803,81.383,2,63.583,2,41.703C2,19.811,19.803,2,41.685,2 M41.685,0C18.662,0,0,18.663,0,41.703
		c0,23.02,18.662,41.68,41.685,41.68c23.036,0,41.7-18.66,41.7-41.68C83.385,18.663,64.721,0,41.685,0L41.685,0z"/>
</g>
<g opacity="0.06">
	<path d="M77.707,41.703c0,19.875-16.126,36.002-36.021,36.002c-19.879,0-36.006-16.127-36.006-36.002
		c0-19.898,16.127-36.025,36.006-36.025C61.58,5.678,77.707,21.805,77.707,41.703z"/>
</g>
<g>
	<path fill="#DEDEDE" d="M41.685,69.833c-15.508,0-28.124-12.619-28.124-28.128c0-15.506,12.616-28.121,28.124-28.121
		c15.51,0,28.127,12.615,28.127,28.121C69.813,57.213,57.195,69.833,41.685,69.833z"/>
	<path fill="#E5E5E5" d="M41.685,16.582c13.855,0,25.127,11.269,25.127,25.121c0,13.856-11.271,25.127-25.127,25.127
		c-13.854,0-25.124-11.271-25.124-25.127C16.561,27.851,27.832,16.582,41.685,16.582 M41.685,10.582
		c-17.194,0-31.124,13.927-31.124,31.121c0,17.191,13.93,31.127,31.124,31.127c17.198,0,31.127-13.937,31.127-31.127
		C72.813,24.509,58.883,10.582,41.685,10.582L41.685,10.582z"/>
</g>
</svg>
