<?xml version="1.0" encoding="utf-8"?>
<!-- Generator: Adobe Illustrator 16.0.0, SVG Export Plug-In . SVG Version: 6.00 Build 0)  -->
<!DOCTYPE svg PUBLIC "-//W3C//DTD SVG 1.1//EN" "http://www.w3.org/Graphics/SVG/1.1/DTD/svg11.dtd">
<svg version="1.1" id="Layer_1" xmlns="http://www.w3.org/2000/svg" xmlns:xlink="http://www.w3.org/1999/xlink" x="0px" y="0px"
	 width="88.934px" height="121.795px" viewBox="0 0 88.934 121.795" enable-background="new 0 0 88.934 121.795"
	 xml:space="preserve">
<g id="LT_Pressed">
	<path fill="#E5E5E5" d="M74.753,56.076v-0.668C74.768,55.821,74.753,56.076,74.753,56.076z"/>
	<path fill="#E5E5E5" d="M49.715,5.466c0.401-0.319,0.805-0.618,1.211-0.899l2.322,109.995L0,121.795
		C12.067,4.974,42.959,10.762,49.715,5.466z"/>
	<path fill="#EBEBEB" d="M76.741,0.142c10.833,0.403,12.068,11.439,12.192,15.19v1.227c0,0-2.9,40.716,0,93.094
		c-9.926,2.289-38.539,5.298-38.539,5.298s-0.051-20.914-0.68-50.597c-0.812-37.5,1.211-59.788,1.211-59.788
		C57.343,0.091,64.492-0.307,76.741,0.142z"/>
</g>
</svg>
