<?xml version="1.0" encoding="utf-8"?>
<!-- Generator: Adobe Illustrator 16.0.0, SVG Export Plug-In . SVG Version: 6.00 Build 0)  -->
<!DOCTYPE svg PUBLIC "-//W3C//DTD SVG 1.1//EN" "http://www.w3.org/Graphics/SVG/1.1/DTD/svg11.dtd">
<svg version="1.1" xmlns="http://www.w3.org/2000/svg" xmlns:xlink="http://www.w3.org/1999/xlink" x="0px" y="0px" width="806.2px"
	 height="598.967px" viewBox="0 0 806.2 598.967" enable-background="new 0 0 806.2 598.967" xml:space="preserve">
<pattern  x="97.5" y="695.95" width="71" height="71" patternUnits="userSpaceOnUse" id="SVGID_5_" viewBox="0 -71 71 71" overflow="visible">
	<g>
		<polygon fill="none" points="0,0 71,0 71,-71 0,-71 		"/>
		<g>
			<polygon fill="none" points="0,-71 71,-71 71,0 0,0 			"/>
			<g>
				<polygon fill="none" points="0,-71 71,-71 71,0 0,0 				"/>
				<path fill="#B3B3B3" d="M41.8-35.5c0,3.5-2.8,6.3-6.3,6.3s-6.3-2.8-6.3-6.3s2.8-6.3,6.3-6.3S41.8-39,41.8-35.5z"/>
			</g>
		</g>
	</g>
</pattern>
<pattern  x="97.5" y="695.95" width="40" height="103" patternUnits="userSpaceOnUse" id="SVGID_6_" viewBox="0 -231.8 40 103" overflow="visible">
	<g>
		<polygon fill="none" points="0,-128.8 40,-128.8 40,-231.8 0,-231.8 		"/>
		<g>
			<polygon fill="none" points="0,-231.8 40,-231.8 40,-128.8 0,-128.8 			"/>
			<g>
				<polygon fill="none" points="0,-231.8 40,-231.8 40,-128.8 0,-128.8 				"/>
				<polygon points="34.5,0 37.5,0 37.5,-154.5 34.5,-154.5 				"/>
				<polygon points="26.5,0 29.5,0 29.5,-154.5 26.5,-154.5 				"/>
				<polygon points="18.5,0 21.5,0 21.5,-154.5 18.5,-154.5 				"/>
				<polygon points="10.5,0 13.5,0 13.5,-154.5 10.5,-154.5 				"/>
				<polygon points="2.5,0 5.5,0 5.5,-154.5 2.5,-154.5 				"/>
				<polygon points="34.5,-103 37.5,-103 37.5,-257.5 34.5,-257.5 				"/>
				<polygon points="26.5,-103 29.5,-103 29.5,-257.5 26.5,-257.5 				"/>
				<polygon points="18.5,-103 21.5,-103 21.5,-257.5 18.5,-257.5 				"/>
				<polygon points="10.5,-103 13.5,-103 13.5,-257.5 10.5,-257.5 				"/>
				<polygon points="2.5,-103 5.5,-103 5.5,-257.5 2.5,-257.5 				"/>
				<polygon points="34.5,-206 37.5,-206 37.5,-360.5 34.5,-360.5 				"/>
				<polygon points="26.5,-206 29.5,-206 29.5,-360.5 26.5,-360.5 				"/>
				<polygon points="18.5,-206 21.5,-206 21.5,-360.5 18.5,-360.5 				"/>
				<polygon points="10.5,-206 13.5,-206 13.5,-360.5 10.5,-360.5 				"/>
				<polygon points="2.5,-206 5.5,-206 5.5,-360.5 2.5,-360.5 				"/>
			</g>
		</g>
	</g>
</pattern>
<pattern  x="97.5" y="695.95" width="40" height="103" patternUnits="userSpaceOnUse" id="SVGID_7_" viewBox="0 -231.8 40 103" overflow="visible">
	<g>
		<polygon fill="none" points="0,-128.8 40,-128.8 40,-231.8 0,-231.8 		"/>
		<g>
			<polygon fill="none" points="0,-231.8 40,-231.8 40,-128.8 0,-128.8 			"/>
			<g>
				<polygon fill="none" points="0,-231.8 40,-231.8 40,-128.8 0,-128.8 				"/>
				<polygon points="34.5,0 37.5,0 37.5,-154.5 34.5,-154.5 				"/>
				<polygon points="26.5,0 29.5,0 29.5,-154.5 26.5,-154.5 				"/>
				<polygon points="18.5,0 21.5,0 21.5,-154.5 18.5,-154.5 				"/>
				<polygon points="10.5,0 13.5,0 13.5,-154.5 10.5,-154.5 				"/>
				<polygon points="2.5,0 5.5,0 5.5,-154.5 2.5,-154.5 				"/>
				<polygon points="34.5,-103 37.5,-103 37.5,-257.5 34.5,-257.5 				"/>
				<polygon points="26.5,-103 29.5,-103 29.5,-257.5 26.5,-257.5 				"/>
				<polygon points="18.5,-103 21.5,-103 21.5,-257.5 18.5,-257.5 				"/>
				<polygon points="10.5,-103 13.5,-103 13.5,-257.5 10.5,-257.5 				"/>
				<polygon points="2.5,-103 5.5,-103 5.5,-257.5 2.5,-257.5 				"/>
				<polygon points="34.5,-206 37.5,-206 37.5,-360.5 34.5,-360.5 				"/>
				<polygon points="26.5,-206 29.5,-206 29.5,-360.5 26.5,-360.5 				"/>
				<polygon points="18.5,-206 21.5,-206 21.5,-360.5 18.5,-360.5 				"/>
				<polygon points="10.5,-206 13.5,-206 13.5,-360.5 10.5,-360.5 				"/>
				<polygon points="2.5,-206 5.5,-206 5.5,-360.5 2.5,-360.5 				"/>
			</g>
		</g>
	</g>
</pattern>
<pattern  x="97.5" y="695.95" width="71" height="71" patternUnits="userSpaceOnUse" id="SVGID_8_" viewBox="0 -71 71 71" overflow="visible">
	<g>
		<polygon fill="none" points="0,0 71,0 71,-71 0,-71 		"/>
		<g>
			<polygon fill="none" points="0,-71 71,-71 71,0 0,0 			"/>
			<g>
				<polygon fill="none" points="0,-71 71,-71 71,0 0,0 				"/>
				<path fill="#FFFFFF" d="M41.8-35.5c0,3.5-2.8,6.3-6.3,6.3s-6.3-2.8-6.3-6.3s2.8-6.3,6.3-6.3S41.8-39,41.8-35.5z"/>
			</g>
		</g>
	</g>
</pattern>
<g id="Layer_1">
	<g>
		<g>
			<g>
				<g>
					<path fill="#E6E6E6" d="M801.4,418.7c-2.9-15.5-17.7-102.5-32-144.6c-9.4-27.7-13.1-53-17-64.9c-12-35.699-33-65.699-33-65.699
						s-9.5-13.101-10.1-16.301c-0.601-3.3-4.701-8.6-4.701-8.6s-17.399-5.7-62.299-5.7c-44.9,0-53.701,5-53.701,5
						s-2.399,2.899-5.899,4.8c-3.5,1.801-11.7,1.7-11.7,1.7h-33.4c0,0-0.6-0.101-0.899,0.3c-0.399,0.4-0.601,2-0.601,2h-133H270
						c0,0-0.3-1.699-0.6-2c-0.4-0.4-0.9-0.3-0.9-0.3h-33.4c0,0-8.2,0.2-11.7-1.7c-3.5-1.8-5.9-4.8-5.9-4.8s-8.8-5-53.7-5
						c-44.8,0-62.3,5.7-62.3,5.7s-4.1,5.3-4.7,8.6C96.2,130.5,86.7,143.5,86.7,143.5s-21,30-33,65.699c-4,11.9-7.7,37.2-17,64.9
						c-14.3,42.1-29.1,129.1-32,144.6C0.4,441.899,0,508.8,0,508.8s4.5,53.4,36.2,74.9c31.7,21.5,56.7,14,56.7,14
						s33.1-8.201,57.8-41.9c24.7-33.699,56.6-129.199,56.6-129.199s2.2-3,5.7-5.301s6.3-2.6,6.3-2.6l183.7,0.1l183.7-0.1
						c0,0,2.8,0.299,6.3,2.6s5.7,5.301,5.7,5.301S630.6,521.999,655.301,555.8C680,589.601,713.1,597.7,713.1,597.7
						s25,7.5,56.701-14C801.5,562.2,806,508.8,806,508.8S805.801,441.8,801.4,418.7z"/>
					<g>
						<g>
							<g>
								<path fill="#CFCFCF" d="M36.7,276c9.4-27.699,13.1-53,17-64.899c12-35.7,33-65.7,33-65.7s9.5-13.101,10.1-16.3
									c0.6-3.301,4.7-8.6,4.7-8.6s17.4-5.701,62.3-5.701c44.8,0,53.7,5,53.7,5s2.4,2.9,5.9,4.801c3.5,1.8,11.7,1.699,11.7,1.699
									h33.4c0,0,0.6-0.1,0.9,0.301c0.4,0.4,0.6,2,0.6,2h133.1H536.2c0,0,0.3-1.7,0.601-2c0.399-0.4,0.899-0.301,0.899-0.301H571.1
									c0,0,8.201,0.201,11.701-1.699c3.5-1.801,5.899-4.801,5.899-4.801s8.8-5,53.7-5s62.3,5.701,62.3,5.701s4.101,5.299,4.7,8.6
									c0.6,3.3,10.1,16.3,10.1,16.3s21,30,33,65.7c4,11.899,7.7,37.2,17,64.899c14.301,42.101,29.1,129.101,32,144.601
									c3.9,20.9,4.6,77.299,4.7,88.299c0-0.1,0-0.1,0-0.1s-0.3-66.9-4.7-90.1c-2.9-15.5-17.699-102.5-32-144.6
									c-9.4-27.7-13.1-53-17-64.9c-12-35.699-33-65.699-33-65.699S710,130.4,709.4,127.2c-0.6-3.3-4.7-8.6-4.7-8.6
									s-17.399-5.7-62.3-5.7s-53.7,5-53.7,5s-2.399,2.899-5.899,4.8c-3.5,1.801-11.701,1.7-11.701,1.7H537.7
									c0,0-0.601-0.101-0.899,0.3c-0.4,0.4-0.601,2-0.601,2H403.1H270c0,0-0.3-1.699-0.6-2c-0.4-0.4-0.9-0.3-0.9-0.3h-33.4
									c0,0-8.2,0.2-11.7-1.7c-3.5-1.8-5.9-4.8-5.9-4.8s-8.8-5-53.7-5c-44.8,0-62.3,5.7-62.3,5.7s-4.1,5.3-4.7,8.6
									C96.2,130.5,86.7,143.5,86.7,143.5s-21,30-33,65.699c-4,11.9-7.7,37.2-17,64.9c-14.3,42.1-29.1,129.1-32,144.6
									C0.4,441.899,0,508.8,0,508.8v0.1c0.1-10.898,0.7-67.398,4.7-88.299C7.7,405.2,22.4,318.101,36.7,276z"/>
							</g>
						</g>
					</g>
					<path fill="#CFCFCF" d="M351.3,359.999c0-42.199-34.3-76.5-76.5-76.5c-42.2,0-76.5,34.3-76.5,76.5c0,0.701,0,1.301,0.1,2
						c0,0.701-0.1,1.301-0.1,2c0,42.201,34.3,76.5,76.5,76.5c42.2,0,76.5-34.299,76.5-76.5c0-0.699,0-1.299-0.1-2
						C351.2,361.3,351.3,360.601,351.3,359.999z"/>
					<circle fill="#E6E6E6" cx="274.8" cy="355.999" r="73"/>
					<circle cx="274.8" cy="355.999" r="51.5"/>
					<path fill="#CFCFCF" d="M607.9,359.999c0-42.199-34.301-76.5-76.5-76.5c-42.2,0-76.5,34.3-76.5,76.5c0,0.701,0,1.301,0.1,2
						c0,0.701-0.1,1.301-0.1,2c0,42.201,34.3,76.5,76.5,76.5c42.199,0,76.5-34.299,76.5-76.5c0-0.699,0-1.299-0.1-2
						C607.9,361.3,607.9,360.601,607.9,359.999z"/>
					<circle fill="#E6E6E6" cx="531.4" cy="355.999" r="73"/>
					<circle cx="531.4" cy="355.999" r="51.5"/>
					<path fill="#121212" d="M534.9,128c-0.4-3.201-3.301-5.601-6.5-5.601l0,0H403.1l0,0H277.8l0,0c-3.2,0-6.1,2.3-6.5,5.601
						c-0.1,0.699-0.1,1.399-0.1,2.1V257.5c0,8.9,7.2,16.101,16.1,16.101H403.1l0,0H518.9c8.9,0,16.1-7.2,16.1-16.101V130.1
						C535.1,129.4,535,128.7,534.9,128z"/>
					<g>
						<path fill="#080808" d="M530.5,124.299c0-1-0.8-1.899-1.9-1.899H403.1l0,0H277.5c-1,0-1.9,0.8-1.9,1.899v6v123.2
							c0,8.601,7,15.601,15.6,15.601H403.1l0,0H515c8.6,0,15.6-7,15.6-15.601V130.4L530.5,124.299z"/>
						<g opacity="0.12">
							
								<pattern  id="SVGID_1_" xlink:href="#SVGID_5_" patternTransform="matrix(0.1017 0 0 0.1017 -22141.8633 -6301.5342)"  opacity="0.12">
							</pattern>
							<path fill="url(#SVGID_1_)" d="M275.6,253.5c0,8.601,7,15.601,15.6,15.601H403.1l0,0H515c8.6,0,15.6-7,15.6-15.601V147H275.7
								V253.5H275.6z"/>
						</g>
					</g>
					<circle fill="#080808" cx="652.4" cy="244.801" r="94.3"/>
					<g>
						<circle fill="#080808" cx="153.8" cy="244.801" r="94.3"/>
						<path fill="#1F1F1F" d="M230.5,254.1l9.5-8.9c0.5-0.5,0.5-1.2,0-1.7l-9.5-8.899c-0.7-0.7-1.9-0.2-1.9,0.8v8.9v8.899
							C228.5,254.2,229.7,254.7,230.5,254.1z"/>
						<path fill="#1F1F1F" d="M145.1,169.799h8.9h8.9c1,0,1.5-1.199,0.8-1.899l-8.9-9.5c-0.5-0.5-1.2-0.5-1.7,0l-8.9,9.5
							C143.6,168.6,144.1,169.799,145.1,169.799z"/>
						<path fill="#1F1F1F" d="M77.6,234.6l-9.5,8.899c-0.5,0.5-0.5,1.2,0,1.7l9.5,8.9c0.7,0.7,1.9,0.2,1.9-0.8v-8.9v-8.9
							C79.5,234.5,78.3,233.9,77.6,234.6z"/>
						<path fill="#1F1F1F" d="M162.9,318.8H154h-8.9c-1,0-1.5,1.199-0.8,1.9l8.9,9.5c0.5,0.5,1.2,0.5,1.7,0l8.9-9.5
							C164.4,319.999,163.9,318.8,162.9,318.8z"/>
					</g>
				</g>
			</g>
		</g>
		<g>
			<g>
				<path fill="#080808" d="M547.7,134.6c0,2.1-1.5,3.8-4.101,3.8c-2.6,0-4.1-1.7-4.1-3.8c0-2,1.5-3.801,4.1-3.801
					C546.2,130.799,547.7,132.5,547.7,134.6z M541,134.6c0,1.4,0.801,2.699,2.6,2.699c1.801,0,2.601-1.399,2.601-2.699
					c0-1.4-0.8-2.7-2.601-2.7C541.801,131.9,541,133.2,541,134.6z"/>
				<path fill="#080808" d="M549,131h3.801c2.399,0,2.899,1.299,2.899,2.199s-0.5,2.2-2.899,2.2H550.5v2.8H549V131z M550.5,134.4
					h2.2c0.7,0,1.5-0.3,1.5-1.2S553.5,132,552.7,132h-2.2V134.4z"/>
				<path fill="#080808" d="M556.2,131h6.899v1.1H560.4v6.1h-1.5v-6.1h-2.7V131z"/>
				<path fill="#080808" d="M564.2,131h1.5v7.199h-1.5V131z"/>
				<path fill="#080808" d="M575.2,134.6c0,2.1-1.5,3.8-4.101,3.8c-2.6,0-4.1-1.7-4.1-3.8c0-2,1.5-3.801,4.1-3.801
					C573.7,130.799,575.2,132.5,575.2,134.6z M568.5,134.6c0,1.4,0.801,2.699,2.6,2.699c1.801,0,2.601-1.399,2.601-2.699
					c0-1.4-0.8-2.7-2.601-2.7C569.301,131.9,568.5,133.2,568.5,134.6z"/>
				<path fill="#080808" d="M576.6,131h1.5l3.9,5.299l0,0V131h1.4v7.199h-1.6l-3.9-5.3l0,0v5.3h-1.4V131H576.6z"/>
				<path fill="#080808" d="M586.301,135.799c0,1.101,1,1.5,2.199,1.5c1.301,0,1.801-0.6,1.801-1.1c0-0.6-0.4-0.8-0.701-0.9
					C589,135.1,588.2,135,587,134.7c-1.5-0.3-1.9-1.1-1.9-1.8c0-1.5,1.601-2.101,3.101-2.101c1.8,0,3.3,0.801,3.3,2.301H590
					c-0.1-0.9-0.8-1.301-1.8-1.301c-0.7,0-1.601,0.201-1.601,0.9c0,0.5,0.4,0.801,1,0.9c0.101,0,2,0.4,2.5,0.6
					c1.101,0.301,1.701,1.1,1.701,1.801c0,1.6-1.701,2.299-3.4,2.299c-2,0-3.5-0.799-3.6-2.6h1.5V135.799z"/>
			</g>
			<g>
				<path fill="#080808" d="M222.3,135.799c0,1.101,1,1.5,2.2,1.5c1.3,0,1.8-0.6,1.8-1.1c0-0.6-0.4-0.8-0.7-0.9
					c-0.6-0.199-1.4-0.299-2.6-0.6c-1.5-0.3-1.9-1.1-1.9-1.8c0-1.5,1.6-2.101,3.1-2.101c1.8,0,3.3,0.801,3.3,2.301H226
					c-0.1-0.9-0.8-1.301-1.8-1.301c-0.7,0-1.6,0.201-1.6,0.9c0,0.5,0.4,0.801,1,0.9c0.1,0,2,0.4,2.5,0.6
					c1.1,0.301,1.7,1.1,1.7,1.801c0,1.6-1.7,2.299-3.4,2.299c-2,0-3.5-0.799-3.6-2.6h1.5V135.799z"/>
				<path fill="#080808" d="M229,131h1.5v2.899h3.9V131h1.5v7.199h-1.5v-3.3h-3.9v3.2H229V131z"/>
				<path fill="#080808" d="M240,131h1.6l3.3,7.199h-1.6l-0.8-1.9h-3.4l-0.8,1.9h-1.5L240,131z M239.5,135.299h2.6l-1.3-3.1l0,0
					L239.5,135.299z"/>
				<path fill="#080808" d="M245.7,131h4.1c1.9,0,2.8,0.699,2.8,1.899c0,1.399-1.1,1.7-1.4,1.8l0,0c0.5,0.1,1.3,0.4,1.3,1.5
					c0,0.801,0.1,1.6,0.5,1.9h-1.6c-0.2-0.301-0.2-0.7-0.2-1.1c0-1.301-0.3-1.9-1.7-1.9h-2.2v3h-1.5L245.7,131L245.7,131z
					 M247.2,134.2h2.5c1,0,1.5-0.4,1.5-1.1c0-0.9-0.7-1.1-1.5-1.1h-2.4v2.199H247.2z"/>
				<path fill="#080808" d="M254.2,131h6.2v1.1h-4.7v1.9h4.3v1h-4.3v2.1h4.7v1.1h-6.2V131z"/>
			</g>
		</g>
		<g>
			<g>
				<g>
					<path fill="#9E1F20" d="M697.301,109.9c0-0.8-0.4-1.5-1.101-1.899c-4.5-2.9-23.399-13.601-51.5-13.601
						c-26.899,0-41.101,5.899-45.101,8c-0.799,0.399-1.199,1.2-1.199,2c0,0,9.8-2.899,47.5-2.899
						C683.6,101.5,697.301,109.9,697.301,109.9z"/>
					<path fill="#C1272D" d="M697.2,116.799L697.2,116.799V109.9c0,0-13.7-8.399-51.399-8.399c-37.801,0-47.5,2.899-47.5,2.899v11
						l0,0c7.699-1.3,21.199-2.601,44.1-2.601C670.9,112.9,688.301,115.2,697.2,116.799z"/>
				</g>
			</g>
			<g>
				<g>
					<path fill="#9E1F20" d="M108.9,109.9c0-0.8,0.4-1.5,1.1-1.899c4.5-2.9,23.4-13.601,51.5-13.601c26.9,0,41.1,5.899,45.1,8
						c0.8,0.399,1.2,1.2,1.2,2c0,0-9.8-2.899-47.5-2.899C122.6,101.5,108.9,109.9,108.9,109.9z"/>
					<path fill="#C1272D" d="M109,116.799L109,116.799V109.9c0,0,13.7-8.399,51.4-8.399c37.8,0,47.5,2.899,47.5,2.899v11l0,0
						c-7.7-1.3-21.2-2.601-44.1-2.601C135.3,112.9,117.9,115.2,109,116.799z"/>
				</g>
			</g>
		</g>
		<g>
			<g>
				<g>
					<g>
						<path fill="#2C2C2C" d="M710,271c-14.5,0-26.3-11.8-26.3-26.3s11.8-26.3,26.3-26.3s26.301,11.8,26.301,26.3S724.5,271,710,271
							z"/>
						<path fill="#222222" d="M710,219.5c13.9,0,25.301,11.301,25.301,25.301S724,270.1,710,270.1s-25.3-11.3-25.3-25.3
							S696.1,219.5,710,219.5 M710,217.5c-15,0-27.3,12.2-27.3,27.301c0,15.1,12.2,27.3,27.3,27.3s27.301-12.2,27.301-27.3
							C737.301,229.7,725,217.5,710,217.5L710,217.5z"/>
					</g>
					<path fill="#FF6666" d="M710,225.9c-10.4,0-18.9,8.5-18.9,18.9c0,10.399,8.5,18.899,18.9,18.899s18.9-8.5,18.9-18.899
						C728.9,234.4,720.5,225.9,710,225.9z M710,260.8c-8.9,0-16-7.2-16-16c0-8.9,7.2-16,16-16c8.801,0,16,7.199,16,16
						C726.1,253.7,718.9,260.8,710,260.8z"/>
				</g>
				<g>
					<g>
						<path fill="#2C2C2C" d="M652.4,328.601c-14.5,0-26.301-11.801-26.301-26.301c0-14.5,11.801-26.3,26.301-26.3
							s26.3,11.801,26.3,26.3C678.7,316.8,666.9,328.601,652.4,328.601z"/>
						<path fill="#222222" d="M652.4,277.1c13.9,0,25.3,11.3,25.3,25.299c0,14-11.3,25.301-25.3,25.301S627.1,316.399,627.1,302.399
							C627.1,288.4,638.5,277.1,652.4,277.1 M652.4,275.1c-15,0-27.301,12.2-27.301,27.299c0,15,12.201,27.301,27.301,27.301
							s27.3-12.201,27.3-27.301C679.7,287.4,667.5,275.1,652.4,275.1L652.4,275.1z"/>
					</g>
					<polygon fill="#7CB2E8" points="666.801,290 664.801,288 652.4,300.399 640.1,288 638.1,290 650.4,302.399 638.1,314.7 
						640.1,316.8 652.4,304.399 664.801,316.8 666.801,314.7 654.4,302.399 					"/>
				</g>
				<g>
					<g>
						<path fill="#2C2C2C" d="M594.9,271c-14.5,0-26.301-11.8-26.301-26.3s11.801-26.3,26.301-26.3s26.199,11.9,26.199,26.4
							S609.301,271,594.9,271z"/>
						<path fill="#222222" d="M594.801,219.5C608.7,219.5,620.1,230.8,620.1,244.8s-11.299,25.3-25.299,25.3
							S569.5,258.8,569.5,244.8S580.9,219.5,594.801,219.5 M594.801,217.5c-15,0-27.301,12.2-27.301,27.301
							c0,15.1,12.2,27.3,27.301,27.3c15.1,0,27.299-12.3,27.299-27.3S609.9,217.5,594.801,217.5L594.801,217.5z"/>
					</g>
					<path fill="#FF69F8" d="M606.4,230.4h-23H580.6v2.8v23v2.8h2.801h23h2.8v-2.8v-23v-2.8H606.4z M606.4,256.3h-23v-23h23V256.3z"
						/>
				</g>
				<g>
					<g>
						<path fill="#2C2C2C" d="M652.4,213.5c-14.5,0-26.301-11.8-26.301-26.3s11.801-26.3,26.301-26.3s26.3,11.8,26.3,26.3
							S666.9,213.5,652.4,213.5z"/>
						<path fill="#222222" d="M652.4,162c13.9,0,25.3,11.299,25.3,25.3c0,14-11.3,25.3-25.3,25.3S627.1,201.3,627.1,187.3
							C627.1,173.299,638.5,162,652.4,162 M652.4,160c-15,0-27.301,12.199-27.301,27.3c0,15.1,12.201,27.3,27.301,27.3
							s27.3-12.2,27.3-27.3C679.7,172.2,667.5,160,652.4,160L652.4,160z"/>
					</g>
					<path fill="#40E2A0" d="M668.4,195.2l-16-27.6l-16,27.6l-1.6,2.8h3.299H652.4h14.3h3.3L668.4,195.2z M652.4,195.2h-12.7
						l12.7-21.9l12.699,21.9H652.4z"/>
				</g>
			</g>
		</g>
		<g>
			<g>
				<circle cx="403.1" cy="316.399" r="4.1"/>
				<circle cx="403.1" cy="295.5" r="4.1"/>
				<circle cx="396.2" cy="305.7" r="4.1"/>
				<circle cx="381.5" cy="305.7" r="4.1"/>
				<circle cx="388.8" cy="316.399" r="4.1"/>
				<circle cx="388.8" cy="295.5" r="4.1"/>
				<circle cx="374.5" cy="295.5" r="4.1"/>
			</g>
			<g>
				<circle cx="410" cy="305.7" r="4.1"/>
				<circle cx="424.7" cy="305.7" r="4.1"/>
				<circle cx="417.301" cy="316.399" r="4.1"/>
				<circle cx="417.301" cy="295.5" r="4.1"/>
				<circle cx="431.7" cy="295.5" r="4.1"/>
			</g>
		</g>
		<g>
			<circle fill="#050505" stroke="#000000" stroke-width="2" stroke-miterlimit="10" cx="403.1" cy="362" r="20.2"/>
			<g>
				<path fill="#F2F2F2" d="M404.2,368.601V365.8v-3.5v-6.5c0-0.5,0.101-0.801,0.3-1c0.1-0.199,0.4-0.301,0.7-0.199
					c0.601,0.199,0.899,0.699,0.899,1.699v6.9c0.801,0.4,1.5,0.5,2.101,0.5s1.2-0.201,1.601-0.5c1-0.701,1.5-1.9,1.5-3.701
					c0-1.898-0.4-3.398-1.201-4.299c-0.799-1-2.1-1.9-4.1-2.6c-1.3-0.4-2.5-0.801-3.6-1.1c-1.1-0.301-2-0.5-2.9-0.701v12.201l0,0
					v2.699l0,0v1.699l0,0v2.5l0,0v1.5l4.7,1.5v-3.6l0,0V368.601z"/>
				<path fill="#F2F2F2" d="M399.1,367.601l-1.699,0.6l-0.9,0.4l-1.6,0.299l-1.5-0.199c-0.3-0.201-0.4-0.4-0.2-0.6
					c0.1-0.102,0.2-0.102,0.3-0.201s0.3-0.1,0.4-0.199l1.1-0.4l4.1-1.5v-2.699l-1.699,0.5l-5.5,2l-1,0.398
					c-1.5,0.602-2.2,1.201-2.2,1.801c0.1,0.801,1,1.5,2.7,1.9c0.7,0.199,1.4,0.299,2.1,0.4c0.7,0.1,1.4,0.1,2.2,0.1
					c1,0,2.101-0.1,3.3-0.301L399.1,367.601L399.1,367.601z"/>
				<path fill="#F2F2F2" d="M414.9,365.3c-0.9-0.301-1.7-0.5-2.5-0.6c-0.801-0.1-1.7-0.201-2.5-0.1c-0.9,0-1.9,0.199-2.801,0.299
					c-0.799,0.201-1.699,0.4-2.6,0.801v2.799l3.9-1.398l1.6-0.5l1.1-0.301h1.4c0.301,0.1,0.6,0.199,0.7,0.4c0,0.199-0.2,0.4-0.8,0.6
					l-1.4,0.5l-6.5,2.4v2.699l3.5-1.299l6.4-2.301l0.699-0.4c1.5-0.5,2.201-1.199,2.201-1.9
					C417.301,366.399,416.5,365.8,414.9,365.3z"/>
			</g>
		</g>
		<path fill="#C1272D" d="M105.3,544.499C64.8,541.7,29.5,524.2,18,513.999c-11.5-10.199-17.5-31.5-17.5-31.5
			c-0.4,15-0.4,26.301-0.4,26.301s4.5,53.4,36.2,74.9c31.7,21.5,56.7,14,56.7,14s33.1-8.201,57.8-41.9
			c4.5-6.199,9.3-14.5,14.1-23.801C164.8,531.899,145.7,547.2,105.3,544.499z"/>
		<path fill="#C1272D" d="M700.9,544.499c40.5-2.799,75.8-20.299,87.3-30.5c11.5-10.199,17.5-31.5,17.5-31.5
			c0.399,15,0.399,26.301,0.399,26.301s-4.5,53.4-36.199,74.9c-31.7,21.5-56.7,14-56.7,14s-33.101-8.201-57.8-41.9
			c-4.5-6.199-9.301-14.5-14.1-23.801C641.4,531.899,660.5,547.2,700.9,544.499z"/>
		<g>
			<g>
				<path opacity="0.1" fill="#E6E6E6" enable-background="new    " d="M105.3,544.499C64.8,541.7,29.5,524.2,18,513.999
					c-11.5-10.199-17.5-31.5-17.5-31.5c-0.4,15-0.4,26.301-0.4,26.301s4.5,53.4,36.2,74.9c31.7,21.5,56.7,14,56.7,14
					s33.1-8.201,57.8-41.9c4.5-6.199,9.3-14.5,14.1-23.801C164.8,531.899,145.7,547.2,105.3,544.499z"/>
				
					<pattern  id="SVGID_2_" xlink:href="#SVGID_6_" patternTransform="matrix(0.3298 0.0946 -0.0946 0.3298 -17389.2129 1524.9316)">
				</pattern>
				<path opacity="0.08" fill="url(#SVGID_2_)" enable-background="new    " d="M105.3,544.499C64.8,541.7,29.5,524.2,18,513.999
					c-11.5-10.199-17.5-31.5-17.5-31.5c-0.4,15-0.4,26.301-0.4,26.301s4.5,53.4,36.2,74.9c31.7,21.5,56.7,14,56.7,14
					s33.1-8.201,57.8-41.9c4.5-6.199,9.3-14.5,14.1-23.801C164.8,531.899,145.7,547.2,105.3,544.499z"/>
				<path opacity="0.22" enable-background="new    " d="M90.1,592.499c-12.5,1.801-31.3-2-45.1-7.699c-13.6-5.699-24-16.4-24-16.4
					c4.2,5.801,9.3,11.1,15.3,15.201c31.7,21.5,56.7,14,56.7,14s11.7-2.9,26.3-12.301C119.3,585.3,104.7,590.499,90.1,592.499z"/>
			</g>
			<g>
				<path opacity="0.1" fill="#E6E6E6" enable-background="new    " d="M700.9,544.499c40.5-2.799,75.8-20.299,87.3-30.5
					c11.5-10.199,17.5-31.5,17.5-31.5c0.399,15,0.399,26.301,0.399,26.301s-4.5,53.4-36.199,74.9c-31.7,21.5-56.7,14-56.7,14
					s-33.101-8.201-57.8-41.9c-4.5-6.199-9.301-14.5-14.1-23.801C641.4,531.899,660.5,547.2,700.9,544.499z"/>
				
					<pattern  id="SVGID_3_" xlink:href="#SVGID_7_" patternTransform="matrix(-0.3298 0.0946 0.0946 0.3298 -31903.0117 1560.0488)">
				</pattern>
				<path opacity="0.08" fill="url(#SVGID_3_)" enable-background="new    " d="M700.9,544.499c40.5-2.799,75.8-20.299,87.3-30.5
					c11.5-10.199,17.5-31.5,17.5-31.5c0.399,15,0.399,26.301,0.399,26.301s-4.5,53.4-36.199,74.9c-31.7,21.5-56.7,14-56.7,14
					s-33.101-8.201-57.8-41.9c-4.5-6.199-9.301-14.5-14.1-23.801C641.4,531.899,660.5,547.2,700.9,544.499z"/>
				<path opacity="0.22" enable-background="new    " d="M716.1,592.499c12.5,1.801,31.301-2,45.101-7.699
					c13.601-5.699,24-16.4,24-16.4c-4.2,5.801-9.3,11.1-15.3,15.201c-31.7,21.5-56.7,14-56.7,14s-11.7-2.9-26.3-12.301
					C686.9,585.3,701.5,590.499,716.1,592.499z"/>
			</g>
			<g>
				<g>
					<path d="M240.6,143.5c6.9,0,12.5,5.6,12.5,12.5v18.299c0,6.9-5.6,12.501-12.5,12.501s-12.5-5.601-12.5-12.501V156
						C228.1,149.1,233.7,143.5,240.6,143.5 M240.6,141.799c-7.8,0-14.2,6.4-14.2,14.201v18.299c0,7.801,6.4,14.2,14.2,14.2
						s14.2-6.399,14.2-14.2V156C254.8,148.1,248.4,141.799,240.6,141.799L240.6,141.799z"/>
					<path fill="#C1272D" d="M240.6,143.5c-6.9,0-12.5,5.6-12.5,12.5v18.299c0,6.9,5.6,12.501,12.5,12.501s12.5-5.601,12.5-12.501
						V156C253.1,149.1,247.5,143.5,240.6,143.5z"/>
				</g>
			</g>
			<g>
				<g>
					<path d="M565.6,143.5c6.9,0,12.5,5.6,12.5,12.5v18.299c0,6.9-5.6,12.501-12.5,12.501l0,0c-6.899,0-12.5-5.601-12.5-12.501V156
						C553.1,149.1,558.7,143.5,565.6,143.5L565.6,143.5 M565.6,141.799c-7.799,0-14.199,6.4-14.199,14.201v18.299
						c0,7.801,6.4,14.2,14.199,14.2c7.801,0,14.201-6.399,14.201-14.2V156C579.801,148.1,573.4,141.799,565.6,141.799L565.6,141.799
						z"/>
					<path fill="#C1272D" d="M565.6,143.5c-6.899,0-12.5,5.6-12.5,12.5v18.299c0,6.9,5.601,12.501,12.5,12.501
						c6.9,0,12.5-5.601,12.5-12.501V156C578.1,149.1,572.5,143.5,565.6,143.5z"/>
				</g>
			</g>
			<g>
				<g>
					<path fill="#C1272D" d="M141.3,247.2c1.4-2,1.2-2.899,1.2-2.899s0.2-0.9-1.2-2.9c-1.4-2-15-13.6-15.7-14s-28.5-2.2-31.4,1.3
						S91.6,244.3,91.6,244.3s-0.3,12.1,2.6,15.6s30.7,1.7,31.4,1.3C126.3,260.8,139.9,249.2,141.3,247.2z"/>
					<path opacity="0.25" enable-background="new    " d="M141.3,247.2c1.4-2,1.2-2.899,1.2-2.899s0.2-0.9-1.2-2.9
						c-0.9-1.3-6.9-6.6-11.2-10.3c-2.1,3.899-3.4,8.399-3.4,13.2c0,4.8,1.2,9.3,3.4,13.199C134.4,253.8,140.4,248.5,141.3,247.2z"/>
				</g>
				<g>
					<path fill="#C1272D" d="M151.1,231.6c2,1.399,2.9,1.2,2.9,1.2s0.9,0.199,2.9-1.2c2-1.4,13.6-15,14-15.7
						c0.4-0.7,2.2-28.5-1.3-31.4c-3.5-2.899-15.6-2.6-15.6-2.6s-12.1-0.3-15.6,2.6c-3.5,2.9-1.7,30.7-1.3,31.4
						C137.6,216.6,149.1,230.2,151.1,231.6z"/>
					<path opacity="0.25" enable-background="new    " d="M151.1,231.6c2,1.399,2.9,1.2,2.9,1.2s0.9,0.199,2.9-1.2
						c1.3-0.9,6.6-6.9,10.3-11.2c-3.9-2.1-8.4-3.4-13.2-3.4c-4.8,0-9.3,1.2-13.2,3.4C144.6,224.7,149.8,230.7,151.1,231.6z"/>
				</g>
				<g>
					<path fill="#C1272D" d="M213.8,228.8c-2.9-3.5-30.7-1.7-31.4-1.301c-0.7,0.4-14.3,12-15.7,14s-1.2,2.9-1.2,2.9
						s-0.2,0.9,1.2,2.9s15,13.6,15.7,14c0.7,0.399,28.5,2.199,31.4-1.301c2.9-3.5,2.6-15.6,2.6-15.6S216.7,232.3,213.8,228.8z"/>
					<path opacity="0.25" enable-background="new    " d="M178,231.2c-4.3,3.7-10.3,9-11.2,10.3c-1.4,2-1.2,2.9-1.2,2.9
						s-0.2,0.9,1.2,2.9c0.9,1.3,6.9,6.6,11.2,10.3c2.1-3.9,3.4-8.4,3.4-13.2S180.1,235.1,178,231.2z"/>
				</g>
				<g>
					<path fill="#C1272D" d="M156.9,257.1c-2-1.4-2.9-1.2-2.9-1.2s-0.9-0.2-2.9,1.2c-2,1.399-13.6,15-14,15.7
						c-0.4,0.699-2.2,28.5,1.3,31.4s15.6,2.6,15.6,2.6s12.1,0.301,15.6-2.6s1.7-30.701,1.3-31.4C170.5,272,158.9,258.5,156.9,257.1z
						"/>
					<path opacity="0.25" enable-background="new    " d="M156.9,257.1c-2-1.4-2.9-1.2-2.9-1.2s-0.9-0.2-2.9,1.2
						c-1.3,0.899-6.6,6.899-10.3,11.2c3.9,2.1,8.4,3.399,13.2,3.399c4.8,0,9.3-1.2,13.2-3.399C163.5,264,158.2,258,156.9,257.1z"/>
				</g>
			</g>
		</g>
		<path fill="#0B0B0F" d="M436.7,420.999h-67.9c-2.8,0-4.6,0.602-4.6-2.199l0,0c0-2.801,2.3-5,5-5H437.1c2.801,0,5,2.301,5,5l0,0
			C442.2,421.499,439.5,420.999,436.7,420.999z"/>
		<path d="M408.4,418.8h-36.5c-0.5,0-0.9-0.4-0.9-0.9l0,0c0-1.1,0.9-2,2-2h34.2c1.101,0,2,0.9,2,2l0,0
			C409.301,418.399,408.9,418.8,408.4,418.8z"/>
		<path d="M430.6,419.601H426.4c-0.9,0-1.7-0.801-1.7-1.701l0,0c0-1.6,1.3-2.799,2.8-2.799h1.9c1.6,0,2.8,1.299,2.8,2.799l0,0
			C432.301,418.899,431.6,419.601,430.6,419.601z"/>
		<g>
			<path fill="#9E1F20" d="M534.9,128c-0.4-3.201-3.301-5.601-6.5-5.601l0,0H403.1l0,0H277.8l0,0c-3.2,0-6.1,2.3-6.5,5.601
				c-0.1,0.699-0.1,1.399-0.1,2.1V257.5c0,8.9,7.2,16.101,16.1,16.101H403.1l0,0H518.9c8.9,0,16.1-7.2,16.1-16.101V130.1
				C535.1,129.4,535,128.7,534.9,128z"/>
			<g>
				<path fill="#C1272D" d="M530.5,124.299c0-1-0.8-1.899-1.9-1.899H403.1l0,0H277.5c-1,0-1.9,0.8-1.9,1.899v6v123.2
					c0,8.601,7,15.601,15.6,15.601H403.1l0,0H515c8.6,0,15.6-7,15.6-15.601V130.4L530.5,124.299z"/>
				<g opacity="0.2">
					
						<pattern  id="SVGID_4_" xlink:href="#SVGID_8_" patternTransform="matrix(0.1017 0 0 0.1017 -22141.8633 -6301.5342)"  opacity="0.2">
					</pattern>
					<path fill="url(#SVGID_4_)" d="M275.6,253.5c0,8.601,7,15.601,15.6,15.601H403.1l0,0H515c8.6,0,15.6-7,15.6-15.601V147H275.7
						V253.5H275.6z"/>
				</g>
			</g>
		</g>
	</g>
	<g>
		<g>
			<g>
				<g>
					<path fill="#C1272D" d="M697.2,90.799c0,0-32.7-3.199-50.601-3.199c-17.899,0-48.299,2.4-48.299,2.4s3.1-44.701,4.799-52
						c1.601-7.3,7.701-21.3,16.9-27.9C629.2,3.5,632,0,642.801,0C653.6,0,668.2,6.4,677.4,21.4
						C686.5,36.4,697.2,90.799,697.2,90.799z"/>
					<path fill="#9E1F20" d="M598.801,83.2c0,0,26.1-4.4,49-4.4c22.799,0,47.899,4.4,47.899,4.4c1,4.7,1.601,7.6,1.601,7.6
						S664.6,87.6,646.7,87.6S598.4,90,598.4,90S598.4,87.299,598.801,83.2z"/>
				</g>
			</g>
			<g display="none">
				<g display="inline">
					<path fill="#EDEDED" d="M697.2,90.799c0,0-32.7-3.199-50.601-3.199c-17.899,0-48.299,2.4-48.299,2.4s3.1-44.701,4.799-52
						c1.601-7.3,7.701-21.3,16.9-27.9C629.2,3.5,632,0,642.801,0C653.6,0,668.2,6.4,677.4,21.4
						C686.5,36.4,697.2,90.799,697.2,90.799z"/>
					<path fill="#F5F5F5" d="M598.801,83.2c0,0,26.1-4.4,49-4.4c22.799,0,47.899,4.4,47.899,4.4c1,4.7,1.601,7.6,1.601,7.6
						S664.6,87.6,646.7,87.6S598.4,90,598.4,90S598.4,87.299,598.801,83.2z"/>
				</g>
				<g display="inline" opacity="0.08">
					<g>
						<path d="M648.801,65.7c-2.101,1.7-3.201,2.6-3.201,2.6c-1.199,1.201-1.899,2.701-2,4.5h9.801v-2.6H647.1
							c0.301-0.5,1-1.199,2.101-1.9c1.399-0.899,2.3-1.6,2.7-2.1c0.9-1,1.3-2.1,1.3-3.3c0-1.399-0.5-2.5-1.399-3.3
							c-0.9-0.8-2.101-1.2-3.5-1.2c-3.101,0-4.701,1.7-4.701,5h2.701c0-1.8,0.699-2.7,2.1-2.7c1.3,0,2,0.7,2,2.1
							C650.5,63.799,649.9,64.799,648.801,65.7z"/>
					</g>
					<path d="M631.2,67.2h3c1.5,0,2.3,0.6,2.399,1.9c0.101,1.199,0.201,2.5,0.301,3.8h3.3V72.5c-0.5-0.201-0.7-0.701-0.7-1.5
						c0-0.201,0-0.4,0.1-0.801V69.5c0-1.701-0.6-2.9-1.799-3.5C639.2,65.5,640,64.4,640,62.6c0-1.301-0.4-2.301-1.3-3
						c-0.8-0.7-1.899-1-3.2-1h-7.3v14.3h3V67.2z M631.2,60.9h3.7c1.4,0,2.1,0.601,2.1,1.899c0,1.301-0.8,1.9-2.3,1.9h-3.5V60.9z"/>
				</g>
			</g>
		</g>
		<g>
			<g>
				<g>
					<path fill="#C1272D" d="M108.9,90.799c0,0,32.7-3.199,50.6-3.199s48.3,2.4,48.3,2.4S204.7,45.3,203,38
						c-1.6-7.3-7.7-21.3-16.9-27.9C176.9,3.4,174.1,0,163.3,0c-10.8,0-25.4,6.4-34.6,21.4C119.6,36.4,108.9,90.799,108.9,90.799z"/>
					<path fill="#9E1F20" d="M207.3,83.2c0,0-26.1-4.4-49-4.4c-22.8,0-47.9,4.4-47.9,4.4c-1,4.7-1.6,7.6-1.6,7.6
						s32.7-3.199,50.6-3.199c17.9,0,48.3,2.4,48.3,2.4S207.7,87.299,207.3,83.2z"/>
				</g>
			</g>
			<g display="none">
				<g display="inline">
					<path fill="#EDEDED" d="M108.9,90.799c0,0,32.7-3.199,50.6-3.199s48.3,2.4,48.3,2.4S204.7,45.3,203,38
						c-1.6-7.3-7.7-21.3-16.9-27.9C176.9,3.4,174.1,0,163.3,0c-10.8,0-25.4,6.4-34.6,21.4C119.6,36.4,108.9,90.799,108.9,90.799z"/>
					<path fill="#F5F5F5" d="M207.3,83.2c0,0-26.1-4.4-49-4.4c-22.8,0-47.9,4.4-47.9,4.4c-1,4.7-1.6,7.6-1.6,7.6
						s32.7-3.199,50.6-3.199c17.9,0,48.3,2.4,48.3,2.4S207.7,87.299,207.3,83.2z"/>
				</g>
				<g display="inline" opacity="0.08">
					<g>
						<path d="M173.4,65.7c-2.1,1.7-3.2,2.6-3.2,2.6c-1.2,1.201-1.9,2.701-2,4.5h9.8v-2.6h-6.2c0.3-0.5,1-1.199,2.1-1.9
							c1.4-0.899,2.3-1.6,2.7-2.1c0.9-1,1.3-2.1,1.3-3.3c0-1.399-0.5-2.5-1.4-3.3c-0.9-0.8-2.1-1.2-3.5-1.2c-3.1,0-4.7,1.7-4.7,5
							h2.7c0-1.8,0.7-2.7,2.1-2.7c1.3,0,2,0.7,2,2.1C175.1,63.799,174.6,64.799,173.4,65.7z"/>
					</g>
					<polygon points="164.9,70.1 157.8,70.1 157.8,58.5 154.8,58.5 154.8,72.799 164.9,72.799 					"/>
				</g>
			</g>
		</g>
	</g>
</g>
<g id="Layer_2">
	<g>
		<path fill="#E6E6E6" d="M255.84,549.628c1.927,1.395,4.004,2.09,6.23,2.09c2.981,0,4.473-0.977,4.473-2.93
			c0-0.832-0.326-1.52-0.977-2.061c-0.651-0.539-1.973-1.182-3.965-1.924c-2.396-0.963-3.952-1.916-4.668-2.861
			c-0.716-0.943-1.074-2.086-1.074-3.428c0-1.914,0.811-3.447,2.432-4.6s3.616-1.729,5.986-1.729c1.836,0,3.542,0.32,5.117,0.957
			v3.691c-1.615-1.041-3.444-1.563-5.488-1.563c-1.224,0-2.22,0.268-2.988,0.801c-0.769,0.535-1.152,1.238-1.152,2.109
			c0,0.859,0.276,1.531,0.83,2.012c0.553,0.482,1.78,1.102,3.682,1.855c2.409,0.898,4.036,1.83,4.883,2.793
			c0.846,0.965,1.27,2.156,1.27,3.574c0,1.98-0.811,3.539-2.432,4.678c-1.621,1.141-3.721,1.709-6.299,1.709
			c-2.24,0-4.193-0.422-5.859-1.27V549.628z"/>
		<path fill="#E6E6E6" d="M283.395,551.249v3.047h-3.828v-31.973h3.828v14.102h0.078c1.692-2.824,4.167-4.238,7.422-4.238
			c2.708,0,4.86,0.955,6.455,2.861c1.595,1.908,2.393,4.516,2.393,7.822c0,3.646-0.896,6.547-2.686,8.701
			c-1.791,2.156-4.177,3.232-7.158,3.232c-2.813,0-4.955-1.184-6.426-3.555H283.395z M283.375,545.409
			c0,1.746,0.566,3.221,1.699,4.424c1.133,1.205,2.552,1.807,4.258,1.807c2.031,0,3.62-0.781,4.766-2.344
			c1.146-1.563,1.719-3.723,1.719-6.484c0-2.277-0.534-4.092-1.602-5.439c-1.068-1.348-2.526-2.021-4.375-2.021
			c-1.875,0-3.421,0.672-4.639,2.012c-1.218,1.342-1.826,3.047-1.826,5.117V545.409z"/>
		<path fill="#E6E6E6" d="M308.02,552.284c0-0.703,0.241-1.295,0.723-1.777c0.481-0.48,1.081-0.723,1.797-0.723
			c0.729,0,1.334,0.244,1.816,0.732c0.481,0.488,0.723,1.078,0.723,1.768c0,0.678-0.241,1.26-0.723,1.748
			c-0.482,0.488-1.094,0.732-1.836,0.732c-0.716,0-1.312-0.244-1.787-0.732C308.257,553.544,308.02,552.962,308.02,552.284z"/>
		<path fill="#E6E6E6" d="M326.571,551.249v12.988h-3.828v-31.543h3.828v3.73h0.078c1.692-2.824,4.167-4.238,7.422-4.238
			c2.76,0,4.925,0.967,6.494,2.9c1.569,1.934,2.354,4.529,2.354,7.783c0,3.594-0.889,6.482-2.666,8.662
			c-1.777,2.182-4.17,3.271-7.178,3.271c-2.773,0-4.916-1.184-6.426-3.555H326.571z M326.551,545.39c0,1.758,0.566,3.24,1.699,4.443
			c1.133,1.205,2.552,1.807,4.258,1.807c2.031,0,3.62-0.781,4.766-2.344c1.146-1.563,1.719-3.723,1.719-6.484
			c0-2.33-0.534-4.156-1.602-5.479c-1.068-1.32-2.526-1.982-4.375-1.982c-1.888,0-3.438,0.672-4.648,2.012
			c-1.211,1.342-1.816,3.061-1.816,5.156V545.39z"/>
		<path fill="#E6E6E6" d="M352.27,554.296v-31.973h3.828v31.973H352.27z"/>
		<path fill="#E6E6E6" d="M384.766,554.296h-3.848v-3.398h-0.078c-1.445,2.605-3.665,3.906-6.66,3.906
			c-5.117,0-7.676-3.059-7.676-9.18v-12.93h3.789v12.363c0,4.389,1.68,6.582,5.039,6.582c1.667,0,3.015-0.615,4.043-1.846
			s1.543-2.783,1.543-4.658v-12.441h3.848V554.296z"/>
		<path fill="#E6E6E6" d="M394.372,549.628c1.927,1.395,4.004,2.09,6.23,2.09c2.982,0,4.472-0.977,4.472-2.93
			c0-0.832-0.324-1.52-0.977-2.061c-0.651-0.539-1.972-1.182-3.964-1.924c-2.396-0.963-3.952-1.916-4.668-2.861
			c-0.716-0.943-1.074-2.086-1.074-3.428c0-1.914,0.811-3.447,2.432-4.6s3.616-1.729,5.986-1.729c1.835,0,3.542,0.32,5.117,0.957
			v3.691c-1.613-1.041-3.443-1.563-5.488-1.563c-1.224,0-2.22,0.268-2.988,0.801c-0.769,0.535-1.152,1.238-1.152,2.109
			c0,0.859,0.276,1.531,0.83,2.012c0.554,0.482,1.78,1.102,3.682,1.855c2.41,0.898,4.037,1.83,4.882,2.793
			c0.848,0.965,1.27,2.156,1.27,3.574c0,1.98-0.811,3.539-2.432,4.678c-1.621,1.141-3.72,1.709-6.298,1.709
			c-2.239,0-4.192-0.422-5.859-1.27V549.628z"/>
		<path fill="#E6E6E6" d="M417.629,525.077c0-0.676,0.232-1.246,0.693-1.709c0.463-0.461,1.033-0.693,1.709-0.693
			c0.691,0,1.273,0.229,1.748,0.684c0.477,0.457,0.713,1.029,0.713,1.719c0,0.678-0.236,1.24-0.713,1.689
			c-0.475,0.449-1.057,0.674-1.748,0.674c-0.689,0-1.262-0.225-1.719-0.674C417.857,526.317,417.629,525.755,417.629,525.077z
			 M418.078,554.296v-21.602h3.828v21.602H418.078z"/>
		<path fill="#E6E6E6" d="M432.273,525.077c0-0.676,0.232-1.246,0.693-1.709c0.463-0.461,1.033-0.693,1.709-0.693
			c0.691,0,1.273,0.229,1.748,0.684c0.477,0.457,0.713,1.029,0.713,1.719c0,0.678-0.236,1.24-0.713,1.689
			c-0.475,0.449-1.057,0.674-1.748,0.674c-0.689,0-1.262-0.225-1.719-0.674C432.502,526.317,432.273,525.755,432.273,525.077z
			 M432.723,554.296v-21.602h3.828v21.602H432.723z"/>
		<path fill="#E6E6E6" d="M446.293,552.284c0-0.703,0.242-1.295,0.723-1.777c0.482-0.48,1.082-0.723,1.797-0.723
			c0.73,0,1.336,0.244,1.816,0.732c0.482,0.488,0.723,1.078,0.723,1.768c0,0.678-0.24,1.26-0.723,1.748
			c-0.48,0.488-1.094,0.732-1.836,0.732c-0.715,0-1.311-0.244-1.787-0.732C446.531,553.544,446.293,552.962,446.293,552.284z"/>
		<path fill="#E6E6E6" d="M475.938,553.319c-1.652,0.99-3.645,1.484-5.977,1.484c-3.125,0-5.637-1.002-7.539-3.008
			c-1.9-2.004-2.852-4.602-2.852-7.793c0-3.541,1.025-6.396,3.076-8.564s4.795-3.252,8.232-3.252c1.98,0,3.672,0.352,5.078,1.055
			v3.789c-1.523-1.119-3.215-1.68-5.078-1.68c-2.188,0-3.967,0.76-5.342,2.275c-1.373,1.518-2.061,3.539-2.061,6.064
			c0,2.488,0.648,4.434,1.943,5.84c1.297,1.406,3.045,2.109,5.244,2.109c1.863,0,3.621-0.611,5.273-1.836V553.319z"/>
		<path fill="#E6E6E6" d="M483.629,543.729c0-3.566,0.996-6.383,2.988-8.447c1.992-2.063,4.695-3.096,8.105-3.096
			c3.242,0,5.785,0.994,7.627,2.979c1.844,1.986,2.764,4.73,2.764,8.232c0,3.412-0.982,6.166-2.949,8.262
			c-1.965,2.098-4.602,3.145-7.91,3.145c-3.229,0-5.807-1.016-7.734-3.047C484.594,549.726,483.629,547.05,483.629,543.729z
			 M487.535,543.612c0,2.488,0.629,4.447,1.885,5.879c1.258,1.434,2.947,2.148,5.068,2.148c2.188,0,3.855-0.699,5-2.1
			c1.146-1.398,1.719-3.408,1.719-6.025c0-2.629-0.572-4.648-1.719-6.055c-1.145-1.406-2.813-2.109-5-2.109
			c-2.148,0-3.844,0.736-5.088,2.207C488.158,539.03,487.535,541.048,487.535,543.612z"/>
		<path fill="#E6E6E6" d="M545.598,554.296h-3.828v-12.402c0-2.344-0.363-4.02-1.094-5.029c-0.729-1.008-1.926-1.514-3.594-1.514
			c-1.406,0-2.609,0.658-3.613,1.973c-1.002,1.316-1.504,2.871-1.504,4.668v12.305h-3.828v-12.793c0-4.102-1.582-6.152-4.746-6.152
			c-1.457,0-2.666,0.625-3.623,1.875s-1.436,2.846-1.436,4.785v12.285h-3.828v-21.602h3.828v3.418h0.078
			c1.537-2.617,3.783-3.926,6.738-3.926c1.445,0,2.723,0.398,3.828,1.191c1.107,0.795,1.875,1.869,2.305,3.223
			c1.602-2.941,3.998-4.414,7.188-4.414c4.754,0,7.129,2.93,7.129,8.789V554.296z"/>
	</g>
</g>
</svg>
