<?xml version="1.0" encoding="utf-8"?>
<!-- Generator: Adobe Illustrator 16.0.0, SVG Export Plug-In . SVG Version: 6.00 Build 0)  -->
<!DOCTYPE svg PUBLIC "-//W3C//DTD SVG 1.1//EN" "http://www.w3.org/Graphics/SVG/1.1/DTD/svg11.dtd">
<svg version="1.1" id="Layer_1" xmlns="http://www.w3.org/2000/svg" xmlns:xlink="http://www.w3.org/1999/xlink" x="0px" y="0px"
	 width="806.199px" height="598.967px" viewBox="0 0 806.199 598.967" enable-background="new 0 0 806.199 598.967"
	 xml:space="preserve">
<pattern  x="97.6" y="695.984" width="71" height="71" patternUnits="userSpaceOnUse" id="SVGID_1_" viewBox="0 -71 71 71" overflow="visible">
	<g>
		<polygon fill="none" points="0,0 71,0 71,-71 0,-71 		"/>
		<g>
			<polygon fill="none" points="0,-71 71,-71 71,0 0,0 			"/>
			<g>
				<polygon fill="none" points="0,0 71,0 71,-71 0,-71 				"/>
				<g>
					<polygon fill="none" points="0,0 71,0 71,-71 0,-71 					"/>
					<path fill="#B3B3B3" d="M41.8-35.5c0-3.5-2.8-6.3-6.3-6.3s-6.3,2.8-6.3,6.3s2.8,6.3,6.3,6.3S41.8-32,41.8-35.5z"/>
				</g>
			</g>
		</g>
	</g>
</pattern>
<pattern  x="97.6" y="695.984" width="40" height="103" patternUnits="userSpaceOnUse" id="SVGID_2_" viewBox="0 -231.7 40 103" overflow="visible">
	<g>
		<polygon fill="none" points="0,-128.699 40,-128.699 40,-231.7 0,-231.7 		"/>
		<g>
			<polygon fill="none" points="0,-231.7 40,-231.7 40,-128.699 0,-128.699 			"/>
			<g>
				<polygon fill="none" points="0,-128.699 40,-128.699 40,-231.7 0,-231.7 				"/>
				<g>
					<polygon fill="none" points="0,-128.699 40,-128.699 40,-231.7 0,-231.7 					"/>
					<polygon points="34.5,-360.5 37.5,-360.5 37.5,-206 34.5,-206 					"/>
					<polygon points="26.5,-360.5 29.5,-360.5 29.5,-206 26.5,-206 					"/>
					<polygon points="18.5,-360.5 21.5,-360.5 21.5,-206 18.5,-206 					"/>
					<polygon points="10.5,-360.5 13.5,-360.5 13.5,-206 10.5,-206 					"/>
					<polygon points="2.5,-360.5 5.5,-360.5 5.5,-206 2.5,-206 					"/>
					<polygon points="34.5,-257.5 37.5,-257.5 37.5,-103 34.5,-103 					"/>
					<polygon points="26.5,-257.5 29.5,-257.5 29.5,-103 26.5,-103 					"/>
					<polygon points="18.5,-257.5 21.5,-257.5 21.5,-103 18.5,-103 					"/>
					<polygon points="10.5,-257.5 13.5,-257.5 13.5,-103 10.5,-103 					"/>
					<polygon points="2.5,-257.5 5.5,-257.5 5.5,-103 2.5,-103 					"/>
					<polygon points="34.5,-154.5 37.5,-154.5 37.5,0 34.5,0 					"/>
					<polygon points="26.5,-154.5 29.5,-154.5 29.5,0 26.5,0 					"/>
					<polygon points="18.5,-154.5 21.5,-154.5 21.5,0 18.5,0 					"/>
					<polygon points="10.5,-154.5 13.5,-154.5 13.5,0 10.5,0 					"/>
					<polygon points="2.5,-154.5 5.5,-154.5 5.5,0 2.5,0 					"/>
				</g>
			</g>
		</g>
	</g>
</pattern>
<pattern  x="97.6" y="695.984" width="40" height="103" patternUnits="userSpaceOnUse" id="SVGID_3_" viewBox="0 -231.7 40 103" overflow="visible">
	<g>
		<polygon fill="none" points="0,-128.699 40,-128.699 40,-231.7 0,-231.7 		"/>
		<g>
			<polygon fill="none" points="0,-231.7 40,-231.7 40,-128.699 0,-128.699 			"/>
			<g>
				<polygon fill="none" points="0,-128.699 40,-128.699 40,-231.7 0,-231.7 				"/>
				<g>
					<polygon fill="none" points="0,-128.699 40,-128.699 40,-231.7 0,-231.7 					"/>
					<polygon points="34.5,-360.5 37.5,-360.5 37.5,-206 34.5,-206 					"/>
					<polygon points="26.5,-360.5 29.5,-360.5 29.5,-206 26.5,-206 					"/>
					<polygon points="18.5,-360.5 21.5,-360.5 21.5,-206 18.5,-206 					"/>
					<polygon points="10.5,-360.5 13.5,-360.5 13.5,-206 10.5,-206 					"/>
					<polygon points="2.5,-360.5 5.5,-360.5 5.5,-206 2.5,-206 					"/>
					<polygon points="34.5,-257.5 37.5,-257.5 37.5,-103 34.5,-103 					"/>
					<polygon points="26.5,-257.5 29.5,-257.5 29.5,-103 26.5,-103 					"/>
					<polygon points="18.5,-257.5 21.5,-257.5 21.5,-103 18.5,-103 					"/>
					<polygon points="10.5,-257.5 13.5,-257.5 13.5,-103 10.5,-103 					"/>
					<polygon points="2.5,-257.5 5.5,-257.5 5.5,-103 2.5,-103 					"/>
					<polygon points="34.5,-154.5 37.5,-154.5 37.5,0 34.5,0 					"/>
					<polygon points="26.5,-154.5 29.5,-154.5 29.5,0 26.5,0 					"/>
					<polygon points="18.5,-154.5 21.5,-154.5 21.5,0 18.5,0 					"/>
					<polygon points="10.5,-154.5 13.5,-154.5 13.5,0 10.5,0 					"/>
					<polygon points="2.5,-154.5 5.5,-154.5 5.5,0 2.5,0 					"/>
				</g>
			</g>
		</g>
	</g>
</pattern>
<pattern  x="97.6" y="695.984" width="71" height="71" patternUnits="userSpaceOnUse" id="SVGID_4_" viewBox="0 -71 71 71" overflow="visible">
	<g>
		<polygon fill="none" points="0,0 71,0 71,-71 0,-71 		"/>
		<g>
			<polygon fill="none" points="0,-71 71,-71 71,0 0,0 			"/>
			<g>
				<polygon fill="none" points="0,0 71,0 71,-71 0,-71 				"/>
				<g>
					<polygon fill="none" points="0,0 71,0 71,-71 0,-71 					"/>
					<path fill="#FFFFFF" d="M41.8-35.5c0-3.5-2.8-6.3-6.3-6.3s-6.3,2.8-6.3,6.3s2.8,6.3,6.3,6.3S41.8-32,41.8-35.5z"/>
				</g>
			</g>
		</g>
	</g>
</pattern>
<g id="Layer_1_1_">
	<g>
		<g>
			<g>
				<g>
					<path fill="#E6E6E6" d="M801.4,418.7c-2.899-15.5-17.7-102.5-32-144.601c-9.399-27.7-13.1-53-17-64.899
						c-12-35.699-33-65.699-33-65.699s-9.5-13.102-10.1-16.301c-0.602-3.301-4.701-8.601-4.701-8.601s-17.399-5.7-62.299-5.7
						c-44.9,0-53.701,5-53.701,5s-2.399,2.899-5.899,4.801C579.199,124.501,571,124.4,571,124.4h-33.4c0,0-0.6-0.101-0.899,0.301
						c-0.398,0.399-0.601,2-0.601,2h-133H270c0,0-0.3-1.699-0.601-2C269,124.3,268.5,124.4,268.5,124.4h-33.4
						c0,0-8.2,0.2-11.7-1.699c-3.5-1.801-5.899-4.801-5.899-4.801s-8.8-5-53.7-5c-44.8,0-62.3,5.7-62.3,5.7s-4.101,5.3-4.7,8.601
						c-0.6,3.3-10.1,16.3-10.1,16.3s-21,30-33,65.698c-4,11.9-7.7,37.2-17,64.9C22.4,316.199,7.6,403.199,4.7,418.699
						C0.4,441.899,0,508.8,0,508.8s4.5,53.399,36.2,74.899c31.699,21.5,56.699,14,56.699,14S126,589.499,150.7,555.8
						c24.699-33.699,56.6-129.199,56.6-129.199s2.2-3,5.7-5.301s6.3-2.6,6.3-2.6l183.7,0.1l183.699-0.1c0,0,2.801,0.299,6.301,2.6
						s5.699,5.301,5.699,5.301s31.9,95.398,56.602,129.199C680,589.601,713.1,597.699,713.1,597.699s25,7.5,56.701-14
						C801.5,562.199,806,508.8,806,508.8S805.801,441.8,801.4,418.7z"/>
					<g>
						<g>
							<g>
								<path fill="#CFCFCF" d="M36.7,276c9.399-27.699,13.1-53,17-64.899c12-35.7,33-65.7,33-65.7s9.5-13.101,10.1-16.3
									c0.6-3.301,4.7-8.6,4.7-8.6s17.399-5.701,62.3-5.701c44.8,0,53.7,5,53.7,5s2.399,2.9,5.899,4.801
									c3.5,1.8,11.7,1.699,11.7,1.699h33.4c0,0,0.6-0.1,0.899,0.301c0.4,0.4,0.601,2,0.601,2h133.1h133.1c0,0,0.301-1.7,0.602-2
									c0.398-0.399,0.898-0.301,0.898-0.301h33.4c0,0,8.201,0.201,11.701-1.699c3.5-1.801,5.898-4.801,5.898-4.801s8.8-5,53.7-5
									s62.3,5.701,62.3,5.701s4.102,5.299,4.7,8.6c0.6,3.3,10.1,16.3,10.1,16.3s21,30,33,65.7c4,11.899,7.7,37.2,17,64.899
									c14.302,42.101,29.101,129.101,32,144.601c3.9,20.9,4.601,77.299,4.7,88.299c0-0.1,0-0.1,0-0.1s-0.3-66.9-4.7-90.1
									c-2.899-15.5-17.698-102.5-32-144.601c-9.399-27.7-13.1-53-17-64.899c-12-35.699-33-65.699-33-65.699S710,130.4,709.4,127.2
									c-0.6-3.301-4.7-8.601-4.7-8.601s-17.398-5.7-62.3-5.7s-53.7,5-53.7,5s-2.398,2.899-5.898,4.801
									c-3.5,1.801-11.701,1.699-11.701,1.699h-33.4c0,0-0.601-0.101-0.898,0.301c-0.4,0.399-0.602,2-0.602,2H403.1H270
									c0,0-0.3-1.699-0.601-2C269,124.3,268.5,124.4,268.5,124.4h-33.4c0,0-8.2,0.2-11.7-1.699
									c-3.5-1.801-5.899-4.801-5.899-4.801s-8.8-5-53.7-5c-44.8,0-62.3,5.7-62.3,5.7s-4.101,5.3-4.7,8.601
									c-0.6,3.3-10.1,16.3-10.1,16.3s-21,30-33,65.698c-4,11.9-7.7,37.2-17,64.9C22.4,316.199,7.6,403.199,4.7,418.699
									C0.4,441.899,0,508.8,0,508.8v0.1c0.1-10.897,0.7-67.397,4.7-88.299C7.7,405.2,22.4,318.101,36.7,276z"/>
							</g>
						</g>
					</g>
					<path fill="#CFCFCF" d="M351.3,359.999c0-42.199-34.3-76.5-76.5-76.5s-76.5,34.3-76.5,76.5c0,0.701,0,1.301,0.1,2
						c0,0.701-0.1,1.301-0.1,2c0,42.201,34.3,76.499,76.5,76.499s76.5-34.298,76.5-76.499c0-0.699,0-1.299-0.101-2
						C351.199,361.3,351.3,360.601,351.3,359.999z"/>
					<circle fill="#E6E6E6" cx="274.8" cy="355.999" r="73"/>
					<circle cx="274.8" cy="355.999" r="51.5"/>
					<path fill="#CFCFCF" d="M607.9,359.999c0-42.199-34.301-76.5-76.5-76.5c-42.2,0-76.5,34.3-76.5,76.5c0,0.701,0,1.301,0.101,2
						c0,0.701-0.101,1.301-0.101,2c0,42.201,34.3,76.499,76.5,76.499c42.199,0,76.5-34.298,76.5-76.499c0-0.699,0-1.299-0.1-2
						C607.9,361.3,607.9,360.601,607.9,359.999z"/>
					<circle fill="#E6E6E6" cx="531.4" cy="355.999" r="73"/>
					<circle cx="531.4" cy="355.999" r="51.5"/>
					<path fill="#121212" d="M534.9,128c-0.399-3.201-3.301-5.602-6.5-5.602l0,0H403.1l0,0H277.8l0,0c-3.2,0-6.1,2.3-6.5,5.602
						c-0.1,0.698-0.1,1.398-0.1,2.1v127.4c0,8.899,7.199,16.101,16.1,16.101h115.8l0,0h115.8c8.9,0,16.101-7.2,16.101-16.101V130.1
						C535.1,129.4,535,128.7,534.9,128z"/>
					<g>
						<path fill="#080808" d="M530.5,124.299c0-1-0.801-1.899-1.9-1.899H403.1l0,0H277.5c-1,0-1.9,0.801-1.9,1.899v6v123.2
							c0,8.601,7,15.601,15.601,15.601H403.1l0,0H515c8.6,0,15.6-7,15.6-15.601V130.4L530.5,124.299z"/>
						<g opacity="0.12">
							
								<pattern  id="SVGID_5_" xlink:href="#SVGID_1_" patternTransform="matrix(0.1017 0 0 -0.1017 -29212.541 -3289.6348)"  opacity="0.12">
							</pattern>
							<path fill="url(#SVGID_5_)" d="M275.6,253.5c0,8.601,7,15.601,15.601,15.601H403.1l0,0H515c8.6,0,15.6-7,15.6-15.601V147
								H275.7v106.5H275.6z"/>
						</g>
					</g>
					<circle fill="#080808" cx="652.4" cy="244.801" r="94.3"/>
					<g>
						<circle fill="#080808" cx="153.8" cy="244.801" r="94.3"/>
						<path fill="#1F1F1F" d="M230.5,254.1l9.5-8.899c0.5-0.5,0.5-1.2,0-1.7l-9.5-8.899c-0.7-0.7-1.9-0.2-1.9,0.8v8.9v8.899
							C228.5,254.2,229.7,254.7,230.5,254.1z"/>
						<path fill="#1F1F1F" d="M145.1,169.799h8.9h8.899c1,0,1.5-1.199,0.801-1.899l-8.9-9.5c-0.5-0.5-1.2-0.5-1.7,0l-8.899,9.5
							C143.6,168.6,144.1,169.799,145.1,169.799z"/>
						<path fill="#1F1F1F" d="M77.6,234.6l-9.5,8.899c-0.5,0.5-0.5,1.199,0,1.699l9.5,8.9c0.7,0.7,1.9,0.2,1.9-0.8v-8.9v-8.899
							C79.5,234.5,78.3,233.9,77.6,234.6z"/>
						<path fill="#1F1F1F" d="M162.9,318.8H154h-8.9c-1,0-1.5,1.199-0.8,1.9l8.9,9.5c0.5,0.5,1.199,0.5,1.699,0l8.9-9.5
							C164.4,319.999,163.9,318.8,162.9,318.8z"/>
					</g>
				</g>
			</g>
		</g>
		<g>
			<g>
				<path fill="#080808" d="M547.699,134.6c0,2.101-1.5,3.8-4.101,3.8s-4.101-1.699-4.101-3.8c0-2,1.5-3.801,4.101-3.801
					S547.699,132.5,547.699,134.6z M541,134.6c0,1.4,0.801,2.699,2.6,2.699c1.801,0,2.601-1.399,2.601-2.699
					c0-1.399-0.8-2.7-2.601-2.7C541.801,131.9,541,133.2,541,134.6z"/>
				<path fill="#080808" d="M549,131h3.801c2.398,0,2.898,1.299,2.898,2.198c0,0.9-0.5,2.2-2.898,2.2H550.5v2.8H549V131z
					 M550.5,134.4h2.199c0.7,0,1.5-0.3,1.5-1.199c0-0.9-0.699-1.2-1.5-1.2H550.5V134.4z"/>
				<path fill="#080808" d="M556.199,131h6.899v1.1H560.4v6.101h-1.5V132.1h-2.7V131z"/>
				<path fill="#080808" d="M564.199,131h1.5v7.198h-1.5V131z"/>
				<path fill="#080808" d="M575.199,134.6c0,2.101-1.5,3.8-4.101,3.8s-4.101-1.699-4.101-3.8c0-2,1.5-3.801,4.101-3.801
					S575.199,132.5,575.199,134.6z M568.5,134.6c0,1.4,0.801,2.699,2.6,2.699c1.801,0,2.601-1.399,2.601-2.699
					c0-1.399-0.8-2.7-2.601-2.7C569.301,131.9,568.5,133.2,568.5,134.6z"/>
				<path fill="#080808" d="M576.6,131h1.5l3.9,5.299l0,0V131h1.399v7.198h-1.6l-3.9-5.3l0,0v5.3H576.5V131H576.6z"/>
				<path fill="#080808" d="M586.301,135.799c0,1.101,1,1.5,2.199,1.5c1.301,0,1.801-0.601,1.801-1.101c0-0.6-0.4-0.8-0.701-0.899
					c-0.6-0.199-1.4-0.299-2.6-0.599c-1.5-0.301-1.9-1.101-1.9-1.801c0-1.5,1.601-2.101,3.101-2.101c1.8,0,3.3,0.801,3.3,2.301H590
					c-0.101-0.899-0.801-1.301-1.801-1.301c-0.699,0-1.601,0.201-1.601,0.899c0,0.5,0.399,0.802,1,0.9c0.101,0,2,0.4,2.5,0.6
					c1.101,0.302,1.701,1.101,1.701,1.802c0,1.6-1.701,2.299-3.4,2.299c-2,0-3.5-0.799-3.6-2.601h1.5L586.301,135.799
					L586.301,135.799z"/>
			</g>
			<g>
				<path fill="#080808" d="M222.3,135.799c0,1.101,1,1.5,2.2,1.5c1.3,0,1.8-0.601,1.8-1.101c0-0.6-0.4-0.8-0.7-0.899
					C225,135.1,224.2,135,223,134.698c-1.5-0.3-1.9-1.1-1.9-1.8c0-1.5,1.601-2.101,3.101-2.101c1.8,0,3.3,0.801,3.3,2.301H226
					c-0.101-0.9-0.8-1.301-1.8-1.301c-0.7,0-1.601,0.201-1.601,0.899c0,0.5,0.4,0.802,1,0.9c0.101,0,2,0.4,2.5,0.6
					c1.101,0.302,1.7,1.101,1.7,1.802c0,1.6-1.7,2.299-3.4,2.299c-2,0-3.5-0.799-3.6-2.601h1.5V135.799L222.3,135.799z"/>
				<path fill="#080808" d="M229,131h1.5v2.898h3.899V131h1.5v7.198h-1.5v-3.3H230.5v3.2H229V131z"/>
				<path fill="#080808" d="M240,131h1.6l3.3,7.198h-1.6l-0.8-1.899h-3.4l-0.8,1.899h-1.5L240,131z M239.5,135.299h2.6l-1.3-3.101
					l0,0L239.5,135.299z"/>
				<path fill="#080808" d="M245.7,131h4.1c1.9,0,2.8,0.698,2.8,1.898c0,1.399-1.1,1.7-1.399,1.8l0,0c0.5,0.101,1.3,0.4,1.3,1.5
					c0,0.802,0.1,1.601,0.5,1.9H251.4c-0.199-0.301-0.199-0.7-0.199-1.1c0-1.302-0.301-1.9-1.7-1.9h-2.2v3h-1.5L245.7,131L245.7,131
					z M247.2,134.2h2.5c1,0,1.5-0.4,1.5-1.101c0-0.899-0.7-1.1-1.5-1.1h-2.4v2.198h-0.1V134.2z"/>
				<path fill="#080808" d="M254.2,131h6.199v1.1H255.7v1.9h4.3v1h-4.3v2.1h4.699v1.101H254.2V131z"/>
			</g>
		</g>
		<g>
			<g>
				<g>
					<path fill="#9E1F20" d="M697.301,109.9c0-0.8-0.4-1.5-1.102-1.898c-4.5-2.9-23.398-13.602-51.5-13.602
						c-26.898,0-41.101,5.899-45.101,8c-0.799,0.399-1.199,1.2-1.199,2c0,0,9.8-2.898,47.5-2.898
						C683.6,101.5,697.301,109.9,697.301,109.9z"/>
					<path fill="#C1272D" d="M697.199,116.799L697.199,116.799V109.9c0,0-13.699-8.398-51.398-8.398
						c-37.801,0-47.5,2.898-47.5,2.898v11l0,0c7.699-1.3,21.199-2.601,44.1-2.601C670.9,112.9,688.301,115.2,697.199,116.799z"/>
				</g>
			</g>
			<g>
				<g>
					<path fill="#9E1F20" d="M108.9,109.9c0-0.8,0.4-1.5,1.101-1.898c4.5-2.9,23.399-13.602,51.5-13.602c26.899,0,41.1,5.899,45.1,8
						c0.8,0.399,1.2,1.2,1.2,2c0,0-9.8-2.898-47.5-2.898C122.6,101.5,108.9,109.9,108.9,109.9z"/>
					<path fill="#C1272D" d="M109,116.799L109,116.799V109.9c0,0,13.7-8.398,51.399-8.398c37.801,0,47.5,2.898,47.5,2.898v11l0,0
						c-7.699-1.3-21.199-2.601-44.1-2.601C135.3,112.9,117.9,115.2,109,116.799z"/>
				</g>
			</g>
		</g>
		<g>
			<g>
				<g>
					<g>
						<path fill="#2C2C2C" d="M710,271c-14.5,0-26.301-11.8-26.301-26.3c0-14.501,11.801-26.301,26.301-26.301
							s26.301,11.801,26.301,26.301S724.5,271,710,271z"/>
						<path fill="#222222" d="M710,219.5c13.899,0,25.301,11.301,25.301,25.301S724,270.1,710,270.1s-25.301-11.3-25.301-25.3
							S696.1,219.5,710,219.5 M710,217.5c-15,0-27.301,12.2-27.301,27.301c0,15.1,12.2,27.3,27.301,27.3
							c15.1,0,27.301-12.2,27.301-27.3C737.301,229.7,725,217.5,710,217.5L710,217.5z"/>
					</g>
					<path fill="#FF6666" d="M710,225.9c-10.4,0-18.9,8.5-18.9,18.9c0,10.398,8.5,18.898,18.9,18.898
						c10.399,0,18.899-8.5,18.899-18.898C728.9,234.4,720.5,225.9,710,225.9z M710,260.8c-8.9,0-16-7.2-16-16c0-8.9,7.199-16,16-16
						s16,7.199,16,16C726.1,253.7,718.9,260.8,710,260.8z"/>
				</g>
				<g>
					<g>
						<path fill="#2C2C2C" d="M652.4,328.601c-14.5,0-26.301-11.801-26.301-26.301S637.9,276,652.4,276s26.3,11.801,26.3,26.3
							C678.699,316.8,666.9,328.601,652.4,328.601z"/>
						<path fill="#222222" d="M652.4,277.1c13.9,0,25.3,11.3,25.3,25.299c0,14-11.3,25.302-25.3,25.302s-25.3-11.302-25.3-25.302
							C627.1,288.4,638.5,277.1,652.4,277.1 M652.4,275.1c-15,0-27.301,12.2-27.301,27.299c0,15,12.201,27.302,27.301,27.302
							c15.101,0,27.3-12.201,27.3-27.302C679.699,287.4,667.5,275.1,652.4,275.1L652.4,275.1z"/>
					</g>
					<polygon fill="#7CB2E8" points="666.801,290 664.801,288 652.4,300.399 640.1,288 638.1,290 650.4,302.399 638.1,314.7 
						640.1,316.8 652.4,304.399 664.801,316.8 666.801,314.7 654.4,302.399 					"/>
				</g>
				<g>
					<g>
						<path fill="#2C2C2C" d="M594.9,271c-14.5,0-26.301-11.8-26.301-26.3c0-14.501,11.801-26.301,26.301-26.301
							s26.199,11.9,26.199,26.4S609.301,271,594.9,271z"/>
						<path fill="#222222" d="M594.801,219.5c13.898,0,25.299,11.3,25.299,25.3s-11.299,25.3-25.299,25.3S569.5,258.8,569.5,244.8
							S580.9,219.5,594.801,219.5 M594.801,217.5c-15,0-27.301,12.2-27.301,27.301c0,15.1,12.199,27.3,27.301,27.3
							c15.1,0,27.299-12.3,27.299-27.3S609.9,217.5,594.801,217.5L594.801,217.5z"/>
					</g>
					<path fill="#FF69F8" d="M606.4,230.4h-23h-2.8v2.801v23v2.8h2.801h23h2.8v-2.8v-23V230.4H606.4z M606.4,256.3h-23v-23h23V256.3
						z"/>
				</g>
				<g>
					<g>
						<path fill="#2C2C2C" d="M652.4,213.5c-14.5,0-26.301-11.8-26.301-26.3S637.9,160.9,652.4,160.9s26.3,11.801,26.3,26.301
							S666.9,213.5,652.4,213.5z"/>
						<path fill="#222222" d="M652.4,162c13.9,0,25.3,11.299,25.3,25.3c0,14-11.3,25.3-25.3,25.3s-25.3-11.3-25.3-25.3
							C627.1,173.299,638.5,162,652.4,162 M652.4,160c-15,0-27.301,12.198-27.301,27.3c0,15.1,12.201,27.3,27.301,27.3
							c15.101,0,27.3-12.2,27.3-27.3S667.5,160,652.4,160L652.4,160z"/>
					</g>
					<path fill="#40E2A0" d="M668.4,195.2l-16-27.601l-16,27.601l-1.6,2.8h3.299H652.4h14.3H670L668.4,195.2z M652.4,195.2h-12.7
						l12.7-21.9l12.699,21.9H652.4z"/>
				</g>
			</g>
		</g>
		<g>
			<g>
				<circle cx="403.1" cy="316.399" r="4.1"/>
				<circle cx="403.1" cy="295.5" r="4.1"/>
				<circle cx="396.199" cy="305.7" r="4.1"/>
				<circle cx="381.5" cy="305.7" r="4.1"/>
				<circle cx="388.8" cy="316.399" r="4.1"/>
				<circle cx="388.8" cy="295.5" r="4.1"/>
				<circle cx="374.5" cy="295.5" r="4.1"/>
			</g>
			<g>
				<circle cx="410" cy="305.7" r="4.1"/>
				<circle cx="424.699" cy="305.7" r="4.1"/>
				<circle cx="417.301" cy="316.399" r="4.1"/>
				<circle cx="417.301" cy="295.5" r="4.1"/>
				<circle cx="431.699" cy="295.5" r="4.1"/>
			</g>
		</g>
		<g>
			<circle fill="#050505" stroke="#000000" stroke-width="2" stroke-miterlimit="10" cx="403.1" cy="362" r="20.2"/>
			<g>
				<path fill="#F2F2F2" d="M404.199,368.601V365.8v-3.5v-6.5c0-0.5,0.102-0.801,0.301-1c0.1-0.199,0.399-0.301,0.699-0.199
					c0.602,0.199,0.899,0.699,0.899,1.699v6.9c0.801,0.399,1.5,0.5,2.101,0.5c0.602,0,1.2-0.201,1.602-0.5
					c1-0.701,1.5-1.9,1.5-3.701c0-1.898-0.4-3.398-1.201-4.299c-0.799-1-2.1-1.9-4.1-2.601c-1.301-0.399-2.5-0.801-3.601-1.1
					c-1.1-0.302-2-0.5-2.899-0.701V363l0,0v2.698l0,0v1.699l0,0v2.5l0,0v1.5l4.699,1.5v-3.6l0,0V368.601L404.199,368.601z"/>
				<path fill="#F2F2F2" d="M399.1,367.601l-1.699,0.601l-0.899,0.399l-1.601,0.299l-1.5-0.198c-0.3-0.201-0.399-0.4-0.2-0.601
					c0.101-0.102,0.2-0.102,0.3-0.201c0.101-0.099,0.301-0.1,0.4-0.198l1.1-0.4l4.101-1.5v-2.699l-1.699,0.5l-5.5,2l-1,0.398
					c-1.5,0.602-2.2,1.201-2.2,1.801c0.101,0.801,1,1.5,2.7,1.9c0.7,0.198,1.4,0.299,2.101,0.399
					c0.699,0.101,1.399,0.101,2.199,0.101c1,0,2.102-0.101,3.301-0.302L399.1,367.601L399.1,367.601z"/>
				<path fill="#F2F2F2" d="M414.9,365.3c-0.899-0.301-1.7-0.5-2.5-0.6c-0.801-0.101-1.7-0.201-2.5-0.101
					c-0.899,0-1.899,0.199-2.801,0.299c-0.799,0.201-1.699,0.4-2.601,0.802v2.799l3.9-1.398l1.6-0.5l1.101-0.301h1.399
					c0.302,0.1,0.601,0.199,0.7,0.4c0,0.198-0.2,0.399-0.8,0.6l-1.4,0.5l-6.5,2.4v2.698l3.5-1.299l6.4-2.301l0.699-0.4
					c1.5-0.5,2.201-1.198,2.201-1.899C417.301,366.399,416.5,365.8,414.9,365.3z"/>
			</g>
		</g>
		<path fill="#C1272D" d="M105.3,544.499c-40.5-2.8-75.8-20.3-87.3-30.5c-11.5-10.199-17.5-31.5-17.5-31.5
			c-0.4,15-0.4,26.301-0.4,26.301s4.5,53.399,36.2,74.899s56.7,14,56.7,14s33.1-8.2,57.8-41.899c4.5-6.199,9.3-14.5,14.1-23.802
			C164.8,531.899,145.7,547.199,105.3,544.499z"/>
		<path fill="#C1272D" d="M700.9,544.499c40.5-2.8,75.8-20.3,87.3-30.5c11.5-10.199,17.5-31.5,17.5-31.5
			c0.399,15,0.399,26.301,0.399,26.301s-4.5,53.399-36.199,74.899c-31.7,21.5-56.7,14-56.7,14s-33.101-8.2-57.8-41.899
			c-4.5-6.199-9.301-14.5-14.1-23.802C641.4,531.899,660.5,547.199,700.9,544.499z"/>
		<g>
			<g>
				<path opacity="0.1" fill="#E6E6E6" enable-background="new    " d="M105.3,544.499c-40.5-2.8-75.8-20.3-87.3-30.5
					c-11.5-10.199-17.5-31.5-17.5-31.5c-0.4,15-0.4,26.301-0.4,26.301s4.5,53.399,36.2,74.899s56.7,14,56.7,14s33.1-8.2,57.8-41.899
					c4.5-6.199,9.3-14.5,14.1-23.802C164.8,531.899,145.7,547.199,105.3,544.499z"/>
				
					<pattern  id="SVGID_6_" xlink:href="#SVGID_2_" patternTransform="matrix(0.3298 0.0946 0.0946 -0.3298 -21804.6563 -12737.8096)">
				</pattern>
				<path opacity="0.08" fill="url(#SVGID_6_)" enable-background="new    " d="M105.3,544.499c-40.5-2.8-75.8-20.3-87.3-30.5
					c-11.5-10.199-17.5-31.5-17.5-31.5c-0.4,15-0.4,26.301-0.4,26.301s4.5,53.399,36.2,74.899s56.7,14,56.7,14s33.1-8.2,57.8-41.899
					c4.5-6.199,9.3-14.5,14.1-23.802C164.8,531.899,145.7,547.199,105.3,544.499z"/>
				<path opacity="0.22" enable-background="new    " d="M90.1,592.499c-12.5,1.801-31.3-2-45.1-7.699
					c-13.601-5.699-24-16.4-24-16.4c4.2,5.801,9.3,11.1,15.3,15.201c31.7,21.5,56.7,14,56.7,14s11.7-2.9,26.3-12.301
					C119.3,585.3,104.7,590.499,90.1,592.499z"/>
			</g>
			<g>
				<path opacity="0.1" fill="#E6E6E6" enable-background="new    " d="M700.9,544.499c40.5-2.8,75.8-20.3,87.3-30.5
					c11.5-10.199,17.5-31.5,17.5-31.5c0.399,15,0.399,26.301,0.399,26.301s-4.5,53.399-36.199,74.899c-31.7,21.5-56.7,14-56.7,14
					s-33.101-8.2-57.8-41.899c-4.5-6.199-9.301-14.5-14.1-23.802C641.4,531.899,660.5,547.199,700.9,544.499z"/>
				
					<pattern  id="SVGID_7_" xlink:href="#SVGID_3_" patternTransform="matrix(-0.3298 0.0946 -0.0946 -0.3298 -43263.9844 -12754.1797)">
				</pattern>
				<path opacity="0.08" fill="url(#SVGID_7_)" enable-background="new    " d="M700.9,544.499c40.5-2.8,75.8-20.3,87.3-30.5
					c11.5-10.199,17.5-31.5,17.5-31.5c0.399,15,0.399,26.301,0.399,26.301s-4.5,53.399-36.199,74.899c-31.7,21.5-56.7,14-56.7,14
					s-33.101-8.2-57.8-41.899c-4.5-6.199-9.301-14.5-14.1-23.802C641.4,531.899,660.5,547.199,700.9,544.499z"/>
				<path opacity="0.22" enable-background="new    " d="M716.1,592.499c12.5,1.801,31.301-2,45.101-7.699
					c13.602-5.699,24-16.4,24-16.4c-4.2,5.801-9.3,11.1-15.3,15.201c-31.7,21.5-56.7,14-56.7,14s-11.7-2.9-26.3-12.301
					C686.9,585.3,701.5,590.499,716.1,592.499z"/>
			</g>
			<g>
				<g>
					<path d="M240.6,143.5c6.9,0,12.5,5.6,12.5,12.5v18.299c0,6.899-5.6,12.501-12.5,12.501c-6.899,0-12.5-5.602-12.5-12.501V156
						C228.1,149.1,233.7,143.5,240.6,143.5 M240.6,141.799c-7.8,0-14.2,6.399-14.2,14.201v18.299c0,7.801,6.4,14.2,14.2,14.2
						s14.2-6.399,14.2-14.2V156C254.8,148.1,248.4,141.799,240.6,141.799L240.6,141.799z"/>
					<path fill="#C1272D" d="M240.6,143.5c-6.899,0-12.5,5.6-12.5,12.5v18.299c0,6.899,5.601,12.501,12.5,12.501
						c6.9,0,12.5-5.602,12.5-12.501V156C253.1,149.1,247.5,143.5,240.6,143.5z"/>
				</g>
			</g>
			<g>
				<g>
					<path d="M565.6,143.5c6.9,0,12.5,5.6,12.5,12.5v18.299c0,6.899-5.6,12.501-12.5,12.501l0,0c-6.899,0-12.5-5.602-12.5-12.501
						V156C553.1,149.1,558.699,143.5,565.6,143.5L565.6,143.5 M565.6,141.799c-7.799,0-14.199,6.399-14.199,14.201v18.299
						c0,7.801,6.4,14.2,14.199,14.2c7.801,0,14.201-6.399,14.201-14.2V156C579.801,148.1,573.4,141.799,565.6,141.799L565.6,141.799
						z"/>
					<path fill="#C1272D" d="M565.6,143.5c-6.899,0-12.5,5.6-12.5,12.5v18.299c0,6.899,5.601,12.501,12.5,12.501
						c6.9,0,12.5-5.602,12.5-12.501V156C578.1,149.1,572.5,143.5,565.6,143.5z"/>
				</g>
			</g>
			<g>
				<g>
					<path fill="#C1272D" d="M141.3,247.2c1.4-2,1.2-2.899,1.2-2.899s0.2-0.9-1.2-2.9s-15-13.6-15.7-14
						c-0.7-0.399-28.5-2.199-31.399,1.301c-2.9,3.5-2.601,15.599-2.601,15.599s-0.3,12.1,2.601,15.6
						c2.899,3.5,30.699,1.7,31.399,1.3C126.3,260.8,139.9,249.2,141.3,247.2z"/>
					<path opacity="0.25" enable-background="new    " d="M141.3,247.2c1.4-2,1.2-2.899,1.2-2.899s0.2-0.9-1.2-2.9
						c-0.9-1.3-6.9-6.6-11.2-10.3c-2.1,3.899-3.399,8.399-3.399,13.2c0,4.8,1.199,9.3,3.399,13.199
						C134.4,253.8,140.4,248.5,141.3,247.2z"/>
				</g>
				<g>
					<path fill="#C1272D" d="M151.1,231.6c2,1.399,2.9,1.2,2.9,1.2s0.899,0.199,2.899-1.2s13.601-15,14-15.7
						c0.4-0.699,2.2-28.5-1.3-31.399S154,181.9,154,181.9S141.9,181.6,138.4,184.5c-3.5,2.899-1.699,30.7-1.3,31.399
						C137.6,216.6,149.1,230.2,151.1,231.6z"/>
					<path opacity="0.25" enable-background="new    " d="M151.1,231.6c2,1.399,2.9,1.2,2.9,1.2s0.899,0.199,2.899-1.2
						c1.301-0.899,6.601-6.899,10.301-11.2c-3.9-2.1-8.4-3.399-13.2-3.399s-9.3,1.2-13.2,3.399C144.6,224.7,149.8,230.7,151.1,231.6
						z"/>
				</g>
				<g>
					<path fill="#C1272D" d="M213.8,228.8c-2.9-3.5-30.7-1.7-31.4-1.301c-0.699,0.399-14.3,12-15.699,14c-1.4,2-1.2,2.899-1.2,2.899
						s-0.2,0.9,1.2,2.9c1.399,2,15,13.6,15.699,14c0.7,0.398,28.5,2.199,31.4-1.301s2.6-15.601,2.6-15.601S216.7,232.3,213.8,228.8z
						"/>
					<path opacity="0.25" enable-background="new    " d="M178,231.2c-4.3,3.699-10.3,9-11.2,10.3c-1.4,2-1.2,2.899-1.2,2.899
						s-0.2,0.9,1.2,2.9c0.9,1.3,6.9,6.6,11.2,10.3c2.1-3.9,3.399-8.4,3.399-13.2S180.1,235.1,178,231.2z"/>
				</g>
				<g>
					<path fill="#C1272D" d="M156.9,257.1c-2-1.399-2.899-1.2-2.899-1.2s-0.9-0.199-2.9,1.2s-13.6,15-14,15.7
						c-0.399,0.699-2.2,28.5,1.3,31.4c3.5,2.899,15.601,2.6,15.601,2.6s12.1,0.301,15.6-2.6c3.5-2.901,1.7-30.701,1.3-31.4
						C170.5,272,158.9,258.5,156.9,257.1z"/>
					<path opacity="0.25" enable-background="new    " d="M156.9,257.1c-2-1.399-2.899-1.2-2.899-1.2s-0.9-0.199-2.9,1.2
						c-1.3,0.899-6.6,6.899-10.3,11.2c3.9,2.1,8.4,3.398,13.2,3.398s9.3-1.199,13.2-3.398C163.5,264,158.2,258,156.9,257.1z"/>
				</g>
			</g>
		</g>
		<path fill="#0B0B0F" d="M436.699,420.998H368.8c-2.8,0-4.601,0.603-4.601-2.198l0,0c0-2.801,2.301-5,5-5h67.9c2.801,0,5,2.301,5,5
			l0,0C442.199,421.498,439.5,420.998,436.699,420.998z"/>
		<path d="M408.4,418.8h-36.5c-0.5,0-0.899-0.4-0.899-0.9l0,0c0-1.1,0.899-2,2-2h34.199c1.102,0,2,0.9,2,2l0,0
			C409.301,418.399,408.9,418.8,408.4,418.8z"/>
		<path d="M430.6,419.601h-4.2c-0.899,0-1.7-0.801-1.7-1.701l0,0c0-1.6,1.3-2.799,2.8-2.799h1.9c1.6,0,2.8,1.299,2.8,2.799l0,0
			C432.301,418.899,431.6,419.601,430.6,419.601z"/>
		<g>
			<path fill="#9E1F20" d="M534.9,128c-0.399-3.201-3.301-5.602-6.5-5.602l0,0H403.1l0,0H277.8l0,0c-3.2,0-6.1,2.3-6.5,5.602
				c-0.1,0.698-0.1,1.398-0.1,2.1v127.4c0,8.899,7.199,16.101,16.1,16.101h115.8l0,0h115.8c8.9,0,16.101-7.2,16.101-16.101V130.1
				C535.1,129.4,535,128.7,534.9,128z"/>
			<g>
				<path fill="#C1272D" d="M530.5,124.299c0-1-0.801-1.899-1.9-1.899H403.1l0,0H277.5c-1,0-1.9,0.801-1.9,1.899v6v123.2
					c0,8.601,7,15.601,15.601,15.601H403.1l0,0H515c8.6,0,15.6-7,15.6-15.601V130.4L530.5,124.299z"/>
				<g opacity="0.2">
					
						<pattern  id="SVGID_8_" xlink:href="#SVGID_4_" patternTransform="matrix(0.1017 0 0 -0.1017 -29212.541 -3289.6348)"  opacity="0.2">
					</pattern>
					<path fill="url(#SVGID_8_)" d="M275.6,253.5c0,8.601,7,15.601,15.601,15.601H403.1l0,0H515c8.6,0,15.6-7,15.6-15.601V147H275.7
						v106.5H275.6z"/>
				</g>
			</g>
		</g>
	</g>
	<g>
		<g>
			<g>
				<g>
					<path fill="#C1272D" d="M697.199,90.799c0,0-32.699-3.199-50.601-3.199C628.699,87.6,598.3,90,598.3,90s3.1-44.701,4.799-52
						c1.601-7.3,7.701-21.3,16.899-27.9C629.199,3.5,632,0,642.801,0C653.6,0,668.199,6.4,677.4,21.4
						C686.5,36.4,697.199,90.799,697.199,90.799z"/>
					<path fill="#9E1F20" d="M598.801,83.2c0,0,26.1-4.4,49-4.4c22.799,0,47.898,4.4,47.898,4.4c1,4.699,1.602,7.6,1.602,7.6
						s-32.701-3.2-50.602-3.2c-17.899,0-48.3,2.4-48.3,2.4S598.4,87.299,598.801,83.2z"/>
				</g>
			</g>
			<g display="none">
				<g display="inline">
					<path fill="#EDEDED" d="M697.199,90.799c0,0-32.699-3.199-50.601-3.199C628.699,87.6,598.3,90,598.3,90s3.1-44.701,4.799-52
						c1.601-7.3,7.701-21.3,16.899-27.9C629.199,3.5,632,0,642.801,0C653.6,0,668.199,6.4,677.4,21.4
						C686.5,36.4,697.199,90.799,697.199,90.799z"/>
					<path fill="#F5F5F5" d="M598.801,83.2c0,0,26.1-4.4,49-4.4c22.799,0,47.898,4.4,47.898,4.4c1,4.699,1.602,7.6,1.602,7.6
						s-32.701-3.2-50.602-3.2c-17.899,0-48.3,2.4-48.3,2.4S598.4,87.299,598.801,83.2z"/>
				</g>
				<g display="inline" opacity="0.08">
					<g>
						<path d="M648.801,65.7c-2.102,1.699-3.201,2.6-3.201,2.6c-1.199,1.201-1.899,2.701-2,4.5h9.801v-2.6H647.1
							c0.301-0.5,1-1.199,2.101-1.9c1.399-0.899,2.3-1.6,2.7-2.1c0.9-1,1.3-2.101,1.3-3.301c0-1.398-0.5-2.5-1.398-3.3
							c-0.9-0.8-2.102-1.2-3.5-1.2c-3.102,0-4.701,1.7-4.701,5h2.701c0-1.8,0.698-2.699,2.1-2.699c1.3,0,2,0.699,2,2.1
							C650.5,63.799,649.9,64.799,648.801,65.7z"/>
					</g>
					<path d="M631.199,67.2h3c1.5,0,2.301,0.6,2.399,1.899c0.101,1.199,0.201,2.5,0.301,3.8h3.3V72.5
						c-0.5-0.201-0.699-0.701-0.699-1.5c0-0.201,0-0.4,0.1-0.802V69.5c0-1.701-0.6-2.9-1.799-3.5C639.199,65.5,640,64.4,640,62.6
						c0-1.301-0.4-2.301-1.301-3c-0.8-0.7-1.898-1-3.199-1h-7.301v14.3h3V67.2z M631.199,60.9h3.7c1.4,0,2.101,0.602,2.101,1.899
						c0,1.301-0.801,1.899-2.301,1.899h-3.5V60.9z"/>
				</g>
			</g>
		</g>
		<g>
			<g>
				<g>
					<path fill="#C1272D" d="M108.9,90.799c0,0,32.7-3.199,50.601-3.199c17.899,0,48.3,2.4,48.3,2.4s-3.1-44.7-4.8-52
						c-1.601-7.3-7.7-21.3-16.9-27.9C176.9,3.4,174.1,0,163.3,0S137.9,6.4,128.7,21.4C119.6,36.4,108.9,90.799,108.9,90.799z"/>
					<path fill="#9E1F20" d="M207.3,83.2c0,0-26.1-4.4-49-4.4c-22.8,0-47.9,4.4-47.9,4.4c-1,4.699-1.6,7.6-1.6,7.6
						s32.7-3.199,50.6-3.199c17.9,0,48.301,2.4,48.301,2.4S207.7,87.299,207.3,83.2z"/>
				</g>
			</g>
			<g display="none">
				<g display="inline">
					<path fill="#EDEDED" d="M108.9,90.799c0,0,32.7-3.199,50.601-3.199c17.899,0,48.3,2.4,48.3,2.4s-3.1-44.7-4.8-52
						c-1.601-7.3-7.7-21.3-16.9-27.9C176.9,3.4,174.1,0,163.3,0S137.9,6.4,128.7,21.4C119.6,36.4,108.9,90.799,108.9,90.799z"/>
					<path fill="#F5F5F5" d="M207.3,83.2c0,0-26.1-4.4-49-4.4c-22.8,0-47.9,4.4-47.9,4.4c-1,4.699-1.6,7.6-1.6,7.6
						s32.7-3.199,50.6-3.199c17.9,0,48.301,2.4,48.301,2.4S207.7,87.299,207.3,83.2z"/>
				</g>
				<g display="inline" opacity="0.08">
					<g>
						<path d="M173.4,65.7c-2.1,1.699-3.199,2.6-3.199,2.6c-1.2,1.201-1.9,2.701-2,4.5h9.8v-2.6h-6.2c0.3-0.5,1-1.199,2.1-1.9
							c1.4-0.899,2.301-1.6,2.7-2.1c0.9-1,1.3-2.101,1.3-3.301c0-1.398-0.5-2.5-1.399-3.3c-0.9-0.8-2.101-1.2-3.5-1.2
							c-3.101,0-4.7,1.7-4.7,5h2.7c0-1.8,0.7-2.699,2.1-2.699c1.3,0,2,0.699,2,2.1C175.1,63.799,174.6,64.799,173.4,65.7z"/>
					</g>
					<polygon points="164.9,70.1 157.8,70.1 157.8,58.5 154.8,58.5 154.8,72.799 164.9,72.799 					"/>
				</g>
			</g>
		</g>
	</g>
</g>
</svg>
