<?xml version="1.0" encoding="utf-8"?>
<!-- Generator: Adobe Illustrator 16.0.0, SVG Export Plug-In . SVG Version: 6.00 Build 0)  -->
<!DOCTYPE svg PUBLIC "-//W3C//DTD SVG 1.1//EN" "http://www.w3.org/Graphics/SVG/1.1/DTD/svg11.dtd">
<svg version="1.1" id="Layer_1" xmlns="http://www.w3.org/2000/svg" xmlns:xlink="http://www.w3.org/1999/xlink" x="0px" y="0px"
	 width="98.9px" height="22.4px" viewBox="-910 529.599 98.9 22.4" enable-background="new -910 529.599 98.9 22.4"
	 xml:space="preserve">
<g>
	<g>
		<g>
			<path fill="#61E0DF" d="M-910,545.099c0-0.8,0.4-1.5,1.101-1.899c4.5-2.9,23.399-13.601,51.5-13.601c26.899,0,41.1,5.9,45.1,8
				c0.8,0.4,1.2,1.2,1.2,2c0,0-9.8-2.899-47.5-2.899C-896.4,536.7-910,545.099-910,545.099z"/>
			<path fill="#3ED8D2" d="M-910,552L-910,552v-6.9c0,0,13.7-8.399,51.4-8.399c37.8,0,47.5,2.899,47.5,2.899v11l0,0
				c-7.7-1.3-21.2-2.6-44.101-2.6C-883.7,548-901.1,550.3-910,552z"/>
		</g>
	</g>
</g>
</svg>
