<?xml version="1.0" encoding="utf-8"?>
<!-- Generator: Adobe Illustrator 16.0.0, SVG Export Plug-In . SVG Version: 6.00 Build 0)  -->
<!DOCTYPE svg PUBLIC "-//W3C//DTD SVG 1.1//EN" "http://www.w3.org/Graphics/SVG/1.1/DTD/svg11.dtd">
<svg version="1.1" id="Layer_1" xmlns="http://www.w3.org/2000/svg" xmlns:xlink="http://www.w3.org/1999/xlink" x="0px" y="0px"
	 width="98.901px" height="22.4px" viewBox="0 0 98.901 22.4" enable-background="new 0 0 98.901 22.4" xml:space="preserve">
<g>
	<g>
		<g>
			<path fill="#61E0DF" d="M0,15.5c0-0.8,0.4-1.5,1.102-1.898C5.601,10.701,24.5,0,52.601,0c26.898,0,41.1,5.9,45.1,8
				c0.8,0.4,1.2,1.2,1.2,2c0,0-9.8-2.898-47.5-2.898C13.6,7.101,0,15.5,0,15.5z"/>
			<path fill="#3ED8D2" d="M0,22.401L0,22.401v-6.9c0,0,13.7-8.398,51.4-8.398c37.8,0,47.5,2.898,47.5,2.898v11l0,0
				c-7.7-1.3-21.2-2.6-44.102-2.6C26.3,18.401,8.9,20.701,0,22.401z"/>
		</g>
	</g>
</g>
</svg>
