<?xml version="1.0" encoding="utf-8"?>
<!-- Generator: Adobe Illustrator 16.0.0, SVG Export Plug-In . SVG Version: 6.00 Build 0)  -->
<!DOCTYPE svg PUBLIC "-//W3C//DTD SVG 1.1//EN" "http://www.w3.org/Graphics/SVG/1.1/DTD/svg11.dtd">
<svg version="1.1" xmlns="http://www.w3.org/2000/svg" xmlns:xlink="http://www.w3.org/1999/xlink" x="0px" y="0px" width="806.3px"
	 height="598.667px" viewBox="97.1 97.1 806.3 598.667" enable-background="new 97.1 97.1 806.3 598.667" xml:space="preserve">
<g id="Layer_1">
	<g>
		<path fill="#9B4B0A" d="M903,605.7L903,605.7L903,605.7v-0.2c0-0.1,0-0.2,0-0.4c0-0.1,0-0.199,0-0.3c0-0.399,0-0.899,0-1.399
			c0,0,0,0,0-0.101c-0.1-12.399-0.8-67.1-4.6-87.6c-2.9-15.5-17.7-102.5-32-144.6c-9.4-27.701-13.101-53-17-64.9
			c-12-35.7-33-65.7-33-65.7s-9.5-13.1-10.101-16.3c-0.6-3.3-4.7-8.6-4.7-8.6s-2.3-0.8-7.399-1.7l0,0l0,0V207
			c0-0.8-0.4-1.5-1.101-1.9c-4.5-2.9-23.399-13.6-51.5-13.6c-26.899,0-41.1,5.9-45.1,8c-0.8,0.4-1.2,1.2-1.2,2v11l0,0
			c-7.399,1.2-9.6,2.4-9.6,2.4s-2.4,2.9-5.9,4.8c-3.5,1.8-11.7,1.7-11.7,1.7H634.7c0,0-0.601-0.1-0.9,0.3c-0.399,0.4-0.6,2-0.6,2
			H631.6c-0.899-2.3-3.1-3.9-5.699-4.1c-0.101,0-0.101,0-0.2,0h-0.3H500l0,0H374.7h-0.3c-0.101,0-0.101,0-0.2,0
			c-2.5,0.2-4.8,1.8-5.7,4.1h-1.6c0,0-0.301-1.7-0.601-2c-0.399-0.4-0.899-0.3-0.899-0.3H332c0,0-8.2,0.2-11.7-1.7
			c-3.5-1.8-5.899-4.8-5.899-4.8s-2.101-1.2-9.601-2.4l0,0v-11c0-0.9-0.5-1.6-1.2-2c-4-2-18.2-8-45.1-8c-28.2,0-47,10.7-51.5,13.6
			c-0.7,0.4-1.1,1.1-1.1,1.9v6.9l0,0l0,0c-5.1,1-7.4,1.7-7.4,1.7s-4.1,5.3-4.7,8.6c-0.6,3.3-10.1,16.3-10.1,16.3s-21,30-33,65.7
			c-4,11.9-7.7,37.199-17,64.9c-14.3,42.1-29.1,129.1-32,144.6c-3.8,20.5-4.5,75.2-4.6,87.6c0,0,0,0,0,0.101c0,0.6,0,1.1,0,1.399
			c0,0.101,0,0.2,0,0.3c0,0.2,0,0.301,0,0.4v0.1v0.101l0,0c0,0.1,0,0.1,0,0.1s0,0,0,0.1l0,0c0.2,2.5,3.6,35.7,20.8,59.5l0,0l0,0
			c0.5,0.7,1.1,1.4,1.6,2.101c0,0,0,0.1,0.1,0.1c0.5,0.7,1.1,1.4,1.6,2l0,0c0.6,0.7,1.1,1.3,1.7,1.9c0.1,0.1,0.1,0.1,0.2,0.2
			c0.6,0.6,1.1,1.199,1.7,1.8c0,0,0,0,0.1,0.1c0.6,0.601,1.2,1.2,1.8,1.7c0.1,0.1,0.2,0.2,0.3,0.3c0.6,0.5,1.2,1,1.8,1.601l0.1,0.1
			c0.6,0.5,1.3,1,1.9,1.5c0.2,0.1,0.3,0.2,0.5,0.3c0.7,0.5,1.3,1,2,1.4c31.7,21.5,56.7,14,56.7,14s0,0,0.1,0l0,0
			c0.1,0,0.1,0,0.2-0.101c0,0,0,0,0.1,0s0.3-0.1,0.4-0.1l0,0c0.2,0,0.3-0.1,0.5-0.2h0.1c0.2-0.1,0.4-0.1,0.7-0.2
			c0.1,0,0.1,0,0.2-0.1c0.3-0.1,0.5-0.2,0.8-0.3h0.1c0.3-0.101,0.6-0.2,0.9-0.3c0.1,0,0.1,0,0.2-0.101c0.3-0.1,0.7-0.2,1.1-0.399
			c0.1,0,0.2-0.101,0.3-0.101c0.4-0.1,0.8-0.3,1.2-0.5c0.1,0,0.1-0.1,0.2-0.1c0.4-0.2,0.8-0.3,1.2-0.5c0.1,0,0.2-0.1,0.2-0.1
			c0.4-0.2,0.9-0.4,1.4-0.601c0.1,0,0.2-0.1,0.3-0.1c0.5-0.2,1-0.4,1.5-0.7c0.1,0,0.2-0.1,0.3-0.1c0.5-0.2,1-0.4,1.5-0.7
			c0.1,0,0.2-0.101,0.2-0.101c0.5-0.3,1.1-0.5,1.7-0.8c0.1-0.1,0.3-0.1,0.4-0.2c0.6-0.3,1.1-0.6,1.7-0.899
			c0.1-0.101,0.2-0.101,0.3-0.2c0.6-0.3,1.1-0.6,1.7-0.9c0.1,0,0.1-0.1,0.2-0.1c0.6-0.3,1.2-0.7,1.9-1.1c0.1-0.101,0.3-0.2,0.4-0.2
			c0.6-0.4,1.3-0.7,1.9-1.101c0.1-0.1,0.3-0.199,0.4-0.199c0.7-0.4,1.3-0.801,2-1.2c0,0,0.1,0,0.1-0.101l0,0l0,0
			c10-6.399,21.4-15.899,31.5-29.6c0.5-0.7,1-1.4,1.5-2.2c0.1-0.2,0.3-0.399,0.4-0.6c0.5-0.7,1-1.4,1.4-2.2c0-0.1,0.1-0.1,0.1-0.2
			c0.5-0.8,1.1-1.7,1.6-2.5c0.1-0.2,0.2-0.3,0.3-0.5c0.5-0.8,1-1.7,1.5-2.5l0.1-0.1c0.6-1,1.1-1.9,1.7-2.9c0.1-0.1,0.1-0.2,0.2-0.3
			c0.5-1,1.1-2,1.7-3l0,0c0.6-1.1,1.2-2.2,1.8-3.3c0,0,0,0,0-0.1C282.1,590.5,304.5,523.3,304.5,523.3s2.2-3,5.7-5.3
			s6.3-2.6,6.3-2.6h1.9c13.8,13.5,32.699,21.8,53.5,21.8c20.8,0,39.6-8.3,53.399-21.7h36c0,2.8,1.8,2.2,4.601,2.2H533.8
			c2.8,0,5.5,0.6,5.5-2.2h35.9c13.8,13.4,32.6,21.7,53.399,21.7c20.801,0,39.7-8.3,53.5-21.8h1.9c0,0,2.8,0.3,6.3,2.6
			s5.7,5.3,5.7,5.3s22.5,67.2,44.3,108.801c0,0,0,0,0,0.1c0.601,1.1,1.2,2.2,1.8,3.3l0,0c0.601,1,1.101,2,1.7,3
			c0.101,0.1,0.101,0.2,0.2,0.3c0.6,1,1.1,2,1.7,2.9l0.1,0.1c0.5,0.9,1,1.7,1.5,2.5c0.101,0.2,0.2,0.3,0.3,0.5
			c0.5,0.9,1.101,1.7,1.601,2.5c0,0.101,0.1,0.101,0.1,0.2c0.5,0.7,1,1.5,1.4,2.2c0.1,0.2,0.3,0.4,0.399,0.6c0.5,0.7,1,1.5,1.5,2.2
			c10,13.7,21.5,23.2,31.5,29.6l0,0l0,0c0,0,0.101,0,0.101,0.101c0.7,0.399,1.3,0.8,2,1.2c0.1,0.1,0.3,0.199,0.399,0.199
			c0.601,0.4,1.301,0.801,1.9,1.101c0.1,0.1,0.3,0.2,0.4,0.2c0.6,0.399,1.3,0.699,1.899,1.1c0.101,0,0.101,0.1,0.2,0.1
			c0.6,0.301,1.2,0.601,1.7,0.9c0.1,0.1,0.2,0.1,0.3,0.2c0.6,0.3,1.2,0.6,1.7,0.899c0.1,0.101,0.3,0.101,0.399,0.2
			c0.601,0.3,1.101,0.5,1.7,0.8c0.101,0,0.2,0.101,0.2,0.101c0.5,0.2,1,0.5,1.5,0.7c0.1,0,0.2,0.1,0.3,0.1c0.5,0.2,1,0.4,1.5,0.7
			c0.101,0,0.2,0.1,0.3,0.1c0.5,0.2,0.9,0.4,1.4,0.601c0.1,0,0.2,0.1,0.2,0.1c0.4,0.2,0.8,0.3,1.2,0.5c0.1,0,0.1,0.1,0.2,0.1
			c0.399,0.2,0.8,0.3,1.199,0.5c0.101,0,0.2,0.101,0.301,0.101c0.399,0.1,0.699,0.3,1.1,0.399c0.1,0,0.1,0,0.2,0.101
			c0.3,0.1,0.6,0.199,0.899,0.3h0.101c0.3,0.1,0.6,0.2,0.8,0.3c0.1,0,0.1,0,0.2,0.1c0.2,0.101,0.5,0.101,0.7,0.2h0.1
			c0.2,0.101,0.4,0.101,0.5,0.2l0,0c0.2,0,0.3,0.1,0.4,0.1c0,0,0,0,0.1,0s0.2,0.101,0.2,0.101l0,0h0.1c0,0,25,7.5,56.7-14
			c0.7-0.5,1.3-0.9,2-1.4c0.2-0.1,0.3-0.2,0.5-0.3c0.6-0.5,1.3-1,1.9-1.5l0.1-0.1c0.6-0.5,1.2-1,1.8-1.601c0.1-0.1,0.2-0.2,0.3-0.3
			c0.601-0.6,1.2-1.1,1.8-1.7c0,0,0,0,0.101-0.1c0.6-0.601,1.1-1.2,1.7-1.8c0.1-0.101,0.1-0.101,0.199-0.2
			c0.601-0.601,1.101-1.3,1.7-1.9l0,0c0.601-0.7,1.101-1.3,1.601-2c0,0,0-0.1,0.1-0.1c0.5-0.7,1.1-1.4,1.6-2.101l0,0l0,0
			c17.2-23.8,20.601-57,20.801-59.5l0,0c0-0.1,0-0.1,0-0.1S903,605.8,903,605.7z"/>
		<path fill="#9B4B0A" d="M705.8,186.4c0.5,0,1.101-0.1,1.601-0.1c4.399-0.3,9.6-0.6,15-0.9c1.3-0.1,2.699-0.1,4-0.2
			c2.699-0.1,5.399-0.2,8-0.3c1.3,0,2.6-0.1,3.8-0.1s2.399,0,3.6-0.1c0.601,0,1.2,0,1.7,0c17.9,0,50.6,3.2,50.6,3.2l0,0
			c0,0,0-0.1-0.1-0.3v-0.1c0-0.1,0-0.1,0-0.2l0,0c0-0.1,0-0.2-0.1-0.3c0-0.1,0-0.1,0-0.2v-0.1c0-0.2-0.101-0.5-0.2-0.8v-0.1
			c0-0.1-0.101-0.3-0.101-0.4c0,0,0,0,0-0.1c-2.3-11-11.399-53.8-19.399-66.8c-9.101-15-23.7-21.4-34.601-21.4
			c-10.899,0-13.6,3.4-22.699,10.1c-9.101,6.7-15.301,20.6-16.9,27.9c-1.2,5.5-3.3,32.4-4.3,45.2l0,0c0,0.1,0,0.3,0,0.4
			c0,0.1,0,0.1,0,0.2s0,0.3,0,0.4c0,0.1,0,0.3,0,0.4c0,0.1,0,0.3,0,0.4c0,0.1,0,0.2,0,0.3v0.1c0,0.2,0,0.4,0,0.6l0,0
			c0,0.6-0.101,1.1-0.101,1.6c0,0.2,0,0.3,0,0.5l0,0c-0.1,1-0.1,1.6-0.1,1.8c0,0.1,0,0.1,0,0.1s1.9-0.1,5-0.4
			C701.8,186.6,703.7,186.5,705.8,186.4z"/>
		<path fill="#9B4B0A" d="M304.8,187.1L304.8,187.1c0-0.3-0.1-0.9-0.1-1.9l0,0c0-0.2,0-0.3,0-0.5c0-0.5-0.101-1-0.101-1.6l0,0
			c0-0.2,0-0.4,0-0.6v-0.1c0-0.1,0-0.2,0-0.3s0-0.3,0-0.4c0-0.1,0-0.3,0-0.4c0-0.1,0-0.3,0-0.4s0-0.2,0-0.2c0-0.1,0-0.2,0-0.3
			c-1-12.8-3.1-39.7-4.3-45.2c-1.6-7.3-7.7-21.3-16.9-27.9c-9.2-6.6-12.2-10.2-23-10.2c-10.8,0-25.4,6.4-34.6,21.4
			c-8,13-17.1,55.8-19.4,66.8c0,0,0,0,0,0.1c0,0.2-0.1,0.3-0.1,0.4v0.1c-0.1,0.3-0.1,0.6-0.2,0.8v0.1c0,0.1,0,0.1,0,0.2
			s0,0.2-0.1,0.3l0,0c0,0.1,0,0.1,0,0.2v0.1c0,0.1,0,0.2-0.1,0.3l0,0c0,0,32.7-3.2,50.6-3.2S304.8,187.1,304.8,187.1z"/>
	</g>
	<g>
		<path fill="#FFFFFF" d="M330.387,348.118h30.83v-12.236h-26.045v-5.4h26.045v-12.339c-8.636,0.342-17.409,0.627-26.318,0.854
			c-0.273-1.914-0.615-3.782-1.025-5.605c23.288-0.364,42.178-1.185,56.67-2.461l0.889,5.605
			c-8.021,0.502-16.179,0.945-24.473,1.333v12.612h24.814v5.4h-24.814v12.236h30.693v5.4h-30.693v12.578
			c0,5.537-2.826,8.34-8.477,8.408c-2.871,0-6.859-0.023-11.963-0.068c-0.228-2.097-0.593-4.17-1.094-6.221
			c5.104,0.364,8.955,0.547,11.553,0.547c2.825,0,4.238-1.527,4.238-4.58v-10.664h-30.83V348.118z"/>
		<path fill="#FFFFFF" d="M414.605,337.591l1.914-1.914c3.235,2.917,6.084,5.583,8.545,7.998l-3.623,3.76
			c-1.687-1.959-3.965-4.443-6.836-7.451v35.752h-4.717v-35.479c-2.233,7.064-4.877,12.897-7.93,17.5
			c-0.593-1.959-1.322-3.965-2.188-6.016c4.739-7.474,8.089-15.563,10.049-24.268h-9.57v-4.58h9.639v-13.535h4.717v13.535h8.887
			v4.58h-8.887V337.591z M456.031,359.261c-2.963-4.146-6.518-8.636-10.664-13.467c-2.37,6.198-6.176,11.621-11.416,16.27
			c-0.775-1.048-1.641-2.142-2.598-3.281v16.748h-5.195v-46.826h16.953c0.045-2.962,0.091-6.448,0.137-10.459h-19.482v-4.785h43.887
			v4.785h-19.141c-0.046,3.691-0.114,7.178-0.205,10.459h17.158v38.76c0,4.876-2.393,7.337-7.178,7.383
			c-2.598,0.045-6.016,0.022-10.254-0.068c-0.229-1.459-0.57-3.145-1.025-5.059c3.965,0.318,6.995,0.455,9.092,0.41
			c2.779,0,4.17-1.162,4.17-3.486v-11.006L456.031,359.261z M431.354,356.868c6.836-5.97,10.687-13.899,11.553-23.789h-11.553
			V356.868z M447.008,340.188c4.329,4.648,8.75,9.707,13.262,15.176v-22.285h-12.168
			C447.919,335.586,447.555,337.956,447.008,340.188z"/>
		<path fill="#FFFFFF" d="M538.062,365.208c-1.275,1.549-2.553,3.235-3.828,5.059c-12.008-5.992-21.236-13.74-27.686-23.242v28.574
			h-5.331v-28.506c-6.928,9.184-16.179,17.182-27.754,23.994c-0.866-1.23-2.097-2.758-3.691-4.58
			c12.373-6.494,22.148-14.31,29.326-23.447h-28.232v-5.059h30.352v-12.852h-26.318v-5.059h26.318v-11.689h5.331v11.689h26.592
			v5.059h-26.592v12.852h30.352v5.059h-28.438C515.8,352.858,525.665,360.241,538.062,365.208z"/>
		<path fill="#FFFFFF" d="M567.866,368.968l14.014,0.342l26.113-0.615c-0.775,1.822-1.527,3.577-2.256,5.264l-23.721,0.273
			l-14.766-0.342c-7.338-0.092-12.828-2.689-16.475-7.793c-1.322,1.048-3.988,3.965-7.998,8.75l-2.939-5.811
			c2.848-2.574,5.674-5.059,8.477-7.451v-23.857h-7.793v-4.99h13.125v29.839C556.974,366.632,561.714,368.763,567.866,368.968z
			 M548.247,309.7c3.145,3.965,6.176,8.044,9.092,12.236l-4.854,3.418c-2.689-4.283-5.561-8.521-8.613-12.715L548.247,309.7z
			 M559.116,351.399h22.969v-9.502h-19.893v-4.854c2.779-4.854,5.309-10.003,7.588-15.449h-9.844v-4.785h11.758
			c1.094-2.871,2.119-5.811,3.076-8.818l5.742,1.23c-0.98,2.575-1.982,5.104-3.008,7.588h27.959v4.785h-29.941
			c-2.324,5.424-4.717,10.596-7.178,15.518h13.74v-11.826h5.469v11.826h17.5v4.785h-17.5v9.502h19.414v4.785h-19.414v11.279h-5.469
			v-11.279h-22.969V351.399z"/>
		<path fill="#FFFFFF" d="M609.976,345.11c3.236-0.889,6.381-1.789,9.434-2.7v-15.62h-8.613v-4.922h8.613v-12.783h5.059v12.783
			h7.861v4.922h-7.861v14.048c2.164-0.684,4.283-1.378,6.357-2.085c0.045,2.051,0.182,3.828,0.41,5.332
			c-2.348,0.752-4.604,1.492-6.768,2.222v21.089c0,4.922-2.211,7.405-6.631,7.451c-1.686,0.045-3.828,0.022-6.426-0.068
			c-0.182-1.869-0.455-3.76-0.82-5.674c2.734,0.273,4.672,0.41,5.811,0.41c2.006,0,3.008-1.208,3.008-3.623v-17.91
			c-3.121,1.049-6.039,2.051-8.75,3.008L609.976,345.11z M628.569,370.608c8.887-1.299,16.121-3.441,21.705-6.426
			c-4.262-1.914-8.83-3.919-13.707-6.016c1.959-2.529,3.771-5.059,5.436-7.588h-11.246v-4.58h14.117
			c1.457-2.461,2.791-4.922,3.998-7.383l5.059,2.119c-1.094,1.823-2.176,3.578-3.246,5.264h26.283v4.58h-8.988
			c-1.801,5.014-4.467,9.24-7.998,12.681c5.811,2.415,11.449,4.819,16.918,7.212l-3.008,5.059
			c-5.127-2.712-11.166-5.674-18.115-8.887c-6.107,4.146-14.311,7.2-24.609,9.16C630.528,374.3,629.663,372.567,628.569,370.608z
			 M630.962,333.011h26.627c2.893-4.01,5.457-7.77,7.689-11.279l5.127,2.803c-2.369,2.849-4.773,5.674-7.211,8.477h14.252v4.58
			h-46.484V333.011z M633.628,316.399h19.313c-1.072-2.073-2.199-4.124-3.385-6.152l4.58-2.119c1.459,2.461,2.848,4.945,4.17,7.451
			l-1.742,0.82h19.242v4.58h-42.178V316.399z M639.78,324.466l3.965-2.666c2.143,2.507,4.215,5.15,6.221,7.93l-4.375,2.939
			C643.858,329.844,641.923,327.109,639.78,324.466z M643.677,356.663c3.805,1.504,7.531,3.008,11.178,4.512
			c3.576-2.894,6.117-6.426,7.621-10.596h-14.73C646.354,352.698,644.999,354.727,643.677,356.663z"/>
	</g>
	<g>
		<path fill="#FFFFFF" d="M377.34,461.866c-4.258-4.975-6.387-11.102-6.387-18.379c0-7.592,2.161-13.842,6.484-18.75h2.051
			c-4.401,5.064-6.602,11.301-6.602,18.711c0,6.992,2.174,13.131,6.523,18.418H377.34z"/>
		<path fill="#FFFFFF" d="M385.328,445.187l-0.371-2.188c0.729-0.209,1.842-0.535,3.34-0.977c0.938-0.273,1.641-0.482,2.109-0.625
			v-9.492h-5v-1.914h5v-7.637h2.07v7.637h4.199v1.914h-4.199v8.848c0.364-0.117,0.931-0.301,1.699-0.547
			c1.133-0.352,1.979-0.625,2.539-0.82c0,0.768,0.059,1.465,0.176,2.09c-0.547,0.156-1.374,0.41-2.48,0.762
			c-0.859,0.26-1.504,0.455-1.934,0.586v12.695c0.117,2.461-1.068,3.711-3.555,3.75c-0.938,0.051-1.927,0.078-2.969,0.078
			c-0.104-0.809-0.234-1.551-0.391-2.227c0.794,0.078,1.771,0.117,2.93,0.117c1.328,0.051,1.966-0.535,1.914-1.758v-11.973
			C388.153,444.249,386.461,444.808,385.328,445.187z M398.277,439.229h5.957c1.016-2.215,1.927-4.467,2.734-6.758l2.148,0.645
			c-0.078,0.168-0.189,0.43-0.332,0.781c-1.003,2.383-1.771,4.16-2.305,5.332h16.113v1.953h-4.824
			c-1.237,4.518-3.171,8.066-5.801,10.645c3.45,1.875,6.914,3.781,10.391,5.723l-1.406,1.875c-4.714-2.826-8.229-4.877-10.547-6.152
			c-3.112,2.539-7.728,4.727-13.848,6.563c-0.248-0.508-0.658-1.191-1.23-2.051c5.729-1.445,10.098-3.309,13.105-5.586
			c-2.5-1.42-5.326-2.969-8.477-4.648c1.055-1.668,2.188-3.789,3.398-6.367h-5.078V439.229z M407.652,423.155l1.875-0.84
			c0.911,1.549,1.816,3.203,2.715,4.961l-1.719,0.762h11.191v6.426h-2.031v-4.473h-18.672v4.473h-2.051v-6.426h11.25
			C409.611,426.749,408.759,425.12,407.652,423.155z M402.73,446.905c0.664,0.363,1.699,0.918,3.105,1.66
			c1.861,0.977,3.274,1.73,4.238,2.266c2.564-2.371,4.395-5.586,5.488-9.648h-10C404.638,443.161,403.693,445.069,402.73,446.905z"
			/>
		<path fill="#FFFFFF" d="M425.797,443.233c-0.3-0.848-0.619-1.648-0.957-2.402c3.919-5.352,7.051-11.473,9.395-18.359l2.168,0.684
			c-1.198,3.203-2.409,6.055-3.633,8.555v28.164h-2.09v-24.16C429,438.683,427.372,441.188,425.797,443.233z M437.652,455.558
			h11.543v-13.281h-12.227v-2.051h12.227v-12.637c-3.242,0.234-6.706,0.449-10.391,0.645c-0.053-0.73-0.156-1.414-0.313-2.051
			c8.242-0.379,15.677-0.938,22.305-1.68l0.449,2.09c-3.607,0.363-6.901,0.645-9.883,0.84v12.793h11.563v2.051h-11.563v13.281
			h10.996v1.992h-24.707V455.558z"/>
		<path fill="#FFFFFF" d="M469.449,450.753l1.914,0.918c-1.654,2.643-3.132,4.83-4.434,6.563c-0.625-0.457-1.244-0.859-1.855-1.211
			C466.559,455.251,468.017,453.161,469.449,450.753z M482.125,422.511l1.992-0.488c0.416,1.211,0.846,2.52,1.289,3.926h14.668
			v1.719h-7.793l1.484,0.762c-0.053,0.064-0.144,0.176-0.273,0.332c-1.146,1.432-2.031,2.492-2.656,3.184h11.68v1.719h-37.305
			v-1.719h11.543c-1.042-1.289-1.986-2.436-2.832-3.438l1.152-0.84h-7.422v-1.719h15.586
			C483.029,425.206,482.658,424.06,482.125,422.511z M470.25,436.632h26.953v11.68H470.25V436.632z M472.32,438.351v3.242h22.793
			v-3.242H472.32z M472.32,443.272v3.32h22.793v-3.32H472.32z M474.645,450.382h2.07v3.496c-0.014,1.223,0.201,2.018,0.645,2.383
			c0.403,0.391,1.295,0.578,2.676,0.566h7.617c2.227,0.117,3.502-0.625,3.828-2.227c0.234-0.912,0.462-1.992,0.684-3.242
			c0.521,0.246,1.185,0.5,1.992,0.762c-0.234,1.354-0.502,2.461-0.801,3.32c-0.573,2.227-2.305,3.301-5.195,3.223h-8.711
			c-1.836,0.012-3.093-0.313-3.77-0.977c-0.703-0.639-1.049-1.816-1.035-3.535V450.382z M478.766,431.104l-1.289,0.84h10.918
			c0.95-1.133,2.031-2.559,3.242-4.277h-15.84C477.047,429.06,478.036,430.206,478.766,431.104z M481.207,450.147l1.523-1.27
			c1.797,1.652,3.274,3.053,4.434,4.199l-1.641,1.387C484.572,453.448,483.134,452.009,481.207,450.147z M496.715,451.476
			l1.68-1.133c1.419,1.719,2.916,3.625,4.492,5.723l-1.797,1.25C499.801,455.479,498.342,453.532,496.715,451.476z"/>
		<path fill="#FFFFFF" d="M505.874,436.026c-0.324-0.457-0.748-0.977-1.27-1.563c2.137-3.309,3.789-7.422,4.961-12.344l1.914,0.391
			c-0.664,2.383-1.25,4.25-1.758,5.605h5.527v1.719h-6.211C508.14,432.034,507.085,434.099,505.874,436.026z M505.073,441.788h4.199
			v-5.234h-2.031v-1.68h7.363v1.68h-3.438v5.234h4.551v1.719h-4.551v10c1.316-1.277,2.605-2.566,3.867-3.867
			c0.365,0.793,0.672,1.393,0.918,1.797c-1.197,1.094-2.818,2.648-4.863,4.668c-0.299,0.299-0.742,0.807-1.328,1.523l-1.367-1.309
			c0.613-0.717,0.906-1.518,0.879-2.402v-10.41h-4.199V441.788z M531.675,458.155c-5.715-0.223-9.596-1.688-11.641-4.395
			c-0.949,1.77-2.375,3.756-4.277,5.957c-0.338-0.391-0.859-0.859-1.563-1.406c2.293-2.527,3.842-4.662,4.648-6.406
			c-1.016-1.824-1.979-4.434-2.891-7.832l1.738-0.605c0.664,2.512,1.367,4.57,2.109,6.172c0.809-2.162,1.381-5.443,1.719-9.844
			h-5.039v-1.973l5.527-10.273h-5.566v-1.758h7.52v1.953l-5.469,10.293h4.863v1.758c-0.402,5.168-1.184,9.141-2.344,11.914
			c1.758,2.916,5.438,4.439,11.035,4.57c1.889,0.09,3.926,0.137,6.113,0.137c1.264,0,2.787-0.02,4.57-0.059
			c-0.299,0.625-0.539,1.289-0.723,1.992C537.933,458.337,534.487,458.272,531.675,458.155z M526.011,427.745v-1.68h5.195v-3.867
			h1.875v3.867h6.875v5.449h2.598v1.719h-2.598v5.566h-6.875v4.023h7.285v1.68h-7.285v3.887h8.164v1.719h-8.164v4.316h-1.875v-4.316
			h-6.797v-1.719h6.797v-3.887h-5.879v-1.68h5.879V438.8h-5.195v-1.68h5.195v-3.887h-7.09v-1.719h7.09v-3.77H526.011z
			 M538.12,427.745h-5.039v3.77h5.039V427.745z M533.081,433.233v3.887h5.039v-3.887H533.081z"/>
		<path fill="#FFFFFF" d="M547.163,425.108h34.16v2.129h-8.008v12.266h9.688v2.168h-9.688v18.008h-2.227v-18.008h-13.242
			c0.027,0.48,0.039,0.977,0.039,1.484c0,7.76-3.41,13.359-10.234,16.797c-0.494-0.691-1.027-1.355-1.602-1.992
			c3.855-2.148,6.381-4.305,7.578-6.465c1.328-2.137,2-5.41,2.012-9.824h-10.195v-2.168h10.195v-12.266h-8.477V425.108z
			 M557.886,427.237v12.266h13.203v-12.266H557.886z"/>
		<path fill="#FFFFFF" d="M600.073,453.839l-1.543,1.68c-1.797-1.668-3.346-3.08-4.648-4.238c-1.613,2.473-4.146,5.148-7.598,8.027
			c-0.313-0.404-0.82-0.965-1.523-1.68c3.398-2.734,5.906-5.332,7.52-7.793c-0.949-0.848-2.441-2.137-4.473-3.867
			c-0.586-0.508-1.027-0.887-1.328-1.133c0.951-3.516,1.83-7.586,2.637-12.207h-4.199v-1.953h4.531
			c0.469-3.061,0.867-5.834,1.191-8.32l2.207,0.234c-0.508,3.307-0.949,6.002-1.328,8.086h7.402v2.031
			c-0.625,7.682-1.934,13.254-3.926,16.719C596.259,450.479,597.952,451.95,600.073,453.839z M596.851,432.628h-5.645
			c-0.832,4.492-1.672,8.359-2.52,11.602c0.223,0.182,0.547,0.449,0.977,0.801c1.59,1.289,2.807,2.291,3.652,3.008
			C595.165,444.69,596.343,439.554,596.851,432.628z M603.569,435.753c1.043-0.039,2.715-0.111,5.02-0.215
			c2.969-0.131,6.094-0.248,9.375-0.352c-1.223-2.059-2.492-4.109-3.809-6.152l1.719-1.074c2.227,3.229,4.5,6.895,6.816,10.996
			l-1.973,1.113c-0.586-1.094-1.133-2.078-1.641-2.949c-3.879,0.078-8.678,0.26-14.395,0.547c-0.117,0.012-0.299,0.025-0.547,0.039
			c-1.301,0.064-2.227,0.176-2.773,0.332l-1.152-2.129c0.938-0.613,1.816-1.504,2.637-2.676c2.422-3.398,4.584-7.09,6.484-11.074
			l2.188,0.801C608.784,427.751,606.136,432.015,603.569,435.753z M602.202,443.077h17.715v16.797h-2.07v-2.676h-13.574v2.676h-2.07
			V443.077z M604.272,444.952v10.352h13.574v-10.352H604.272z"/>
		<path fill="#FFFFFF" d="M630.425,461.866h-2.07c4.35-5.287,6.523-11.426,6.523-18.418c0-7.41-2.199-13.646-6.602-18.711h2.07
			c4.311,4.934,6.465,11.184,6.465,18.75C636.812,450.792,634.683,456.917,630.425,461.866z"/>
	</g>
</g>
<g id="Layer_2">
	<g>
		<path fill="#E6E6E6" d="M352.99,646.729c1.927,1.394,4.004,2.09,6.23,2.09c2.981,0,4.473-0.977,4.473-2.93
			c0-0.833-0.325-1.521-0.977-2.061s-1.973-1.182-3.965-1.924c-2.396-0.964-3.952-1.917-4.668-2.861
			c-0.716-0.944-1.074-2.087-1.074-3.428c0-1.914,0.811-3.447,2.432-4.6s3.616-1.729,5.986-1.729c1.836,0,3.542,0.319,5.117,0.957
			v3.691c-1.614-1.042-3.444-1.563-5.488-1.563c-1.224,0-2.22,0.267-2.988,0.801c-0.769,0.534-1.152,1.237-1.152,2.109
			c0,0.859,0.276,1.53,0.83,2.012c0.553,0.481,1.78,1.101,3.682,1.855c2.409,0.898,4.036,1.829,4.883,2.793s1.27,2.155,1.27,3.574
			c0,1.979-0.811,3.538-2.432,4.678s-3.721,1.709-6.299,1.709c-2.24,0-4.193-0.423-5.859-1.27V646.729z"/>
		<path fill="#E6E6E6" d="M380.545,648.35v3.047h-3.828v-31.973h3.828v14.102h0.078c1.692-2.825,4.167-4.238,7.422-4.238
			c2.708,0,4.86,0.954,6.455,2.861s2.393,4.515,2.393,7.822c0,3.646-0.896,6.546-2.686,8.701s-4.177,3.232-7.158,3.232
			c-2.813,0-4.954-1.185-6.426-3.555H380.545z M380.525,642.51c0,1.745,0.566,3.22,1.699,4.424s2.552,1.807,4.258,1.807
			c2.031,0,3.62-0.781,4.766-2.344s1.719-3.724,1.719-6.484c0-2.278-0.534-4.092-1.602-5.439s-2.526-2.021-4.375-2.021
			c-1.875,0-3.421,0.671-4.639,2.012s-1.826,3.047-1.826,5.117V642.51z"/>
		<path fill="#E6E6E6" d="M405.17,649.385c0-0.703,0.241-1.296,0.723-1.777s1.081-0.723,1.797-0.723
			c0.729,0,1.335,0.244,1.816,0.732s0.723,1.077,0.723,1.768c0,0.677-0.241,1.26-0.723,1.748s-1.094,0.732-1.836,0.732
			c-0.716,0-1.312-0.244-1.787-0.732S405.17,650.062,405.17,649.385z"/>
		<path fill="#E6E6E6" d="M423.721,648.35v12.988h-3.828v-31.543h3.828v3.73h0.078c1.692-2.825,4.167-4.238,7.422-4.238
			c2.761,0,4.925,0.967,6.494,2.9s2.354,4.528,2.354,7.783c0,3.594-0.889,6.481-2.666,8.662s-4.17,3.271-7.178,3.271
			c-2.773,0-4.915-1.185-6.426-3.555H423.721z M423.701,642.49c0,1.758,0.566,3.239,1.699,4.443s2.552,1.807,4.258,1.807
			c2.031,0,3.62-0.781,4.766-2.344s1.719-3.724,1.719-6.484c0-2.331-0.534-4.157-1.602-5.479s-2.526-1.982-4.375-1.982
			c-1.888,0-3.438,0.671-4.648,2.012s-1.816,3.06-1.816,5.156V642.49z"/>
		<path fill="#E6E6E6" d="M449.42,651.396v-31.973h3.828v31.973H449.42z"/>
		<path fill="#E6E6E6" d="M481.916,651.396h-3.848v-3.398h-0.078c-1.445,2.604-3.665,3.906-6.66,3.906
			c-5.117,0-7.676-3.06-7.676-9.18v-12.93h3.789v12.363c0,4.388,1.68,6.582,5.039,6.582c1.667,0,3.015-0.615,4.043-1.846
			s1.543-2.783,1.543-4.658v-12.441h3.848V651.396z"/>
		<path fill="#E6E6E6" d="M491.521,646.729c1.927,1.394,4.004,2.09,6.23,2.09c2.981,0,4.473-0.977,4.473-2.93
			c0-0.833-0.325-1.521-0.977-2.061s-1.973-1.182-3.965-1.924c-2.396-0.964-3.952-1.917-4.668-2.861s-1.074-2.087-1.074-3.428
			c0-1.914,0.811-3.447,2.432-4.6s3.616-1.729,5.986-1.729c1.836,0,3.542,0.319,5.117,0.957v3.691
			c-1.614-1.042-3.444-1.563-5.488-1.563c-1.224,0-2.22,0.267-2.988,0.801s-1.152,1.237-1.152,2.109c0,0.859,0.276,1.53,0.83,2.012
			s1.78,1.101,3.682,1.855c2.409,0.898,4.036,1.829,4.883,2.793s1.27,2.155,1.27,3.574c0,1.979-0.811,3.538-2.432,4.678
			s-3.721,1.709-6.299,1.709c-2.239,0-4.192-0.423-5.859-1.27V646.729z"/>
		<path fill="#E6E6E6" d="M514.779,622.178c0-0.677,0.231-1.247,0.693-1.709s1.032-0.693,1.709-0.693
			c0.69,0,1.272,0.228,1.748,0.684s0.713,1.028,0.713,1.719c0,0.677-0.237,1.24-0.713,1.689s-1.058,0.674-1.748,0.674
			s-1.263-0.225-1.719-0.674S514.779,622.854,514.779,622.178z M515.229,651.396v-21.602h3.828v21.602H515.229z"/>
		<path fill="#E6E6E6" d="M529.424,622.178c0-0.677,0.231-1.247,0.693-1.709s1.032-0.693,1.709-0.693
			c0.69,0,1.272,0.228,1.748,0.684s0.713,1.028,0.713,1.719c0,0.677-0.237,1.24-0.713,1.689s-1.058,0.674-1.748,0.674
			s-1.263-0.225-1.719-0.674S529.424,622.854,529.424,622.178z M529.873,651.396v-21.602h3.828v21.602H529.873z"/>
		<path fill="#E6E6E6" d="M543.443,649.385c0-0.703,0.241-1.296,0.723-1.777s1.081-0.723,1.797-0.723
			c0.729,0,1.335,0.244,1.816,0.732s0.723,1.077,0.723,1.768c0,0.677-0.241,1.26-0.723,1.748s-1.094,0.732-1.836,0.732
			c-0.716,0-1.312-0.244-1.787-0.732S543.443,650.062,543.443,649.385z"/>
		<path fill="#E6E6E6" d="M573.088,650.42c-1.653,0.989-3.646,1.484-5.977,1.484c-3.125,0-5.638-1.003-7.539-3.008
			s-2.852-4.603-2.852-7.793c0-3.542,1.025-6.396,3.076-8.564s4.795-3.252,8.232-3.252c1.979,0,3.672,0.352,5.078,1.055v3.789
			c-1.523-1.12-3.216-1.68-5.078-1.68c-2.188,0-3.968,0.759-5.342,2.275s-2.061,3.538-2.061,6.064c0,2.487,0.647,4.434,1.943,5.84
			s3.044,2.109,5.244,2.109c1.862,0,3.62-0.612,5.273-1.836V650.42z"/>
		<path fill="#E6E6E6" d="M580.779,640.83c0-3.567,0.996-6.384,2.988-8.447s4.694-3.096,8.105-3.096
			c3.242,0,5.784,0.993,7.627,2.979s2.764,4.729,2.764,8.232c0,3.411-0.983,6.165-2.949,8.262s-4.603,3.145-7.91,3.145
			c-3.229,0-5.808-1.016-7.734-3.047S580.779,644.15,580.779,640.83z M584.686,640.713c0,2.487,0.628,4.446,1.885,5.879
			s2.946,2.148,5.068,2.148c2.188,0,3.854-0.7,5-2.1s1.719-3.408,1.719-6.025c0-2.63-0.573-4.648-1.719-6.055s-2.813-2.109-5-2.109
			c-2.148,0-3.845,0.735-5.088,2.207S584.686,638.147,584.686,640.713z"/>
		<path fill="#E6E6E6" d="M642.748,651.396h-3.828v-12.402c0-2.344-0.364-4.021-1.094-5.029s-1.927-1.514-3.594-1.514
			c-1.406,0-2.61,0.657-3.613,1.973s-1.504,2.871-1.504,4.668v12.305h-3.828v-12.793c0-4.102-1.582-6.152-4.746-6.152
			c-1.458,0-2.666,0.625-3.623,1.875s-1.436,2.845-1.436,4.785v12.285h-3.828v-21.602h3.828v3.418h0.078
			c1.536-2.617,3.782-3.926,6.738-3.926c1.445,0,2.722,0.397,3.828,1.191s1.875,1.868,2.305,3.223
			c1.602-2.942,3.997-4.414,7.188-4.414c4.753,0,7.129,2.93,7.129,8.789V651.396z"/>
	</g>
</g>
</svg>
