<?xml version="1.0" encoding="utf-8"?>
<!-- Generator: Adobe Illustrator 16.0.0, SVG Export Plug-In . SVG Version: 6.00 Build 0)  -->
<!DOCTYPE svg PUBLIC "-//W3C//DTD SVG 1.1//EN" "http://www.w3.org/Graphics/SVG/1.1/DTD/svg11.dtd">
<svg version="1.1" id="Layer_1" xmlns="http://www.w3.org/2000/svg" xmlns:xlink="http://www.w3.org/1999/xlink" x="0px" y="0px"
	 width="178.526px" height="104.026px" viewBox="-870.018 488.984 178.526 104.026"
	 enable-background="new -870.018 488.984 178.526 104.026" xml:space="preserve">
<g>
	<g>
		<path fill="#C1272D" d="M-745.5,509.6c1.4-2,1.2-2.898,1.2-2.898s0.2-0.9-1.2-2.9c-1.399-2-15-13.6-15.7-14
			c-0.699-0.398-28.5-2.2-31.399,1.3c-2.9,3.5-2.601,15.602-2.601,15.602s-0.3,12.1,2.601,15.6c2.899,3.5,30.7,1.7,31.399,1.3
			C-760.5,523.2-746.9,511.6-745.5,509.6z"/>
		<path opacity="0.25" enable-background="new    " d="M-745.5,509.6c1.4-2,1.2-2.898,1.2-2.898s0.2-0.9-1.2-2.9
			c-0.899-1.3-6.899-6.6-11.2-10.3c-2.1,3.9-3.399,8.4-3.399,13.2s1.2,9.3,3.399,13.2C-752.4,516.2-746.4,510.901-745.5,509.6z"/>
	</g>
</g>
<g>
	<path fill="#C1272D" d="M-849.4,490.3c-2-1.398-2.9-1.2-2.9-1.2s-0.9-0.198-2.9,1.2c-2,1.4-13.6,15-14,15.7
		c-0.399,0.7-2.199,28.5,1.301,31.4c3.5,2.898,15.6,2.6,15.6,2.6s12.1,0.3,15.6-2.6c3.5-2.9,1.7-30.7,1.3-31.4
		C-835.8,505.2-847.4,491.6-849.4,490.3z"/>
	<path opacity="0.25" enable-background="new    " d="M-849.4,490.3c-2-1.398-2.9-1.2-2.9-1.2s-0.9-0.198-2.9,1.2
		c-1.3,0.9-6.6,6.9-10.3,11.2c3.9,2.1,8.4,3.4,13.2,3.4s9.3-1.2,13.2-3.4C-842.8,497.1-848.1,491.1-849.4,490.3z"/>
</g>
<g>
	<path fill="#C1272D" d="M-817.8,538.8c2,1.4,2.9,1.2,2.9,1.2s0.899,0.2,2.899-1.2c2-1.398,13.601-15,14-15.7
		c0.4-0.698,2.2-28.5-1.3-31.398c-3.5-2.9-15.6-2.602-15.6-2.602s-12.101-0.3-15.601,2.602c-3.5,2.898-1.699,30.7-1.3,31.398
		C-831.4,523.8-819.8,537.401-817.8,538.8z"/>
	<path opacity="0.25" enable-background="new    " d="M-817.8,538.8c2,1.4,2.9,1.2,2.9,1.2s0.899,0.2,2.899-1.2
		c1.3-0.898,6.601-6.898,10.3-11.2c-3.899-2.1-8.399-3.398-13.199-3.398c-4.801,0-9.301,1.2-13.2,3.398
		C-824.4,531.901-819.1,537.901-817.8,538.8z"/>
</g>
<g>
	<path fill="#C1272D" d="M-694.1,491.3c-2.9-3.5-30.7-1.7-31.4-1.3s-14.3,12-15.7,14c-1.399,2-1.199,2.9-1.199,2.9
		s-0.2,0.898,1.199,2.898c1.4,2,15,13.602,15.7,14c0.7,0.4,28.5,2.2,31.4-1.3c2.899-3.5,2.6-15.6,2.6-15.6S-691.3,494.8-694.1,491.3
		z"/>
	<path opacity="0.25" enable-background="new    " d="M-730,493.7c-4.3,3.7-10.3,9-11.2,10.3c-1.399,2-1.199,2.9-1.199,2.9
		s-0.2,0.898,1.199,2.898c0.9,1.3,6.9,6.602,11.2,10.3c2.101-3.898,3.4-8.398,3.4-13.198C-726.6,502.1-727.9,497.6-730,493.7z"/>
</g>
<g>
	<path fill="#3ED8D2" d="M-745.5,562.6c1.4-2,1.2-2.898,1.2-2.898s0.2-0.9-1.2-2.9c-1.399-2-15-13.6-15.7-14
		c-0.699-0.399-28.5-2.2-31.399,1.3c-2.9,3.5-2.601,15.602-2.601,15.602s-0.3,12.1,2.601,15.6c2.899,3.5,30.7,1.7,31.399,1.3
		C-760.5,576.2-746.9,564.6-745.5,562.6z"/>
	<path opacity="0.25" fill="#FFFFFF" enable-background="new    " d="M-745.5,562.6c1.4-2,1.2-2.898,1.2-2.898s0.2-0.9-1.2-2.9
		c-0.899-1.3-6.899-6.6-11.2-10.3c-2.1,3.9-3.399,8.4-3.399,13.2s1.2,9.3,3.399,13.2C-752.4,569.2-746.4,563.901-745.5,562.6z"/>
</g>
<g>
	<path fill="#3ED8D2" d="M-849.4,543.3c-2-1.398-2.9-1.2-2.9-1.2s-0.9-0.198-2.9,1.2c-2,1.4-13.6,15-14,15.7
		c-0.399,0.7-2.199,28.5,1.301,31.4c3.5,2.898,15.6,2.6,15.6,2.6s12.1,0.3,15.6-2.6c3.5-2.9,1.7-30.7,1.3-31.4
		C-835.8,558.2-847.4,544.6-849.4,543.3z"/>
	<path opacity="0.25" fill="#FFFFFF" enable-background="new    " d="M-849.4,543.3c-2-1.398-2.9-1.2-2.9-1.2s-0.9-0.198-2.9,1.2
		c-1.3,0.9-6.6,6.9-10.3,11.2c3.9,2.1,8.4,3.4,13.2,3.4s9.3-1.2,13.2-3.4C-842.8,550.1-848.1,544.1-849.4,543.3z"/>
</g>
<g>
	<path fill="#3ED8D2" d="M-817.8,591.8c2,1.4,2.9,1.2,2.9,1.2s0.899,0.2,2.899-1.2c2-1.398,13.601-15,14-15.7
		c0.4-0.698,2.2-28.5-1.3-31.398c-3.5-2.9-15.6-2.602-15.6-2.602s-12.101-0.3-15.601,2.602c-3.5,2.898-1.699,30.7-1.3,31.398
		C-831.4,576.8-819.8,590.401-817.8,591.8z"/>
	<path opacity="0.25" fill="#FFFFFF" enable-background="new    " d="M-817.8,591.8c2,1.4,2.9,1.2,2.9,1.2s0.899,0.2,2.899-1.2
		c1.3-0.898,6.601-6.898,10.3-11.2c-3.899-2.1-8.399-3.398-13.199-3.398c-4.801,0-9.301,1.2-13.2,3.398
		C-824.4,584.901-819.1,590.901-817.8,591.8z"/>
</g>
<g>
	<g>
		<path fill="#3ED8D2" d="M-694.1,544.2c-2.9-3.5-30.7-1.7-31.4-1.3c-0.7,0.398-14.3,12-15.7,14c-1.399,2-1.199,2.898-1.199,2.898
			s-0.2,0.9,1.199,2.9c1.4,2,15,13.6,15.7,14c0.7,0.399,28.5,2.2,31.4-1.3c2.899-3.5,2.6-15.602,2.6-15.602
			S-691.3,547.7-694.1,544.2z"/>
		<path opacity="0.25" fill="#FFFFFF" enable-background="new    " d="M-730,546.6c-4.3,3.7-10.3,9-11.2,10.302
			c-1.399,2-1.199,2.898-1.199,2.898s-0.2,0.9,1.199,2.9c0.9,1.3,6.9,6.6,11.2,10.3c2.101-3.9,3.4-8.4,3.4-13.2
			S-727.9,550.5-730,546.6z"/>
	</g>
</g>
</svg>
