<?xml version="1.0" encoding="utf-8"?>
<!-- Generator: Adobe Illustrator 16.0.0, SVG Export Plug-In . SVG Version: 6.00 Build 0)  -->
<!DOCTYPE svg PUBLIC "-//W3C//DTD SVG 1.1//EN" "http://www.w3.org/Graphics/SVG/1.1/DTD/svg11.dtd">
<svg version="1.1" id="Layer_1" xmlns="http://www.w3.org/2000/svg" xmlns:xlink="http://www.w3.org/1999/xlink" x="0px" y="0px"
	 width="224.1px" height="112.398px" viewBox="-847 484.701 224.1 112.398" enable-background="new -847 484.701 224.1 112.398"
	 xml:space="preserve">
<g>
	<g>
		<path fill="#2C2C2C" d="M-819.7,538.3C-834.2,538.3-846,526.5-846,512s11.8-26.299,26.3-26.299S-793.4,497.5-793.4,512
			S-805.2,538.3-819.7,538.3z"/>
		<path fill="#222222" d="M-819.7,486.701c13.9,0,25.3,11.299,25.3,25.299c0,13.9-11.3,25.301-25.3,25.301S-845,525.9-845,512
			S-833.6,486.701-819.7,486.701 M-819.7,484.701c-15,0-27.3,12.199-27.3,27.299c0,15,12.2,27.301,27.3,27.301
			c15.1,0,27.3-12.201,27.3-27.301C-792.5,497-804.7,484.701-819.7,484.701L-819.7,484.701z"/>
	</g>
	<polygon fill="#7CB2E8" points="-805.3,499.599 -807.3,497.599 -819.7,510 -832.1,497.599 -834.1,499.599 -821.7,512 -834.1,524.4 
		-832.1,526.4 -819.7,514 -807.3,526.4 -805.3,524.4 -817.7,512 	"/>
</g>
<g>
	<g>
		<path fill="#2C2C2C" d="M-763.2,538.201c-14.5,0-26.3-11.801-26.3-26.301s11.8-26.301,26.3-26.301S-737,497.5-737,512
			S-748.7,538.201-763.2,538.201z"/>
		<path fill="#222222" d="M-763.2,486.8c13.9,0,25.3,11.299,25.3,25.299s-11.3,25.301-25.3,25.301s-25.3-11.301-25.3-25.301
			S-777.1,486.8-763.2,486.8 M-763.2,484.8c-15,0-27.3,12.199-27.3,27.299c0,15.102,12.2,27.301,27.3,27.301
			c15.1,0,27.2-12.4,27.2-27.4S-748.2,484.8-763.2,484.8L-763.2,484.8z"/>
	</g>
	<path fill="#FF6666" d="M-763.2,493.099c-10.4,0-18.9,8.5-18.9,18.9s8.5,18.9,18.9,18.9c10.4,0,18.9-8.5,18.9-18.9
		S-752.8,493.099-763.2,493.099z M-763.2,528c-8.9,0-16-7.199-16-16c0-8.9,7.2-16,16-16c8.8,0,16,7.201,16,16
		C-747.2,520.9-754.3,528-763.2,528z"/>
</g>
<g>
	<g>
		<path fill="#2C2C2C" d="M-706.7,538.8C-721.2,538.8-733,527-733,512.5s11.8-26.299,26.3-26.299S-680.4,498-680.4,512.5
			S-692.2,538.8-706.7,538.8z"/>
		<path fill="#222222" d="M-706.7,487.4c13.9,0,25.3,11.301,25.3,25.301c0,13.898-11.3,25.299-25.3,25.299s-25.3-11.299-25.3-25.299
			S-720.6,487.4-706.7,487.4 M-706.7,485.4c-15,0-27.3,12.199-27.3,27.301c0,15,12.2,27.299,27.3,27.299
			c15.1,0,27.3-12.199,27.3-27.299C-679.5,497.599-691.7,485.4-706.7,485.4L-706.7,485.4z"/>
	</g>
	<path fill="#FF69F8" d="M-695.2,498.201h-23h-2.8V501v23v2.801h2.8h23h2.8V524v-23v-2.799H-695.2z M-695.2,524.099h-23v-23h23
		V524.099z"/>
</g>
<g>
	<g>
		<g>
			<path fill="#2C2C2C" d="M-650.2,539.5c-14.5,0-26.3-11.799-26.3-26.299s11.8-26.301,26.3-26.301s26.3,11.801,26.3,26.301
				S-635.7,539.5-650.2,539.5z"/>
			<path fill="#222222" d="M-650.2,488c13.9,0,25.3,11.301,25.3,25.301s-11.3,25.299-25.3,25.299s-25.3-11.299-25.3-25.299
				S-664.1,488-650.2,488 M-650.2,486c-15,0-27.3,12.201-27.3,27.301s12.2,27.299,27.3,27.299c15.1,0,27.3-12.199,27.3-27.299
				S-635.2,486-650.2,486L-650.2,486z"/>
		</g>
		<path fill="#40E2A0" d="M-634.2,521.3l-16-27.6l-16,27.6l-1.6,2.799h3.3h14.3h14.3h3.3L-634.2,521.3z M-650.2,521.3h-12.7
			l12.7-21.9l12.7,21.9H-650.2z"/>
	</g>
</g>
<g>
	<g>
		<path fill="#D3D3D3" d="M-819.7,596.099c-14.5,0-26.3-11.799-26.3-26.299s11.8-26.301,26.3-26.301s26.3,11.801,26.3,26.301
			S-805.2,596.099-819.7,596.099z"/>
		<path fill="#DDDDDD" d="M-819.7,544.5c13.9,0,25.3,11.301,25.3,25.301s-11.3,25.299-25.3,25.299S-845,583.8-845,569.8
			S-833.6,544.5-819.7,544.5 M-819.7,542.5c-15,0-27.3,12.201-27.3,27.301s12.2,27.299,27.3,27.299c15.1,0,27.3-12.199,27.3-27.299
			S-804.7,542.5-819.7,542.5L-819.7,542.5z"/>
	</g>
	<polygon fill="#834D17" points="-805.3,557.4 -807.3,555.4 -819.7,567.8 -832.1,555.4 -834.1,557.4 -821.7,569.8 -834.1,582.201 
		-832.1,584.201 -819.7,571.8 -807.3,584.201 -805.3,582.201 -817.7,569.8 	"/>
</g>
<g>
	<g>
		<path fill="#D3D3D3" d="M-763.2,595.9c-14.5,0-26.3-11.801-26.3-26.301s11.8-26.299,26.3-26.299s26.3,11.799,26.3,26.299
			S-748.7,595.9-763.2,595.9z"/>
		<path fill="#DDDDDD" d="M-763.2,544.5c13.9,0,25.3,11.301,25.3,25.301s-11.3,25.299-25.3,25.299s-25.3-11.299-25.3-25.299
			S-777.1,544.5-763.2,544.5 M-763.2,542.5c-15,0-27.3,12.201-27.3,27.301s12.2,27.299,27.3,27.299c15.1,0,27.3-12.199,27.3-27.299
			S-748.2,542.5-763.2,542.5L-763.2,542.5z"/>
	</g>
	<path fill="#009999" d="M-763.2,550.8c-10.4,0-18.9,8.5-18.9,18.9c0,10.398,8.5,18.898,18.9,18.898c10.4,0,18.9-8.5,18.9-18.898
		C-744.3,559.3-752.8,550.8-763.2,550.8z M-763.2,585.701c-8.9,0-16-7.201-16-16c0-8.9,7.2-16,16-16c8.8,0,16,7.199,16,16
		C-747.2,578.599-754.3,585.701-763.2,585.701z"/>
</g>
<g>
	<g>
		<path fill="#D3D3D3" d="M-706.7,595.9c-14.5,0-26.3-11.801-26.3-26.301s11.8-26.299,26.3-26.299s26.3,11.799,26.3,26.299
			S-692.2,595.9-706.7,595.9z"/>
		<path fill="#DDDDDD" d="M-706.7,544.5c13.9,0,25.3,11.301,25.3,25.301s-11.3,25.299-25.3,25.299S-732,583.8-732,569.8
			S-720.6,544.5-706.7,544.5 M-706.7,542.5c-15,0-27.3,12.201-27.3,27.301s12.2,27.299,27.3,27.299c15.1,0,27.3-12.199,27.3-27.299
			S-691.7,542.5-706.7,542.5L-706.7,542.5z"/>
	</g>
	<path fill="#009607" d="M-695.2,555.3h-23h-2.8v2.799v23v2.801h2.8h23h2.8v-2.801v-23V555.3H-695.2z M-695.2,581.201h-23v-23h23
		V581.201z"/>
</g>
<g>
	<g>
		<g>
			<g>
				<path fill="#D3D3D3" d="M-650.2,596c-14.5,0-26.3-11.799-26.3-26.299s11.8-26.301,26.3-26.301s26.3,11.801,26.3,26.301
					S-635.7,596-650.2,596z"/>
				<path fill="#DDDDDD" d="M-650.2,544.5c13.9,0,25.3,11.301,25.3,25.301s-11.3,25.299-25.3,25.299s-25.3-11.299-25.3-25.299
					S-664.1,544.5-650.2,544.5 M-650.2,542.5c-15,0-27.3,12.201-27.3,27.301s12.2,27.299,27.3,27.299
					c15.1,0,27.3-12.199,27.3-27.299S-635.2,542.5-650.2,542.5L-650.2,542.5z"/>
			</g>
			<path fill="#BF1D5F" d="M-634.2,577.701l-16-27.602l-16,27.602l-1.6,2.799h3.3h14.3h14.3h3.3L-634.2,577.701z M-650.2,577.701
				h-12.7l12.7-21.9l12.7,21.9H-650.2z"/>
		</g>
	</g>
</g>
</svg>
