<?xml version="1.0" encoding="utf-8"?>
<!-- Generator: Adobe Illustrator 16.0.0, SVG Export Plug-In . SVG Version: 6.00 Build 0)  -->
<!DOCTYPE svg PUBLIC "-//W3C//DTD SVG 1.1//EN" "http://www.w3.org/Graphics/SVG/1.1/DTD/svg11.dtd">
<svg version="1.1" id="Layer_1" xmlns="http://www.w3.org/2000/svg" xmlns:xlink="http://www.w3.org/1999/xlink" x="0px" y="0px"
	 width="224.1px" height="112.398px" viewBox="0 0 224.1 112.398" enable-background="new 0 0 224.1 112.398" xml:space="preserve">
<g>
	<g>
		<path fill="#2C2C2C" d="M27.3,53.598c-14.5,0-26.3-11.8-26.3-26.3S12.8,1,27.3,1s26.3,11.799,26.3,26.299S41.8,53.598,27.3,53.598
			z"/>
		<path fill="#222222" d="M27.3,2c13.9,0,25.3,11.299,25.3,25.299c0,13.9-11.3,25.301-25.3,25.301S2,41.199,2,27.299S13.4,2,27.3,2
			 M27.3,0C12.3,0,0,12.199,0,27.299c0,15,12.2,27.301,27.3,27.301s27.3-12.201,27.3-27.301C54.5,12.299,42.3,0,27.3,0L27.3,0z"/>
	</g>
	<polygon fill="#7CB2E8" points="41.7,14.897 39.7,12.897 27.3,25.299 14.9,12.897 12.9,14.897 25.3,27.299 12.9,39.699 
		14.9,41.699 27.3,29.299 39.7,41.699 41.7,39.699 29.3,27.299 	"/>
</g>
<g>
	<g>
		<path fill="#2C2C2C" d="M83.8,53.5c-14.5,0-26.3-11.801-26.3-26.301S69.3,0.897,83.8,0.897S110,12.799,110,27.299
			S98.3,53.5,83.8,53.5z"/>
		<path fill="#222222" d="M83.8,2.098c13.9,0,25.3,11.299,25.3,25.299S97.8,52.699,83.8,52.699S58.5,41.397,58.5,27.397
			S69.9,2.098,83.8,2.098 M83.8,0.098c-15,0-27.3,12.199-27.3,27.299c0,15.103,12.2,27.302,27.3,27.302s27.2-12.4,27.2-27.4
			S98.8,0.098,83.8,0.098L83.8,0.098z"/>
	</g>
	<path fill="#FF6666" d="M83.8,8.397c-10.4,0-18.9,8.5-18.9,18.9s8.5,18.9,18.9,18.9s18.9-8.5,18.9-18.9S94.2,8.397,83.8,8.397z
		 M83.8,43.299c-8.9,0-16-7.199-16-16c0-8.9,7.2-16,16-16s16,7.201,16,16C99.8,36.199,92.7,43.299,83.8,43.299z"/>
</g>
<g>
	<g>
		<path fill="#2C2C2C" d="M140.3,54.098c-14.5,0-26.3-11.8-26.3-26.3S125.8,1.5,140.3,1.5s26.3,11.799,26.3,26.299
			S154.8,54.098,140.3,54.098z"/>
		<path fill="#222222" d="M140.3,2.699C154.2,2.699,165.6,14,165.6,28c0,13.897-11.3,25.299-25.3,25.299S115,42,115,28
			S126.4,2.699,140.3,2.699 M140.3,0.699c-15,0-27.3,12.198-27.3,27.301c0,15,12.2,27.299,27.3,27.299S167.6,43.099,167.6,28
			C167.5,12.897,155.3,0.699,140.3,0.699L140.3,0.699z"/>
	</g>
	<path fill="#FF69F8" d="M151.8,13.5h-23H126v2.799v23v2.801h2.8h23h2.8v-2.801v-23V13.5H151.8z M151.8,39.397h-23v-23h23V39.397z"
		/>
</g>
<g>
	<g>
		<g>
			<path fill="#2C2C2C" d="M196.8,54.799c-14.5,0-26.3-11.799-26.3-26.299s11.8-26.301,26.3-26.301S223.1,14,223.1,28.5
				S211.3,54.799,196.8,54.799z"/>
			<path fill="#222222" d="M196.8,3.299c13.9,0,25.3,11.301,25.3,25.301s-11.3,25.299-25.3,25.299s-25.3-11.299-25.3-25.299
				S182.9,3.299,196.8,3.299 M196.8,1.299c-15,0-27.3,12.201-27.3,27.301c0,15.101,12.2,27.299,27.3,27.299s27.3-12.198,27.3-27.299
				C224.1,13.5,211.8,1.299,196.8,1.299L196.8,1.299z"/>
		</g>
		<path fill="#40E2A0" d="M212.8,36.598l-16-27.6l-16,27.6l-1.6,2.799h3.3h14.3h14.3h3.3L212.8,36.598z M196.8,36.598h-12.7
			l12.7-21.899l12.7,21.899H196.8z"/>
	</g>
</g>
<g>
	<g>
		<path fill="#D3D3D3" d="M27.3,111.397C12.8,111.397,1,99.598,1,85.098s11.8-26.301,26.3-26.301s26.3,11.801,26.3,26.301
			S41.8,111.397,27.3,111.397z"/>
		<path fill="#DDDDDD" d="M27.3,59.799c13.9,0,25.3,11.301,25.3,25.301s-11.3,25.299-25.3,25.299S2,99.098,2,85.098
			S13.4,59.799,27.3,59.799 M27.3,57.799C12.3,57.799,0,70,0,85.099c0,15.101,12.2,27.299,27.3,27.299S54.6,100.2,54.6,85.099
			C54.6,70,42.3,57.799,27.3,57.799L27.3,57.799z"/>
	</g>
	<polygon fill="#834D17" points="41.7,72.699 39.7,70.699 27.3,83.098 14.9,70.699 12.9,72.699 25.3,85.098 12.9,97.5 14.9,99.5 
		27.3,87.098 39.7,99.5 41.7,97.5 29.3,85.098 	"/>
</g>
<g>
	<g>
		<path fill="#D3D3D3" d="M83.8,111.199c-14.5,0-26.3-11.802-26.3-26.302s11.8-26.299,26.3-26.299s26.3,11.799,26.3,26.299
			S98.3,111.199,83.8,111.199z"/>
		<path fill="#DDDDDD" d="M83.8,59.799c13.9,0,25.3,11.301,25.3,25.301s-11.3,25.299-25.3,25.299S58.5,99.099,58.5,85.099
			S69.9,59.799,83.8,59.799 M83.8,57.799c-15,0-27.3,12.201-27.3,27.301c0,15.101,12.2,27.299,27.3,27.299s27.3-12.198,27.3-27.299
			C111.1,70,98.8,57.799,83.8,57.799L83.8,57.799z"/>
	</g>
	<path fill="#009999" d="M83.8,66.098c-10.4,0-18.9,8.5-18.9,18.9c0,10.397,8.5,18.897,18.9,18.897s18.9-8.5,18.9-18.897
		C102.7,74.598,94.2,66.098,83.8,66.098z M83.8,101c-8.9,0-16-7.201-16-16c0-8.9,7.2-16,16-16s16,7.199,16,16
		C99.8,93.897,92.7,101,83.8,101z"/>
</g>
<g>
	<g>
		<path fill="#D3D3D3" d="M140.3,111.199c-14.5,0-26.3-11.802-26.3-26.302s11.8-26.299,26.3-26.299s26.3,11.799,26.3,26.299
			S154.8,111.199,140.3,111.199z"/>
		<path fill="#DDDDDD" d="M140.3,59.799c13.9,0,25.3,11.301,25.3,25.301s-11.3,25.299-25.3,25.299s-25.3-11.3-25.3-25.3
			S126.4,59.799,140.3,59.799 M140.3,57.799c-15,0-27.3,12.201-27.3,27.301c0,15.101,12.2,27.299,27.3,27.299
			s27.3-12.198,27.3-27.299C167.6,70,155.3,57.799,140.3,57.799L140.3,57.799z"/>
	</g>
	<path fill="#009607" d="M151.8,70.598h-23H126v2.799v23v2.802h2.8h23h2.8v-2.802v-23v-2.799H151.8z M151.8,96.5h-23v-23h23V96.5z"
		/>
</g>
<g>
	<g>
		<g>
			<g>
				<path fill="#D3D3D3" d="M196.8,111.299c-14.5,0-26.3-11.799-26.3-26.299s11.8-26.301,26.3-26.301S223.1,70.5,223.1,85
					S211.3,111.299,196.8,111.299z"/>
				<path fill="#DDDDDD" d="M196.8,59.799c13.9,0,25.3,11.301,25.3,25.301s-11.3,25.299-25.3,25.299s-25.3-11.299-25.3-25.299
					S182.9,59.799,196.8,59.799 M196.8,57.799c-15,0-27.3,12.201-27.3,27.301c0,15.101,12.2,27.299,27.3,27.299
					s27.3-12.198,27.3-27.299C224.1,70,211.8,57.799,196.8,57.799L196.8,57.799z"/>
			</g>
			<path fill="#BF1D5F" d="M212.8,93l-16-27.603L180.8,93l-1.6,2.799h3.3h14.3h14.3h3.3L212.8,93z M196.8,93h-12.7l12.7-21.9
				L209.5,93H196.8z"/>
		</g>
	</g>
</g>
</svg>
