<?xml version="1.0" encoding="utf-8"?>
<!-- Generator: Adobe Illustrator 16.0.0, SVG Export Plug-In . SVG Version: 6.00 Build 0)  -->
<!DOCTYPE svg PUBLIC "-//W3C//DTD SVG 1.1//EN" "http://www.w3.org/Graphics/SVG/1.1/DTD/svg11.dtd">
<svg version="1.1" id="Layer_1" xmlns="http://www.w3.org/2000/svg" xmlns:xlink="http://www.w3.org/1999/xlink" x="0px" y="0px"
	 width="42.4px" height="42.4px" viewBox="-689.9 522.099 42.4 42.4" enable-background="new -689.9 522.099 42.4 42.4"
	 xml:space="preserve">
<g>
	<g>
		<circle fill="#FAFAFA" cx="-668.7" cy="543.299" r="20.2"/>
		<path fill="#FFFFFF" d="M-668.7,564.5c-11.7,0-21.2-9.5-21.2-21.199c0-11.701,9.5-21.201,21.2-21.201c11.7,0,21.2,9.5,21.2,21.201
			C-647.5,555-657,564.5-668.7,564.5z M-668.7,524.099c-10.6,0-19.2,8.602-19.2,19.201s8.6,19.199,19.2,19.199
			c10.6,0,19.2-8.6,19.2-19.199S-658.1,524.099-668.7,524.099z"/>
	</g>
	<g>
		<g>
			<path fill="#0D0D0D" d="M-667.6,549.9v-2.801v-3.5v-6.5c0-0.5,0.1-0.799,0.3-1c0.1-0.199,0.4-0.299,0.7-0.199
				c0.6,0.199,0.9,0.699,0.9,1.699v6.9c0.8,0.4,1.5,0.5,2.1,0.5s1.2-0.199,1.6-0.5c1-0.699,1.5-1.9,1.5-3.699
				c0-1.9-0.4-3.4-1.2-4.301c-0.8-1-2.1-1.9-4.1-2.6c-1.3-0.4-2.5-0.799-3.6-1.1s-2-0.5-2.9-0.699V544.3l0,0V547l0,0v1.701l0,0v2.5
				l0,0v1.5l4.7,1.5v-3.6l0,0V549.9z"/>
		</g>
		<g>
			<path fill="#0D0D0D" d="M-672.6,548.9l-1.7,0.6l-0.9,0.4l-1.6,0.301l-1.5-0.201c-0.3-0.199-0.4-0.4-0.2-0.6
				c0.1-0.1,0.2-0.1,0.3-0.199c0.1-0.102,0.3-0.102,0.4-0.201l1.1-0.4l4.1-1.5V544.4l-1.7,0.5l-5.5,2l-1,0.4
				c-1.5,0.6-2.2,1.199-2.2,1.799c0.1,0.801,1,1.5,2.7,1.9c0.7,0.201,1.4,0.301,2.1,0.4c0.7,0.1,1.4,0.1,2.2,0.1
				c1,0,2.1-0.1,3.3-0.299V548.9H-672.6z"/>
		</g>
		<g>
			<path fill="#0D0D0D" d="M-656.8,546.599c-0.9-0.299-1.7-0.5-2.5-0.6c-0.8-0.1-1.7-0.199-2.5-0.1c-0.9,0-1.9,0.199-2.8,0.301
				c-0.8,0.199-1.7,0.398-2.6,0.799v2.801l3.9-1.4l1.6-0.5l1.1-0.301h1.4c0.3,0.102,0.6,0.201,0.7,0.4c0,0.201-0.2,0.4-0.8,0.6
				l-1.4,0.5l-6.5,2.4v2.701l3.5-1.301l6.4-2.301l0.7-0.398c1.5-0.5,2.2-1.201,2.2-1.9C-654.4,547.701-655.2,547.099-656.8,546.599z
				"/>
		</g>
	</g>
</g>
</svg>
