<?xml version="1.0" encoding="utf-8"?>
<!-- Generator: Adobe Illustrator 16.0.0, SVG Export Plug-In . SVG Version: 6.00 Build 0)  -->
<!DOCTYPE svg PUBLIC "-//W3C//DTD SVG 1.1//EN" "http://www.w3.org/Graphics/SVG/1.1/DTD/svg11.dtd">
<svg version="1.1" id="Layer_1" xmlns="http://www.w3.org/2000/svg" xmlns:xlink="http://www.w3.org/1999/xlink" x="0px" y="0px"
	 width="42.399px" height="42.4px" viewBox="0 0 42.399 42.4" enable-background="new 0 0 42.399 42.4" xml:space="preserve">
<g>
	<g>
		<circle fill="#FAFAFA" cx="21.199" cy="21.199" r="20.2"/>
		<path fill="#FFFFFF" d="M21.199,42.4C9.5,42.4,0,32.9,0,21.201C0,9.5,9.5,0,21.199,0c11.7,0,21.2,9.5,21.2,21.201
			C42.399,32.9,32.899,42.4,21.199,42.4z M21.199,1.999C10.599,1.999,2,10.601,2,21.2c0,10.6,8.6,19.199,19.199,19.199
			c10.601,0,19.2-8.6,19.2-19.199C40.399,10.601,31.8,1.999,21.199,1.999z"/>
	</g>
	<g>
		<g>
			<path fill="#0D0D0D" d="M22.3,27.801v-2.802v-3.5v-6.5c0-0.5,0.1-0.799,0.3-1c0.1-0.198,0.4-0.299,0.7-0.198
				c0.6,0.198,0.899,0.698,0.899,1.698v6.9c0.801,0.4,1.5,0.5,2.101,0.5c0.6,0,1.2-0.199,1.6-0.5c1-0.699,1.5-1.9,1.5-3.699
				c0-1.899-0.399-3.399-1.2-4.301c-0.8-1-2.1-1.9-4.1-2.6c-1.3-0.4-2.5-0.8-3.6-1.101c-1.101-0.301-2-0.5-2.9-0.698V22.2l0,0v2.7
				l0,0v1.701l0,0v2.5l0,0v1.5l4.7,1.5v-3.601l0,0V27.801z"/>
		</g>
		<g>
			<path fill="#0D0D0D" d="M17.3,26.801l-1.7,0.6l-0.9,0.4l-1.6,0.301l-1.5-0.201c-0.3-0.199-0.4-0.4-0.2-0.6
				c0.101-0.101,0.2-0.101,0.3-0.199c0.101-0.103,0.301-0.103,0.4-0.201l1.1-0.399l4.101-1.5v-2.7l-1.7,0.5l-5.5,2l-1,0.399
				c-1.5,0.601-2.2,1.199-2.2,1.799c0.101,0.802,1,1.5,2.7,1.9c0.7,0.201,1.4,0.301,2.1,0.4c0.7,0.1,1.4,0.1,2.2,0.1
				c1,0,2.101-0.1,3.3-0.299v-2.3H17.3z"/>
		</g>
		<g>
			<path fill="#0D0D0D" d="M33.099,24.499c-0.9-0.299-1.7-0.5-2.5-0.6s-1.7-0.199-2.5-0.1c-0.9,0-1.9,0.198-2.8,0.301
				c-0.8,0.199-1.7,0.397-2.601,0.799V27.7l3.9-1.399l1.6-0.5l1.101-0.302h1.399c0.301,0.103,0.601,0.201,0.7,0.4
				c0,0.201-0.2,0.4-0.8,0.6l-1.4,0.5l-6.5,2.4V32.1l3.5-1.301l6.4-2.302l0.7-0.397c1.5-0.5,2.2-1.201,2.2-1.9
				C35.5,25.601,34.699,24.999,33.099,24.499z"/>
		</g>
	</g>
</g>
</svg>
