<?xml version="1.0" encoding="utf-8"?>
<!-- Generator: Adobe Illustrator 16.0.0, SVG Export Plug-In . SVG Version: 6.00 Build 0)  -->
<!DOCTYPE svg PUBLIC "-//W3C//DTD SVG 1.1//EN" "http://www.w3.org/Graphics/SVG/1.1/DTD/svg11.dtd">
<svg version="1.1" id="Layer_1" xmlns="http://www.w3.org/2000/svg" xmlns:xlink="http://www.w3.org/1999/xlink" x="0px" y="0px"
	 width="28.4px" height="46.701px" viewBox="-945 517.299 28.4 46.701" enable-background="new -945 517.299 28.4 46.701"
	 xml:space="preserve">
<g>
	<path fill="#FFFFFF" d="M-930.8,519c6.9,0,12.5,5.6,12.5,12.5v18.299c0,6.9-5.6,12.5-12.5,12.5s-12.5-5.6-12.5-12.5V531.5
		C-943.3,524.6-937.7,519-930.8,519 M-930.8,517.299c-7.8,0-14.2,6.4-14.2,14.201v18.299c0,7.801,6.4,14.201,14.2,14.201
		s14.2-6.4,14.2-14.201V531.5C-916.6,523.7-923,517.299-930.8,517.299L-930.8,517.299z"/>
	<path fill="#3ED8D2" d="M-930.8,519c-6.9,0-12.5,5.6-12.5,12.5v18.299c0,6.9,5.6,12.5,12.5,12.5s12.5-5.6,12.5-12.5V531.5
		C-918.3,524.6-923.9,519-930.8,519z"/>
</g>
</svg>
