<?xml version="1.0" encoding="utf-8"?>
<!-- Generator: Adobe Illustrator 16.0.0, SVG Export Plug-In . SVG Version: 6.00 Build 0)  -->
<!DOCTYPE svg PUBLIC "-//W3C//DTD SVG 1.1//EN" "http://www.w3.org/Graphics/SVG/1.1/DTD/svg11.dtd">
<svg version="1.1" id="Layer_1" xmlns="http://www.w3.org/2000/svg" xmlns:xlink="http://www.w3.org/1999/xlink" x="0px" y="0px"
	 width="28.4px" height="46.701px" viewBox="0 0 28.4 46.701" enable-background="new 0 0 28.4 46.701" xml:space="preserve">
<g>
	<path fill="#FFFFFF" d="M14.2,1.701c6.9,0,12.5,5.6,12.5,12.5V32.5c0,6.9-5.6,12.5-12.5,12.5S1.7,39.4,1.7,32.5V14.201
		C1.7,7.301,7.3,1.701,14.2,1.701 M14.2,0C6.4,0,0,6.4,0,14.201V32.5c0,7.801,6.4,14.201,14.2,14.201s14.2-6.4,14.2-14.201V14.201
		C28.4,6.401,22,0,14.2,0L14.2,0z"/>
	<path fill="#3ED8D2" d="M14.2,1.701c-6.9,0-12.5,5.6-12.5,12.5V32.5C1.7,39.4,7.3,45,14.2,45s12.5-5.6,12.5-12.5V14.201
		C26.7,7.301,21.1,1.701,14.2,1.701z"/>
</g>
</svg>
