<?xml version="1.0" encoding="utf-8"?>
<!-- Generator: Adobe Illustrator 16.0.0, SVG Export Plug-In . SVG Version: 6.00 Build 0)  -->
<!DOCTYPE svg PUBLIC "-//W3C//DTD SVG 1.1//EN" "http://www.w3.org/Graphics/SVG/1.1/DTD/svg11.dtd">
<svg version="1.1" id="Layer_1" xmlns="http://www.w3.org/2000/svg" xmlns:xlink="http://www.w3.org/1999/xlink" x="0px" y="0px"
	 width="286px" height="94px" viewBox="-816 494 286 94" enable-background="new -816 494 286 94" xml:space="preserve">
<g>
	<g>
		<g>
			<g>
				<path fill="#C1272D" d="M-769,586.5c-25.1,0-45.5-20.4-45.5-45.5s20.4-45.5,45.5-45.5s45.5,20.4,45.5,45.5
					S-743.9,586.5-769,586.5z"/>
				<g>
					<path fill="#CF2A32" d="M-769,497c24.3,0,44,19.7,44,44s-19.7,44-44,44s-44-19.7-44-44S-793.3,497-769,497 M-769,494
						c-26,0-47,21-47,47s21,47,47,47s47-21,47-47S-743,494-769,494L-769,494z"/>
				</g>
			</g>
			<circle fill="#E02D39" cx="-769" cy="541" r="27.3"/>
		</g>
	</g>
	<g>
		<g>
			<path fill="#3ED8D2" d="M-673,586.5c-25.1,0-45.5-20.4-45.5-45.5s20.4-45.5,45.5-45.5s45.5,20.4,45.5,45.5
				S-647.9,586.5-673,586.5z"/>
			<g>
				<path fill="#30D5CD" d="M-673,497c24.3,0,44,19.7,44,44s-19.7,44-44,44s-44-19.7-44-44S-697.3,497-673,497 M-673,494
					c-26,0-47,21-47,47s21,47,47,47s47-21,47-47S-647,494-673,494L-673,494z"/>
			</g>
		</g>
		<circle fill="#1FD2C6" cx="-673" cy="541" r="27.3"/>
		<g>
			<path d="M-690.9,527.5h4.6v22.4h13.4v4h-18V527.5z"/>
			<path d="M-664.1,538.8c2.8,0.101,5.7-0.899,5.7-4.1c0-2.2-1.7-3.7-4-3.7c-2.9,0-4.4,2.6-4.3,5.3h-4.2c0.2-5,3.4-8.8,8.6-8.8
				c4,0,8.2,2.3,8.2,6.9c0,2.6-1.1,4.699-3.7,5.5v0.1c3,0.6,4.7,3.1,4.7,6.5c0,4.9-4.3,7.9-9.2,7.9c-6,0-9-3.601-9.1-9h4.2
				c-0.1,3.1,1.6,5.5,4.9,5.5c2.8,0,5-1.7,5-4.601c0-4-3.4-4.5-6.8-4.399V538.8L-664.1,538.8z"/>
		</g>
	</g>
	<g>
		<g>
			<path fill="#3ED8D2" d="M-577,586.5c-25.1,0-45.5-20.4-45.5-45.5s20.4-45.5,45.5-45.5s45.5,20.4,45.5,45.5
				S-551.9,586.5-577,586.5z"/>
			<g>
				<path fill="#30D5CD" d="M-577,497c24.3,0,44,19.7,44,44s-19.7,44-44,44s-44-19.7-44-44S-601.3,497-577,497 M-577,494
					c-26,0-47,21-47,47s21,47,47,47s47-21,47-47S-551,494-577,494L-577,494z"/>
			</g>
		</g>
		<circle fill="#1FD2C6" cx="-577" cy="541" r="27.3"/>
		<g>
			<path d="M-597.3,527.5h12.6c5.8,0,8.7,2.7,8.7,7.1c0,5.101-3.5,6.4-4.4,6.7v0.101c1.6,0.199,3.9,1.399,3.9,5.6
				c0,3.1,0.4,5.9,1.4,7h-5c-0.7-1.1-0.7-2.6-0.7-3.9c0-4.8-1-7-5.3-7h-6.8V554h-4.6v-26.5H-597.3z M-592.7,539.6h7.6
				c3,0,4.5-1.399,4.5-4.199c0-3.4-2.2-4-4.6-4h-7.5V539.6z"/>
			<path d="M-565.7,538.8c2.8,0.101,5.7-0.899,5.7-4.1c0-2.2-1.7-3.7-4-3.7c-2.9,0-4.4,2.6-4.3,5.3h-4.2c0.2-5,3.4-8.8,8.6-8.8
				c4,0,8.2,2.3,8.2,6.9c0,2.6-1.1,4.699-3.7,5.5v0.1c3,0.6,4.7,3.1,4.7,6.5c0,4.9-4.3,7.9-9.2,7.9c-6,0-9-3.601-9.1-9h4.2
				c-0.1,3.1,1.6,5.5,4.9,5.5c2.8,0,5-1.7,5-4.601c0-4-3.4-4.5-6.8-4.399V538.8L-565.7,538.8z"/>
		</g>
	</g>
</g>
</svg>
