<?xml version="1.0" encoding="utf-8"?>
<!-- Generator: Adobe Illustrator 16.0.0, SVG Export Plug-In . SVG Version: 6.00 Build 0)  -->
<!DOCTYPE svg PUBLIC "-//W3C//DTD SVG 1.1//EN" "http://www.w3.org/Graphics/SVG/1.1/DTD/svg11.dtd">
<svg version="1.1" id="Layer_1" xmlns="http://www.w3.org/2000/svg" xmlns:xlink="http://www.w3.org/1999/xlink" x="0px" y="0px"
	 width="263.8px" height="151.201px" viewBox="-826.9 465.799 263.8 151.201" enable-background="new -826.9 465.799 263.8 151.201"
	 xml:space="preserve">
<pattern  x="-173.55" y="472.1" width="71" height="71" patternUnits="userSpaceOnUse" id="SVGID_1_" viewBox="0 -71 71 71" overflow="visible">
	<g>
		<polygon fill="none" points="0,0 71,0 71,-71 0,-71 		"/>
		<g>
			<polygon fill="none" points="0,0 71,0 71,-71 0,-71 			"/>
			<path fill="#4C4C4C" d="M41.8-35.5c0-3.5-2.8-6.3-6.3-6.3s-6.3,2.8-6.3,6.3s2.8,6.3,6.3,6.3S41.8-32,41.8-35.5z"/>
		</g>
	</g>
</pattern>
<g>
	<path fill="#EDEDED" d="M-563.2,471.401c-0.399-3.201-3.3-5.602-6.5-5.602l0,0H-695l0,0h-125.3l0,0c-3.2,0-6.1,2.301-6.5,5.602
		c-0.1,0.699-0.1,1.398-0.1,2.1v127.4c0,8.898,7.199,16.1,16.1,16.1H-695l0,0h115.8c8.9,0,16.101-7.201,16.101-16.1V473.5
		C-563.1,472.7-563.1,472-563.2,471.401z"/>
	<g>
		<path fill="#F7F7F7" d="M-567.6,467.7c0-1-0.8-1.9-1.9-1.9H-695l0,0h-125.6c-1,0-1.9,0.801-1.9,1.9v6v123.201
			c0,8.6,7,15.6,15.601,15.6H-695l0,0h111.9c8.6,0,15.6-7,15.6-15.6V473.7L-567.6,467.7z"/>
		<g opacity="0.12">
			
				<pattern  id="SVGID_2_" xlink:href="#SVGID_1_" patternTransform="matrix(0.1017 0 0 -0.1017 -15589.2041 -1838.8638)"  opacity="0.12">
			</pattern>
			<path fill="url(#SVGID_2_)" d="M-822.5,596.901c0,8.6,7,15.6,15.601,15.6H-695l0,0h111.9c8.6,0,15.6-7,15.6-15.6V490.299H-822.4
				v106.602H-822.5z"/>
		</g>
	</g>
</g>
</svg>
