<?xml version="1.0" encoding="utf-8"?>
<!-- Generator: Adobe Illustrator 16.0.0, SVG Export Plug-In . SVG Version: 6.00 Build 0)  -->
<!DOCTYPE svg PUBLIC "-//W3C//DTD SVG 1.1//EN" "http://www.w3.org/Graphics/SVG/1.1/DTD/svg11.dtd">
<svg version="1.1" id="Layer_1" xmlns="http://www.w3.org/2000/svg" xmlns:xlink="http://www.w3.org/1999/xlink" x="0px" y="0px"
	 width="263.8px" height="151.201px" viewBox="0 0 263.8 151.201" enable-background="new 0 0 263.8 151.201" xml:space="preserve">
<pattern  x="-173.6" y="472.101" width="71" height="71" patternUnits="userSpaceOnUse" id="SVGID_2_" viewBox="0 -71 71 71" overflow="visible">
	<g>
		<polygon fill="none" points="0,0 71,0 71,-71 0,-71 		"/>
		<g>
			<polygon fill="none" points="0,-71 71,-71 71,0 0,0 			"/>
			<g>
				<polygon fill="none" points="0,-71 71,-71 71,0 0,0 				"/>
				<path fill="#4C4C4C" d="M41.8-35.5c0,3.5-2.8,6.3-6.3,6.3s-6.3-2.8-6.3-6.3s2.8-6.3,6.3-6.3S41.8-39,41.8-35.5z"/>
			</g>
		</g>
	</g>
</pattern>
<g>
	<path fill="#EDEDED" d="M263.7,5.603C263.3,2.401,260.4,0,257.2,0l0,0H131.9l0,0H6.6l0,0C3.4,0,0.5,2.301,0.1,5.603
		C0,6.301,0,7,0,7.702v127.4c0,8.897,7.199,16.1,16.1,16.1h115.8l0,0h115.8c8.9,0,16.101-7.201,16.101-16.1V7.701
		C263.8,6.901,263.8,6.201,263.7,5.603z"/>
	<g>
		<path fill="#F7F7F7" d="M259.3,1.901c0-1-0.801-1.9-1.9-1.9H131.9l0,0H6.3c-1,0-1.9,0.801-1.9,1.9v6v123.201
			c0,8.6,7,15.6,15.601,15.6H131.9l0,0h111.9c8.6,0,15.6-7,15.6-15.6V7.901L259.3,1.901z"/>
		<g opacity="0.12">
			
				<pattern  id="SVGID_1_" xlink:href="#SVGID_2_" patternTransform="matrix(0.1017 0 0 0.1017 -22676.0586 -5948.4336)"  opacity="0.12">
			</pattern>
			<path fill="url(#SVGID_1_)" d="M4.4,131.103c0,8.6,7,15.6,15.601,15.6H131.9l0,0h111.9c8.6,0,15.6-7,15.6-15.6V24.5H4.5v106.603
				H4.4z"/>
		</g>
	</g>
</g>
</svg>
