<?xml version="1.0" encoding="utf-8"?>
<!-- Generator: Adobe Illustrator 16.0.0, SVG Export Plug-In . SVG Version: 6.00 Build 0)  -->
<!DOCTYPE svg PUBLIC "-//W3C//DTD SVG 1.1//EN" "http://www.w3.org/Graphics/SVG/1.1/DTD/svg11.dtd">
<svg version="1.1" id="Layer_1" xmlns="http://www.w3.org/2000/svg" xmlns:xlink="http://www.w3.org/1999/xlink" x="0px" y="0px"
	 width="200.1px" height="90.799px" viewBox="0 0 200.1 90.799" enable-background="new 0 0 200.1 90.799" xml:space="preserve">
<g>
	<g>
		<path fill="#3ED8D2" d="M200,90.799c0,0-32.699-3.199-50.601-3.199c-17.899,0-48.3,2.4-48.3,2.4s3.101-44.701,4.8-52
			c1.601-7.301,7.7-21.301,16.9-27.9c9.199-6.701,12-10.1,22.8-10.1s25.399,6.397,34.601,21.397
			C189.301,36.397,200,90.799,200,90.799z"/>
		<path fill="#61E0DF" d="M101.601,83.199c0,0,26.101-4.4,49-4.4c22.8,0,47.899,4.4,47.899,4.4c1,4.698,1.601,7.6,1.601,7.6
			S167.401,87.6,149.5,87.6c-17.899,0-48.3,2.4-48.3,2.4S101.2,87.299,101.601,83.199z"/>
	</g>
</g>
<g>
	<g>
		<path fill="#3ED8D2" d="M0.101,90.799c0,0,32.7-3.199,50.601-3.199c17.899,0,48.3,2.4,48.3,2.4s-3.101-44.701-4.8-52
			c-1.601-7.301-7.7-21.301-16.899-27.9c-9.2-6.599-12-10.1-22.801-10.1c-10.8,0-25.399,6.397-34.601,21.397
			C10.801,36.397,0.101,90.799,0.101,90.799z"/>
		<path fill="#61E0DF" d="M98.5,83.199c0,0-26.101-4.4-49-4.4c-22.8,0-47.899,4.4-47.899,4.4c-1,4.698-1.601,7.6-1.601,7.6
			S32.7,87.6,50.601,87.6c17.899,0,48.3,2.4,48.3,2.4S98.901,87.299,98.5,83.199z"/>
	</g>
</g>
</svg>
