<?xml version="1.0" encoding="utf-8"?>
<!-- Generator: Adobe Illustrator 16.0.0, SVG Export Plug-In . SVG Version: 6.00 Build 0)  -->
<!DOCTYPE svg PUBLIC "-//W3C//DTD SVG 1.1//EN" "http://www.w3.org/Graphics/SVG/1.1/DTD/svg11.dtd">
<svg version="1.1" id="Layer_1" xmlns="http://www.w3.org/2000/svg" xmlns:xlink="http://www.w3.org/1999/xlink" x="0px" y="0px"
	 width="195.574px" height="96.744px" viewBox="0 0 195.574 96.744" enable-background="new 0 0 195.574 96.744"
	 xml:space="preserve">
<g id="A_2_">
	<path fill="#FFFFFF" d="M23.688,49.376c13.1,0,23.705,10.605,23.705,23.682c0,13.077-10.605,23.685-23.705,23.685
		C10.606,96.74,0,86.135,0,73.058C0,59.981,10.606,49.376,23.688,49.376z"/>
</g>
<g id="B_2_">
	<path fill="#FFFFFF" d="M73.084,49.374c13.097,0,23.703,10.609,23.703,23.688c0,13.076-10.606,23.684-23.703,23.684
		c-13.085,0-23.69-10.605-23.69-23.686C49.394,59.983,59.999,49.374,73.084,49.374z"/>
</g>
<g id="Y_2_">
	<path fill="#FFFFFF" d="M171.869,49.372c13.1,0,23.705,10.613,23.705,23.689c0,13.078-10.605,23.683-23.705,23.683
		c-13.082,0-23.688-10.604-23.688-23.683C148.182,59.985,158.787,49.372,171.869,49.372z"/>
</g>
<g id="X_2_">
	<path fill="#FFFFFF" d="M122.471,49.374c13.104,0,23.711,10.609,23.711,23.688c0,13.076-10.604,23.685-23.711,23.685
		c-13.076,0-23.684-10.604-23.684-23.685C98.787,59.983,109.395,49.374,122.471,49.374z"/>
</g>
</svg>
