<?xml version="1.0" encoding="utf-8"?>
<!-- Generator: Adobe Illustrator 16.0.0, SVG Export Plug-In . SVG Version: 6.00 Build 0)  -->
<!DOCTYPE svg PUBLIC "-//W3C//DTD SVG 1.1//EN" "http://www.w3.org/Graphics/SVG/1.1/DTD/svg11.dtd">
<svg version="1.1" id="图层_1" xmlns="http://www.w3.org/2000/svg" xmlns:xlink="http://www.w3.org/1999/xlink" x="0px" y="0px"
	 width="88.317px" height="85.763px" viewBox="0 0 88.317 85.763" enable-background="new 0 0 88.317 85.763" xml:space="preserve">
<path fill="#FFFFFF" d="M26.197,0.001H7.109c0,0-2.79-0.144-4.586,3.354C0.728,6.853-1.885,21.092,2.064,32.343
	c0,0,1.515,3.806,5.045,3.806s19.088,0,19.088,0s2.667,0.127,4.772-1.979c2.105-2.106,12.01-12.004,12.01-12.004
	s1.693-1.016,1.693-4.088s-1.693-4.094-1.693-4.094L30.97,1.97C30.97,1.97,29.332,0.001,26.197,0.001z"/>
<path fill="#FFFFFF" d="M51.926,26.197V7.109c0,0-0.144-2.79,3.354-4.586s17.737-4.408,28.988-0.459c0,0,3.806,1.515,3.806,5.045
	s0,19.088,0,19.088s0.127,2.667-1.979,4.772S74.09,42.979,74.09,42.979s-1.015,1.693-4.087,1.693s-4.094-1.693-4.094-1.693
	L53.894,30.97C53.894,30.97,51.926,29.332,51.926,26.197z"/>
<path fill="#FFFFFF" d="M0.001,59.566v19.088c0,0-0.144,2.79,3.354,4.586s17.737,4.408,28.988,0.459c0,0,3.806-1.515,3.806-5.045
	s0-19.088,0-19.088s0.127-2.667-1.979-4.772s-12.004-12.01-12.004-12.01s-1.015-1.693-4.087-1.693s-4.094,1.693-4.094,1.693
	L1.969,54.793C1.969,54.793,0.001,56.431,0.001,59.566z"/>
<path fill="#FFFFFF" d="M62.12,49.614h19.088c0,0,2.79-0.144,4.586,3.354c1.796,3.498,4.408,17.737,0.459,28.988
	c0,0-1.515,3.806-5.045,3.806s-19.088,0-19.088,0s-2.667,0.127-4.772-1.979c-2.105-2.106-12.01-12.004-12.01-12.004
	s-1.693-1.016-1.693-4.088s1.693-4.094,1.693-4.094l12.01-12.015C57.347,51.583,58.985,49.614,62.12,49.614z"/>
</svg>
