<?xml version="1.0" encoding="utf-8"?>
<!-- Generator: Adobe Illustrator 16.0.0, SVG Export Plug-In . SVG Version: 6.00 Build 0)  -->
<!DOCTYPE svg PUBLIC "-//W3C//DTD SVG 1.1//EN" "http://www.w3.org/Graphics/SVG/1.1/DTD/svg11.dtd">
<svg version="1.1" id="图层_1" xmlns="http://www.w3.org/2000/svg" xmlns:xlink="http://www.w3.org/1999/xlink" x="0px" y="0px"
	 width="10.426px" height="32.01px" viewBox="0 0 10.426 32.01" enable-background="new 0 0 10.426 32.01" xml:space="preserve">
<path fill="#FFFFFF" d="M10.426,1.519c0,0.839-0.389,1.519-0.869,1.519H0.87C0.389,3.037,0,2.357,0,1.519l0,0C0,0.68,0.389,0,0.87,0
	h8.687C10.038,0,10.426,0.68,10.426,1.519L10.426,1.519z"/>
<path d="M10.426,11.012c0,0.84-0.389,1.52-0.869,1.52H0.87c-0.481,0-0.87-0.68-0.87-1.52l0,0c0-0.838,0.389-1.518,0.87-1.518h8.687
	C10.038,9.494,10.426,10.174,10.426,11.012L10.426,11.012z"/>
<path d="M10.426,20.535c0,0.84-0.389,1.52-0.869,1.52H0.87c-0.481,0-0.87-0.68-0.87-1.52l0,0c0-0.838,0.389-1.519,0.87-1.519h8.687
	C10.038,19.017,10.426,19.697,10.426,20.535L10.426,20.535z"/>
<path d="M10.426,30.491c0,0.84-0.389,1.519-0.869,1.519H0.87C0.389,32.01,0,31.331,0,30.491l0,0c0-0.839,0.389-1.519,0.87-1.519
	h8.687C10.038,28.973,10.426,29.652,10.426,30.491L10.426,30.491z"/>
</svg>
